<svg xmlns="http://www.w3.org/2000/svg" width="265.881" height="220.623" viewBox="0 0 265.881 220.623">
  <g id="Group_48" data-name="Group 48" transform="translate(-226 -1328.377)">
    <g id="Group_25" data-name="Group 25" transform="translate(-6930 554.561)">
      <path id="Path_267" data-name="Path 267" d="M296.933,210.621q-.484,2.548-1.162,5.043c-.049.193-.1.384-.159.577h-6.283a2.021,2.021,0,0,0-2.019,2.018v17.913c-.19.355-.384.706-.577,1.058-1,1.817-2.036,3.613-3.1,5.387a204.775,204.775,0,0,1-70.27,70.23l1.707-3.852-1.88-.13c-13.625-.931-27.3-1.964-40.6-5.026-13.919-3.2-27.535-8.76-38.444-17.973s-18.911-22.377-20.021-36.616a41.778,41.778,0,0,1,1.462-14.536c2.558-9.089,8.146-17.267,16.209-22.106,12.665-7.6,29.185-6.05,42.536.271s24.213,16.777,34.822,27.054a134.5,134.5,0,0,0-43.516-45.422c-5.929-3.795-12.221-7.174-17.261-12.091s-8.755-11.8-7.864-18.784c1.012-7.918,7.5-13.928,13.994-18.562,2.6-1.851,5.274-3.607,8.037-5.222a69.589,69.589,0,0,1,25.13-9.291c12.062-1.733,25.09.9,34.338,8.832,10.418,8.942,14.692,23.363,14.285,37.158,6.419-9.331,16.318-16.474,27.5-16.777,11.606-.311,22.639,7.022,28.452,17.074S299.1,199.217,296.933,210.621Z" transform="translate(7074.991 643.764)" fill="rgba(255,255,255,0.09)"/>
      <path id="Path_268" data-name="Path 268" d="M492.534,333A103.33,103.33,0,0,0,512.2,329.84c6.385-1.807,12.529-4.831,17.075-9.77,4.889-5.312,7.528-12.211,9.39-19.078,1.038-3.829,1.891-7.711,2.7-11.595q1.31-6.321,2.328-12.7,2.026-12.693,2.893-25.535.1-1.559.192-3.119c.036-.642-.962-.639-1,0q-.712,12.659-2.562,25.219c-1.217,8.227-2.774,16.418-4.75,24.5-1.674,6.845-3.841,13.8-8.133,19.494-4.025,5.343-9.839,8.835-16.117,10.922-6.388,2.124-13.123,2.972-19.8,3.6-.819.077-1.061.151-1.881.223-.635.056-.641,1.054,0,1Z" transform="translate(6805.957 560.137)" fill="rgba(255,255,255,0.09)"/>
      <path id="Path_269" data-name="Path 269" d="M120.3,493.1a108.139,108.139,0,0,1,25.289,4.456A109.289,109.289,0,0,1,169.145,507.8a106.624,106.624,0,0,1,19.833,14.933,109.251,109.251,0,0,1,15.493,18.473A108.163,108.163,0,0,1,215.557,562.7q.527,1.387,1.015,2.789c.21.6,1.174.343.962-.265A109.186,109.186,0,0,0,206.943,543.2a110.606,110.606,0,0,0-15.2-19.145,107.837,107.837,0,0,0-19.4-15.483,110.129,110.129,0,0,0-48.9-16.256q-1.57-.132-3.144-.217c-.642-.035-.64.963,0,1Z" transform="translate(7070.853 386.118)" fill="rgba(255,255,255,0.09)"/>
      <path id="Path_270" data-name="Path 270" d="M282.409,165.657a58.767,58.767,0,0,1,15.427,7.539,72.449,72.449,0,0,1,13.17,11.7,96.959,96.959,0,0,1,10.906,15.03,128.223,128.223,0,0,1,8.671,17.629,159.513,159.513,0,0,1,6.315,19.174,180.274,180.274,0,0,1,5.776,40.181,159.6,159.6,0,0,1-.571,19.327,123.109,123.109,0,0,1-2.9,17.793,84.078,84.078,0,0,1-5.235,15.386q-.778,1.684-1.65,3.322c-.3.566.559,1.071.862.5a76.909,76.909,0,0,0,5.892-14.83,114.847,114.847,0,0,0,3.514-17.445,151.788,151.788,0,0,0,1.161-19.288,176.972,176.972,0,0,0-1.208-20.268,182.563,182.563,0,0,0-3.515-20.252,165.253,165.253,0,0,0-5.877-19.724,137.234,137.234,0,0,0-8.173-18.151,105.218,105.218,0,0,0-10.479-15.817,78.024,78.024,0,0,0-12.8-12.687,61.907,61.907,0,0,0-15.013-8.66q-1.974-.786-4-1.421c-.614-.193-.877.77-.265.962Z" transform="translate(6955.398 619.129)" fill="rgba(255,255,255,0.09)"/>
      <ellipse id="Ellipse_77" data-name="Ellipse 77" cx="71.369" cy="2.884" rx="71.369" ry="2.884" transform="translate(7225.619 952.568)" fill="rgba(255,255,255,0.09)"/>
    </g>
    <g id="Group_16" data-name="Group 16" transform="translate(-156 211.35)">
      <path id="Path_27" data-name="Path 27" d="M563.917,235.8H548.1a3.5,3.5,0,0,1-3.494-3.494V216.494A3.5,3.5,0,0,1,548.1,213h15.813a3.5,3.5,0,0,1,3.494,3.494v15.813A3.5,3.5,0,0,1,563.917,235.8ZM548.1,213.735a2.761,2.761,0,0,0-2.758,2.758v15.813a2.761,2.761,0,0,0,2.758,2.758h15.813a2.761,2.761,0,0,0,2.758-2.758V216.494a2.761,2.761,0,0,0-2.758-2.758Z" transform="translate(-50.039 950.337)" fill="rgba(255,255,255,0.53)"/>
      <path id="Path_28" data-name="Path 28" d="M570.275,238.974h-9.561a1.1,1.1,0,0,1-1.1-1.1V226.1a1.1,1.1,0,0,1,1.1-1.1h6.928a1.106,1.106,0,0,1,.691.243l2.633,2.116a1.1,1.1,0,0,1,.412.86v9.652a1.1,1.1,0,0,1-1.1,1.1Zm-9.561-13.239a.368.368,0,0,0-.368.368v11.768a.368.368,0,0,0,.368.368h9.561a.368.368,0,0,0,.368-.368v-9.652a.366.366,0,0,0-.137-.287l-2.634-2.116a.368.368,0,0,0-.23-.081Z" transform="translate(-59.523 942.75)" fill="rgba(255,255,255,0.53)"/>
      <path id="Path_29" data-name="Path 29" d="M572.862,237.735h-5.884a.368.368,0,1,1,0-.735h5.884a.368.368,0,1,1,0,.735Z" transform="translate(-63.948 935.163)" fill="rgba(255,255,255,0.53)"/>
      <path id="Path_30" data-name="Path 30" d="M572.862,243.736h-5.884a.368.368,0,1,1,0-.736h5.884a.368.368,0,0,1,0,.736Z" transform="translate(-63.948 931.37)" fill="rgba(255,255,255,0.53)"/>
      <path id="Path_31" data-name="Path 31" d="M572.862,249.735h-5.884a.368.368,0,1,1,0-.736h5.884a.368.368,0,0,1,0,.736Z" transform="translate(-63.948 927.576)" fill="rgba(255,255,255,0.53)"/>
      <path id="Path_32" data-name="Path 32" d="M665.917,235.8H650.1a3.5,3.5,0,0,1-3.494-3.494V216.494A3.5,3.5,0,0,1,650.1,213h15.813a3.5,3.5,0,0,1,3.494,3.494v15.813A3.5,3.5,0,0,1,665.917,235.8ZM650.1,213.735a2.761,2.761,0,0,0-2.758,2.758v15.813a2.761,2.761,0,0,0,2.758,2.758h15.813a2.761,2.761,0,0,0,2.758-2.758V216.494a2.761,2.761,0,0,0-2.758-2.758Z" transform="translate(-114.529 950.337)" fill="rgba(255,255,255,0.53)"/>
      <path id="Path_33" data-name="Path 33" d="M672.01,241.09h-10.3a1.1,1.1,0,0,1-1.1-1.1V234.1a1.1,1.1,0,0,1,1.1-1.1h10.3a1.1,1.1,0,0,1,1.1,1.1v5.884a1.1,1.1,0,0,1-1.1,1.1Zm-10.3-7.355a.368.368,0,0,0-.368.368v5.884a.368.368,0,0,0,.368.368h10.3a.368.368,0,0,0,.368-.368V234.1a.368.368,0,0,0-.368-.368Z" transform="translate(-123.38 937.692)" fill="rgba(255,255,255,0.53)"/>
      <path id="Path_34" data-name="Path 34" d="M666.862,239.28a1.1,1.1,0,0,1-.585-.166l-5.494-3.434a.368.368,0,1,1,.39-.624l5.494,3.434a.37.37,0,0,0,.39,0l5.494-3.434a.368.368,0,0,1,.39.624l-5.494,3.434a1.1,1.1,0,0,1-.585.166Z" transform="translate(-123.38 936.428)" fill="rgba(255,255,255,0.53)"/>
      <path id="Path_35" data-name="Path 35" d="M461.917,235.8H446.1a3.5,3.5,0,0,1-3.494-3.494V216.494A3.5,3.5,0,0,1,446.1,213h15.813a3.5,3.5,0,0,1,3.494,3.494v15.813A3.5,3.5,0,0,1,461.917,235.8ZM446.1,213.735a2.761,2.761,0,0,0-2.758,2.758v15.813a2.761,2.761,0,0,0,2.758,2.758h15.813a2.761,2.761,0,0,0,2.758-2.758V216.494a2.761,2.761,0,0,0-2.758-2.758Z" transform="translate(14.451 950.337)" fill="rgba(255,255,255,0.53)"/>
      <path id="Path_36" data-name="Path 36" d="M468.01,241.09h-10.3a1.1,1.1,0,0,1-1.1-1.1V234.1a1.1,1.1,0,0,1,1.1-1.1h10.3a1.1,1.1,0,0,1,1.1,1.1v5.884a1.1,1.1,0,0,1-1.1,1.1Zm-10.3-7.355a.368.368,0,0,0-.368.368v5.884a.368.368,0,0,0,.368.368h10.3a.368.368,0,0,0,.368-.368V234.1a.368.368,0,0,0-.368-.368Z" transform="translate(5.599 937.692)" fill="rgba(255,255,255,0.53)"/>
      <path id="Path_37" data-name="Path 37" d="M469.184,245.832h-7.4a.735.735,0,0,1-.637-1.1l2.229-3.861a.736.736,0,0,1,1.274,0l1.44,2.494.834-1.445a.736.736,0,0,1,1.274,0l1.624,2.812a.735.735,0,0,1-.637,1.1Zm0-.735h0l-1.624-2.812-1.152,2a.368.368,0,0,1-.319.184h0a.368.368,0,0,1-.319-.184l-1.758-3.045-2.229,3.861Z" transform="translate(2.794 932.951)" fill="rgba(255,255,255,0.53)"/>
      <circle id="Ellipse_29" data-name="Ellipse 29" cx="0.735" cy="0.735" r="0.735" transform="translate(471.771 1172.163)" fill="rgba(255,255,255,0.53)"/>
      <path id="Path_38" data-name="Path 38" d="M433.917,329.8H418.1a3.5,3.5,0,0,1-3.494-3.494V310.494A3.5,3.5,0,0,1,418.1,307h15.813a3.5,3.5,0,0,1,3.494,3.494v15.813A3.5,3.5,0,0,1,433.917,329.8ZM418.1,307.736a2.761,2.761,0,0,0-2.758,2.758v15.813a2.761,2.761,0,0,0,2.758,2.758h15.813a2.761,2.761,0,0,0,2.758-2.758V310.494a2.761,2.761,0,0,0-2.758-2.758Z" transform="translate(32.154 890.906)" fill="#929292"/>
      <path id="Path_39" data-name="Path 39" d="M440.01,334.429h-10.3a1.1,1.1,0,0,1-1.1-1.1V325.6a1.1,1.1,0,0,1,1.1-1.1h2.9a1.1,1.1,0,0,1,.94.525l.808,1.314h5.65a1.1,1.1,0,0,1,1.1,1.1v5.884a1.1,1.1,0,0,1-1.1,1.1Z" transform="translate(23.302 879.841)" fill="#b9a2e6"/>
      <circle id="Ellipse_30" data-name="Ellipse 30" cx="8.521" cy="8.521" r="8.521" transform="translate(410.682 1206.01)" fill="#ffb8b8"/>
      <path id="Path_40" data-name="Path 40" d="M302.2,428.377q-.161,0-.323-.014a3.817,3.817,0,0,1-3.426-4.551,3.585,3.585,0,0,1,.094-.363l-12.577-14.874a2.965,2.965,0,0,1-.206-3.533l.023-.028L297.1,393.851a3.272,3.272,0,1,1,4.552,4.7l-8.2,7.795,8.976,14.406a3.641,3.641,0,0,1,.506.062,3.817,3.817,0,0,1-.74,7.561Z" transform="translate(113.928 836.576)" fill="#ffb8b8"/>
      <path id="Path_41" data-name="Path 41" d="M139.327,433.494h4.254l2.023-16.406h-6.278Z" transform="translate(293.911 899.632)" fill="#ffb8b8"/>
      <path id="Path_42" data-name="Path 42" d="M374.878,670.924h8.377a5.338,5.338,0,0,1,5.338,5.338v.173H374.878Z" transform="translate(57.275 660.814)" fill="#2f2e41"/>
      <path id="Path_43" data-name="Path 43" d="M24.366,421.474l3.655,2.176,10.133-13.061-5.394-3.212Z" transform="translate(366.595 905.772)" fill="#ffb8b8"/>
      <path id="Path_44" data-name="Path 44" d="M257.415,653.956l7.2,4.285h0a5.338,5.338,0,0,1,1.856,7.318l-.089.149L254.6,658.692Z" transform="translate(133.324 671.542)" fill="#2f2e41"/>
      <path id="Path_45" data-name="Path 45" d="M314.539,524.447h-4.763a1.558,1.558,0,0,1-1.552-1.4l-4.8-45.136a.521.521,0,0,0-.992-.159l-8.662,19.181-15.336,25.008a1.569,1.569,0,0,1-1.96.612l-6.127-2.7a1.562,1.562,0,0,1-.712-2.23l14.1-23.606,4.324-19.89c-1.36-8.626,4.47-21.449,4.529-21.578l.029-.063,16.059-6.276.081.1c6.333,20.783,10.192,43.148,7.343,76.7A1.572,1.572,0,0,1,314.539,524.447Z" transform="translate(123.955 802.885)" fill="#6d6d6d"/>
      <path id="Path_46" data-name="Path 46" d="M318.6,414.766l-.075-.157c-.036-.075-3.607-7.606-6.359-15.656a11.872,11.872,0,0,1,.823-9.515,12,12,0,0,1,7.654-5.886h0a12.017,12.017,0,0,1,13.948,7.2c2.183,5.46,1.488,11.288.833,15.871l-.013.092-.083.04Z" transform="translate(97.326 842.716)" fill="#b9a2e6"/>
      <path id="Path_47" data-name="Path 47" d="M344.5,326.765H330.966v-5.9c2.97-1.18,5.876-2.183,7.633,0a5.9,5.9,0,0,1,5.9,5.9Z" transform="translate(85.038 882.952)" fill="#2f2e41"/>
      <path id="Path_48" data-name="Path 48" d="M311.129,320.252c-8.089,0-10.353,10.139-10.353,15.859,0,3.19,1.443,4.331,3.71,4.717l.8-4.27,1.875,4.454c.637,0,1.306-.009,2-.022l.636-1.309,1.418,1.286c5.678.008,10.268.836,10.268-4.855C321.482,330.391,319.5,320.252,311.129,320.252Z" transform="translate(104.126 882.527)" fill="#2f2e41"/>
      <path id="Path_49" data-name="Path 49" d="M374.85,347.7q.077.141.143.291a3.817,3.817,0,0,1-2.351,5.188,3.572,3.572,0,0,1-.363.092l-7.024,18.169a2.965,2.965,0,0,1-3,1.875l-.035-.007-15.223-4.583a3.272,3.272,0,1,1,1.944-6.249l10.771,3.458,8.339-14.784a3.628,3.628,0,0,1-.188-.474,3.817,3.817,0,0,1,6.99-2.976Z" transform="translate(76.359 866.424)" fill="#ffb8b8"/>
      <path id="Path_50" data-name="Path 50" d="M691.917,329.8H676.1a3.5,3.5,0,0,1-3.494-3.494V310.494A3.5,3.5,0,0,1,676.1,307h15.813a3.5,3.5,0,0,1,3.494,3.494v15.813A3.5,3.5,0,0,1,691.917,329.8ZM676.1,307.736a2.761,2.761,0,0,0-2.758,2.758v15.813a2.761,2.761,0,0,0,2.758,2.758h15.813a2.761,2.761,0,0,0,2.758-2.758V310.494a2.761,2.761,0,0,0-2.758-2.758Z" transform="translate(-130.967 890.906)" fill="#929292"/>
      <path id="Path_51" data-name="Path 51" d="M697.92,327.12a3.31,3.31,0,1,1,3.31-3.31A3.31,3.31,0,0,1,697.92,327.12Z" transform="translate(-144.877 882.37)" fill="#b9a2e6"/>
      <path id="Path_52" data-name="Path 52" d="M698.747,346.016h-6.609a1.375,1.375,0,0,1-1.446-1.287,4.782,4.782,0,0,1,9.5,0A1.375,1.375,0,0,1,698.747,346.016Z" transform="translate(-142.4 869.725)" fill="#b9a2e6"/>
      <path id="Path_53" data-name="Path 53" d="M589.618,431.63H585.11l-2.145-17.39h6.654Z" transform="translate(13.419 901.433)" fill="#a0616a"/>
      <path id="Path_54" data-name="Path 54" d="M570.628,458.025h8.695V463.5H565.154A5.475,5.475,0,0,1,570.628,458.025Z" transform="translate(24.68 873.75)" fill="#2f2e41"/>
      <path id="Path_55" data-name="Path 55" d="M662.209,405.537l-3.331,3.039-13.305-11.4,4.916-4.485Z" transform="translate(-26.165 915.058)" fill="#a0616a"/>
      <path id="Path_56" data-name="Path 56" d="M5.475,0H14.17V5.475H0A5.475,5.475,0,0,1,5.475,0Z" transform="matrix(0.739, -0.674, 0.674, 0.739, 625.419, 1328.543)" fill="#2f2e41"/>
      <path id="Path_57" data-name="Path 57" d="M817.659,551.273a1.645,1.645,0,0,1-1.634-1.418L812.1,522.683a15.776,15.776,0,0,1-.055-4.09l3.829-32.72,24.454,2.053-3.691,31,13.962,17.409a1.651,1.651,0,0,1-.2,2.283l-3.515,3.062a1.655,1.655,0,0,1-2.345-.173L831.3,526.029a20.792,20.792,0,0,1-4.31-8.3l-1.889-7.366a.552.552,0,0,0-1.056-.043l-2.5,7.216,1.58,31.785a1.658,1.658,0,0,1-1.561,1.734l-3.815.212Z" transform="translate(-219.055 777.813)" fill="#6d6d6d"/>
      <circle id="Ellipse_31" data-name="Ellipse 31" cx="9.032" cy="9.032" r="9.032" transform="translate(603.161 1201.407)" fill="#a0616a"/>
      <path id="Path_58" data-name="Path 58" d="M721.241,360.639a3.7,3.7,0,0,0,5.443,1.588l11.843,7.175-.92-6.068-10.024-6.478a3.718,3.718,0,0,0-6.342,3.783Z" transform="translate(-161.51 860.301)" fill="#a0616a"/>
      <path id="Path_59" data-name="Path 59" d="M836.23,420.39h0a29.584,29.584,0,0,1-14.838-4.424,1.836,1.836,0,0,1-.8-2.23l4.7-12.653-1.068-14.909a12.939,12.939,0,0,1,6.441-12.264,11.619,11.619,0,0,1,10.136-.6,12.494,12.494,0,0,1,7.2,8.2l1.507,5.244a32.174,32.174,0,0,1-.6,19.528l-4.367,12.261-.113.068A17.243,17.243,0,0,1,836.23,420.39Z" transform="translate(-224.457 849.541)" fill="#deae7e"/>
      <path id="Path_60" data-name="Path 60" d="M738.316,370.49a1.837,1.837,0,0,1,.02-2.064l2.289-3.305a1.842,1.842,0,0,1,2.36-.585l16.972,8.826,18.726-1.877a5.2,5.2,0,1,1,.571,10.375l-17.462.177a10.741,10.741,0,0,1-5.262-1.32l-17.565-9.633A1.847,1.847,0,0,1,738.316,370.49Z" transform="translate(-172.316 854.659)" fill="#deae7e"/>
      <path id="Path_61" data-name="Path 61" d="M875.24,494.22a3.7,3.7,0,0,0,.17-5.668l4.411-12.141-6.082,1.291-3.753,11.33a3.718,3.718,0,0,0,5.254,5.188Z" transform="translate(-255.264 783.795)" fill="#a0616a"/>
      <path id="Path_62" data-name="Path 62" d="M876.062,424.94a1.826,1.826,0,0,1-.632-.112l-3.774-1.385a1.842,1.842,0,0,1-1.159-2.138l4.281-18.645-6.52-17.654a5.2,5.2,0,1,1,9.9-3.159l4.557,16.858a10.74,10.74,0,0,1,.044,5.425l-4.912,19.422a1.838,1.838,0,0,1-1.783,1.388Z" transform="translate(-254.466 846.013)" fill="#deae7e"/>
      <path id="Path_63" data-name="Path 63" d="M849.889,325.7c.458-1.9.684-2.968,1.138-4.869a3.043,3.043,0,0,0-1.764-3.173,10.246,10.246,0,0,0-3.769-.789,6.6,6.6,0,0,1-3.636-1.177,4.287,4.287,0,0,1-1.068-4.8,5.463,5.463,0,0,1,3.926-3.139,7.8,7.8,0,0,1,5.048.777,3.555,3.555,0,0,1,3.873-1.8,9.589,9.589,0,0,1,4.047,2.091c2.281,1.722,4.622,3.81,5.129,6.65.489,2.742-.9,5.509-2.762,7.559a16.726,16.726,0,0,1-9.665,5.245A3.424,3.424,0,0,1,849.889,325.7Z" transform="translate(-237.099 891.108)"/>
      <path id="Path_64" data-name="Path 64" d="M838.475,685.735H767.868a.368.368,0,0,1,0-.735h70.607a.368.368,0,1,1,0,.735Z" transform="translate(-190.962 651.914)"/>
      <path id="Path_65" data-name="Path 65" d="M309.475,685.735H238.868a.368.368,0,1,1,0-.735h70.607a.368.368,0,0,1,0,.735Z" transform="translate(143.5 651.914)"/>
    </g>
  </g>
</svg>
