<svg xmlns="http://www.w3.org/2000/svg" xmlns:xlink="http://www.w3.org/1999/xlink" width="364.884" height="199.52" viewBox="0 0 364.884 199.52">
  <defs>
    <linearGradient id="linear-gradient" x1="0.5" y1="1" x2="0.5" gradientUnits="objectBoundingBox">
      <stop offset="0" stop-color="gray" stop-opacity="0.251"/>
      <stop offset="0.54" stop-color="gray" stop-opacity="0.122"/>
      <stop offset="1" stop-color="gray" stop-opacity="0.102"/>
    </linearGradient>
    <linearGradient id="linear-gradient-2" x1="0.63" y1="0.974" x2="0.63" y2="-0.017" xlink:href="#linear-gradient"/>
    <linearGradient id="linear-gradient-3" x1="0.5" y1="1" x2="0.5" y2="0" xlink:href="#linear-gradient"/>
  </defs>
  <g id="Group_24" data-name="Group 24" transform="translate(42.854 0.022)">
    <path id="Path_131" data-name="Path 131" d="M150.311,90.832c-1.955,1.69-2.708,4.067-3.55,6.3-6.779,18.005-23.482,32.487-42.505,42.832-8.056,4.382-17.863,10.258-16.1,18.114.949,4.219,5.112,7.325,8.206,10.761,6.49,7.2,8.595,16.976,5.5,25.589-3.518,9.8-13.35,18.946-10.307,28.855,1.877,6.1,8.248,10.441,14.374,14.172q14.335,8.726,29.583,16.348c6.814,3.406,14.064,6.72,22.005,7.152,6.993.381,13.843-1.512,20.482-3.38,5.8-1.634,11.748-3.335,16.433-6.608,3.057-2.138,5.494-4.9,8.891-6.644,7.977-4.107,18.224-1.5,27.371.254a130.976,130.976,0,0,0,65.224-4.255c31.506-10.548,55.52-32.7,86.337-44.583,13.25-5.111,27.664-8.283,39.933-14.866a65.812,65.812,0,0,0,17.553-13.532c9.276-10.195,14.292-23.193,12.844-35.916s-9.565-24.985-22.312-32.167c-13.646-7.689-30.882-9.125-46.408-13.74-16.026-4.773-30.289-12.973-46.162-18.084-26.03-8.364-55.975-7.886-81.453,1.3-17.285,6.227-34.8,20.755-54.05,21.858C188.486,91.355,161.022,81.575,150.311,90.832Z" transform="translate(-130.802 -61.51)" fill="rgba(255,255,255,0.57)" opacity="0.1"/>
    <path id="Path_132" data-name="Path 132" d="M951.8,290.868s-3.7-12.569.694-21.818A19.85,19.85,0,0,0,954.1,256.6a33.378,33.378,0,0,0-1.764-5.846" transform="translate(-731.157 -202.668)" fill="none" stroke="#535461" stroke-miterlimit="10" stroke-width="2"/>
    <path id="Path_133" data-name="Path 133" d="M952.569,218.95c0,1.54-2.8,6.006-2.8,6.006s-2.8-4.466-2.8-6.006a2.8,2.8,0,1,1,5.576,0Z" transform="translate(-728.638 -176.712)" fill="#ffd2a4"/>
    <path id="Path_134" data-name="Path 134" d="M970.615,249.157c-.836,1.294-5.615,3.528-5.615,3.528s.086-5.264.923-6.557a2.8,2.8,0,0,1,4.682,3.032Z" transform="translate(-742.085 -198.388)" fill="#ffd2a4"/>
    <path id="Path_135" data-name="Path 135" d="M966.908,303.443c-1.375.694-6.608.214-6.608.214s2.732-4.5,4.107-5.2a2.8,2.8,0,0,1,2.511,4.979Z" transform="translate(-738.58 -238.093)" fill="#ffd2a4"/>
    <path id="Path_136" data-name="Path 136" d="M956.889,347.642c-1.238.915-6.489,1.329-6.489,1.329s1.932-4.9,3.172-5.815a2.8,2.8,0,0,1,3.3,4.483Z" transform="translate(-731.196 -271.285)" fill="#ffd2a4"/>
    <path id="Path_137" data-name="Path 137" d="M939.077,261.888c1.106,1.073,6.253,2.186,6.253,2.186s-1.271-5.111-2.366-6.186a2.8,2.8,0,1,0-3.886,4Z" transform="translate(-722.008 -207.294)" fill="#ffd2a4"/>
    <path id="Path_138" data-name="Path 138" d="M926.5,311.883c1.375.694,6.608.214,6.608.214s-2.732-4.5-4.107-5.2a2.8,2.8,0,0,0-2.511,4.979Z" transform="translate(-712.349 -244.388)" fill="#ffd2a4"/>
    <path id="Path_139" data-name="Path 139" d="M922.2,362.777c1.238.915,6.489,1.329,6.489,1.329s-1.932-4.9-3.172-5.815a2.8,2.8,0,1,0-3.3,4.484Z" transform="translate(-709.173 -282.353)" fill="#6c63ff"/>
    <path id="Path_146" data-name="Path 146" d="M922.2,362.777c1.238.915,6.489,1.329,6.489,1.329s-1.932-4.9-3.172-5.815a2.8,2.8,0,1,0-3.3,4.484Z" transform="translate(-709.173 -282.353)" fill="#6c63ff" opacity="0.1"/>
    <path id="Path_147" data-name="Path 147" d="M1012.8,369.868s-3.7-12.568.694-21.818A19.85,19.85,0,0,0,1015.1,335.6a33.392,33.392,0,0,0-1.764-5.846" transform="translate(-776.653 -261.589)" fill="none" stroke="#535461" stroke-miterlimit="10" stroke-width="2"/>
    <path id="Path_148" data-name="Path 148" d="M1013.569,297.95c0,1.54-2.8,6.006-2.8,6.006s-2.8-4.466-2.8-6.006a2.8,2.8,0,1,1,5.576,0Z" transform="translate(-774.134 -235.632)" fill="#ffd2a4"/>
    <path id="Path_149" data-name="Path 149" d="M1031.644,327.184c-.836,1.294-5.6,3.525-5.6,3.525s.086-5.264.922-6.557a2.8,2.8,0,1,1,4.682,3.032Z" transform="translate(-787.611 -256.337)" fill="#ffd2a4"/>
    <path id="Path_150" data-name="Path 150" d="M1027.908,381.9c-1.375.694-6.608.214-6.608.214s2.732-4.5,4.107-5.2a2.8,2.8,0,1,1,2.511,4.979Z" transform="translate(-784.076 -296.472)" fill="#6c63ff"/>
    <path id="Path_151" data-name="Path 151" d="M1017.889,426.643c-1.238.915-6.489,1.329-6.489,1.329s1.932-4.9,3.172-5.815a2.8,2.8,0,0,1,3.3,4.483Z" transform="translate(-776.692 -330.206)" fill="#6c63ff"/>
    <path id="Path_152" data-name="Path 152" d="M1000.918,341.7c1.106,1.073,6.252,2.186,6.252,2.186s-1.271-5.111-2.366-6.186a2.8,2.8,0,0,0-3.886,4Z" transform="translate(-768.345 -267.032)" fill="#ffd2a4"/>
    <path id="Path_153" data-name="Path 153" d="M987.5,390.883c1.375.694,6.608.214,6.608.214s-2.732-4.5-4.107-5.2a2.8,2.8,0,0,0-2.511,4.979Z" transform="translate(-757.845 -303.309)" fill="#6c63ff"/>
    <path id="Path_154" data-name="Path 154" d="M983.2,441.777c1.238.915,6.489,1.329,6.489,1.329s-1.932-4.9-3.172-5.815a2.8,2.8,0,1,0-3.3,4.483Z" transform="translate(-754.669 -341.274)" fill="#6c63ff"/>
    <path id="Path_157" data-name="Path 157" d="M1027.908,381.9c-1.375.694-6.608.214-6.608.214s2.732-4.5,4.107-5.2a2.8,2.8,0,1,1,2.511,4.979Z" transform="translate(-784.076 -296.472)" fill="#6c63ff" opacity="0.1"/>
    <path id="Path_158" data-name="Path 158" d="M1017.889,426.643c-1.238.915-6.489,1.329-6.489,1.329s1.932-4.9,3.172-5.815a2.8,2.8,0,0,1,3.3,4.483Z" transform="translate(-776.692 -330.206)" fill="#6c63ff" opacity="0.1"/>
    <path id="Path_160" data-name="Path 160" d="M987.5,390.883c1.375.694,6.608.214,6.608.214s-2.732-4.5-4.107-5.2a2.8,2.8,0,0,0-2.511,4.979Z" transform="translate(-757.845 -303.309)" fill="#6c63ff" opacity="0.1"/>
    <path id="Path_161" data-name="Path 161" d="M983.2,441.777c1.238.915,6.489,1.329,6.489,1.329s-1.932-4.9-3.172-5.815a2.8,2.8,0,1,0-3.3,4.483Z" transform="translate(-754.669 -341.274)" fill="#6c63ff" opacity="0.1"/>
    <ellipse id="Ellipse_46" data-name="Ellipse 46" cx="125.594" cy="20.216" rx="125.594" ry="20.216" transform="matrix(0.995, -0.097, 0.097, 0.995, 8.308, 122.249)" fill="#6c63ff" opacity="0.1"/>
    <path id="Path_162" data-name="Path 162" d="M350.566,362.041c4.7-9.633,3.729-25.312,3.228-30.635-.109-1.164-.2-1.833-.2-1.833s-4.143-.653-2.615-5.668c.747-2.455-1.906-3.813-4.8-4.557a33.841,33.841,0,0,0-6.314-.892l-40.13-2.478h0c-5.5-8.733-16.33-7.33-16.33-7.33s-9.658-1-16.506-1.108a18.432,18.432,0,0,0-3.4-2.371,11.184,11.184,0,0,0-2.3-1.05,6.524,6.524,0,0,0-5.765,1.08,3.065,3.065,0,0,0-.938,1.09,2.988,2.988,0,0,0-.191.613,10.971,10.971,0,0,0-.254,1.09,1.877,1.877,0,0,1-.254.5c-.274.389-.747.681-.808,1.151a.77.77,0,0,0,0,.081.852.852,0,0,0-.1.29,1.045,1.045,0,0,0,.13.6.979.979,0,0,0,.051.086,7.173,7.173,0,0,0-.821,1.576,2.622,2.622,0,0,0-.272.17l-.076.056v.155l-.043.033-.094,2.5.053.041a7.412,7.412,0,0,0,3.446,5.785c.033.16.064.323.094.493a13.436,13.436,0,0,1,.188,2.486h-.043c-1.195-.508-3.238.239-4.994,1.111H227.758a71.3,71.3,0,0,1,9.867-10.136v-5.017c-3.879-.193-37.952,16.175-45.422,19.789l-.33.16-38.392,1.19a59.16,59.16,0,0,0-18.3,2.643,52.076,52.076,0,0,0-22.916,14.64,42.807,42.807,0,0,0-6.522,9.089l.043.346-.043.089.061.053,1.034,8.164.712,5.617c-4.946,3.2,1.461,4.478,1.461,4.478,6.1,5.231,15.913,5.015,15.913,5.015,2.4,3.271,9.374,2.834,9.374,2.834h36.623a88.736,88.736,0,0,1,2.287-9.963c1.563,11.257,10.446,19.881,21.167,19.881a19.792,19.792,0,0,0,2.379-.145,19.792,19.792,0,0,0,2.379.145c10.845,0,19.807-8.827,21.218-20.272h1.792a39.94,39.94,0,0,1-1.736,7.521c32.917-9.592,94.174-14.17,94.174-14.17q.381-3.622.836-6.987c2.524,6.265,8.245,10.639,14.9,10.639a15.06,15.06,0,0,0,1.81-.112,15.045,15.045,0,0,0,1.81.112c7.907,0,14.487-6.169,15.972-14.348a37.382,37.382,0,0,1,.335,4.354c-.282,1.388-.529,2.275-.562,2.4q.3-.544.564-1.113v.452c-.061.254-.1.4-.117.445l.112-.208v.333A9.923,9.923,0,0,1,350.566,362.041Z" transform="translate(-101.172 -242.282)" fill="url(#linear-gradient)"/>
    <rect id="Rectangle_55" data-name="Rectangle 55" width="75.462" height="30.441" transform="translate(170.091 85.147)" fill="#6f7d95"/>
    <path id="Path_163" data-name="Path 163" d="M593.73,276.459l10.718,24.011,21.225-1.286.857-9.862.643-11.577L597.161,275.6Z" transform="translate(-442.826 -205.569)" fill="#4b5c7a"/>
    <path id="Path_164" data-name="Path 164" d="M681.68,325.941s4.067-3.858,9.005-4.717,21.439.857,21.439.857l2.359,4.067-.442,1.937Z" transform="translate(-530.775 -255.05)" fill="#c68688"/>
    <rect id="Rectangle_56" data-name="Rectangle 56" width="76.105" height="22.295" transform="translate(115.209 83.218)" fill="#4b5c7a"/>
    <path id="Path_165" data-name="Path 165" d="M651.784,342.845a11.991,11.991,0,0,0-2-11.14l-6.644-4.636a.314.314,0,0,1-.02.046,8.641,8.641,0,0,1-1.807-3.5c-.02-.081-.038-.165-.058-.254a7.153,7.153,0,0,0,1.576-1.614,3.9,3.9,0,0,0,1.749-2.8,13.939,13.939,0,0,0,1.65-3.337,5.932,5.932,0,0,0,.168-.582,3.049,3.049,0,0,0,.168-1.141,3.121,3.121,0,0,0-.422-1.22,12.816,12.816,0,0,0-5.172-4.6,11.006,11.006,0,0,0-2.265-1.032,6.418,6.418,0,0,0-5.668,1.062,3.014,3.014,0,0,0-.923,1.073,2.937,2.937,0,0,0-.188.6,10.775,10.775,0,0,0-.241,1.073,1.85,1.85,0,0,1-.239.485c-.272.381-.735.668-.8,1.134a.723.723,0,0,0,0,.081.839.839,0,0,0-.1.285,1.017,1.017,0,0,0,.127.592.956.956,0,0,0,.051.086,7.051,7.051,0,0,0-.808,1.55,2.579,2.579,0,0,0-.269.168l-.074.053v.152l-.043.033-.094,2.463.051.041a7.287,7.287,0,0,0,3.388,5.691c.033.158.063.318.091.485a13.048,13.048,0,0,1,.183,2.687.914.914,0,0,1,0-.234c-1.838-.831-5.846,1.467-7.46,2.483h0a3.066,3.066,0,0,0-.679.44l-.028.02h0c-1.111.9-3.3,3.4-5.045,9.829-2.415,8.97-2.163,11-3.922,13.082s-3.5,16.727-3.5,16.727l3.54.953.452-1.454c4.209,3.838,15.995,5.686,15.995,5.686l.361-1.121c1.807.651,4.829-.338,4.829-.338,4.417-1.561,6.072-5.52,9.277-10.744S651.784,342.845,651.784,342.845ZM633.967,369.87l8.159-25.307c.74,3.929-2.524,10.118-2.814,14.165C639.131,361.33,636.1,366.5,633.967,369.87Z" transform="translate(-479.194 -244.459)" fill="url(#linear-gradient-2)"/>
    <path id="Path_166" data-name="Path 166" d="M722,343.781s1.421,5.411-2.8,6.354-1.439-2.432-1.439-2.432l4.067-3.962Z" transform="translate(-557.019 -272.023)" fill="#472727"/>
    <path id="Path_167" data-name="Path 167" d="M630.908,394.64s-3.136,1.271-5.442,9.831-2.077,10.492-3.736,12.482-3.36,15.954-3.36,15.954l3.319.895,2.89-9.333,7.948-24.654Z" transform="translate(-483.557 -309.986)" fill="#dde0e4"/>
    <path id="Path_168" data-name="Path 168" d="M630.908,394.64s-3.136,1.271-5.442,9.831-2.077,10.492-3.736,12.482-3.36,15.954-3.36,15.954l3.319.895,2.89-9.333,7.948-24.654Z" transform="translate(-483.557 -309.986)" opacity="0.05"/>
    <path id="Path_169" data-name="Path 169" d="M702.765,360.635s-13.13,6.674-11.209,2.321a10.833,10.833,0,0,0,.638-6.1,13.032,13.032,0,0,0-.826-2.953s8.926-7.061,8.4-1.3a11.031,11.031,0,0,0,.254,3.706A7.434,7.434,0,0,0,702.765,360.635Z" transform="translate(-537.998 -276.947)" fill="#db8b8b"/>
    <path id="Path_170" data-name="Path 170" d="M700.007,356.329a6.863,6.863,0,0,1-6.1,1.271,6.941,6.941,0,0,1-1.741-.735,13.028,13.028,0,0,0-.826-2.953s8.926-7.061,8.4-1.3A11.027,11.027,0,0,0,700.007,356.329Z" transform="translate(-537.98 -276.954)" opacity="0.1"/>
    <circle id="Ellipse_47" data-name="Ellipse 47" cx="6.873" cy="6.873" r="6.873" transform="translate(149.395 78.517) rotate(-74.93)" fill="#db8b8b"/>
    <path id="Path_171" data-name="Path 171" d="M688.232,318.877a1.639,1.639,0,0,1-2.287-.6.987.987,0,0,1-.117-.564c.058-.442.5-.717.763-1.083.414-.592.336-1.4.635-2.061a2.9,2.9,0,0,1,.869-1.017,5.975,5.975,0,0,1,5.325-1.037,10.151,10.151,0,0,1,2.12.973,11.824,11.824,0,0,1,4.829,4.364,2.978,2.978,0,0,1,.391,1.162,3.3,3.3,0,0,1-.229,1.3,13.511,13.511,0,0,1-1.583,3.22,2.481,2.481,0,0,0-.823-.663.849.849,0,0,0-.976.18c-.221.282-.356.821-.691.694-.219-.081-.216-.384-.206-.618A3.53,3.53,0,0,0,695,320.46a10.489,10.489,0,0,0-2.577-1.583,10.848,10.848,0,0,0-2.242-1.184C689.289,317.527,688.87,318.483,688.232,318.877Z" transform="translate(-533.866 -248.561)" opacity="0.1"/>
    <path id="Path_172" data-name="Path 172" d="M688.6,317.507a1.639,1.639,0,0,1-2.287-.6.986.986,0,0,1-.117-.564c.058-.442.5-.717.762-1.083.414-.592.336-1.4.635-2.061a2.9,2.9,0,0,1,.869-1.017,5.976,5.976,0,0,1,5.325-1.037,10.149,10.149,0,0,1,2.12.973,11.823,11.823,0,0,1,4.829,4.364,2.978,2.978,0,0,1,.391,1.162,3.3,3.3,0,0,1-.229,1.3,13.511,13.511,0,0,1-1.583,3.22,2.481,2.481,0,0,0-.823-.663.849.849,0,0,0-.976.18c-.221.282-.356.821-.691.694-.219-.081-.216-.384-.206-.618a3.53,3.53,0,0,0-1.253-2.661,10.492,10.492,0,0,0-2.577-1.583,10.848,10.848,0,0,0-2.242-1.184C689.659,316.155,689.24,317.113,688.6,317.507Z" transform="translate(-534.142 -247.539)" fill="#472727"/>
    <path id="Path_173" data-name="Path 173" d="M648.985,387.111s5.437-1.065,5.673-1.937l6.217,4.389A11.491,11.491,0,0,1,662.7,400.17s-1.558,13.443-4.588,18.432-4.771,11.453-8.921,12.962c0,0-3.99-2.572-5.307-2.542,0,0,6.758-9.793,7.048-13.649s3.378-9.768,2.7-13.509l-9.15,28.441s-14.742-2.287-16.236-7.18a6.558,6.558,0,0,0,1.034-3.843c-.236-1.934,5.561-16.485,5.561-16.485l2.776-15.174s5.49-3.835,7.676-2.839C645.287,384.77,644.89,386.663,648.985,387.111Z" transform="translate(-490.926 -302.513)" fill="#dde0e4"/>
    <g id="Group_23" data-name="Group 23" transform="translate(150.899 71.165)" opacity="0.1">
      <path id="Path_174" data-name="Path 174" d="M690.8,343.2h0c-1.342-1.83-3.9-.328-4.321-.066l-.658-.066c-.574-.625-2.336-2.287-3.99-1.065l-.071.053-.1,2.346.071.056a4.9,4.9,0,0,0,1.6.818,2.412,2.412,0,0,0,1.129.056,1.947,1.947,0,0,0,1.3-1.017l.343.023.254-.048a1.935,1.935,0,0,0,.915,1.306,3.964,3.964,0,0,0,2.865-.013l.086-.033.61-2.27Zm-.862,2.064a3.4,3.4,0,0,1-2.47,0,1.642,1.642,0,0,1-.762-1.235l-.031-.186-.557.114-.559-.02-.053.107a1.65,1.65,0,0,1-1.116.935,3.434,3.434,0,0,1-2.356-.747l.084-1.983c1.439-.968,3.025.6,3.482,1.116l.048.053.928.091.056-.038c.025-.015,2.331-1.563,3.645-.318a1.7,1.7,0,0,1,.18.2Z" transform="translate(-681.66 -341.568)"/>
      <path id="Path_175" data-name="Path 175" d="M720.217,349.053l-4.321-.358-.356-.069.16-.6a1.7,1.7,0,0,0-.18-.2l.524.051,3.535.346Z" transform="translate(-706.914 -346.239)"/>
    </g>
    <path id="Path_176" data-name="Path 176" d="M690.98,342.563h0c-1.342-1.83-3.9-.328-4.321-.066l-.658-.066c-.574-.625-2.336-2.287-3.99-1.065l-.071.053-.1,2.346.071.056a4.9,4.9,0,0,0,1.6.818,2.412,2.412,0,0,0,1.128.056,1.947,1.947,0,0,0,1.3-1.017l.343.023.254-.048a1.934,1.934,0,0,0,.915,1.306,3.963,3.963,0,0,0,2.864-.013l.086-.033.61-2.27Zm-.862,2.064a3.4,3.4,0,0,1-2.47,0,1.642,1.642,0,0,1-.763-1.235l-.03-.186-.557.114-.551-.036-.053.107a1.65,1.65,0,0,1-1.111.945,3.433,3.433,0,0,1-2.356-.747l.084-1.983c1.439-.968,3.025.6,3.482,1.116l.048.053.928.091.056-.038c.025-.015,2.331-1.563,3.645-.318a1.712,1.712,0,0,1,.18.2Z" transform="translate(-530.895 -269.926)" fill="#472727"/>
    <path id="Path_177" data-name="Path 177" d="M720.422,348.413l-4.306-.358-.356-.069.16-.6a1.7,1.7,0,0,0-.18-.2l.524.051,3.535.346Z" transform="translate(-556.179 -274.597)" fill="#472727"/>
    <rect id="Rectangle_57" data-name="Rectangle 57" width="75.462" height="30.441" transform="translate(59.255 100.582)" fill="#6f7d95"/>
    <ellipse id="Ellipse_48" data-name="Ellipse 48" cx="21.058" cy="23.045" rx="21.058" ry="23.045" transform="translate(72.733 104.87)" fill="#4b5c7a"/>
    <ellipse id="Ellipse_49" data-name="Ellipse 49" cx="21.058" cy="23.045" rx="21.058" ry="23.045" transform="translate(72.733 104.87)" opacity="0.05"/>
    <ellipse id="Ellipse_50" data-name="Ellipse 50" cx="21.058" cy="23.045" rx="21.058" ry="23.045" transform="translate(77.412 104.87)" fill="#4b5c7a"/>
    <circle id="Ellipse_51" data-name="Ellipse 51" cx="9.358" cy="9.358" r="9.358" transform="translate(88.644 118.674)" opacity="0.05"/>
    <circle id="Ellipse_52" data-name="Ellipse 52" cx="2.809" cy="2.809" r="2.809" transform="translate(95.194 125.224)" fill="none" stroke="#6f7d95" stroke-miterlimit="10" stroke-width="2"/>
    <circle id="Ellipse_53" data-name="Ellipse 53" cx="0.701" cy="0.701" r="0.701" transform="translate(97.301 122.418)" fill="#6f7d95"/>
    <circle id="Ellipse_54" data-name="Ellipse 54" cx="0.701" cy="0.701" r="0.701" transform="matrix(0.766, -0.643, 0.643, 0.766, 100.852, 124.386)" fill="#6f7d95"/>
    <circle id="Ellipse_55" data-name="Ellipse 55" cx="0.701" cy="0.701" r="0.701" transform="translate(102.464 128.855) rotate(-80)" fill="#6f7d95"/>
    <circle id="Ellipse_56" data-name="Ellipse 56" cx="0.701" cy="0.701" r="0.701" transform="translate(100.313 131.579) rotate(-30)" fill="#6f7d95"/>
    <circle id="Ellipse_57" data-name="Ellipse 57" cx="0.701" cy="0.701" r="0.701" transform="matrix(0.342, -0.94, 0.94, 0.342, 96.369, 133.002)" fill="#6f7d95"/>
    <circle id="Ellipse_58" data-name="Ellipse 58" cx="0.701" cy="0.701" r="0.701" transform="matrix(0.94, -0.342, 0.342, 0.94, 93.223, 129.577)" fill="#6f7d95"/>
    <circle id="Ellipse_59" data-name="Ellipse 59" cx="0.701" cy="0.701" r="0.701" transform="translate(93.124 126.179) rotate(-60)" fill="#6f7d95"/>
    <path id="Path_178" data-name="Path 178" d="M1014.238,433.487a60.6,60.6,0,0,1-2.719,10.4q.02-.508.025-1v-1.271a34.547,34.547,0,0,0-12.525-26.179A27.038,27.038,0,0,0,995,412.6h13.077s5.144,10.5,6.217,15.649A15.683,15.683,0,0,1,1014.238,433.487Z" transform="translate(-764.46 -323.382)" fill="#c68688"/>
    <ellipse id="Ellipse_60" data-name="Ellipse 60" cx="16.015" cy="17.527" rx="16.015" ry="17.527" transform="translate(211.467 93.023)" fill="#4b5c7a"/>
    <ellipse id="Ellipse_61" data-name="Ellipse 61" cx="16.015" cy="17.527" rx="16.015" ry="17.527" transform="translate(211.467 93.023)" opacity="0.05"/>
    <ellipse id="Ellipse_62" data-name="Ellipse 62" cx="16.015" cy="17.527" rx="16.015" ry="17.527" transform="translate(215.025 93.023)" fill="#4b5c7a"/>
    <circle id="Ellipse_63" data-name="Ellipse 63" cx="7.117" cy="7.117" r="7.117" transform="translate(223.568 103.523)" opacity="0.05"/>
    <circle id="Ellipse_64" data-name="Ellipse 64" cx="2.135" cy="2.135" r="2.135" transform="translate(228.55 108.505)" fill="none" stroke="#6f7d95" stroke-miterlimit="10" stroke-width="2"/>
    <circle id="Ellipse_65" data-name="Ellipse 65" cx="0.534" cy="0.534" r="0.534" transform="translate(230.151 106.37)" fill="#6f7d95"/>
    <circle id="Ellipse_66" data-name="Ellipse 66" cx="0.534" cy="0.534" r="0.534" transform="matrix(0.766, -0.643, 0.643, 0.766, 232.853, 107.866)" fill="#6f7d95"/>
    <circle id="Ellipse_67" data-name="Ellipse 67" cx="0.534" cy="0.534" r="0.534" transform="translate(234.077 111.268) rotate(-80)" fill="#6f7d95"/>
    <circle id="Ellipse_68" data-name="Ellipse 68" cx="0.534" cy="0.534" r="0.534" transform="translate(232.444 113.339) rotate(-30)" fill="#6f7d95"/>
    <circle id="Ellipse_69" data-name="Ellipse 69" cx="0.534" cy="0.534" r="0.534" transform="matrix(0.342, -0.94, 0.94, 0.342, 229.443, 114.421)" fill="#6f7d95"/>
    <circle id="Ellipse_70" data-name="Ellipse 70" cx="0.534" cy="0.534" r="0.534" transform="matrix(0.94, -0.342, 0.342, 0.94, 227.049, 111.813)" fill="#6f7d95"/>
    <circle id="Ellipse_71" data-name="Ellipse 71" cx="0.534" cy="0.534" r="0.534" transform="translate(226.977 109.229) rotate(-60)" fill="#6f7d95"/>
    <path id="Path_180" data-name="Path 180" d="M115.937,529.462,114,514.24h22.938l11.791,10.5-5.787,13.506S119.592,534.393,115.937,529.462Z" transform="translate(-107.381 -399.188)" fill="#d18d8f"/>
    <path id="Path_181" data-name="Path 181" d="M148.774,524.752l-5.787,13.506s-23.358-3.858-27.013-8.789l-.084-.663-1.779-14.076-.018-.14-.043-.341h22.938Z" transform="translate(-107.418 -399.196)" opacity="0.05"/>
    <path id="Path_182" data-name="Path 182" d="M489.088,330.365V335.3s-11.854,9.658-14.676,18.77a11.483,11.483,0,0,0-.546,4.6c1.073,10.075-30.866-8.149-30.866-8.149l1.421-.691C451.764,346.283,485.273,330.172,489.088,330.365Z" transform="translate(-352.76 -262.046)" fill="#7597ce"/>
    <path id="Path_183" data-name="Path 183" d="M729.976,358.46s11.1-5.454,12.884-9.491c.239-.541.465-1.088.729-1.619,1.1-2.214,3.413-7.406,2.249-9.9-1.5-3.215,3.645.43,3.645.43l-3,15.217-7.289,4.067-9.432,1.3" transform="translate(-566.635 -266.344)" fill="#c68688"/>
    <path id="Path_185" data-name="Path 185" d="M148.752,524.76l-5.787,13.506s-23.358-3.858-27.013-8.789l-.084-.663c.094-.064.193-.13.3-.193,0,0,7.073,5.574,23.155,6.862,0,0,9.658-7.719-6-16.292,0,0-13.623.427-19.235-4.45l-.061-.051.043-.089q.056-.109.18-.341h22.715Z" transform="translate(-107.395 -399.203)" opacity="0.05"/>
    <path id="Path_186" data-name="Path 186" d="M473.866,415.767c1.073,10.078-30.866-8.146-30.866-8.146l1.421-.691c.94,1,4.694,4.379,12.2,4.013,4.829-.236,12.162-.02,17.8.226A11.483,11.483,0,0,0,473.866,415.767Z" transform="translate(-352.76 -319.153)" opacity="0.05"/>
    <path id="Path_187" data-name="Path 187" d="M396.562,457.31v30.441h-14.02c.925-7.081.391-17.4-8.6-23.32a21.752,21.752,0,0,0-22.7-.676c-5.894,3.365-12.485,10.207-16.673,24H321.1V457.31Z" transform="translate(-261.843 -356.728)" opacity="0.05"/>
    <path id="Path_188" data-name="Path 188" d="M1014.238,433.487a35.022,35.022,0,0,1-2.692,9.4q-.254.562-.554,1.1c.033-.125.274-.994.554-2.361,1.362-6.659,3.693-25.086-11.923-26.138-.2-.013-.4-.025-.6-.033A27.053,27.053,0,0,0,995,412.6h13.077s5.144,10.5,6.217,15.649A15.683,15.683,0,0,1,1014.238,433.487Z" transform="translate(-764.46 -323.382)" opacity="0.05"/>
    <path id="Path_189" data-name="Path 189" d="M354.167,396.91c.2-.735,7.447-27.229-11.369-28.5-19.08-1.286-21.439,13.077-23.582,32.587,0,0-60.237,4.5-92.613,13.936,0,0,7.772-21.3-6.862-30.932a21.751,21.751,0,0,0-22.7-.676c-7.218,4.123-15.486,13.471-19.1,34.394H141.92s-6.862.43-9.219-2.8c0,0-9.658.214-15.649-4.931,0,0-6.43-1.286-1.286-4.5,0,0,7.289,5.574,23.368,6.862,0,0,9.658-7.719-6-16.292,0,0-13.725.43-19.294-4.5a42.054,42.054,0,0,1,6.415-8.937,51.214,51.214,0,0,1,22.527-14.4,58.341,58.341,0,0,1,18.008-2.6l37.838-1.179s3.655,4.717,12.434,4.288,25.94.643,25.94.643h.17l35.309-1.6a22.459,22.459,0,0,0,3-.635c5.119-1.39,14.828-5.607,13.077-17.382l55.525,3.431a33.275,33.275,0,0,1,6.209.877c2.852.732,5.459,2.069,4.725,4.483-1.5,4.931,2.572,5.574,2.572,5.574s.086.658.193,1.8C358.289,371.321,359.288,387.537,354.167,396.91Z" transform="translate(-107.21 -276.513)" fill="#89c48b"/>
    <path id="Path_190" data-name="Path 190" d="M278.909,442.55s-23.154.214-38.379,13.725h8.576s24.011-6.217,29.8-11.148Z" transform="translate(-201.751 -345.719)" opacity="0.05"/>
    <path id="Path_191" data-name="Path 191" d="M278.059,441.7s-23.155.214-38.379,13.725h8.576s24.011-6.217,29.8-11.148Z" transform="translate(-201.117 -345.085)" fill="#ffec9f"/>
    <path id="Path_192" data-name="Path 192" d="M162.644,423.25v5.762l-19.5,9.005-3.019-.363a51.214,51.214,0,0,1,22.524-14.4Z" transform="translate(-126.862 -331.325)" opacity="0.05"/>
    <path id="Path_193" data-name="Path 193" d="M161.787,422.41v5.762l-19.507,9-3.019-.363a51.215,51.215,0,0,1,22.527-14.4Z" transform="translate(-126.22 -330.698)" fill="#ffec9f"/>
    <path id="Path_194" data-name="Path 194" d="M302.727,525.21A27.357,27.357,0,0,0,291.15,545.8h6s2.359-15.436,9.219-20.587Z" transform="translate(-239.505 -407.37)" fill="none"/>
    <path id="Path_195" data-name="Path 195" d="M302.727,525.21A27.357,27.357,0,0,0,291.15,545.8h6s2.359-15.436,9.219-20.587Z" transform="translate(-239.505 -407.37)" opacity="0.05"/>
    <path id="Path_196" data-name="Path 196" d="M656.43,433.164l-54.455,6.43s-3.6-22.926-2.936-31.844l35.309-1.6a22.457,22.457,0,0,0,3-.628v2.127l26.583-6.43S668.434,407.864,656.43,433.164Z" transform="translate(-469.078 -314.894)" fill="none"/>
    <path id="Path_197" data-name="Path 197" d="M656.43,433.164l-54.455,6.43s-3.6-22.926-2.936-31.844l35.309-1.6a22.457,22.457,0,0,0,3-.628v2.127l26.583-6.43S668.434,407.864,656.43,433.164Z" transform="translate(-469.078 -314.894)" opacity="0.05"/>
    <path id="Path_198" data-name="Path 198" d="M801.46,325.061s11.577-1.5,16.722,8.362l-16.556-.638Z" transform="translate(-620.112 -258.031)" fill="#c68688"/>
    <path id="Path_199" data-name="Path 199" d="M863.594,363.524c-.455,1.426-.112,2.994,2.524,4.079a4.123,4.123,0,0,0,5.515-2.392c.437-1.312.137-2.8-2.226-4A4,4,0,0,0,863.594,363.524Z" transform="translate(-666.327 -284.676)" fill="none"/>
    <path id="Path_200" data-name="Path 200" d="M863.594,363.524c-.455,1.426-.112,2.994,2.524,4.079a4.123,4.123,0,0,0,5.515-2.392c.437-1.312.137-2.8-2.226-4A4,4,0,0,0,863.594,363.524Z" transform="translate(-666.327 -284.676)" opacity="0.05"/>
    <path id="Path_201" data-name="Path 201" d="M115.63,526.88s13.74,7.117,23.6,4.422" transform="translate(-108.596 -408.615)" fill="none" stroke="#ff7276" stroke-miterlimit="10" stroke-width="1"/>
    <path id="Path_202" data-name="Path 202" d="M117.54,542s8.878,6.847,26.822,5.256" transform="translate(-110.021 -419.892)" fill="none" stroke="#ff7276" stroke-miterlimit="10" stroke-width="1"/>
    <path id="Path_203" data-name="Path 203" d="M119.15,554.69s8.807,7.643,26.9,5.221" transform="translate(-111.222 -429.357)" fill="none" stroke="#ff7276" stroke-miterlimit="10" stroke-width="1"/>
    <path id="Path_204" data-name="Path 204" d="M824.439,353.67s-7.162,6.184-13.7,8.98C810.74,362.65,820.668,364.416,824.439,353.67Z" transform="translate(-627.033 -279.429)" opacity="0.05"/>
    <path id="Path_205" data-name="Path 205" d="M566.1,421.842s33.987,3.21,46.848.208c0,0,.686.455-3.408-1.38Z" transform="translate(-444.572 -329.4)" opacity="0.1"/>
    <path id="Path_206" data-name="Path 206" d="M1051.84,378.562c-2.117-1.39-5.475-4.275-5.017-7.485.229-1.609-.91-3.114-2.473-4.377,2.852.732,5.459,2.069,4.725,4.483-1.5,4.931,2.572,5.574,2.572,5.574S1051.731,377.418,1051.84,378.562Z" transform="translate(-801.267 -289.148)" opacity="0.05"/>
    <path id="Path_207" data-name="Path 207" d="M278.823,288.794c.02-.849,0-1.731-.064-2.542a4.35,4.35,0,0,0-.041-.452,9.131,9.131,0,0,1,.762.635l-.419-22.072L276.749,252.8c0-8.2-4.415-10.51-4.415-10.51s-2.313-1.052-2.943-2.521-6.217-4.575-6.219-4.575a15.813,15.813,0,0,1-.051-1.609c0-.14,0-.285.013-.43a6.939,6.939,0,0,0,2.407-8.814c.31,0,.562-.13.679-.59a6.612,6.612,0,0,0-.831-4.814,4.724,4.724,0,0,0-.607-.674,10.428,10.428,0,0,0-.826-.745,3.776,3.776,0,0,0-2.42-1.179,3.623,3.623,0,0,0-1.431.508q-3.352,1.764-6.687,3.558a6.239,6.239,0,0,0-2.242,1.711,6.558,6.558,0,0,0-.966,2.824,6.924,6.924,0,0,0-.094,2.066,2.671,2.671,0,0,0,.811,1.647,1.812,1.812,0,0,0,.313.3,13.747,13.747,0,0,0,1.507.679,6.938,6.938,0,0,0,1.746,2.737c0,.13-.018.254-.028.4-.028.363-.071.762-.127,1.167h0s-1.553-.041-3.866,3.111-7.358,3.574-7.358,3.574-1.891-.841-3.993,8.619-2.732,15.758-1.683,16.816a5.734,5.734,0,0,0,1.489.93,18.25,18.25,0,0,0,5.676,1.779.508.508,0,0,0,.125.2l.15,1.833h0c.127,3.868.275,11.628-.508,13.349a3.578,3.578,0,0,0,.211,3.785l.254-.018a1.932,1.932,0,0,0,.158.229l1.017-.069c-.074,4.321-.272,10.314-.8,11.631-.841,2.1,0,13.664,0,13.664l-1.472,20.811s-.806,10.863-.051,12.121c-.412,2.26-1.151,6.565-1,7.638.211,1.472,5.045,3.574,5.045,3.574s5.676,1.271,8.408.841a2.11,2.11,0,0,0,2-2.033,21.949,21.949,0,0,0,5.777.348c2.732-.419,2.313-3.574.841-3.363s-3.154-2.748-4.4-4.219a10.12,10.12,0,0,1-1.525-3.205,1.174,1.174,0,0,0,.691-.369c.63-1.052,1.683-10.721,1.683-10.721l2.732-16.816s1.472-8.2,2.732-10.09c.953-1.428,2.145-12.088,2.671-17.222h.061l.056-.18.79-2.552a3.547,3.547,0,0,0,2.722,1.271c-.132.539-.241.979-.305,1.23-.315,1.271,4.28,3.363,5.388,2.313.465-.44.707-2.033.762-3.777h.038Zm-27.618,57.325c-.071.409-.142.836-.214,1.271-.16-.508-.287-.966-.374-1.3C250.827,346.093,251.022,346.1,251.206,346.119Z" transform="translate(-199.073 -177.003)" fill="url(#linear-gradient-3)"/>
    <path id="Path_208" data-name="Path 208" d="M298.785,707.92s.811,3.645,2.033,5.06,2.834,4.25,4.25,4.049,1.822,2.834-.811,3.238-8.1-.811-8.1-.811-4.656-2.033-4.857-3.441,1.215-8.705,1.215-8.705Z" transform="translate(-239.604 -543.186)" fill="#53526b"/>
    <path id="Path_209" data-name="Path 209" d="M298.785,707.92s.811,3.645,2.033,5.06,2.834,4.25,4.25,4.049,1.822,2.834-.811,3.238-8.1-.811-8.1-.811-4.656-2.033-4.857-3.441,1.215-8.705,1.215-8.705Z" transform="translate(-239.604 -543.186)" opacity="0.05"/>
    <path id="Path_210" data-name="Path 210" d="M269.315,714.3s.811,3.645,2.033,5.06,2.834,4.25,4.25,4.049,1.822,2.834-.811,3.238-8.1-.808-8.1-.808-4.656-2.033-4.857-3.441,1.215-8.705,1.215-8.705Z" transform="translate(-217.625 -547.945)" fill="#53526b"/>
    <path id="Path_211" data-name="Path 211" d="M311.49,497.86s-1.619,17.408-2.834,19.23-2.631,9.717-2.631,9.717L303.395,543s-1.017,9.313-1.619,10.324-8.116.577-8.116.577l4.661-53.611Z" transform="translate(-241.377 -386.971)" fill="#5f5d7e"/>
    <path id="Path_212" data-name="Path 212" d="M311.49,497.86s-1.619,17.408-2.834,19.23-2.631,9.717-2.631,9.717L303.395,543s-1.017,9.313-1.619,10.324-8.116.577-8.116.577l4.661-53.611Z" transform="translate(-241.377 -386.971)" opacity="0.05"/>
    <path id="Path_213" data-name="Path 213" d="M292.9,465.21l-.529,1.68-2.859,9.076-.056.173h-.015c-.384.086-8.487,1.949-10.235,2.521a2.467,2.467,0,0,0-.277.1c-.811.4-1.822,14.978-1.822,14.978s-.607,13.766-1.017,14.777-2.033,21.858-3.037,21.253-8.3,0-8.3,0c-.811-.811,0-11.74,0-11.74l1.416-20.041s-.811-11.132,0-13.158.811-15.585.811-15.585l16.579-2.567,1.6-.254Z" transform="translate(-219.548 -362.62)" fill="#5f5d7e"/>
    <path id="Path_214" data-name="Path 214" d="M335.329,470.194l-2.859,9.076-.069.178c-.384.086-8.487,1.949-10.235,2.521h-.175l4.527-11.984.13-.346,1.472.094Z" transform="translate(-262.507 -365.924)" opacity="0.02"/>
    <path id="Path_215" data-name="Path 215" d="M293.556,305.93s7.49,8.1,12.147,1.416l4.453,3.037-.811,4.656,2.631,35.222s-6.883-.2-11.74,1.416a7.533,7.533,0,0,1-7.894-1.822l.811-30.97-1.822-9.513Z" transform="translate(-239.639 -243.823)" opacity="0.1"/>
    <path id="Path_216" data-name="Path 216" d="M293.564,303.54s7.49,8.1,12.147,1.416l4.453,3.037-.811,4.656,2.633,35.232s-6.883-.2-11.74,1.416a7.533,7.533,0,0,1-7.894-1.822l.811-30.97-1.822-9.513Z" transform="translate(-239.647 -242.041)" fill="#53526b"/>
    <path id="Path_217" data-name="Path 217" d="M361.42,468.39s0,5.264,1.215,7.49,8.3,1.017,8.3,1.017l-1.416-7.49Z" transform="translate(-291.915 -364.992)" fill="#d39999"/>
    <path id="Path_218" data-name="Path 218" d="M380.553,488.392c-1.067,1.017-5.492-1.017-5.188-2.226.214-.857.961-3.922,1.385-5.66l.295-1.223s2.593-.811,3.507,0a5.771,5.771,0,0,1,.676,2.859C381.418,484.579,381.232,487.749,380.553,488.392Z" transform="translate(-302.305 -372.847)" fill="#fdc2cc"/>
    <path id="Path_219" data-name="Path 219" d="M312.239,277.55l-7.084,5.465s-10.525-.607-7.894-5.668a18.87,18.87,0,0,0,2.033-7.152,14.959,14.959,0,0,0,0-2.768s9.717-8.9,8.5,1.215a22.92,22.92,0,0,0-.168,2.338C307.494,278.569,312.239,277.55,312.239,277.55Z" transform="translate(-243.748 -212.409)" fill="#fdc2cc"/>
    <path id="Path_220" data-name="Path 220" d="M314.969,268.635a22.938,22.938,0,0,0-.168,2.338,6.634,6.634,0,0,1-3.678,1.1c-1.812,0-3.147-1.764-4.351-2.936.135-1.68-.3-1.721-.3-1.721S316.184,258.511,314.969,268.635Z" transform="translate(-250.931 -212.4)" opacity="0.1"/>
    <circle id="Ellipse_72" data-name="Ellipse 72" cx="6.679" cy="6.679" r="6.679" transform="translate(53.513 45.911)" fill="#fdc2cc"/>
    <path id="Path_221" data-name="Path 221" d="M257.993,293.58s-1.113.1-3.34,3.136-7.1,3.441-7.1,3.441-1.822-.811-3.846,8.3-2.631,15.181-1.619,16.193,5.06,2.43,7.084,2.43c0,0,.607,12.751-.4,14.978a3.45,3.45,0,0,0,.2,3.645l8.9-.607a21.17,21.17,0,0,0,3.645-10.525c.607-6.68,2.631-25.709,1.619-27.935s-5.465-7.894-5.264-8.5A37.2,37.2,0,0,0,257.993,293.58Z" transform="translate(-202.556 -234.612)" opacity="0.1"/>
    <path id="Path_222" data-name="Path 222" d="M256.847,293.34s-1.5-.041-3.724,3-7.084,3.441-7.084,3.441-1.822-.811-3.846,8.3-2.631,15.181-1.614,16.185,5.06,2.43,7.084,2.43c0,0,.607,12.751-.4,14.978a3.45,3.45,0,0,0,.2,3.645l8.9-.607A21.171,21.171,0,0,0,260,334.182c.607-6.68,2.631-25.709,1.619-27.935s-5.465-7.894-5.264-8.5S256.847,293.34,256.847,293.34Z" transform="translate(-201.427 -234.433)" fill="#d39999"/>
    <path id="Path_223" data-name="Path 223" d="M285,377.025s10.129-11.615,8.705-3.645c-1.017,5.668-4.857,8.705-6.679,9.313S285,377.025,285,377.025Z" transform="translate(-234.918 -292.046)" fill="#fdc2cc"/>
    <path id="Path_224" data-name="Path 224" d="M385.338,482.142c-.968-.74-2.8-1.891-4.478-1.637l.295-1.223s2.592-.811,3.507,0A5.743,5.743,0,0,1,385.338,482.142Z" transform="translate(-306.414 -372.847)" opacity="0.1"/>
    <path id="Path_225" data-name="Path 225" d="M336.715,298.36s5.162,3.34,5.77,4.758,2.834,2.43,2.834,2.43,4.25,2.227,4.25,10.121l2.226,11.132-10.126,14.167s-1.215-14.17-1.822-17.611-1.416-9.912-1.416-9.912-3.037-3.846-2.631-4.857S336.715,298.36,336.715,298.36Z" transform="translate(-272.779 -238.177)" opacity="0.1"/>
    <path id="Path_226" data-name="Path 226" d="M337.309,298.12s5.383,3,5.988,4.412,2.836,2.42,2.836,2.42,4.25,2.226,4.25,10.121l2.227,11.132.4,21.253s-3.645-3.441-6.275-1.822-4.25-5.264-4.25-5.264-1.215-14.17-1.822-17.611-1.416-9.913-1.416-9.913-3.037-3.83-2.631-4.847S337.309,298.12,337.309,298.12Z" transform="translate(-273.39 -237.998)" fill="#d39999"/>
    <path id="Path_227" data-name="Path 227" d="M305.18,229.779A6.61,6.61,0,0,0,304,228.615a3.613,3.613,0,0,0-2.331-1.134,3.487,3.487,0,0,0-1.378.493q-3.228,1.7-6.438,3.436a5.987,5.987,0,0,0-2.158,1.647,6.349,6.349,0,0,0-.93,2.72,6.669,6.669,0,0,0-.091,1.988,2.494,2.494,0,0,0,.879,1.67c.577.419,1.367.422,1.85.971a5.41,5.41,0,0,1,.6,1.149c.2.386.541.762.933.694a.979.979,0,0,0,.684-.9,5.476,5.476,0,0,0-.074-1.271,3.009,3.009,0,0,1,.463-2.138c.305-.386.742-.62,1.037-1.017.707-.956.384-2.542,1.159-3.439a1.838,1.838,0,0,1,1.779-.508,7.6,7.6,0,0,1,1.779.762,13.217,13.217,0,0,0,2.438.94c.707.193,1.525.656,1.766-.285A6.327,6.327,0,0,0,305.18,229.779Z" transform="translate(-239.124 -185.311)" opacity="0.1"/>
    <path id="Path_228" data-name="Path 228" d="M304.38,228.979a6.61,6.61,0,0,0-1.179-1.164,3.613,3.613,0,0,0-2.331-1.134,3.487,3.487,0,0,0-1.378.493c-2.15,1.134-3.937.061-6.438,3.436-.534.722-1.606.879-2.158,1.647a6.349,6.349,0,0,0-.93,2.72,6.665,6.665,0,0,0-.091,1.988,2.493,2.493,0,0,0,.879,1.67c.577.419,1.367.422,1.85.971a5.409,5.409,0,0,1,.6,1.149c.2.386.541.763.933.694a.979.979,0,0,0,.684-.9,5.479,5.479,0,0,0-.074-1.271,3.009,3.009,0,0,1,.463-2.138c.3-.386.742-.62,1.037-1.017.707-.956.384-2.542,1.159-3.439a1.838,1.838,0,0,1,1.779-.508,7.605,7.605,0,0,1,1.779.762,13.218,13.218,0,0,0,2.437.94c.707.193,1.525.656,1.766-.285A6.254,6.254,0,0,0,304.38,228.979Z" transform="translate(-238.527 -184.715)" fill="#865a61"/>
    <path id="Path_229" data-name="Path 229" d="M258.156,353.71s-.2,7.49-1.215,8.5.607,2.227.607,2.227l4.049-1.017s-1.017,6.68,3.238,5.871c0,0-2.834,2.631-5.668,3.037s-2.638-.6-2.638-.6l-4.25-5.06Z" transform="translate(-210.514 -279.459)" fill="#d39999"/>
    <path id="Path_230" data-name="Path 230" d="M271.082,357.29s-2.7,6.883-.674,9.717l4.453-1.017s-4.049,1.215-3.441-1.215S271.082,357.29,271.082,357.29Z" transform="translate(-223.473 -282.129)" opacity="0.1"/>
    <path id="Path_231" data-name="Path 231" d="M269.43,421.811s5.871.4,7.49-.811a15.5,15.5,0,0,1-7.307,3.05Z" transform="translate(-223.305 -329.647)" opacity="0.1"/>
    <path id="Path_232" data-name="Path 232" d="M369,373.22s3.037,9.313,2.834,10.728-.607,17-.607,17l-.607-.2.2-17Z" transform="translate(-297.568 -294.011)" opacity="0.1"/>
    <path id="Path_233" data-name="Path 233" d="M870.048,476.83s4.448,8.731.823,13.506.33,17.792.33,17.792" transform="translate(-670.741 -371.286)" fill="#ffd2a4" stroke="#ffd2a4" stroke-miterlimit="10" stroke-width="1"/>
    <path id="Path_234" data-name="Path 234" d="M870.05,457.19a1.775,1.775,0,1,1-1.235-3.05A5.145,5.145,0,0,1,870.05,457.19Z" transform="translate(-669.426 -354.363)" fill="#ffd2a4"/>
    <path id="Path_235" data-name="Path 235" d="M874.6,476.83s-4.448,8.731-.823,13.506-.33,17.792-.33,17.792" transform="translate(-672.988 -371.286)" fill="#e67e93" stroke="#ffd2a4" stroke-miterlimit="10" stroke-width="1"/>
    <path id="Path_236" data-name="Path 236" d="M876,457.19a1.775,1.775,0,1,0,1.235-3.05A5.145,5.145,0,0,0,876,457.19Z" transform="translate(-675.706 -354.363)" fill="#e67e93"/>
    <path id="Path_238" data-name="Path 238" d="M886.248,476.83s4.448,8.731.823,13.506.33,17.792.33,17.792" transform="translate(-682.823 -371.286)" fill="#ffd2a4" stroke="#ffd2a4" stroke-miterlimit="10" stroke-width="1"/>
    <path id="Path_239" data-name="Path 239" d="M886.25,457.19a1.775,1.775,0,1,1-1.235-3.05A5.145,5.145,0,0,1,886.25,457.19Z" transform="translate(-681.509 -354.363)" fill="#ffd2a4"/>
    <path id="Path_240" data-name="Path 240" d="M881.964,484.71a5.135,5.135,0,0,1-3,1.339,4.376,4.376,0,0,1,4.227-4.389A5.127,5.127,0,0,1,881.964,484.71Z" transform="translate(-677.914 -374.889)" fill="#ffd2a4"/>
    <path id="Path_241" data-name="Path 241" d="M882.414,508.4a5.135,5.135,0,0,1-3,1.339,4.358,4.358,0,1,1,3-1.339Z" transform="translate(-678.249 -392.558)" fill="#ffd2a4"/>
    <path id="Path_242" data-name="Path 242" d="M857.74,526.012a1.774,1.774,0,1,1-2.93-1.492A5.133,5.133,0,0,1,857.74,526.012Z" transform="translate(-659.901 -406.855)" fill="#ffd2a4"/>
    <path id="Path_243" data-name="Path 243" d="M860.913,477.845a5.134,5.134,0,0,1,1.858,2.714,5.171,5.171,0,0,1-3.223-.646,5.114,5.114,0,0,1-1.858-2.714A5.1,5.1,0,0,1,860.913,477.845Z" transform="translate(-662.05 -371.531)" fill="#e67e93"/>
    <path id="Path_245" data-name="Path 245" d="M890.8,476.83s-4.448,8.731-.823,13.506-.33,17.792-.33,17.792" transform="translate(-685.07 -371.286)" fill="#e67e93" stroke="#ffd2a4" stroke-miterlimit="10" stroke-width="1"/>
    <path id="Path_246" data-name="Path 246" d="M892.21,457.19a1.775,1.775,0,1,0,1.235-3.05A5.145,5.145,0,0,0,892.21,457.19Z" transform="translate(-687.796 -354.363)" fill="#e67e93"/>
    <path id="Path_248" data-name="Path 248" d="M889.881,490.344a5.2,5.2,0,0,0-1.271,3.05,5.128,5.128,0,0,0,3.019-1.3,5.2,5.2,0,0,0,1.271-3.05A5.123,5.123,0,0,0,889.881,490.344Z" transform="translate(-685.111 -380.393)" fill="#e67e93"/>
    <path id="Path_250" data-name="Path 250" d="M898.991,523.174a5.2,5.2,0,0,0-1.271,3.05,5.129,5.129,0,0,0,3.019-1.3,5.2,5.2,0,0,0,1.271-3.05A5.092,5.092,0,0,0,898.991,523.174Z" transform="translate(-691.906 -404.879)" fill="#ffd2a4"/>
    <path id="Path_251" data-name="Path 251" d="M889.31,507.091s2.676-4.219,6.435-4.321" transform="translate(-685.633 -390.633)" fill="#e67e93" stroke="#ffd2a4" stroke-miterlimit="10" stroke-width="1"/>
    <path id="Path_252" data-name="Path 252" d="M862.225,497.061s-2.676-4.219-6.436-4.321" transform="translate(-660.633 -383.153)" fill="#e67e93" stroke="#ffd2a4" stroke-miterlimit="10" stroke-width="1"/>
    <path id="Path_253" data-name="Path 253" d="M879.74,520.761s2.676-4.219,6.435-4.321" transform="translate(-678.495 -400.829)" fill="#e67e93" stroke="#ffd2a4" stroke-miterlimit="10" stroke-width="1"/>
    <circle id="Ellipse_73" data-name="Ellipse 73" cx="0.694" cy="0.694" r="0.694" transform="translate(209.294 111.42)" fill="#e67e93"/>
    <circle id="Ellipse_74" data-name="Ellipse 74" cx="0.694" cy="0.694" r="0.694" transform="translate(194.527 108.929)" fill="#e67e93"/>
    <path id="Path_254" data-name="Path 254" d="M868.605,526.231s-2.676-4.219-6.435-4.321" transform="translate(-665.391 -404.909)" fill="#e67e93" stroke="#ffd2a4" stroke-miterlimit="10" stroke-width="1"/>
    <circle id="Ellipse_75" data-name="Ellipse 75" cx="0.694" cy="0.694" r="0.694" transform="translate(196.148 116.343)" fill="#e67e93"/>
    <circle id="Ellipse_76" data-name="Ellipse 76" cx="0.694" cy="0.694" r="0.694" transform="translate(207.037 114.953)" fill="#e67e93"/>
    <path id="Path_255" data-name="Path 255" d="M871.379,561.411s-6.451-1.291-8.171-3.012-9.463-4.722-10.322-2.58-11.613,9.47-4.308,10.759,17.2,1.721,19.355.859S871.379,561.411,871.379,561.411Z" transform="translate(-653.367 -429.646)" fill="#a8a8a8"/>
    <path id="Path_256" data-name="Path 256" d="M848.572,584.257c7.312,1.291,17.2,1.721,19.355.859,1.637-.656,2.776-3.812,3.225-5.266l.216.046s-1.291,5.162-3.441,6.021-12.042.43-19.355-.859c-2.11-.374-2.714-1.248-2.486-2.354C846.272,583.424,847.007,583.98,848.572,584.257Z" transform="translate(-653.362 -448.122)" opacity="0.2"/>
    <path id="Path_257" data-name="Path 257" d="M184.076,664.66s2.13,2.8-.984,6.99-5.681,7.755-4.641,10.38c0,0,4.7-7.81,8.52-7.92S188.279,669.357,184.076,664.66Z" transform="translate(-155.275 -511.376)" fill="#e67e93"/>
    <path id="Path_258" data-name="Path 258" d="M184.429,664.66a3.449,3.449,0,0,1,.435.874c3.731,4.382,5.716,8.471,2.132,8.576-3.34.1-7.345,6.067-8.306,7.577a3.236,3.236,0,0,0,.114.343s4.7-7.81,8.52-7.92S188.633,669.357,184.429,664.66Z" transform="translate(-155.629 -511.376)" opacity="0.1"/>
    <path id="Path_259" data-name="Path 259" d="M215.358,676.791c0,.981-.109,1.779-.254,1.779s-.254-.8-.254-1.779.137-.508.272-.508S215.358,675.813,215.358,676.791Z" transform="translate(-182.598 -519.96)" fill="#ffd037"/>
    <path id="Path_260" data-name="Path 260" d="M217.262,681.26c-.862.47-1.611.763-1.675.633s.579-.6,1.441-1.065.521-.127.587,0S218.124,680.79,217.262,681.26Z" transform="translate(-183.145 -523.257)" fill="#ffd037"/>
    <path id="Path_261" data-name="Path 261" d="M142.974,664.66s-2.13,2.8.984,6.99,5.681,7.755,4.641,10.378c0,0-4.7-7.81-8.52-7.92S138.771,669.357,142.974,664.66Z" transform="translate(-125.426 -511.376)" fill="#e67e93"/>
    <path id="Path_262" data-name="Path 262" d="M142.974,664.66a3.449,3.449,0,0,0-.435.874c-3.731,4.382-5.716,8.471-2.132,8.576,3.34.1,7.345,6.067,8.306,7.577a3.236,3.236,0,0,1-.114.343s-4.7-7.81-8.52-7.92S138.771,669.357,142.974,664.66Z" transform="translate(-125.426 -511.376)" opacity="0.1"/>
    <path id="Path_263" data-name="Path 263" d="M141.42,676.791c0,.981.109,1.779.254,1.779s.254-.8.254-1.779-.137-.508-.272-.508S141.42,675.813,141.42,676.791Z" transform="translate(-127.831 -519.96)" fill="#ffd037"/>
    <path id="Path_264" data-name="Path 264" d="M134.538,681.26c.862.47,1.611.763,1.675.633s-.579-.6-1.441-1.065-.521-.127-.587,0S133.677,680.79,134.538,681.26Z" transform="translate(-122.307 -523.257)" fill="#ffd037"/>
    <path id="Path_265" data-name="Path 265" d="M144.09,722.111s5.955-.183,7.75-1.461,9.15-2.8,9.6-.763,8.949,10.195,2.226,10.248S148.05,729.088,146.258,728,144.09,722.111,144.09,722.111Z" transform="translate(-129.823 -551.826)" fill="#a8a8a8"/>
    <path id="Path_266" data-name="Path 266" d="M163.8,738.855c-6.723.053-15.621-1.047-17.413-2.138-1.365-.831-1.909-3.812-2.089-5.188h-.2s.376,4.8,2.168,5.894,10.69,2.193,17.413,2.138c1.942-.015,2.61-.707,2.575-1.728C165.984,738.458,165.244,738.842,163.8,738.855Z" transform="translate(-129.83 -561.25)" opacity="0.2"/>
  </g>
</svg>
