<svg xmlns="http://www.w3.org/2000/svg" width="228.518" height="166.732" viewBox="0 0 228.518 166.732">
  <g id="Group_22" data-name="Group 22" transform="translate(-30.072 -8.05)">
    <path id="Path_68" data-name="Path 68" d="M362.607,765.335c0,1.648-5.677,3.192-15.583,4.519H159.655a47.21,47.21,0,0,1-23.744-6.347l-.111-.063c2.847-1.037,7.986-2,14.98-2.878h0l.314-.039c3.136-.384,6.642-.748,10.473-1.093a2.394,2.394,0,0,0,.292-.026h0q4.56-.405,9.7-.76c.109,0,.215-.019.323-.024q1.983-.142,4.048-.27h0l.531-.034c10.024-.622,21.419-1.119,33.776-1.448h.014q2.6-.072,5.247-.128,2.948-.07,5.969-.123c1.537-.034,3.093-.058,4.654-.082h.036c7.042-.106,14.319-.159,21.759-.159,18.4,0,35.788.335,51.2.938h.043c2.369.092,4.695.193,6.963.3l1.93.092q3.838.183,7.479.393h0C344.069,759.724,362.607,762.361,362.607,765.335Z" transform="translate(-105.728 -595.072)" fill="#6c63ff" opacity="0.1"/>
    <g id="Group_19" data-name="Group 19" transform="translate(149.889 95.293)" opacity="0.2">
      <path id="Path_69" data-name="Path 69" d="M675.156,740.922a4.581,4.581,0,0,1-.089.774q-2.519-.4-5.066-.724v-.207a4.072,4.072,0,0,1,.6-2.046,2.244,2.244,0,0,1,4.084.125A4.07,4.07,0,0,1,675.156,740.922Z" transform="translate(-660.938 -676.013)" fill="#3f3d56"/>
      <ellipse id="Ellipse_32" data-name="Ellipse 32" cx="3.38" cy="2.581" rx="3.38" ry="2.581" transform="translate(9.089 64.002) rotate(-88.19)" fill="#3f3d56"/>
      <ellipse id="Ellipse_33" data-name="Ellipse 33" cx="3.38" cy="2.581" rx="3.38" ry="2.581" transform="translate(9.221 59.871) rotate(-88.19)" fill="#3f3d56"/>
      <ellipse id="Ellipse_34" data-name="Ellipse 34" cx="3.38" cy="2.581" rx="3.38" ry="2.581" transform="translate(9.35 55.741) rotate(-88.19)" fill="#3f3d56"/>
      <ellipse id="Ellipse_35" data-name="Ellipse 35" cx="3.38" cy="2.581" rx="3.38" ry="2.581" transform="translate(9.479 51.611) rotate(-88.19)" fill="#3f3d56"/>
      <path id="Path_70" data-name="Path 70" d="M635.825,502.483a11.968,11.968,0,0,1-.917-1.448l6.818-.9-7.339-.176a12.4,12.4,0,0,1,.075-9.8l9.679,5.416-8.866-6.958a12.372,12.372,0,1,1,19.986,14.475,12.258,12.258,0,0,1,1.339,2.3l-8.948,4.294,9.489-2.854a12.386,12.386,0,0,1-2.369,11.559,12.372,12.372,0,1,1-19.436-.613,12.372,12.372,0,0,1,.483-15.291Z" transform="translate(-632.44 -482.747)" fill="#fff" opacity="0.78"/>
      <path id="Path_71" data-name="Path 71" d="M657.666,598.5a12.3,12.3,0,0,1-2.9,7.561,12.372,12.372,0,1,1-19.436-.613C633.75,603.292,657.71,597.111,657.666,598.5Z" transform="translate(-632.44 -570.421)" opacity="0.1"/>
    </g>
    <g id="Group_20" data-name="Group 20" transform="translate(113.219 95.293)" opacity="0.2">
      <path id="Path_72" data-name="Path 72" d="M523.156,740.922a4.587,4.587,0,0,1-.089.774q-2.519-.4-5.066-.724v-.207a4.071,4.071,0,0,1,.6-2.046,2.244,2.244,0,0,1,4.084.125A4.071,4.071,0,0,1,523.156,740.922Z" transform="translate(-508.939 -676.013)" fill="#3f3d56"/>
      <ellipse id="Ellipse_36" data-name="Ellipse 36" cx="3.38" cy="2.581" rx="3.38" ry="2.581" transform="translate(9.086 64.003) rotate(-88.19)" fill="#3f3d56"/>
      <ellipse id="Ellipse_37" data-name="Ellipse 37" cx="3.38" cy="2.581" rx="3.38" ry="2.581" transform="translate(9.218 59.872) rotate(-88.19)" fill="#3f3d56"/>
      <ellipse id="Ellipse_38" data-name="Ellipse 38" cx="3.38" cy="2.581" rx="3.38" ry="2.581" transform="translate(9.347 55.742) rotate(-88.19)" fill="#3f3d56"/>
      <ellipse id="Ellipse_39" data-name="Ellipse 39" cx="3.38" cy="2.581" rx="3.38" ry="2.581" transform="translate(9.476 51.612) rotate(-88.19)" fill="#3f3d56"/>
      <path id="Path_73" data-name="Path 73" d="M483.825,502.483a11.976,11.976,0,0,1-.917-1.448l6.818-.9-7.339-.176a12.4,12.4,0,0,1,.075-9.8l9.679,5.416-8.866-6.958a12.372,12.372,0,1,1,19.986,14.475,12.257,12.257,0,0,1,1.339,2.3l-8.948,4.294,9.489-2.854a12.386,12.386,0,0,1-2.369,11.559,12.372,12.372,0,1,1-19.436-.613,12.372,12.372,0,0,1,.483-15.291Z" transform="translate(-480.44 -482.747)" fill="#fff" opacity="0.78"/>
      <path id="Path_74" data-name="Path 74" d="M505.666,598.5a12.3,12.3,0,0,1-2.9,7.561,12.372,12.372,0,1,1-19.436-.613C481.75,603.292,505.71,597.111,505.666,598.5Z" transform="translate(-480.44 -570.421)" opacity="0.1"/>
    </g>
    <g id="Group_21" data-name="Group 21" transform="translate(200.251 37.926)" opacity="0.2">
      <path id="Path_75" data-name="Path 75" d="M923.295,741.753a9,9,0,0,1-.176,1.467q-4.849-.774-9.768-1.385v-.4a7.84,7.84,0,0,1,1.163-3.94,4.327,4.327,0,0,1,7.872.241,7.85,7.85,0,0,1,.91,4.015Z" transform="translate(-895.94 -616.839)" fill="#3f3d56"/>
      <ellipse id="Ellipse_40" data-name="Ellipse 40" cx="6.509" cy="4.972" rx="6.509" ry="4.972" transform="translate(17.473 123.164) rotate(-88.19)" fill="#3f3d56"/>
      <ellipse id="Ellipse_41" data-name="Ellipse 41" cx="6.509" cy="4.972" rx="6.509" ry="4.972" transform="translate(17.724 115.212) rotate(-88.19)" fill="#3f3d56"/>
      <ellipse id="Ellipse_42" data-name="Ellipse 42" cx="6.509" cy="4.972" rx="6.509" ry="4.972" transform="translate(17.977 107.26) rotate(-88.19)" fill="#3f3d56"/>
      <ellipse id="Ellipse_43" data-name="Ellipse 43" cx="6.509" cy="4.972" rx="6.509" ry="4.972" transform="translate(17.949 98.964) rotate(-88.282)" fill="#3f3d56"/>
      <path id="Path_76" data-name="Path 76" d="M847.684,282.916a23.947,23.947,0,0,1-1.764-2.782l13.124-1.732-14.126-.34a23.86,23.86,0,0,1,.14-18.876L863.7,269.611,846.63,256.216A23.817,23.817,0,1,1,885.1,284.1a23.813,23.813,0,0,1,2.579,4.427L870.454,296.8l18.266-5.5a23.824,23.824,0,0,1-4.543,22.232,23.817,23.817,0,1,1-37.419-1.18,23.824,23.824,0,0,1,.926-29.433Z" transform="translate(-841.186 -244.965)" fill="#fff" opacity="0.78"/>
      <path id="Path_77" data-name="Path 77" d="M889.765,467.614a23.725,23.725,0,0,1-5.549,14.557,23.817,23.817,0,1,1-37.419-1.18C843.724,476.84,889.85,464.944,889.765,467.614Z" transform="translate(-841.216 -413.606)" opacity="0.1"/>
    </g>
    <path id="Path_78" data-name="Path 78" d="M157.82,188.585l2.531-.007h3.568l4.511-73.289,44.678-74.555-1.942-2.084V33.37l-48.319,80.191Z" transform="translate(-119.76 -25.32)" fill="#f1c0c0"/>
    <path id="Path_79" data-name="Path 79" d="M169.43,205.179h3.3l4.511-73.289,44.678-74.555-1.942-2.084-46.085,75.523Z" transform="translate(-128.569 -41.921)" opacity="0.1"/>
    <path id="Path_80" data-name="Path 80" d="M126.91,663.144,242.677,672l.1.007,112.037-6.89.084,0v-4.731l-123.451-2.265-102.995-.1H127.7l-.082.531Z" transform="translate(-96.307 -499.269)" fill="#f1c0c0"/>
    <path id="Path_81" data-name="Path 81" d="M126.91,663.144,242.677,672l.1.007,112.037-6.89.084-.092v-4.545h-.1l-112.121,3.744L128.452,658.02h-.017l-.2.133-.615.4Z" transform="translate(-96.307 -499.269)" opacity="0.1"/>
    <path id="Path_82" data-name="Path 82" d="M126.91,663.562l115.767,8.859v-7.776L128.232,658.57l-.615.4Z" transform="translate(-96.307 -499.686)" opacity="0.1"/>
    <path id="Path_83" data-name="Path 83" d="M378.88,38.724,429.918,93.5l-1.578,96.358,4.335.524.072.01h4.335l.519-92.753,95.569,31.923,1.612,56.84,3.489.391,1.182.133-2.736-61.306-99.9-35.074L382.033,33.6H378.88Z" transform="translate(-287.488 -25.494)" fill="#f1c0c0"/>
    <path id="Path_84" data-name="Path 84" d="M620.65,291.7l.393,1.773L716.612,325.4l1.612,56.84,3.489.391-2.736-58.413Z" transform="translate(-470.93 -221.326)" opacity="0.1"/>
    <path id="Path_85" data-name="Path 85" d="M378.88,38.724,429.918,93.5l-1.578,96.358,4.335.524,1.182-100.034L378.88,33.6Z" transform="translate(-287.488 -25.494)" opacity="0.1"/>
    <path id="Path_86" data-name="Path 86" d="M621.42,432.308l35.052,6.9.012,0,61.392,12.094,2.811-1.127-.01-.2-.183-3.92L621.456,426.05Z" transform="translate(-471.514 -323.263)" fill="#f1c0c0"/>
    <path id="Path_87" data-name="Path 87" d="M766.76,480.61,828.152,492.7l2.811-1.127-.01-.2Z" transform="translate(-581.79 -364.66)" opacity="0.1"/>
    <path id="Path_88" data-name="Path 88" d="M776.49,350.56l.948,52.193.49,26.777,4.316-.145,2.716-.092-.844-77.979-1.872-.622-.41-.133Z" transform="translate(-589.172 -265.986)" fill="#f1c0c0"/>
    <path id="Path_89" data-name="Path 89" d="M776.65,350.51v.012l.91,52.193.49,26.777,4.316-.145V350.51Z" transform="translate(-589.294 -265.948)" opacity="0.1"/>
    <path id="Path_90" data-name="Path 90" d="M484.975,483.12a5.5,5.5,0,0,1,.724.47,4.79,4.79,0,0,1,.724.794,7.141,7.141,0,0,1,1.889,4.584,1.865,1.865,0,0,1-.538,1.327,2.411,2.411,0,0,1-1.6.381,3.405,3.405,0,0,1-1.773-.314c-.526-.314-.965-.924-1.587-.91a.814.814,0,0,1-.265,0c-.215-.07-.258-.352-.4-.531-.241-.321-.75-.241-1.129-.1a1.637,1.637,0,0,1-1.172.188,1.218,1.218,0,0,1-.509-.509,11.205,11.205,0,0,1-1.255-4.869c-.1-1.023-.9-4.511,1.288-3.718a18.106,18.106,0,0,1,2.745,1.551Z" transform="translate(-365.264 -385.216)" fill="#5d5d5d"/>
    <path id="Path_91" data-name="Path 91" d="M497.014,490.867a1.076,1.076,0,0,0,1.324-.053,2,2,0,0,0,.644-1.25c.241-.075.364.241.519.434.27.328.82.323,1.066.673.171.241.133.577.253.849.157.352.545.536.811.82a2.793,2.793,0,0,1,.531,1.059l.4,1.187a5.866,5.866,0,0,1,.362,1.537,1.99,1.99,0,0,1-.458,1.469,3.894,3.894,0,0,1-2.934.526,2.164,2.164,0,0,1-1.3-1.592,20.094,20.094,0,0,1-.268-2.128,8.344,8.344,0,0,0-.6-2.022c-.212-.5-.8-1.25-.786-1.783C496.743,490.595,496.869,490.754,497.014,490.867Z" transform="translate(-379.46 -392.619)" fill="#5d5d5d"/>
    <path id="Path_92" data-name="Path 92" d="M491.65,475.09a3.984,3.984,0,0,1-.2-1.059,4.611,4.611,0,0,1,.663-2.051l-2.758.374a1.221,1.221,0,0,0-.893.391.965.965,0,0,0,0,.89,4.548,4.548,0,0,1,.328.861,4.3,4.3,0,0,0,.089.774,1.64,1.64,0,0,0,.355.5,16.729,16.729,0,0,1,1.969,2.924c-.017-.029,1.662-1.329,1.595-1.754-.039-.241-.524-.531-.678-.762A3.882,3.882,0,0,1,491.65,475.09Z" transform="translate(-373.23 -379.285)" fill="#be6f72"/>
    <path id="Path_93" data-name="Path 93" d="M431.387,358.04v2.376l-40.693,7.937-2.111,1.279H381.3v-1.339l39.981-9.66Z" transform="translate(-289.324 -271.661)" fill="#f1c0c0"/>
    <path id="Path_94" data-name="Path 94" d="M431.387,367.89l-40.693,7.937-2.111,1.279H381.3l40.278-8.62Z" transform="translate(-289.324 -279.135)" opacity="0.1"/>
    <path id="Path_95" data-name="Path 95" d="M443.266,721.817A3.153,3.153,0,0,0,439.43,721a1.01,1.01,0,0,0-.352.275c-.241.338-.087.8-.065,1.221a3.655,3.655,0,0,1-1.484,2.557,3.508,3.508,0,0,0-.965,1.308,1.225,1.225,0,0,0,.427,1.448,1.776,1.776,0,0,0,.661.183,7.135,7.135,0,0,0,2.34.065,2.536,2.536,0,0,0,1.858-1.293,1.362,1.362,0,0,1,.311-.514c.425-.335,1.076.058,1.559-.181.4-.2.415-.509.42-.919A5.323,5.323,0,0,0,443.266,721.817Z" transform="translate(-333.874 -567.978)" fill="#ffb367"/>
    <path id="Path_96" data-name="Path 96" d="M472.154,716.176a7.941,7.941,0,0,1,.376,2.468,2.381,2.381,0,0,1-.224,1.406,1.922,1.922,0,0,1-1.257.724,2.882,2.882,0,0,1-2.82-.786,2.976,2.976,0,0,1-.509-2.239c.077-.649.241-1.409-.224-1.87-.121-.123-.277-.21-.388-.343a1.149,1.149,0,0,1-.072-1.1,4.777,4.777,0,0,0,.379-1.088,14.052,14.052,0,0,1,3.566.273c.408.2.345.536.468.941C471.619,715.126,471.947,715.635,472.154,716.176Z" transform="translate(-356.972 -562.38)" fill="#ffb367"/>
    <path id="Path_97" data-name="Path 97" d="M441.8,579.235a2.68,2.68,0,0,1,.982,1.976c.273,2.063-.205,4.147-.241,6.229-.034,2.917.811,5.887.089,8.712-.432,1.689-.065,3.619-.47,5.324-.121.507-.343.984-.458,1.491a6.5,6.5,0,0,0,.352,3.32,3.43,3.43,0,0,1,.205.9,3.238,3.238,0,0,1-.352,1.361l-1.448,3.423c-.162.384-.8.446-1.206.5a3.017,3.017,0,0,1-2.234-.318,2.858,2.858,0,0,1-.852-2.015,30.885,30.885,0,0,1-.241-4.3,3.544,3.544,0,0,0-.1-1.117,9.79,9.79,0,0,1-.5-1.206,4.844,4.844,0,0,1,.292-1.689,5.087,5.087,0,0,0-.024-1.566c-.094-.772-.2-1.544-.326-2.311a10.242,10.242,0,0,1,.241-3.209,8.847,8.847,0,0,0-.241-3.045,8.4,8.4,0,0,1-.3,2.413c-.128.384-.311.75-.422,1.141-.495,1.754.56,3.595.41,5.411a13.407,13.407,0,0,0-.309,2.526,8.521,8.521,0,0,0,.545,1.759,2.28,2.28,0,0,1,0,1.8c-.784,1.481-.2,3.5.5,5.016a6.776,6.776,0,0,1,.372.835,9.971,9.971,0,0,1,.089,2.135,1.346,1.346,0,0,1-1.132-.34c-.106-.111-.193-.241-.3-.357a2.946,2.946,0,0,0-1.008-.63,1.324,1.324,0,0,0-.724-.167,1.448,1.448,0,0,0-.688.427,6.743,6.743,0,0,1-.758.577.9.9,0,0,1-.386.171.34.34,0,0,1-.355-.181.43.43,0,0,1-.027-.125,19.1,19.1,0,0,1-.142-2.2c0-1.262-1.51-2.13-1.7-3.378-.152-1.006.13-2.031.036-3.045a14.81,14.81,0,0,1-.181-1.554c0-.338.077-.668.1-1a7.5,7.5,0,0,0-.017-1.117l-.075-1.165a10.07,10.07,0,0,0-.606-3.378,11.477,11.477,0,0,1-.941-3.879c-.048-.844-.017-1.689-.113-2.536a12.487,12.487,0,0,1-.224-2.292c.046-.593.241-1.168.287-1.761a9,9,0,0,0-.68-3.344,4.949,4.949,0,0,1-.145-3.358,1.1,1.1,0,0,1,.309-.449,1.347,1.347,0,0,1,.569-.212,44.179,44.179,0,0,1,12.6-.8,4.182,4.182,0,0,1,1.942.606Z" transform="translate(-326.025 -460.098)" fill="#5d5d5d"/>
    <circle id="Ellipse_44" data-name="Ellipse 44" cx="3.865" cy="3.865" r="3.865" transform="translate(98.217 85.783)" fill="#be6f72"/>
    <path id="Path_98" data-name="Path 98" d="M426.491,467.448a1.38,1.38,0,0,1,0,.673,1.525,1.525,0,0,1-.253.425A10.9,10.9,0,0,1,425,469.892a2.241,2.241,0,0,0,1.156,1.141,6.709,6.709,0,0,0,1.595.456,1.672,1.672,0,0,0,1.563-.27l2.147-1.286a4.29,4.29,0,0,0,.893-.644,2.2,2.2,0,0,0,.622-1.51.415.415,0,0,0-.077-.285.507.507,0,0,0-.294-.123,2.617,2.617,0,0,1-1.689-1.474,7.807,7.807,0,0,1-.586-2.236l-2.29,1.206c-.34.181-.678.362-1.03.519-.224.1-.678.186-.837.391C425.869,466.155,426.411,466.992,426.491,467.448Z" transform="translate(-325.157 -372.972)" fill="#be6f72"/>
    <path id="Path_99" data-name="Path 99" d="M422.535,478.836a2.545,2.545,0,0,0-.741,1,2.609,2.609,0,0,0,.135,1.469,43.836,43.836,0,0,1,1.448,6.222c.2,1.448.277,2.917.376,4.381.2,2.987.5,7.749.89,10.717a28.449,28.449,0,0,0,4.294-.511c2.683-.285,5.445.367,8.072-.241-.637-2.516-1.274-6.813-1.911-9.327a17.8,17.8,0,0,1-.584-3.028c-.056-.736-.022-1.474-.012-2.215.022-1.448-.058-2.9-.138-4.343a27.548,27.548,0,0,0-.584-5.03.936.936,0,0,0-.28-.552,1.133,1.133,0,0,0-.842-.075,3.662,3.662,0,0,1-2.5-.594c-.318-.217-.745-.483-1.042-.241a1.038,1.038,0,0,0-.241.514,2.569,2.569,0,0,1-1.51,1.489,7.556,7.556,0,0,1-2.138.439,1.05,1.05,0,0,1-.663-.075c-.343-.21-.367-.965-.8-1.016C423.384,477.777,422.79,478.592,422.535,478.836Z" transform="translate(-322.677 -382.618)" fill="#5d5d5d"/>
    <path id="Path_100" data-name="Path 100" d="M414.777,485.23a14.676,14.676,0,0,1-1.93-3.136,6.983,6.983,0,0,0-1.667-1.834,4.975,4.975,0,0,1-.907-.77c-.229-.282-.4-.659-.75-.767a.907.907,0,0,0-.813.224,7.99,7.99,0,0,0-.6.642c-1.023,1.059-2.82,1.206-3.631,2.432a1.993,1.993,0,0,0-.432.9,7.011,7.011,0,0,0,1.288,5.042,1.713,1.713,0,0,0,.893.724,2.793,2.793,0,0,0,.174,1.327,35.482,35.482,0,0,0,1.643,4.475,10.829,10.829,0,0,0-.323,1.735c-.169,1.474-.012,2.97-.171,4.446-.13,1.206-.482,2.381-.495,3.59,0,.193.017.422.183.521a.554.554,0,0,0,.287.06l2.967.089a24.085,24.085,0,0,0,5.158-.217,2.146,2.146,0,0,0,.649-.205,2.18,2.18,0,0,0,.857-1.689,14.719,14.719,0,0,0,.142-2.524,4.116,4.116,0,0,0,1.872,2.8,4.2,4.2,0,0,0,1.86.224,35.027,35.027,0,0,0,4.051-.417.533.533,0,0,0,.591-.62l.014-1.317c.029-2.676-.635-5.233-.893-7.9a17.166,17.166,0,0,0-.28-2.511c-.084-.345-.208-.683-.282-1.03a7.357,7.357,0,0,1-.121-1.03l-.188-2.654c-.089-1.228-.217-2.413-.311-3.638a17.612,17.612,0,0,0-.516-3.537c-.21-.724-.647-1.544-1.4-1.633a2.889,2.889,0,0,0-1.177.253,4.758,4.758,0,0,1-2.9-.012,4.076,4.076,0,0,0-.9-.241.885.885,0,0,0-.825.343,1.238,1.238,0,0,0-.128.608A32.18,32.18,0,0,1,414.777,485.23Z" transform="translate(-309.211 -383.121)" fill="#89c48b"/>
    <path id="Path_101" data-name="Path 101" d="M411.572,500.146a14.648,14.648,0,0,0-3.686-3.112,2.945,2.945,0,0,0-1.831-.405,1.371,1.371,0,0,0-1.177,1.288,8.337,8.337,0,0,0,.333,1.127,11.833,11.833,0,0,0,.1,1.317,2.229,2.229,0,0,0,.483.741l1.708,2.024a11,11,0,0,0,2.379,2.285,3.576,3.576,0,0,0,3.16.441,3.884,3.884,0,0,0,1.732-1.59c.425-.676.724-1.414,1.122-2.111a10.482,10.482,0,0,1,2.413-2.926,2.68,2.68,0,0,1-1.448-.724,2.393,2.393,0,0,1-.229-.415l-.391-.844a.965.965,0,0,0-.724.273,6.067,6.067,0,0,1-.538.548c-.34.256-.8.326-1.11.618a2.943,2.943,0,0,0-.323.405A2.707,2.707,0,0,1,411.572,500.146Z" transform="translate(-309.888 -397.965)" fill="#5d5d5d"/>
    <path id="Path_102" data-name="Path 102" d="M452.824,468.821c.837-1.527.8-3.358,1.037-5.083a2.321,2.321,0,0,1,.461-1.262,2.4,2.4,0,0,1,2.063-.483c.215.024.483.125.47.34a.434.434,0,0,1-.109.205,5.739,5.739,0,0,0-1.192,3.165c.379.263.965-.277,1.329,0,.241.2.13.6-.014.893q-.5,1.006-1.04,2a6.416,6.416,0,0,1-1.1,1.59c-.306.294-.666.526-.977.815-.724.678-1.16,1.636-1.908,2.3a.391.391,0,0,1-.241.123.405.405,0,0,1-.253-.113,3.658,3.658,0,0,1-.912-1.1c-.285-.526-.241-.68.207-1.052A7.974,7.974,0,0,0,452.824,468.821Z" transform="translate(-344.32 -371.684)" fill="#be6f72"/>
    <path id="Path_103" data-name="Path 103" d="M412.6,496.853c.145.089.323.191.483.116a.5.5,0,0,0,.162-.157,5.68,5.68,0,0,0,.685-1.192.459.459,0,0,0,.051-.193c0-.154-.138-.268-.265-.357a9.832,9.832,0,0,0-2.193-1.042,4.526,4.526,0,0,0-1.978-.391,1.887,1.887,0,0,0-1.32.671c-.483.62.326.808.832,1.033A32.18,32.18,0,0,1,412.6,496.853Z" transform="translate(-312.316 -395.709)" fill="#89c48b"/>
    <path id="Path_104" data-name="Path 104" d="M423.668,517.116a.355.355,0,0,0,.1.3c.07-.343-.022-.7.051-1.049.106-.519.61-.91.654-1.431C423.55,514.759,423.675,516.556,423.668,517.116Z" transform="translate(-324.143 -411.871)" opacity="0.1"/>
    <path id="Path_105" data-name="Path 105" d="M557.126,358.04v2.376l-9.809.6-.3-2.379Z" transform="translate(-415.063 -271.661)" opacity="0.2"/>
    <path id="Path_106" data-name="Path 106" d="M416.153,443.778c.613-.5.258-1.546.673-2.217a2.154,2.154,0,0,1,1.049-.724,4.773,4.773,0,0,1,1.532-.425,1.778,1.778,0,0,1,1.448.533c.157.179.263.4.41.581a1.568,1.568,0,0,0,1.52.526c.321-.072.654-.316.632-.644a.909.909,0,0,0-.29-.516l-.69-.765a5.476,5.476,0,0,0-2.806-2.007,4.813,4.813,0,0,0-2.393.321c-.311.1-.661.258-.748.574-.058.217.029.454-.022.673-.1.437-.659.584-.919.951s-.181.8-.256,1.206a10.546,10.546,0,0,0-.318,1.221c-.017.253.111.724.4.815S415.977,443.477,416.153,443.778Z" transform="translate(-317.549 -353.556)" fill="#3f3d56"/>
    <path id="Path_107" data-name="Path 107" d="M422.537,434.832a7.238,7.238,0,0,0-1.283-2.934,5.141,5.141,0,0,0-2.285-1.814,3.272,3.272,0,0,0-2.844.224A4.131,4.131,0,0,0,414.7,432.1a4.793,4.793,0,0,0-.13,4.285c.289-.352.786-.193,1.226-.321a12.776,12.776,0,0,0,1.539-.753C418.918,434.615,420.848,435.18,422.537,434.832Z" transform="translate(-316.904 -347.327)" fill="#fed253"/>
    <path id="Path_108" data-name="Path 108" d="M417.308,446.055a1.474,1.474,0,0,1,.217-1.247.157.157,0,0,1,.128-.058.166.166,0,0,1,.1.087,5.4,5.4,0,0,1,.454.888.922.922,0,0,0-.965.374" transform="translate(-319.269 -358.624)" opacity="0.1"/>
    <path id="Path_109" data-name="Path 109" d="M440.533,441.308l-.087-.861a.393.393,0,0,1,.017-.212.273.273,0,0,1,.352-.1.724.724,0,0,1,.282.282,5.065,5.065,0,0,1,.5.982,2.92,2.92,0,0,0-1.175.014" transform="translate(-336.857 -355.103)" opacity="0.1"/>
    <path id="Path_110" data-name="Path 110" d="M406.025,502.21v1.969l-1.662.111H395.62v-2.08Z" transform="translate(-300.189 -381.049)" opacity="0.1"/>
    <path id="Path_111" data-name="Path 111" d="M319.089,394.7v2.08H308.683L281.04,362.156V360.52h5.795Z" transform="translate(-213.253 -273.543)" fill="#f1c0c0"/>
    <path id="Path_112" data-name="Path 112" d="M319.089,394.7v2.08H308.683L281.04,362.156V360.52h5.795Z" transform="translate(-213.253 -273.543)" opacity="0.1"/>
    <path id="Path_113" data-name="Path 113" d="M319.089,394.7v2.08H308.683L281.04,362.156V360.52L308.833,394.7Z" transform="translate(-213.253 -273.543)" opacity="0.1"/>
    <path id="Path_114" data-name="Path 114" d="M298.085,728.7a.724.724,0,0,1-.632.852,4.3,4.3,0,0,0-1.858.965,1.328,1.328,0,0,0,0,1.884,1.831,1.831,0,0,0,.965.263,6.538,6.538,0,0,0,3.223-.4,4.783,4.783,0,0,1,2.157-.837c.4.024.832.212,1.192.029s.461-.695.463-1.122a8.306,8.306,0,0,0-.4-2.627,10.549,10.549,0,0,0-1.754-.241l-1.86-.241c-.352-.046-1.112-.311-1.39-.017S298.085,728.346,298.085,728.7Z" transform="translate(-226.674 -572.828)" fill="#ffb367"/>
    <path id="Path_115" data-name="Path 115" d="M352.957,697.6a5.83,5.83,0,0,0,.381,1.264,2.943,2.943,0,0,0,1.221,1.672,2.179,2.179,0,0,0,1.863-.089,1.534,1.534,0,0,0,.62-.47,1.868,1.868,0,0,0,.241-1.083,5.917,5.917,0,0,0-.483-2.729c-.367-.724-1.006-1.346-1.016-2.147l-2.2.425a.628.628,0,0,0-.323.128.557.557,0,0,0-.14.263A7.182,7.182,0,0,0,352.957,697.6Z" transform="translate(-270.446 -547.756)" fill="#ffb367"/>
    <path id="Path_116" data-name="Path 116" d="M244.241,601.339a3.591,3.591,0,0,0,.352,2.28,1.764,1.764,0,0,0,2,.847.292.292,0,0,0,.181-.138.34.34,0,0,0-.031-.241,3.561,3.561,0,0,1,.075-2.683c.048-.111.152-.241.265-.2a.241.241,0,0,1,.109.111,1.262,1.262,0,0,1,.169.666,2.476,2.476,0,0,0-.019.639c.046.208.268.4.461.314a.482.482,0,0,0,.22-.311,10.285,10.285,0,0,0,.048-4.885.256.256,0,0,0-.287-.268c-1.139-.113-1.761-.386-2.413.673A6.613,6.613,0,0,0,244.241,601.339Z" transform="translate(-187.975 -474.412)" fill="#b7b7b7"/>
    <path id="Path_117" data-name="Path 117" d="M297.35,595.281a14.794,14.794,0,0,0-.5,6.953l.253,2.089c.087.7.171,1.406.294,2.1a5.587,5.587,0,0,1,.128,1.093,5.855,5.855,0,0,1-.171,1.074,12.545,12.545,0,0,0-.253,2.244c-.027,1.206.123,2.413.217,3.619a40.3,40.3,0,0,1-.084,7.218,2.707,2.707,0,0,0,.4,1.86,2.392,2.392,0,0,1,.35.574c.181.552-.241,1.1-.35,1.672a1.689,1.689,0,0,0,1.4,1.93c1.93.229,3.913.125,5.653,1.008.183-.536-.217-1.144-.034-1.689.116-.338.434-.557.651-.842a2.451,2.451,0,0,0,.415-1.472,5.378,5.378,0,0,0-.357-2,4.316,4.316,0,0,1-.483-1.624,2.051,2.051,0,0,0-.014-.832,1.3,1.3,0,0,0-.311-.388,4.9,4.9,0,0,1-1.262-2.859,13.167,13.167,0,0,1,.1-3.17,5.386,5.386,0,0,1,.912-2.832,18.175,18.175,0,0,1,.509-7.057c.063-.212.162-.458.379-.509a.541.541,0,0,1,.463.183,3.163,3.163,0,0,1,.724,1.361,2.967,2.967,0,0,1,.227,1.648c-.058.241-.174.454-.241.685a2.032,2.032,0,0,0,.072,1.416,1.36,1.36,0,0,1,.174.533,1.476,1.476,0,0,1-.145.463,2.133,2.133,0,0,0,.2,1.725,6.246,6.246,0,0,0,1.127,1.382,5.066,5.066,0,0,0,.157,2.789.352.352,0,0,1,.031.268c-.043.092-.154.125-.241.191-.241.2-.092.572.07.83a19.028,19.028,0,0,0,1.464,2.031c.483.577.439,1.689,1.158,1.9a2.171,2.171,0,0,0,.917,0,2.4,2.4,0,0,0,1.848-.941,2.533,2.533,0,0,1,.422-.765c.222-.193.509-.227.632-.458s-.014-.536.027-.8.275-.482.35-.765c.178-.651-.581-1.187-.685-1.853-.15-.965,1.066-1.689,1.016-2.654-.106-2.1-.174-4.2-.282-6.3a45.417,45.417,0,0,1-.058-5.643,7.935,7.935,0,0,0-.188-3.484,4.667,4.667,0,0,0-3.969-2.56,19.545,19.545,0,0,0-4.924.482A31.121,31.121,0,0,1,297.35,595.281Z" transform="translate(-227.772 -472.313)" fill="#5d5d5d"/>
    <circle id="Ellipse_45" data-name="Ellipse 45" cx="3.865" cy="3.865" r="3.865" transform="translate(70.61 92.179)" fill="#fbbebe"/>
    <path id="Path_118" data-name="Path 118" d="M308.273,497.222a1.648,1.648,0,0,1-1.575,1,1.943,1.943,0,0,0,.579,1.619,6.871,6.871,0,0,0,6.577,2.256,3.245,3.245,0,0,0,1.3-.54,2.873,2.873,0,0,0,.989-1.713,8.516,8.516,0,0,0,.094-2.014.521.521,0,0,0-.106-.372.531.531,0,0,0-.338-.111,5.858,5.858,0,0,1-2.384-.5,1.7,1.7,0,0,1-.881-2.048,8.649,8.649,0,0,1-1.65.2c-.581.082-1.163.174-1.742.28a3.169,3.169,0,0,0-.818.154c-.35.181-.22.092-.138.42A2,2,0,0,1,308.273,497.222Z" transform="translate(-235.371 -396.592)" fill="#fbbebe"/>
    <path id="Path_119" data-name="Path 119" d="M267,505.763a6.4,6.4,0,0,1-1.546-.171,2.172,2.172,0,0,1-1.269-.847c-.179-.27-.294-.61-.579-.762-.466-.241-1,.166-1.368.54a4.97,4.97,0,0,1-1.163.936c-.516.273-1.119.369-1.607.69a4.039,4.039,0,0,0-.965,1.042l-3.419,4.656c-1.373,1.872-2.567,3.882-3.79,5.858a41.42,41.42,0,0,0-2.413,5.525.618.618,0,0,0-.075.372c.029.125.181.227.287.154-.359.357-.043.965-.128,1.467a1.8,1.8,0,0,1-.574.9,4.536,4.536,0,0,1,1.592.075,4.88,4.88,0,0,1,1.505.724c.292-.046.265-.565.483-.758.13-.113.323-.1.495-.133.644-.125.9-.9,1.394-1.337.413-.364,1-.483,1.433-.825.709-.557.861-1.549,1.233-2.372.316-.7.813-1.305,1.09-2.019a8.7,8.7,0,0,1,.526-1.392,3.985,3.985,0,0,1,1.93-1.387,3.2,3.2,0,0,1,1.469-.393,13.644,13.644,0,0,0,.075,3.322c.084.386.2.762.3,1.146a21.579,21.579,0,0,1,.591,5.308,16.155,16.155,0,0,1,3.378-.405c.9-.026,1.788.089,2.683.072,1.062-.019,2.111-.224,3.173-.3a5.926,5.926,0,0,1,3.11.483,29.54,29.54,0,0,1,.128-4.584l.256-2.4a14.737,14.737,0,0,1,.321-2.07c.14-.55.343-1.081.5-1.628a18.64,18.64,0,0,0,.34-6,7.562,7.562,0,0,0-.919-2.967,8.026,8.026,0,0,0-.579-.984,5.7,5.7,0,0,0-4.984-2.34,1.009,1.009,0,0,0-.357.077,1.189,1.189,0,0,0-.456.543,5.91,5.91,0,0,1-2.1,2.181Z" transform="translate(-191.155 -402.783)" fill="#5d5d5d"/>
    <path id="Path_120" data-name="Path 120" d="M302.039,472.474c.109-.241.4-.331.579-.523.343-.367.188-.953.241-1.448a2.079,2.079,0,0,1,1.375-1.587,4.444,4.444,0,0,1,2.171-.138,2.1,2.1,0,0,1,.979.326c.125.092.241.21.359.294a.965.965,0,0,0,1.312-.306,4.75,4.75,0,0,0-4.451-2.557,4.4,4.4,0,0,0-1.776.208,2.96,2.96,0,0,0-1.558,1.8,8.749,8.749,0,0,0-.379,2.413,9.086,9.086,0,0,0,0,1.641,4.536,4.536,0,0,0,.806,2.068.624.624,0,0,0,.241.224C303.041,475.369,301.95,472.674,302.039,472.474Z" transform="translate(-230.964 -375.149)" fill="#3f3d56"/>
    <path id="Path_121" data-name="Path 121" d="M306.4,460.7a4.736,4.736,0,0,0-1.8-2.83,6.654,6.654,0,0,0-2.425-1.46,3.24,3.24,0,0,0-2.736.333,4.2,4.2,0,0,0-1.332,1.831,5.763,5.763,0,0,0-.581,2.654,2.861,2.861,0,0,0,1.3,2.3,2.436,2.436,0,0,1,1.255-.808A61.415,61.415,0,0,1,306.4,460.7Z" transform="translate(-228.435 -367.354)" fill="#fed253"/>
    <path id="Path_122" data-name="Path 122" d="M303.175,472.72c.077,0,.128.08.166.145a6.112,6.112,0,0,1,.5.965c-.282.06-.767.128-.907-.121C302.864,473.583,302.953,472.708,303.175,472.72Z" transform="translate(-232.524 -379.846)" opacity="0.1"/>
    <path id="Path_123" data-name="Path 123" d="M326.395,466.713c-.058.056-.125-.058-.125-.14v-.936a.138.138,0,0,1,.017-.075.113.113,0,0,1,.08-.039c.2-.022.357.145.483.3a5.1,5.1,0,0,1,.495.823l-1.021-.031" transform="translate(-250.245 -374.385)" opacity="0.1"/>
    <path id="Path_124" data-name="Path 124" d="M355.273,515.206a6.316,6.316,0,0,1,.709-.581,10.7,10.7,0,0,1,2.227-.907,2.938,2.938,0,0,0,1.8-1.493,3.546,3.546,0,0,0,.14-1.448,1.447,1.447,0,0,0-.106-.6,1.184,1.184,0,0,0-.381-.415,5.514,5.514,0,0,0-3.648-.736,22.861,22.861,0,0,0-8.06,2.012.7.7,0,0,0-.338.241.69.69,0,0,0-.065.335,5.549,5.549,0,0,0,.273,2.1c.333.859,1.018,1.551,1.305,2.427.13.393.174.811.287,1.206a1.689,1.689,0,0,0,.678,1.008c.953.569,1.853-.2,2.514-.789Z" transform="translate(-266.388 -407.377)" fill="#7a699d"/>
    <path id="Path_125" data-name="Path 125" d="M300.661,512.34l-1.223-2.668a9.346,9.346,0,0,1-.463-1.141c-.14-.466-.207-.948-.338-1.416-.429-1.559-1.513-2.857-2.041-4.384a.833.833,0,0,0-.2-.369.644.644,0,0,0-.538-.1,8.4,8.4,0,0,0-1.99,1.008c-.314.145-.651.241-.965.408a1.206,1.206,0,0,0-.647.77,1.882,1.882,0,0,0,.263,1.083,12.234,12.234,0,0,1,.835,4.758,5.059,5.059,0,0,1-.678,3.136c-1.238,1.689-.446,4.169.017,6.212.055.241.121.5.159.758a6.967,6.967,0,0,1,.055.965,7.553,7.553,0,0,1-.514,3.182,3.561,3.561,0,0,0,1.448.41q2.1.268,4.22.376a4.6,4.6,0,0,0,1.324-.068,2.413,2.413,0,0,0,1.783-2.364,2.983,2.983,0,0,0,.7,1.858,2.806,2.806,0,0,0,1.85.569,34.407,34.407,0,0,0,5.573-.157.966.966,0,0,0,.343-.08c.357-.179.376-.671.347-1.066-.053-.741-.109-1.481-.2-2.217a9.076,9.076,0,0,1-.116-1.419,8.166,8.166,0,0,1,.241-1.448,16.415,16.415,0,0,0,.47-4.584,7.738,7.738,0,0,1-.046-1.131,14.992,14.992,0,0,0,.427-2.509,41.078,41.078,0,0,0-1.132-7.448,1.93,1.93,0,0,0-.659-1.136c-.483-.323-1.16-.154-1.713-.359a4.288,4.288,0,0,1-.736-.437,3.377,3.377,0,0,0-1.662-.511,1.411,1.411,0,0,0-1.206.439,1.751,1.751,0,0,0-.241.659c-.35,1.472-.76,2.926-1.17,4.381l-.393,1.394-1.054,3.744C300.7,511.84,300.767,511.963,300.661,512.34Z" transform="translate(-224.256 -401.169)" fill="#89c48b"/>
    <path id="Path_126" data-name="Path 126" d="M327.846,400.25l23.337,24.524v2.08H340.777L323.24,403.965" transform="translate(-245.271 -303.688)" fill="#f1c0c0"/>
    <path id="Path_127" data-name="Path 127" d="M327.846,400.25l23.337,24.524v2.08H340.777L323.24,403.965" transform="translate(-245.271 -303.688)" opacity="0.1"/>
    <path id="Path_128" data-name="Path 128" d="M323.612,414.31l.075.027,17.24,21.105h10.256v2.08H340.777L323.24,414.633Z" transform="translate(-245.271 -314.355)" opacity="0.1"/>
    <path id="Path_129" data-name="Path 129" d="M340.447,501.039c-.844.369-1.783.842-2.036,1.73a.866.866,0,0,0,.854,1.16,2.9,2.9,0,0,0,1.16-.212l4.982-1.645c.135-.043.29-.109.323-.241a.415.415,0,0,0-.048-.241c-.154-.376-.306-1.146-.63-1.409-.265-.212-.791-.138-1.112-.133A9.019,9.019,0,0,0,340.447,501.039Z" transform="translate(-259.421 -400.568)" fill="#b7b7b7"/>
    <path id="Path_130" data-name="Path 130" d="M362.064,500.685a8.013,8.013,0,0,1,2.473.384,4.406,4.406,0,0,1,2.048,1.4,1.535,1.535,0,0,1,.323.632c.048.241.835.386.661.55.528-.084.4.164.938.159a1.773,1.773,0,0,0,1.435-.569,1.865,1.865,0,0,0,.282-1.18,2.009,2.009,0,0,0-.159-.835,2.465,2.465,0,0,0-1.308-1.013l-4.309-1.971a2.862,2.862,0,0,0-.8-.282,2.977,2.977,0,0,0-.7.017L361,498.2a2.926,2.926,0,0,1,1.334,2.574" transform="translate(-276.597 -398.986)" fill="#5d5d5d"/>
  </g>
</svg>
