<svg width="210mm" height="297mm" version="1.1" viewBox="0 0 210 297">
 <path d="m-48.115 68.409c0.99311-0.41912 1.9788-0.85616 2.9793-1.2574 9.7737-3.9193 4.0964-1.3961 16.438-6.6612 12.58-5.3671 19.754-8.6816 32.664-14.451 7.2313-3.2318 14.467-6.4529 21.701-9.6793 23.282-10.644 46.807-20.74 70.244-31.033 16.071-7.0583 32.078-14.257 48.07-21.49 3.1399-1.3984 11.014-5.0041 14.834-6.4051 10.435-3.8272 30.094 0.32231 34.719 1.5359 1.9023 0.49919-1.5112 3.7459-2.9005 5.1379-2.0847 2.0889-4.8467 3.3686-7.27 5.0529-22.793 14.076-46.174 27.181-69.476 40.389-8.4043 4.7638-16.87 9.4207-25.224 14.272-8.0049 4.6483-15.9 9.4829-23.85 14.224-19.779 11.959-39.407 24.232-57.957 38.051-6.496 4.8389-14.56 11.274-20.566 17.01-1.9519 1.864-3.6947 3.9353-5.5421 5.9029-0.68056 1.4497-1.893 2.7546-2.0417 4.3492-0.29223 3.1336 5.3504 3.0212 6.2765 3.0691 3.329 0.17247 6.8255 0.96414 10-0.052 1.6241-0.51979-6.5011-1.1237-4.8616-1.5927 6.9451-1.9866 14.294-2.0997 21.441-3.1496 46.763-6.8738 92.53-19.167 137.73-32.772 8.3734-2.5205 16.694-5.2146 25.04-7.8219 15.337-4.9476 30.602-10.131 45.609-16.012 2.2532-0.88294 4.5136-1.7524 6.726-2.7329 0.68391-0.3031 1.2078-1.2106 1.9494-1.1119 9.6048 1.2782 19.069 3.452 28.603 5.1779-26.64 14.522-54.102 27.484-81.497 40.5-11.094 5.271-22.142 10.64-33.302 15.771-11.966 5.5015-24.046 10.749-36.069 16.124-42.044 17.801-84.44 34.784-126.07 53.556-16.045 7.236-18.455 8.5032-33.029 15.547 6.6675 2.6271-14.135 3.9114-12.093 8.3676 0.58893 1.285 4.905-1.8969 3.5542-2.3133-5.4125-1.6686-20.665 2.428-16.896-1.7997 5.0383-5.6516 14.903-2.6988 22.309-4.2719 10.194-2.1654 20.323-4.628 30.485-6.942 12.091-2.8719 24.195-5.6889 36.273-8.6158 60.3-14.613 14.993-4.0702 77.617-18.952 13.663-3.2466 27.332-6.4659 41.023-9.5922 16.363-3.7364 55.531-12.318 73.032-16.166 7.3705-1.5838 38.863-8.3849 48.369-10.317 16.817-3.4175 27.65-5.7364 46.925-2.723 2.0565 0.3215 3.5876 3.71 2.74 5.6111-1.7208 3.8592-6.1017 5.847-9.1525 8.7706-5.8776 3.5796-11.599 7.4292-17.633 10.739-17.332 9.5075-39.305 19.482-57.075 27.465-10.83 4.8654-21.668 9.7189-32.615 14.315-24.133 10.133-44.846 17.815-69.297 27.155-25.704 10.427-51.473 20.757-76.611 32.508-3.9209 1.833-19.813 9.3731-24.627 12.847-1.4555 1.0501-2.3674 2.6982-3.5512 4.0473 5.2607 1.1448 4.0334 1.0987 11.732 0.84947 0.20471-7e-3 -0.66506-0.38899-0.46098-0.40627 11.004-0.93167 22.047-1.377 33.047-2.3526 40.888-3.6263 34.232-3.3275 74.454-10.277 12.536-2.559 25.105-4.9642 37.608-7.6769 19.352-4.1986 45.275-10.569 64.692-15.373 18.463-4.5679 29.552-7.3413 47.371-12.133 5.1647-1.3888 10.309-2.8522 15.464-4.2783 3.3542-0.99883 6.7161-1.9727 10.063-2.9965 11.269-3.4474 14.527-7.0845 32.187 3.4731 3.9401 2.3555-8.6596 3.062-13.06 4.371-19.882 5.915-35.033 9.3106-55.798 14.417-43.403 10.015-86.831 19.909-130.17 30.217-33.377 7.939-52.488 12.354-85.202 21.196-11.41 3.0841-22.74 6.4589-34.11 9.6884-16.698 5.2408-30.024 9.1625-46.149 15.066-4.5262 1.6572-9.0312 3.3892-13.43 5.3592-2.633 1.1791-5.2712 2.4216-7.6357 4.0746-1.0076 0.70435-2.1833 1.6537-2.3079 2.8767-0.06773 0.66479 1.3314 0.11599 1.9971 0.17399 1.6745 0.0506 6.6988 0.14793 5.0235 0.15195-4.8122 0.0116-18.849 1.79-14.436-0.12935 5.3406-2.3229 11.635-0.61217 17.432-1.1739 19.823-1.9209 39.387-5.7212 58.939-9.3794 16.19-3.1059 32.268-6.7356 48.324-10.459l22.758 3.1293c-17.448 3.2402-34.89 6.5077-52.301 9.9412-9.2631 1.8118-29.364 5.8101-38.858 7.411-5.7205 0.96459-11.464 1.789-17.211 2.5806-4.8594 0.66932-9.7031 1.6236-14.605 1.8017-12.637 0.45897-25.309 0.78846-37.936 0.10655-2.8163-0.15208-5.3701-1.7268-8.0551-2.5902-0.05149-1.4293-1.0248-3.1529-0.15448-4.2878 2.1082-2.7492 17.186-6.8431 17.512-6.9388 24.214-7.1174 48.917-12.427 73.34-18.74 41.676-10.124 36.891-8.9867 80.435-19.456 9.4336-2.268 79.138-18.951 88.704-21.373 31.877-8.0716 45.443-12.125 76.089-20.807 8.7525-2.955 17.601-5.6398 26.257-8.8652 5.5584-2.071 10.954-4.5612 16.355-7.012 2.4319-1.1034 4.4672-3.5037 7.134-3.6455 10.379-0.55182 20.789 0.67301 31.141 1.6106 7.2644 0.65797-40.084 0.21698-21.678 2.9864-17.627 3.4982-25.045 4.9232-43.499 8.8128-40.909 8.6226-18.572 4.1028-61.926 13.57-20.569 4.4919-51.99 11.084-72.451 15.402-43.127 7.7674-27.904 5.5961-69.964 11.009-9.0258 1.1617-18.015 2.7384-27.096 3.3396-14.219 0.94147-28.481 1.4566-42.73 1.2838-4.6266-0.0562-9.5786 0.0529-13.74-1.969-1.5848-0.76988-0.6648-3.4605-0.9972-5.1907 2.5043-1.3863 4.905-2.979 7.5129-4.1588 5.8839-2.6617 27.541-10.543 31.857-12.119 28.529-10.423 57.179-20.52 85.518-31.458 11.502-4.446 23.064-8.7382 34.506-13.338 20.243-8.1384 44.877-18.569 64.473-28.383 15.757-7.891 33.225-17.547 47.542-28.194 4.3522-3.2365 8.1336-7.177 12.2-10.766 1.6479-2.0466 3.4408-3.9845 4.9438-6.1398 0.46551-0.66752 0.11848-2.1016 0.91612-2.263 4.8322-0.97754 19.514-2.2236 14.762-0.90867-6.0058 1.6621-12.412 1.1576-18.591 1.9682-18.521 2.4298-38.394 6.0177-56.687 9.1261-33.799 6.4406-42.494 7.7926-76.793 15.632-26.24 5.9975-52.498 12.79-78.538 19.599-11.948 3.1244-23.906 6.2152-35.81 9.5019-10.664 2.9443-21.261 6.1266-31.892 9.1899-8.2624 2.5769-16.53 5.1368-24.787 7.7308-5.4931 1.7257-10.754 4.4816-16.463 5.2283-12.812 1.6757-25.81 2.702-38.711 1.9883-1.4735-0.0815-2.2592-3.0201-1.3812-4.2063 4.1805-5.6482 16.339-1.7704 19.484-8.048 34.015-12.194 67.956-24.564 101.6-37.748 39.471-15.466 32.333-12.777 71.709-29.643 34.169-16.418 32.019-14.771 64.055-32.446 8.4316-4.6518 16.814-9.3972 25.092-14.317 12.207-7.2556 21.156-12.789 31.915-21.444 2.1051-1.6934 3.94-3.6978 5.91-5.5467 10.683 0.34835 21.377 0.45992 32.05 1.045 1.7165 0.09411-3.4509 0.10704-5.1393 0.43027-3.2077 0.61408-6.345 1.5523-9.506 2.3734-18.42 4.7846-36.752 9.908-55.134 14.83-42.489 11.941-11.716 3.233-55.969 15.922-33.866 9.7107-67.774 19.755-102.61 25.452-29.138 5.2845-19.999 4.4272-59.555 5.9303-5.0195 0.19074-16.204 1.4576-20.758-3.9841-2.8922-3.4557 3.1391-8.1324 4.3245-9.4754 2.6271-1.9568 5.1983-3.9909 7.8812-5.8703 8.672-6.0751 16.796-11.064 25.893-16.653 20.814-12.788 41.912-25.1 62.883-37.626 8.0244-4.7342 16.101-9.3808 24.073-14.203 14.244-8.6152 29.748-18.392 43.622-27.714 9.194-6.1778 20.204-13.919 29.056-20.902 2.8666-2.2614 5.577-4.714 8.3655-7.0711 1.5492-1.5069 3.017-3.1023 4.6477-4.5206 0.46794-0.40698 0.99437-0.90058 1.614-0.9254 9.7263-0.38962 19.468-0.16429 29.201-0.309 1.7318-0.02575-3.4839-0.31145-5.1957-0.04791-4.2633 0.65635-16.379 4.6869-19.501 5.669-13.793 4.7879-19.158 6.5389-33.444 12.027-16.381 6.2927-28.729 11.409-44.917 18.487-24 10.494-22.153 9.8963-45.284 21.241-6.368 3.3166-12.77 6.5694-19.104 9.9499-10.874 5.8032-16.614 9.0917-26.779 15.108-1.9926 1.1794-8.8782 5.3276-11.642 7.1233-0.55918 0.36324-1.0866 0.77321-1.6299 1.1598 0 0-32.04-3.2542-32.04-3.2542z" fill="#f00" stroke="#ff0" stroke-width=".26458"/>
</svg>
