<svg xmlns="http://www.w3.org/2000/svg" width="100" height="100" viewBox="0 0 100 100">
  <path id="Icon_ionic-logo-github" data-name="Icon ionic-logo-github" d="M52.25,2.25c-27.612,0-50,22.969-50,51.272a51.174,51.174,0,0,0,34.2,48.638,3.919,3.919,0,0,0,.848.089,2.419,2.419,0,0,0,2.567-2.545c0-1.228-.045-4.442-.067-8.728a22.857,22.857,0,0,1-5.045.6c-9.621,0-11.808-7.478-11.808-7.478-2.277-5.915-5.558-7.5-5.558-7.5-4.353-3.058-.022-3.147.313-3.147h.022c5.022.446,7.656,5.313,7.656,5.313,2.5,4.375,5.848,5.6,8.839,5.6a14.052,14.052,0,0,0,5.714-1.339,11.076,11.076,0,0,1,3.17-6.853C32,74.884,20.33,70.487,20.33,50.844a20.068,20.068,0,0,1,5.134-13.75c-.513-1.295-2.232-6.518.491-13.571a4.161,4.161,0,0,1,1.116-.112c1.808,0,5.893.692,12.634,5.379a46.476,46.476,0,0,1,25.045,0c6.741-4.687,10.826-5.379,12.634-5.379a4.161,4.161,0,0,1,1.116.112c2.723,7.054,1,12.277.491,13.571a20.15,20.15,0,0,1,5.134,13.75c0,19.688-11.7,24.018-22.835,25.29,1.786,1.585,3.393,4.71,3.393,9.487,0,6.853-.067,12.388-.067,14.063a2.406,2.406,0,0,0,2.545,2.567,4.319,4.319,0,0,0,.893-.089c19.888-6.786,34.2-26,34.2-48.638C102.25,25.219,79.862,2.25,52.25,2.25Z" transform="translate(-2.25 -2.25)" fill="#FFFFFF"/>
</svg>
