<svg xmlns="http://www.w3.org/2000/svg" xmlns:xlink="http://www.w3.org/1999/xlink" width="754.282" height="572.58" viewBox="0 0 754.282 572.58">
  <defs>
    <linearGradient id="linear-gradient" x1="0.5" y1="1" x2="0.5" gradientUnits="objectBoundingBox">
      <stop offset="0" stop-color="gray" stop-opacity="0.251"/>
      <stop offset="0.54" stop-color="gray" stop-opacity="0.122"/>
      <stop offset="1" stop-color="gray" stop-opacity="0.102"/>
    </linearGradient>
  </defs>
  <g id="Group_45" data-name="Group 45" transform="translate(0 0.136)">
    <path id="Path_58" data-name="Path 58" d="M820.116,202.948c-.131.615-.256,1.23-.4,1.838a197.631,197.631,0,0,1-22.951,59.533c-.366.615-.732,1.23-1.105,1.845a171.079,171.079,0,0,1-25.873,32.658c-5.485,5.416-11.469,10.563-18.585,14.273-9.969,5.209-21.624,7.323-33.079,9.05-11.9,1.8-23.959,3.309-35.988,4.933q-6.411.85-12.747,1.8c-11.62,1.72-23.158,3.71-34.419,6.349a201.789,201.789,0,0,0-40.16,13.513q-1.527.691-3.019,1.465c-.995.5-2,1-2.978,1.513s-1.948,1.023-2.909,1.548c-.5.269-.995.539-1.485.822s-.974.532-1.451.808c-1.437.8-2.846,1.624-4.256,2.453l-.055.035c-.933.546-1.852,1.105-2.763,1.665-5.209,3.164-10.308,6.467-15.406,9.79l-3.206,2.073-4.967,3.213c-.967.629-1.955,1.257-2.929,1.879-.691.456-1.382.912-2.135,1.382-3.62,2.28-7.289,4.518-11.054,6.653-.891.511-1.789,1.022-2.694,1.52a153.12,153.12,0,0,1-23.78,10.722l-.11.041a108.474,108.474,0,0,1-12.629,3.565c-2.466.539-4.94.981-7.441,1.319a79.771,79.771,0,0,1-20.174.283c-13.175-1.527-25.521-6.584-38.689-8.29-27.11-3.454-53.439,7.676-78.932,16.394q-9.4,3.213-18.944,6.018c-4.228,1.25-8.47,2.432-12.747,3.572A479.631,479.631,0,0,1,240.121,433.2a225.121,225.121,0,0,1-33.956.753,124.7,124.7,0,0,1-12.74-1.382c-14.3-2.211-27.635-6.847-38.4-15.337-8.816-6.971-15.123-16.056-19.925-25.562A111.549,111.549,0,0,1,124.8,360.9c-.263-1.458-.5-2.922-.691-4.387q-.518-3.758-.774-7.558a108.184,108.184,0,0,1,4.753-39.967c4.56-14.453,12.159-28.326,15.5-42.889q.207-.926.394-1.845A63.858,63.858,0,0,0,145,257.561c1.706-17.894-4.836-35.338-9.969-52.838-.18-.608-.359-1.223-.532-1.838q-.829-2.915-1.589-5.824c-4.753-18.5-6.073-38.309-1.838-56.776.131-.615.29-1.23.442-1.838a83.125,83.125,0,0,1,15.628-32.008c7.931-9.949,18.343-18.232,29.466-25.507q8.132-5.32,16.816-9.942,6.218-3.316,12.74-6.28A250.894,250.894,0,0,1,320.1,42.776c2.073.09,4.145.2,6.218.352s4.339.332,6.508.532c25.327,2.46,49.971,8.394,74.442,14.881,8.2,2.176,16.388,4.408,24.567,6.6,3.641.967,7.275,1.934,10.916,2.874,17.831,4.608,35.925,8.781,54.247,11.9q6.363,1.1,12.74,2a364.93,364.93,0,0,0,44.554,3.779q8.7.173,17.4-.152,4.394-.159,8.795-.477c30.295-2.135,59.574-9.278,88.9-15.952q6.363-1.451,12.747-2.86c5.582-1.23,11.164-2.418,16.774-3.517,34.91-6.86,66.027-2.915,98.484,11.241,7.379,3.213,14.75,7.1,19.268,13.127s5.651,13.437,6.494,20.588c1.2,10.183,1.976,20.5,2.273,30.868,0,.608,0,1.223.042,1.838A277.075,277.075,0,0,1,820.116,202.948Z" transform="translate(-75.431 -37.822)" fill="#6c63ff" opacity="0.1"/>
    <path id="Path_59" data-name="Path 59" d="M592.126,264.45h-2.28v1.845h2.584Zm-25.859,0a.119.119,0,0,0,0,.048c-.062.5-.131,1.009-.2,1.52v.276h19.759v-.111l1.382-1.734Zm-52.955,0V204.918h22.73c-.242-.159-.491-.325-.746-.477l-.332-.214-.428-.263c-.249-.145-.5-.29-.76-.428s-.421-.235-.643-.352l-.152-.083H513.311v-3.282l-.532.207-.56.263h-.041l-.117.062-.352.187-.352.187c-.345.187-.691.394-1.036.608l-.332.221L509.3,202c-.891.594-1.769,1.216-2.674,1.8-.228.145-.456.29-.691.421-.491.29-.995.567-1.513.815a5.768,5.768,0,0,1-.691.3l-.373.145-.345.117h0a16.181,16.181,0,0,1-2.487.649v58.2H466.442c0,.069.048.124.069.193.187.553.373,1.1.553,1.651h33.507V330.09h.518l.6.035,1.085.062,1.734.207.794.076.864.09h.131l1.527.187.325.041.739.1,1.057.152h0l2.535-.111h0l.345.062a2.4,2.4,0,0,1,.428.069V266.295H566v-.276c.069-.511.138-1.016.2-1.52a.12.12,0,0,1,0-.048Zm78.815,0h-2.28v1.845h2.584Zm-27.283,0c-.083.615-.159,1.23-.242,1.845h22.032l1.5-1.845Zm-51.532,0V204.918h22.73c-.242-.159-.491-.325-.746-.477l-.332-.214-.428-.263c-.249-.145-.5-.29-.76-.428s-.421-.235-.643-.352l-.152-.083H513.311v-3.282l-.532.207-.56.263h-.041l-.117.062-.352.187-.352.187c-.345.187-.691.394-1.036.608l-.332.221L509.3,202c-.891.594-1.769,1.216-2.674,1.8-.228.145-.456.29-.691.421-.491.29-.995.567-1.513.815a5.774,5.774,0,0,1-.691.3l-.373.145-.345.117h0a16.183,16.183,0,0,1-2.487.649v58.2H466.442c0,.069.048.124.069.193.187.546.38,1.1.56,1.651h33.5v63.8h.518l.6.035,1.085.062,1.734.214.794.076.864.09h.131l1.527.187.325.041.739.1,1.057.152h0l2.535-.111h0l.345.062a2.4,2.4,0,0,1,.428.069V266.295h51.359c.083-.615.159-1.23.242-1.845Zm172.4-123.97H829.047c0-.615,0-1.23-.042-1.838H685.711V66.363q-6.384,1.382-12.747,2.86v69.419H517.076l-.394-.352.594-.525h0l57.985-52.106q-8.7.332-17.4.152L513.3,125.84V82.046q-6.384-.905-12.74-2v43.781L435.422,65.271c-8.18-2.19-16.367-4.422-24.567-6.6l88.591,79.616-.394.352H336.42V43.854q-3.254-.3-6.508-.532c-2.073-.152-4.145-.263-6.218-.352v95.672H209.741V64.905q-6.453,2.957-12.74,6.28v67.457H135.092c-.152.608-.311,1.223-.442,1.838H197v62.6H138.077c.173.615.352,1.23.532,1.838H197V264.45H147.562q-.187.919-.394,1.845H197V432.747c4.145.643,8.436,1.092,12.74,1.382V266.295H323.673V419.344c4.277-1.14,8.518-2.321,12.747-3.572V266.295H500.571V400.013a108.466,108.466,0,0,0,12.629-3.565l.111-.041V266.295H672.965v62.717q6.356-.933,12.747-1.789V266.295H799.236c.373-.615.739-1.23,1.105-1.845H685.711V204.918H823.292c.145-.608.269-1.223.4-1.838H685.711Zm-475.97,0H323.673v62.6H209.741Zm0,123.97V204.918H323.673V264.45ZM336.42,140.48H500.571v62.6H336.42Zm0,123.97V204.918H500.571V264.45Zm336.545,0H513.311V204.918H672.965Zm0-61.37H513.311V142.159l2.238-1.679H672.965Zm-106.7,61.37a.119.119,0,0,0,0,.048c-.062.5-.131,1.009-.2,1.52v.276h19.759v-.111l1.382-1.734Zm25.859,0h-2.28v1.845h2.584Zm-78.815,0V204.918h22.73c-.242-.159-.491-.325-.746-.477l-.332-.214-.428-.263c-.249-.145-.5-.29-.76-.428s-.421-.235-.643-.352l-.152-.083H513.311v-3.282l-.532.207-.56.263h-.041l-.117.062-.352.187-.352.187c-.345.187-.691.394-1.036.608l-.332.221L509.3,202c-.891.594-1.769,1.216-2.674,1.8-.228.145-.456.29-.691.421-.491.29-.995.567-1.513.815a5.768,5.768,0,0,1-.691.3l-.373.145-.345.117h0a16.181,16.181,0,0,1-2.487.649v58.2H466.442c0,.069.048.124.069.193.187.553.373,1.1.553,1.651h33.507V330.09h.518l.6.035,1.085.062,1.734.207.794.076.864.09h.131l1.527.187.325.041.739.1,1.057.152h0l2.535-.111h0l.345.062a2.4,2.4,0,0,1,.428.069V266.295H566v-.276c.069-.511.138-1.016.2-1.52a.12.12,0,0,1,0-.048Z" transform="translate(-79.007 -37.954)" opacity="0.29"/>
    <path id="Path_60" data-name="Path 60" d="M320.744,119.977h.988a2,2,0,0,1-1.209-1.61h0c0-1.271,1.9-2.308,4.221-2.308h29.542c2.321,0,4.214,1.036,4.214,2.308h0c0,1.264-1.893,2.308-4.214,2.308H353.3a1.983,1.983,0,0,1,1.209,1.6c0,1.085-1.382,2-3.226,2.238h8.5c2.314,0,4.214,1.036,4.214,2.308s-1.9,2.308-4.214,2.308H330.237c-2.314,0-4.214-1.043-4.214-2.308,0-1.085,1.382-1.99,3.226-2.238h-8.5c-2.321,0-4.214-1.036-4.214-2.308S318.423,119.977,320.744,119.977Z" transform="translate(-135.231 -60.548)" fill="#6c63ff" opacity="0.1"/>
    <path id="Path_61" data-name="Path 61" d="M784.184,151.747h.988a2,2,0,0,1-1.2-1.61h0c0-1.271,1.893-2.308,4.214-2.308h29.542c2.321,0,4.221,1.036,4.221,2.308h0c0,1.264-1.9,2.3-4.221,2.3h-.981a2,2,0,0,1,1.2,1.61c0,1.085-1.382,2-3.226,2.238h8.5c2.321,0,4.214,1.036,4.214,2.308s-1.893,2.308-4.214,2.308H793.684c-2.321,0-4.221-1.043-4.221-2.308,0-1.085,1.382-2,3.226-2.238h-8.5c-2.314,0-4.214-1.036-4.214-2.308S781.87,151.747,784.184,151.747Z" transform="translate(-278.493 -70.369)" fill="#6c63ff" opacity="0.1"/>
    <path id="Path_62" data-name="Path 62" d="M255.111,287.707h.981a2,2,0,0,1-1.2-1.61h0c0-1.264,1.9-2.308,4.214-2.308h29.549c2.314,0,4.214,1.043,4.214,2.308h0c0,1.271-1.9,2.307-4.214,2.307h-.988a1.976,1.976,0,0,1,1.2,1.6c0,1.085-1.382,2-3.226,2.238h8.5c2.321,0,4.221,1.043,4.221,2.308s-1.9,2.308-4.221,2.308H264.631c-2.321,0-4.214-1.036-4.214-2.308,0-1.078,1.382-1.99,3.226-2.238h-8.532c-2.321,0-4.221-1.036-4.221-2.307S252.818,287.707,255.111,287.707Z" transform="translate(-114.94 -112.398)" fill="#6c63ff" opacity="0.1"/>
    <ellipse id="Ellipse_77" data-name="Ellipse 77" cx="44.879" cy="147.688" rx="44.879" ry="147.688" transform="translate(398.047 406.333) rotate(-78.45)" fill="#6c63ff" opacity="0.1"/>
    <path id="Path_63" data-name="Path 63" d="M828.56,404.831s7.855-38.558,37.846-34.986c0,0,20.726,1.423,24.989,14.992v29.991Z" transform="translate(-293.513 -138.928)" fill="#3a3768"/>
    <path id="Path_64" data-name="Path 64" d="M877.345,395.652,610.274,373.51,576,380.654l2.142,47.843,2.335.283,2.66,71.844,262.069,47.124,27.856-23.566V446.3l3.565-2.093Z" transform="translate(-178.057 -115.462)" fill="#d48a9b"/>
    <path id="Path_65" data-name="Path 65" d="M999.278,405.56l-.719,48.555-28.92,13.569-.359-50.7Z" transform="translate(-299.63 -125.369)" opacity="0.05"/>
    <path id="Path_66" data-name="Path 66" d="M993.677,478.94l.352,76.411L966.18,578.916l1.789-88.549Z" transform="translate(-298.672 -148.053)" opacity="0.05"/>
    <path id="Path_67" data-name="Path 67" d="M582.91,456.562l266.732,32.547.138-6.176L582.71,454.13Z" transform="translate(-180.131 -140.384)" opacity="0.05"/>
    <path id="Path_68" data-name="Path 68" d="M994.156,481.745v-2.8L967.73,490.6v6.19Z" transform="translate(-299.151 -148.053)" opacity="0.05"/>
    <path id="Path_69" data-name="Path 69" d="M575.48,380.654l34.274-7.144,267.071,22.142-29.991,11.42Z" transform="translate(-177.896 -115.462)" fill="#efc6cd"/>
    <path id="Path_70" data-name="Path 70" d="M961.676,407.55l13.106.857-21.721,6.5L942,414.113Z" transform="translate(-291.197 -125.985)" opacity="0.1"/>
    <path id="Path_71" data-name="Path 71" d="M961.676,406.72l13.106.857-21.721,6.508-11.061-.8Z" transform="translate(-291.197 -125.728)" fill="#fff"/>
    <path id="Path_72" data-name="Path 72" d="M1022.32,444.532c.518-.221,1.064.2,1.617.3.318.062.643,0,.96.062.643.083,1.278.511,1.893.3" transform="translate(-353.41 -162.068)" fill="#d3dae1"/>
    <path id="Path_73" data-name="Path 73" d="M1021.34,445.1c.511-.221,1.064.193,1.617.3.318.055.643,0,.96.055.643.09,1.278.518,1.893.3" transform="translate(-353.107 -162.244)" fill="#d3dae1"/>
    <path id="Path_74" data-name="Path 74" d="M1019.08,446.241c.518-.221,1.071.193,1.624.3.311.062.643,0,.953.062.649.09,1.285.518,1.893.3" transform="translate(-352.408 -162.596)" fill="#d3dae1"/>
    <path id="Path_75" data-name="Path 75" d="M879.676,398.21l13.106.864-21.721,6.5-11.061-.8Z" transform="translate(-265.849 -123.097)" opacity="0.1"/>
    <path id="Path_76" data-name="Path 76" d="M879.676,397.39l13.106.857-21.721,6.5L860,403.953Z" transform="translate(-265.849 -122.844)" fill="#fff"/>
    <path id="Path_77" data-name="Path 77" d="M940.32,435.2c.518-.221,1.064.193,1.617.3.318.055.643,0,.96.055.643.09,1.278.518,1.893.3" transform="translate(-328.061 -159.184)" fill="#d3dae1"/>
    <path id="Path_78" data-name="Path 78" d="M939.34,435.771c.511-.221,1.064.193,1.617.3.318.062.642,0,.96.062.643.09,1.278.518,1.893.3" transform="translate(-327.758 -159.36)" fill="#d3dae1"/>
    <path id="Path_79" data-name="Path 79" d="M937.08,436.9c.518-.221,1.071.2,1.624.3.311.062.643,0,.953.062.649.083,1.285.518,1.893.3" transform="translate(-327.06 -159.71)" fill="#d3dae1"/>
    <path id="Path_80" data-name="Path 80" d="M919.006,402.88l13.113.857L910.4,410.245l-11.068-.8Z" transform="translate(-278.007 -124.541)" opacity="0.1"/>
    <path id="Path_81" data-name="Path 81" d="M919.006,402.06l13.113.857-21.721,6.5-11.068-.8Z" transform="translate(-278.007 -124.287)" fill="#fff"/>
    <path id="Path_82" data-name="Path 82" d="M979.65,439.871c.518-.221,1.071.193,1.624.3.311.062.636,0,.953.062.643.083,1.285.518,1.893.3" transform="translate(-340.219 -160.627)" fill="#d3dae1"/>
    <path id="Path_83" data-name="Path 83" d="M978.67,440.432c.518-.221,1.071.2,1.624.3.311.062.636,0,.953.062.643.083,1.285.518,1.893.3" transform="translate(-339.916 -160.801)" fill="#d3dae1"/>
    <path id="Path_84" data-name="Path 84" d="M976.42,441.571c.511-.221,1.064.193,1.617.3.318.055.643,0,.96.055.643.09,1.278.518,1.893.3" transform="translate(-339.221 -161.153)" fill="#d3dae1"/>
    <ellipse id="Ellipse_78" data-name="Ellipse 78" cx="139.888" cy="28.796" rx="139.888" ry="28.796" transform="translate(204.388 489.152)" fill="#6c63ff" opacity="0.1"/>
    <path id="Path_85" data-name="Path 85" d="M654.686,376.7c-1.492-13.113-7.4-25.625-7.4-25.625l.449-4.422s.1-2.211-.048-5.527a25.147,25.147,0,0,1,.808-6.135c1.209-3.834-1.513-8.546-1.817-8.981s.152-8.843-2.57-12.968-20.851-11.793-20.851-11.793-.974-2.038-2.349-4.422l.124-.242a25.976,25.976,0,0,0-4.145-5.589c-1.112-1.188-2.183-1.865-3.047-1.534a24.858,24.858,0,0,1-.8-3.5c.18.048.366.1.546.131a5.637,5.637,0,0,0,2.28.055c1.686-.38,2.8-1.893,3.745-3.316,4.684-7.116,8.719-14.923,9.541-23.345a14.839,14.839,0,0,0-.242-5.154,17.391,17.391,0,0,0-1.617-3.765,30.26,30.26,0,0,0-4.56-6.722c-3.226-3.4-7.676-5.479-12.249-6.708a42.405,42.405,0,0,0-15.821-1.181c-1.382.159-2.763.387-4.145.477a43.055,43.055,0,0,1-5.258-.09l-9.044-.525-.041-.138-1.506-.09c-.594,1.181,0,2.584.739,3.689s1.589,2.259,1.527,3.565-1.009,2.356-1.748,3.454-1.3,2.536-.56,3.613a2.07,2.07,0,0,0,.366.4,4.554,4.554,0,0,0,3.323.884h.207a22.5,22.5,0,0,0-4.581,13.624,22.909,22.909,0,0,0,12.5,20.3c.131.449.263.912.387,1.382a42.323,42.323,0,0,1,1.451,14.937l-.159.345-.1-.366s-10.653,7.227-13.818,9.14-6.342,8.4-6.494,10.17-5.14,28.443-5.14,28.443a65.358,65.358,0,0,0-2.5,8.235l-6.363,5.589s-13.127,1.181-16.926.3l.111.732a57.405,57.405,0,0,0-10.2-1.382,10.812,10.812,0,0,0-5.527.739l-.131.062-.1.048a21.9,21.9,0,0,0-5.8,1.63c-.221.09-.421.18-.615.269l.041-.905-14.2-.732-7.254-1.472s-2.57-2.073-4.083-1.769-4.684-1.769-4.684-1.769a12.662,12.662,0,0,0-2.335-1.451c-.242-1.672-.394-2.688-.394-2.688s-5.644-22.4-9.873-35.566c-2.833-8.795-6.909-13.127-9.313-15.013-1.071-1.865-1.776-3.067-1.776-3.067-.463-1.617-3.005-5.258-3.655-5.347-.1-.166-.18-.249-.221-.249a.809.809,0,0,0-.408.062c-1.188-5.914-1.879-13.327-.062-19.787a21.838,21.838,0,0,0,7.973-16.83q0-.145,0-.29v-.3a21.742,21.742,0,0,0-5.133-14.025l-.235-.263a1.831,1.831,0,0,0,.18-.145,3.7,3.7,0,0,0,1.306-3.565c-.311-1.326-1.347-2.37-1.879-3.627a23.493,23.493,0,0,1-.767-2.957,9.119,9.119,0,0,0-2.176-3.793l.1.276a13.128,13.128,0,0,0-11.558-3.883c-3.116.5-6.017,1.948-9.147,2.4-2.245.318-4.532.111-6.791.339a17.624,17.624,0,0,0-6.024,1.741,3.455,3.455,0,0,0-1.278.94,5.057,5.057,0,0,0-.636,1.776c-.767,2.8-3.2,4.795-4.96,7.13a16.685,16.685,0,0,0-3.344,9.216,7.213,7.213,0,0,0,.242,2.522c.152.491.387.953.5,1.451.345,1.52-.449,3.033-.836,4.539a8.836,8.836,0,0,0,.49,5.762c2.729,6.107,11.69,8.145,13.555,14.557a17.832,17.832,0,0,0,4.484,1.382c.124.636.235,1.278.325,1.928a.516.516,0,0,0-.117.069c-2.418,2.356-3.019,6.909-3.019,6.909l-.29.235c-.988.815-4.366,3.551-7.42,5.658-3.627,2.508-9.672,10.909-13.9,13.417s-7.71,17.963-6.8,23.58,4.684,21.369,3.171,27.117,2.266,31.981,2.266,31.981a38.625,38.625,0,0,1,7.406,2.2l-.076,1.147-.228,3.454s-6.847,24.761-4.228,43.822-1.209,21.023-1.209,21.023.8,8.449-1.209,11.4-2.418,9.43-2.418,9.43-.2,14.543.2,18.654.6,11.6-.808,13.368-4.028,13.355-3.827,16.892-5.036,11.6-2.218,22.011-8.29,10.612-8.29,10.612,1.416,15.89,4.435,20.436l.442.649c-.076.263-.152.539-.235.836-1.14,4.145-2.7,10.688-1.617,12.27,1.61,2.363,2.418,1.962,2.418,1.962l.6,10.612s12.09,10.218,21.362,9.831,7.455-9.831,7.455-9.831l-7.9-20.478-.269-.691,8.774-16.581s2.418-7.268,3.019-9.824,3.883-11.614,3.883-11.614,8.29-19.648,8.463-22.011.808-15.123,2.418-17.686,6.045-17.272,6.045-17.272l.111.1a5.824,5.824,0,0,1,1.506,5.8c-1.016,3.731-.408,11.393-.408,11.393a77.5,77.5,0,0,1-1.209,9.831c-.808,3.344-1,30.654.408,37.134,1.126,5.188,1.092,14.9,1.036,18.578-.947,3.9-1.776,8.753-.235,9.327,2.625.988,15.925.788,15.925.788s5.638-1.969,13.3,4.912,31.227-1.962,31.227-1.962,7.254-1.969-7.054-7.662c-9.983-3.973-16.429-6.619-20.643-9.451.1-.187.2-.373.29-.573,0,0-5.845-5.527-1.009-15.324a42.672,42.672,0,0,0,4.636-18.08l.808-33.017-2.418-43.829-1.872-46,.332-.111c.318,8.456,1.969,28.588,10.612,24.685,10.881-4.912,1.61-17.686,1.61-17.686l-4.884-9.52,1.458-.5-5.465-17.659a39.828,39.828,0,0,1-.207-10.411,41.245,41.245,0,0,0-.124-6.08c7.157-1.25,14.011-2.577,15.241-2.273,1.451.352,9.569.421,12.76.435-1.043.815-1.879,1.624-1.879,1.624l13,8.746s4.408-2.411,5.327-4.967a5.733,5.733,0,0,0,2.432-1.3c.138,3.019.94,6.287,3.731,6.363a4.835,4.835,0,0,0,2.031-.4l21.251-4.207-1.824,11.393,1.271,2.259c-.642,9.61-1.382,19.814-2.031,28.789l-.3,1.962.152.035c-1.009,13.817-1.817,24.284-1.817,24.284a12.733,12.733,0,0,1,5.3-5.327l.138,20.505s1.064,32.423,1.064,36.844.145,14.294.145,14.294,2.273,12.083,3.627,16.063,2.418,22.108,2.418,22.108,3.178,5.009,1.817,6.909,5.292,6.038,5.292,6.038-4.235,5.748-4.539,9.582c-.035.442.4.912,1.188,1.382-.249.2-.5.4-.788.594-1.962,1.313-4.836,2.225-9.161,1.852-11.793-1.036-20.1,9.873-12.85,12.083s29.017,2.653,29.017,2.653,6.591-4.111,11.745-2.259c-.076,4.325.138,8.291.173,8.816l-.062.048c-3.081,2.763-8.981,7.517-14.743,9.458-8.29,2.8-10.128,14.149.6,15.621s26.447-1.769,26.447-1.769,8.159-6.038,14.356-7.365,11.489-4.277,10.432-7.814c-.691-2.259-2.466-8.18-3.669-12.159q-.1-.359-.207-.691c.187-.415.373-.843.546-1.285,0,0-3.171-16.505-.6-20.629s1.209-45.4,1.209-45.4-4.387-10.46-2.114-16.8-3.627-15.33-3.627-15.33.643-18.025,2.37-28.07q.117-.643.228-1.244a56.6,56.6,0,0,0,8.429-3.254s1.513-22.7,2.418-27.856c.09-.484.214-1.264.366-2.28l.691-3.641h0l.815-4.145h0l2.763-14.128,4.988-6.453,12.85-13.127S656.2,389.817,654.686,376.7Zm-198.17-81.06-.1.069a1.194,1.194,0,0,1-.035-.152.622.622,0,0,0,.131.083Zm126.962,16.09-.5,1.085L584.8,311l-2.466,2.763.829-1.741Zm-12.27,25.355c-.477,1.264-.988,2.632-1.52,4.055l.974-2.909Z" transform="translate(-157.222 -94.558)" fill="url(#linear-gradient)"/>
    <path id="Path_86" data-name="Path 86" d="M595.819,444.636s-1.693,11.268,3.385,11.413,8.47-8.691,8.47-8.691L605.6,440.29Z" transform="translate(-221.483 -160.776)" fill="#585b8a"/>
    <path id="Path_87" data-name="Path 87" d="M595.819,444.636s-1.693,11.268,3.385,11.413,8.47-8.691,8.47-8.691L605.6,440.29Z" transform="translate(-221.483 -160.776)" opacity="0.2"/>
    <path id="Path_88" data-name="Path 88" d="M420.516,782.572c-9.037.394-20.823-9.817-20.823-9.817l-.587-10.6s-.781.394-2.356-1.962c-1.057-1.582.463-8.139,1.575-12.263.539-2.017.981-3.454.981-3.454l19.828,5.306.947,2.508,7.7,20.464S429.546,782.178,420.516,782.572Z" transform="translate(-159.919 -254.807)" fill="#636992"/>
    <path id="Path_89" data-name="Path 89" d="M536.463,746.051s-22.972,8.836-30.4,1.962S493.1,743.1,493.1,743.1s-12.961.2-15.517-.788c-1.506-.573-.691-5.486.249-9.4.636-2.7,1.326-4.933,1.326-4.933s22.578-7.662,26.115-2.95a16.933,16.933,0,0,0,3.765,3.593c4.09,2.957,10.481,5.638,20.588,9.762C543.531,744.082,536.463,746.051,536.463,746.051Z" transform="translate(-184.76 -248.325)" fill="#636992"/>
    <path id="Path_90" data-name="Path 90" d="M530.793,496.35l6.28,12.567s9.037,12.767-1.568,17.673-10.4-28.27-10.4-28.27Z" transform="translate(-199.705 -178.106)" fill="#ffd6d6"/>
    <path id="Path_91" data-name="Path 91" d="M495.25,338.61s6.874,3.143,11,16.3,9.624,35.545,9.624,35.545,3.731,25.327,3.137,31.614a40.76,40.76,0,0,0,.2,10.4l5.3,17.673-10.6,3.731-16.3-62.441Z" transform="translate(-190.478 -129.344)" fill="#dce6f2"/>
    <path id="Path_92" data-name="Path 92" d="M495.25,338.61s6.874,3.143,11,16.3,9.624,35.545,9.624,35.545,3.731,25.327,3.137,31.614a40.76,40.76,0,0,0,.2,10.4l5.3,17.673-10.6,3.731-16.3-62.441Z" transform="translate(-190.478 -129.344)" opacity="0.05"/>
    <path id="Path_93" data-name="Path 93" d="M419.99,749.789l.947,2.508-1.161,2.218c-4.518,1.962-15.71.394-15.71.394s-2.073-2.632-4.905-6.964c.539-2.017.981-3.454.981-3.454Z" transform="translate(-160.774 -254.813)" opacity="0.1"/>
    <path id="Path_94" data-name="Path 94" d="M510.217,729.553c-5.727,12.975-25.2,8.159-30.606,6.536-.891-.269-1.382-.449-1.382-.449s.035-1.057.048-2.722c.636-2.7,1.327-4.933,1.327-4.933s22.578-7.662,26.115-2.95a16.934,16.934,0,0,0,3.765,3.593,6.656,6.656,0,0,0,.732.926Z" transform="translate(-185.217 -248.325)" opacity="0.1"/>
    <path id="Path_95" data-name="Path 95" d="M482.765,631.858c-4.712,9.81.988,15.317.988,15.317-5.727,12.968-25.2,8.159-30.606,6.529-.891-.263-1.382-.442-1.382-.442s.394-13.555-.981-20.035-1.181-33.77-.394-37.107a79,79,0,0,0,1.174-9.824s-.587-7.655.394-11.386a5.879,5.879,0,0,0-1.465-5.789l-.1-.1s-4.318,14.729-5.893,17.272-2.156,15.317-2.356,17.673-8.249,22-8.249,22-3.137,9.03-3.724,11.579-2.95,9.824-2.95,9.824l-9.465,18.267c-4.518,1.962-15.71.394-15.71.394s-2.156-2.763-5.106-7.268-4.318-20.415-4.318-20.415,10.8-.2,8.049-10.6,2.356-18.46,2.162-22,2.356-15.116,3.731-16.885,1.174-9.23.781-13.355-.193-18.654-.193-18.654.394-6.48,2.356-9.424,1.181-11.393,1.181-11.393,3.724-1.962,1.174-21.009,4.145-43.788,4.145-43.788l.228-3.454.359-5.6s56.161-3.537,60.679.781a14.9,14.9,0,0,1,2.867,4.111,40.9,40.9,0,0,1,3.247,10.453l2.356,59.5L488.1,580.81l-.788,32.989A43.856,43.856,0,0,1,482.765,631.858Z" transform="translate(-158.753 -167.122)" fill="#565988"/>
    <path id="Path_96" data-name="Path 96" d="M491.689,538.42,485.8,666.052l-7.075,11.634c-.891-.263-1.382-.442-1.382-.442s.394-13.555-.981-20.035-1.181-33.77-.394-37.107a79.006,79.006,0,0,0,1.174-9.824s-.587-7.655.394-11.386a5.879,5.879,0,0,0-1.465-5.79l.1-.691Z" transform="translate(-184.326 -191.111)" opacity="0.1"/>
    <path id="Path_97" data-name="Path 97" d="M406.967,734.784s15.317-6.087,17.673-4.145-18.059,4.905-18.059,4.905Z" transform="translate(-163.068 -250.413)" opacity="0.1"/>
    <path id="Path_98" data-name="Path 98" d="M510.205,713.5c-.587.2-15.51,5.527-14.135,11.192S510.205,713.5,510.205,713.5Z" transform="translate(-190.704 -245.233)" opacity="0.1"/>
    <path id="Path_99" data-name="Path 99" d="M449.07,289.763s5,12.076,2.356,18.267,28.568,16.788,28.568,16.788-9.126-23.566-.29-36.824S449.07,289.763,449.07,289.763Z" transform="translate(-176.203 -112.008)" fill="#ffd6d6"/>
    <path id="Path_100" data-name="Path 100" d="M692.568,788.36c-6.038,1.326-13.99,7.365-13.99,7.365s-15.317,3.24-25.776,1.769-8.684-12.816-.587-15.614c5.617-1.934,11.372-6.708,14.377-9.444,1.327-1.223,2.114-2.073,2.114-2.073l29.314-5.893s.477,1.637,1.14,3.9c1.174,3.986,2.909,9.9,3.572,12.152C703.761,784.091,698.607,787.034,692.568,788.36Z" transform="translate(-236.938 -260.989)" fill="#505484"/>
    <path id="Path_101" data-name="Path 101" d="M675.46,756.26s-12.374,1.326-17.527-1.617-12.519,1.769-12.519,1.769-21.21-.442-28.277-2.653,1.029-13.127,12.519-12.076c4.187.38,7.019-.539,8.933-1.852a9.41,9.41,0,0,0,3.89-5.831l24.871,1.472,3.454,8.816Z" transform="translate(-227.339 -251.57)" fill="#505484"/>
    <path id="Path_102" data-name="Path 102" d="M681.965,748.308s-28.906-4.726-32.6-8.477A9.41,9.41,0,0,0,653.26,734l24.871,1.472,3.454,8.816Z" transform="translate(-238.121 -251.57)" opacity="0.1"/>
    <path id="Path_103" data-name="Path 103" d="M634.52,514.474l.3,43.145s1.029,32.4,1.029,36.824.145,14.28.145,14.28,2.211,12.076,3.537,16.056,2.356,22.108,2.356,22.108,3.1,5.009,1.769,6.909,5.154,6.038,5.154,6.038-4.145,5.748-4.415,9.575,32.982,9.265,32.982,9.265L664.421,545.839,654.106,512.56Z" transform="translate(-233.53 -183.117)" fill="#575988"/>
    <path id="Path_104" data-name="Path 104" d="M634.52,514.474l.3,43.145s1.029,32.4,1.029,36.824.145,14.28.145,14.28,2.211,12.076,3.537,16.056,2.356,22.108,2.356,22.108,3.1,5.009,1.769,6.909,5.154,6.038,5.154,6.038-4.145,5.748-4.415,9.575,32.982,9.265,32.982,9.265L664.421,545.839,654.106,512.56Z" transform="translate(-233.53 -183.117)" opacity="0.1"/>
    <path id="Path_105" data-name="Path 105" d="M708.578,768.4c-9.624,22.944-32.512,5.237-32.512,5.237s0-.442-.055-1.2c1.326-1.223,2.114-2.073,2.114-2.073l29.314-5.893S707.915,766.142,708.578,768.4Z" transform="translate(-246.356 -260.989)" opacity="0.1"/>
    <path id="Path_106" data-name="Path 106" d="M698.779,686.382c-9.43,24.181-32.844,6.038-32.844,6.038s-.739-12.519.739-18.26-1.624-22.978-1.624-22.978-1.769-15.317-3.385-18.847-1.472-10.6-1.472-11.192.587-5.306-.739-8.546-2.073-11.192-2.073-11.192,0-11.192-1.326-17.818l-4.567-22.8L643.24,514.1l2.577-.442,46.171-8.1s8.691,44.216,5.741,48.748a19.014,19.014,0,0,0-1.658,5.976c-1.686,10.031-2.314,28.043-2.314,28.043s5.741,8.981,3.537,15.317,2.073,16.788,2.073,16.788,1.326,41.238-1.181,45.363S698.779,686.382,698.779,686.382Z" transform="translate(-236.226 -180.953)" fill="#575988"/>
    <path id="Path_107" data-name="Path 107" d="M701.842,317.786s-41.825,29.452-32.4,14.723c5.078-7.931,4.145-18.032,2.156-25.659a60.552,60.552,0,0,0-4.145-11.254s35.539-15.116,30.827-1.568a25.383,25.383,0,0,0-1.382,9.838A26.254,26.254,0,0,0,701.842,317.786Z" transform="translate(-243.71 -113.819)" fill="#d28690"/>
    <path id="Path_108" data-name="Path 108" d="M598.548,427.542s-17.673-5.106-20.616-.1.884,16,6.218,17.769,17.576-5.99,17.576-5.99Z" transform="translate(-215.722 -156.125)" fill="#d28690"/>
    <path id="Path_109" data-name="Path 109" d="M626.174,416l-7.365,6.777s-12.816,1.174-16.5.29c0,0,3.392,22.681-1.472,25.479l29.749-6.038Z" transform="translate(-223.119 -153.268)" fill="#585b8a"/>
    <path id="Path_110" data-name="Path 110" d="M626.174,416l-7.365,6.777s-12.816,1.174-16.5.29c0,0,3.392,22.681-1.472,25.479l29.749-6.038Z" transform="translate(-223.119 -153.268)" opacity="0.1"/>
    <path id="Path_111" data-name="Path 111" d="M480.858,264.807a22.108,22.108,0,0,1-22.108,22.108c-11.344-5.451-22.108-9.886-22.108-22.108a22.108,22.108,0,1,1,44.181,0Z" transform="translate(-172.356 -99.426)" opacity="0.1"/>
    <path id="Path_112" data-name="Path 112" d="M480.9,264.362a22.066,22.066,0,1,1-5-13.976A22.066,22.066,0,0,1,480.9,264.362Z" transform="translate(-172.399 -99.575)" fill="#ffd6d6"/>
    <path id="Path_113" data-name="Path 113" d="M490.712,467.1a49.972,49.972,0,0,1-6.847,3.551s-11.192-1.624-12.809.29-15.89,2.653-15.89,2.653-21.8-1.029-25.037-3.827a13.264,13.264,0,0,0-3.309-1.962l.359-5.6s56.161-3.537,60.679.781a14.894,14.894,0,0,1,2.853,4.111Z" transform="translate(-169.325 -167.131)" opacity="0.1"/>
    <path id="Path_114" data-name="Path 114" d="M487.807,415.963c-.442,2.5-9.576,6.328-9.576,6.328s-11.192-1.617-12.809.3-15.89,2.653-15.89,2.653-21.8-1.036-25.037-3.834-10.46-4.145-10.46-4.145-3.682-26.212-2.2-31.953-2.211-21.507-3.1-27.1,2.5-21.058,6.625-23.559,10.018-10.9,13.548-13.4c2.978-2.107,6.266-4.836,7.227-5.658l.283-.235s.594-4.567,2.95-6.909,24,14.874,24,14.874.152,1.327,1.624-1.174c.332-.56,3.185,3.558,3.682,5.3,0,0,11.779,20.623,12.519,24.871s3.827,18.115,4.415,21.5c.152.871.4,3.924.691,8.014.055.8.1,1.651.166,2.536.435,6.784.905,15.448,1.188,22,0,.746.062,1.465.083,2.156a73.345,73.345,0,0,1,.069,7.448Z" transform="translate(-163.691 -119.951)" fill="#dce6f2"/>
    <path id="Path_115" data-name="Path 115" d="M415,387.21s8.1,9.866,10.75,9.866S415,387.21,415,387.21Z" transform="translate(-165.671 -144.368)" opacity="0.1"/>
    <path id="Path_116" data-name="Path 116" d="M434.477,417.91S421.219,432.342,422.987,435,434.477,417.91,434.477,417.91Z" transform="translate(-168.09 -153.858)" opacity="0.1"/>
    <path id="Path_117" data-name="Path 117" d="M425.62,449.464s15.2-16.643,15.89-22.384Z" transform="translate(-168.954 -156.693)" opacity="0.1"/>
    <path id="Path_118" data-name="Path 118" d="M453.33,453.1s17.527-9.278,19-16.643S453.33,453.1,453.33,453.1Z" transform="translate(-177.52 -159.159)" opacity="0.1"/>
    <path id="Path_119" data-name="Path 119" d="M484.432,330.721,482,336.607l4.049,1.914,3.979,11.123S501,371.586,500.557,383s1.99,28.568,1.99,28.568l6.328-1.174-2.985-33.57a48.424,48.424,0,0,0-3.855-15.068c-5.057-11.579-14.467-32.955-15.061-32.955-.808,0-.242.3-.242.3Z" transform="translate(-186.382 -126.312)" opacity="0.1"/>
    <path id="Path_120" data-name="Path 120" d="M485.282,329.864l-2.432,5.893,4.055,1.914,3.973,11.123s10.971,21.942,10.529,33.355,1.99,28.568,1.99,28.568l6.335-1.174-2.992-33.57a48.237,48.237,0,0,0-3.848-15.068c-5.057-11.586-14.467-32.955-15.054-32.955-.815,0-.249.3-.249.3Z" transform="translate(-186.645 -126.049)" fill="#575989"/>
    <path id="Path_121" data-name="Path 121" d="M583.623,446.826c-3.081-.235-10.474-3.973-13.41-5.527l-1.244-.691.152-11.406a20.044,20.044,0,0,1,2.252-1.14c3.924-1.713,11.973-4.042,16.008,3.454C592.826,441.568,587.527,447.088,583.623,446.826Z" transform="translate(-213.267 -156.459)" fill="#ffd6d6"/>
    <path id="Path_122" data-name="Path 122" d="M475.846,250.353a3.268,3.268,0,0,1-1.029.421c-2.563.56-5.479-1.644-7.676-.228-1.34.87-1.651,2.674-1.831,4.263q-.47,4.145-.94,8.235a10.162,10.162,0,0,1-.608,2.839c-1.085,2.48-4.062,3.648-6.777,3.606a4.042,4.042,0,0,1-2.922-.967c-.477-.484-.732-1.161-1.257-1.6-3.454-2.895-4.5,4.2-3.593,6.218,1.465,3.3,6.667,6.474,4.484,10.66a3.993,3.993,0,0,1-1.6,1.61,22.108,22.108,0,1,1,23.752-35.055Z" transform="translate(-172.346 -99.542)" opacity="0.1"/>
    <path id="Path_123" data-name="Path 123" d="M449.037,262.423c.518.435.781,1.112,1.257,1.6a4.048,4.048,0,0,0,2.922.967c2.715.041,5.693-1.119,6.771-3.613a9.838,9.838,0,0,0,.615-2.833l.94-8.235c.18-1.589.484-3.392,1.831-4.263,2.2-1.382,5.112.788,7.676.228a3.751,3.751,0,0,0,2.763-4.325c-.3-1.32-1.306-2.363-1.824-3.62a23.664,23.664,0,0,1-.753-2.95c-1.43-5.361-7.724-8.373-13.2-7.475-3.04.5-5.865,1.955-8.912,2.4-2.183.318-4.415.111-6.619.345a16.706,16.706,0,0,0-5.872,1.734,3.412,3.412,0,0,0-1.244.94,5.189,5.189,0,0,0-.622,1.769c-.739,2.763-3.116,4.8-4.836,7.13a16.988,16.988,0,0,0-3.275,9.2,7.371,7.371,0,0,0,.235,2.522c.145.484.373.953.484,1.451.339,1.513-.435,3.026-.815,4.532a9.065,9.065,0,0,0,.484,5.762c2.653,6.1,11.392,8.138,13.209,14.543a14.508,14.508,0,0,0,5.14,1.382,4.958,4.958,0,0,0,4.532-2.314c2.176-4.145-3.019-7.365-4.484-10.653C444.526,266.609,445.555,259.521,449.037,262.423Z" transform="translate(-169.164 -95.072)" fill="#353045"/>
    <path id="Path_124" data-name="Path 124" d="M698.324,294.026a25.383,25.383,0,0,0-1.382,9.838c-1.064.905-2.225-1.8-3.454-1.105-3.371,1.948-7.268,6.584-11.441,6.584a22.917,22.917,0,0,1-10.411-2.494,60.548,60.548,0,0,0-4.145-11.254S703.035,280.478,698.324,294.026Z" transform="translate(-243.722 -113.819)" opacity="0.1"/>
    <path id="Path_125" data-name="Path 125" d="M701.217,273.478A22.978,22.978,0,1,1,678.239,250.5,22.978,22.978,0,0,1,701.217,273.478Z" transform="translate(-239.942 -102.107)" fill="#d28690"/>
    <path id="Path_126" data-name="Path 126" d="M694.965,332.531s-4.325,4.712-4.912,5.1-13.127,53.2-13.348,53.812-14.93,48.3-14.93,48.3L638.21,451.326,640.179,393l17.272-48.1s5.7-6.48,7.461-8.836,23.759-16.5,23.759-16.5l3.758,7.745Z" transform="translate(-234.671 -123.459)" fill="#f0f3f7"/>
    <path id="Path_127" data-name="Path 127" d="M703.531,329.025l-27.1,19.4L676,337.771c1.769-2.356,23.759-16.491,23.759-16.491Z" transform="translate(-246.353 -123.987)" opacity="0.1"/>
    <path id="Path_128" data-name="Path 128" d="M704.387,327.315l-27.1,19.4-.421-10.646c1.769-2.363,23.759-16.5,23.759-16.5Z" transform="translate(-246.622 -123.459)" fill="#f0f3f7"/>
    <path id="Path_129" data-name="Path 129" d="M660.626,336.59l.905,4.739-6.059,6.156,4.836-10.826s-10.363,7.22-13.472,9.133-6.218,8.394-6.335,10.163-5.009,28.423-5.009,28.423-3.682,9.866-2.646,12.664-5.6,91.016-5.6,91.016a13.126,13.126,0,0,1,8.857-6.791l-2.363-52.133s2.874-34.682,3.019-35.124,6.7-20.547,6.7-20.547Z" transform="translate(-231.283 -128.72)" fill="#585b8a"/>
    <path id="Path_130" data-name="Path 130" d="M663.594,344.3l-.47,9.672s-6.556,20.692-8.76,24.077-8.912,23.566-8.912,23.566l-3.779,35.055-6.48,2.95L632,433.74l5.306-33.853S647.317,371.32,648.8,368.37l7.385-15.559Z" transform="translate(-232.751 -131.103)" opacity="0.1"/>
    <path id="Path_131" data-name="Path 131" d="M662.724,343.45l-.463,9.672s-6.556,20.692-8.767,24.077-8.905,23.566-8.905,23.566l-3.758,35.048-6.48,2.943-3.24-5.886,5.306-33.853S646.427,370.442,647.9,367.5l7.441-15.538Z" transform="translate(-232.476 -130.841)" fill="#663d5c"/>
    <path id="Path_132" data-name="Path 132" d="M566.31,448.873l12.664,8.767s8.933-5.009,3.731-8.249a23.067,23.067,0,0,0-11.489-3.731C569.543,445.66,566.31,448.873,566.31,448.873Z" transform="translate(-212.445 -162.437)" fill="#d28690"/>
    <path id="Path_133" data-name="Path 133" d="M579.589,426.329a1.948,1.948,0,0,0-.919,1.665c0,2.688.3,9.8,2.556,6.591,2.764-3.931,2.259-7.461,6.48-4.912a24.872,24.872,0,0,1,6.771,6.218l-1.174-8.442S584.625,423.164,579.589,426.329Z" transform="translate(-216.266 -156.101)" fill="#d28690"/>
    <path id="Path_134" data-name="Path 134" d="M698.739,554.268a19.015,19.015,0,0,0-1.658,5.976c-25.825,7.745-44.72-8.629-44.72-8.629a225.37,225.37,0,0,1-5.6-23.559c-.463-2.722-.359-8,.069-14.439L693,505.52S701.689,549.7,698.739,554.268Z" transform="translate(-237.222 -180.941)" opacity="0.1"/>
    <path id="Path_135" data-name="Path 135" d="M725.23,364.888c-1.174,3.834-.732,11.634-.732,11.634l-10.6,50.075s-5.154,38.585-6.038,43.739-2.356,27.835-2.356,27.835c-30.046,14.729-53.2-5.3-53.2-5.3a225.791,225.791,0,0,1-5.6-23.566c-1.479-8.746,2.874-43.788,4.933-59.353.615-4.608,1.029-7.51,1.029-7.51l7.731-28.72s9.5-24.229,13.037-31.3,17.742-22.944,17.742-22.944c1.762-1.119,4.581,2.833,6.674,6.432,1.582,2.722,2.763,5.251,2.763,5.251s17.673,7.655,20.319,11.745,2.211,12.519,2.508,12.961S726.412,361.06,725.23,364.888Z" transform="translate(-237.204 -123.372)" fill="#585b8a"/>
    <path id="Path_136" data-name="Path 136" d="M686.173,347.333S687.5,355.14,684.1,357.5c-3.282,2.28-27.711,50.316-29.231,53.315.615-4.615,1.029-7.517,1.029-7.517l7.731-28.713s9.506-24.229,13.037-31.3,17.749-22.944,17.749-22.944c1.762-1.119,4.574,2.833,6.667,6.432C697.925,333.322,691.341,345.716,686.173,347.333Z" transform="translate(-239.821 -123.635)" opacity="0.1"/>
    <path id="Path_137" data-name="Path 137" d="M685.317,346.483s1.32,7.807-2.073,10.163-27.7,50.309-29.245,53.308c.615-4.608,1.029-7.51,1.029-7.51l7.731-28.72s9.5-24.229,13.037-31.3,17.742-22.944,17.742-22.944c1.762-1.119,4.581,2.833,6.674,6.432C697.069,332.465,690.478,344.866,685.317,346.483Z" transform="translate(-239.552 -123.372)" fill="#585b8a"/>
    <path id="Path_138" data-name="Path 138" d="M658.719,419.053l-8.311,43.242v.007l-.794,4.138v.007l-1.789,9.306-7.634-1.617-3.558-.753-49.238-10.432-3.62-.767-8.263-1.748,1.617-10.736.67-4.463,5.962-39.587Z" transform="translate(-177.906 -125.397)" fill="#4bbd93"/>
    <path id="Path_139" data-name="Path 139" d="M676.424,511.92s-19.586,7.068-15.317,15.462,31.663-6.48,31.663-6.48Z" transform="translate(-241.561 -182.919)" fill="#d28690"/>
    <path id="Path_140" data-name="Path 140" d="M703.8,599.1c0,.587.739,8.1,3.682,10.75S703.8,599.1,703.8,599.1Z" transform="translate(-254.947 -209.869)" opacity="0.1"/>
    <path id="Path_141" data-name="Path 141" d="M675.24,637.68s3.53,9.721,17.521,13.7S675.24,637.68,675.24,637.68Z" transform="translate(-246.118 -221.795)" opacity="0.1"/>
    <path id="Path_142" data-name="Path 142" d="M703.217,273.505A22.972,22.972,0,0,1,691.7,293.423a12.229,12.229,0,0,1-3.454-2.881c-1-1.216-1.782-2.874-1.181-4.325.484-1.168,1.762-1.907,2.073-3.116a4.588,4.588,0,0,0-.11-2.225c-.256-1.14-.5-2.28-.746-3.413-.214-.967-.594-2.107-1.554-2.342s-1.762.567-2.515,1.161c-1.845,1.458-5.382,2.446-7.6,1.25s-1.6-5.2-1.955-7.358a1.285,1.285,0,0,0-.484-.974,2.017,2.017,0,0,0-1-.069,2.884,2.884,0,0,1-2.5-2.218,19.078,19.078,0,0,1-.4-3.558,3.969,3.969,0,0,0-1.589-3.074,4.912,4.912,0,0,0-2.618-.428l-4.332.048a22.978,22.978,0,0,1,41.452,13.624Z" transform="translate(-241.942 -102.134)" opacity="0.1"/>
    <path id="Path_143" data-name="Path 143" d="M683.03,273.511c.753-.594,1.582-1.382,2.515-1.154s1.333,1.382,1.548,2.335l.746,3.406a4.629,4.629,0,0,1,.117,2.232c-.352,1.216-1.623,1.948-2.114,3.116-.6,1.451.187,3.109,1.181,4.318a12.436,12.436,0,0,0,7.109,4.249,5.222,5.222,0,0,0,2.218.048c1.644-.38,2.764-1.893,3.648-3.309,4.567-7.116,8.5-14.916,9.3-23.331a14.963,14.963,0,0,0-.235-5.147,17.269,17.269,0,0,0-1.575-3.765,30.4,30.4,0,0,0-4.442-6.722,25.232,25.232,0,0,0-11.938-6.695,40.43,40.43,0,0,0-15.413-1.209c-1.382.159-2.708.387-4.069.477a40.957,40.957,0,0,1-5.126-.083l-10.17-.608c-.58,1.181,0,2.584.691,3.689s1.548,2.252,1.492,3.565-.988,2.349-1.706,3.454-1.264,2.535-.546,3.613,2.183,1.147,3.454,1.133l5.126-.055a4.9,4.9,0,0,1,2.6.449,3.981,3.981,0,0,1,1.589,3.074,20.323,20.323,0,0,0,.4,3.558,2.874,2.874,0,0,0,2.5,2.218,1.865,1.865,0,0,1,1,.076,1.271,1.271,0,0,1,.484.967c.359,2.162-.3,6.156,1.955,7.358S681.186,274.968,683.03,273.511Z" transform="translate(-240.146 -99.362)" fill="#663d5c"/>
    <path id="Path_144" data-name="Path 144" d="M717.958,353.442a11.261,11.261,0,0,0-11.849,7.565c-2.764,7.869-7.372,22.066-6.218,27.676,1.624,7.952,3.537,21.21,3.537,21.21s8.394,4.836,4.145,9.714-5.451,11.786-5.451,11.786-5.451,2.356-6.626,7.365-9.133,11.924-9.133,11.924L674.44,462.613s19.731,20.035,23.711,21.058l12.222-14.287L724.8,450.24l12.519-13.127s2.943-6.909,1.472-20.035-7.22-25.625-7.22-25.625l.442-4.422S733.371,355.355,717.958,353.442Z" transform="translate(-245.871 -133.91)" opacity="0.1"/>
    <path id="Path_145" data-name="Path 145" d="M719.661,353.442a11.261,11.261,0,0,0-11.835,7.565c-2.764,7.869-7.372,22.066-6.218,27.676,1.617,7.952,3.53,21.21,3.53,21.21s8.394,4.836,4.145,9.714-5.444,11.786-5.444,11.786-5.451,2.356-6.632,7.365-9.126,11.924-9.126,11.924L676.15,462.614s19.731,20.035,23.711,21.058l12.222-14.287,14.4-19.144L739,437.114s2.95-6.909,1.472-20.035-7.213-25.624-7.213-25.624l.442-4.422S735.075,355.356,719.661,353.442Z" transform="translate(-246.399 -133.91)" fill="#585b8a"/>
    <path id="Path_146" data-name="Path 146" d="M721.28,418.34S733.8,433.65,739.1,430.264,721.28,418.34,721.28,418.34Z" transform="translate(-260.35 -153.991)" opacity="0.1"/>
    <path id="Path_147" data-name="Path 147" d="M728.1,401.28c1.326.442,12.229,15.614,17.825,13.817S728.1,401.28,728.1,401.28Z" transform="translate(-262.458 -148.717)" opacity="0.1"/>
    <path id="Path_148" data-name="Path 148" d="M732.58,439s.739,8.691,9.721,7.51S732.58,439,732.58,439Z" transform="translate(-263.843 -160.378)" opacity="0.1"/>
    <path id="Path_149" data-name="Path 149" d="M618.847,301.83l-4.857,10.826,6.066-6.156Z" transform="translate(-189.801 -93.304)" opacity="0.1"/>
    <path id="Path_150" data-name="Path 150" d="M618.847,300.98l-4.857,10.826,6.066-6.156Z" transform="translate(-189.801 -93.041)" fill="#f0f3f7"/>
    <path id="Path_151" data-name="Path 151" d="M588.116,480.664l-3.62-.767-6.646-12.484.67-4.463Z" transform="translate(-178.629 -143.11)" opacity="0.3"/>
    <path id="Path_152" data-name="Path 152" d="M677.756,487.65l-.794,4.138v.007l-9.424,7.689-3.558-.753Z" transform="translate(-205.254 -150.746)" opacity="0.3"/>
    <path id="Path_153" data-name="Path 153" d="M491.312,419.639c-1.824.3-3.593.58-5.209.788-8.981,1.181-30.343-9.424-30.343-9.424s-26.067-21.8-33.576-42.413,8.981-23.711,8.981-23.711c6.218-3.537,19.738,6.328,21.652,7.952s3.537,5.741,3.385,8.394,4.422,6.038,4.422,6.038,7.807,13.548,9.721,15.02,2.356,2.8,2.943,5.306,5.741,4.567,7.952,4.415,4.836.739,4.836,1.914c0,.947,2.162,1.416,3.938,1.568C490.538,403.038,491.056,412.931,491.312,419.639Z" transform="translate(-167.285 -131.048)" opacity="0.1"/>
    <path id="Path_154" data-name="Path 154" d="M491.758,416.43c-1.382.221-2.708.421-3.952.587-8.981,1.181-30.336-9.424-30.336-9.424s-26.067-21.8-33.576-42.413,8.981-23.711,8.981-23.711c6.218-3.537,19.731,6.328,21.645,7.952s3.537,5.741,3.392,8.394,4.415,6.038,4.415,6.038,7.807,13.548,9.721,15.02,2.356,2.8,2.95,5.306,5.741,4.56,7.952,4.415,4.836.739,4.836,1.914c0,.691,1.23,1.154,2.6,1.382.055.8.1,1.651.166,2.535C491,401.217,491.474,409.88,491.758,416.43Z" transform="translate(-167.814 -129.994)" opacity="0.1"/>
    <path id="Path_155" data-name="Path 155" d="M571.374,428.84l-.56,13.237h-.6l-1.244-.691.152-11.406A20.044,20.044,0,0,1,571.374,428.84Z" transform="translate(-213.267 -157.237)" opacity="0.1"/>
    <path id="Path_156" data-name="Path 156" d="M431.164,343.171s-16.491,3.1-8.981,23.711,33.576,42.42,33.576,42.42,21.355,10.6,30.343,9.424,22.674-4.27,24.443-3.827,13.7.442,13.7.442l.587-13.817-13.818-.739-7.068-1.472s-2.508-2.073-3.979-1.769-4.56-1.769-4.56-1.769-2.363-1.914-4.145-1.914-5.154-.442-5.154-1.617-2.653-2.073-4.836-1.914-7.4-1.914-8.007-4.449-1.029-3.827-2.943-5.3-9.721-15.026-9.721-15.026-4.567-3.385-4.422-6.031-1.472-6.777-3.385-8.4S437.341,339.641,431.164,343.171Z" transform="translate(-167.285 -130.52)" fill="#dce6f2"/>
    <path id="Path_157" data-name="Path 157" d="M495.231,412.15s-6.335,6.335-4.719,7.51Z" transform="translate(-188.932 -152.078)" opacity="0.1"/>
    <path id="Path_158" data-name="Path 158" d="M504.39,419.4s-8.249,6.335-6.038,6.777S504.39,419.4,504.39,419.4Z" transform="translate(-191.321 -154.319)" opacity="0.1"/>
    <path id="Path_159" data-name="Path 159" d="M487,433c1.181.594,18.7,11.054,25.334,10.9Z" transform="translate(-187.928 -158.523)" opacity="0.1"/>
    <path id="Path_160" data-name="Path 160" d="M476.534,325.043s-3.1,10.163-4.277,10.163c-.926,0-16.47-12.588-22.958-17.88l.283-.235s.587-4.567,2.943-6.909S476.534,325.043,476.534,325.043Z" transform="translate(-176.274 -120.489)" opacity="0.1"/>
    <path id="Path_161" data-name="Path 161" d="M475.674,323.333S472.586,333.5,471.4,333.5c-.933,0-16.477-12.588-22.965-17.88l.283-.235s.594-4.567,2.95-6.909S475.674,323.333,475.674,323.333Z" transform="translate(-176.008 -119.96)" fill="#dce6f2"/>
    <g id="Group_44" data-name="Group 44" transform="translate(257.958 136.434)" opacity="0.15">
      <path id="Path_162" data-name="Path 162" d="M427.49,282.54h0c2.073,4.732,7.779,7.026,11.089,10.8C436.61,288.7,430.855,286.43,427.49,282.54Z" transform="translate(-427.49 -248.445)"/>
      <path id="Path_163" data-name="Path 163" d="M454,296.533a4.965,4.965,0,0,1-4.532,2.314,13.223,13.223,0,0,1-4.546-1.161,8.837,8.837,0,0,1,1.174,2.5,14.44,14.44,0,0,0,5.14,1.382,4.916,4.916,0,0,0,4.532-2.314c1.32-2.522-.055-4.677-1.665-6.715A4.387,4.387,0,0,1,454,296.533Z" transform="translate(-432.878 -251.537)"/>
      <path id="Path_164" data-name="Path 164" d="M481.555,243.56c-.3-1.326-1.306-2.37-1.824-3.62a22.588,22.588,0,0,1-.753-2.957,9.161,9.161,0,0,0-2.121-3.793,8.818,8.818,0,0,1,.352,1.043,23.766,23.766,0,0,0,.774,2.971c.518,1.25,1.527,2.294,1.824,3.62a3.751,3.751,0,0,1-2.764,4.325c-2.556.56-5.472-1.651-7.669-.228-1.347.864-1.658,2.667-1.838,4.256q-.463,4.145-.94,8.242a9.882,9.882,0,0,1-.608,2.833c-1.085,2.487-4.062,3.655-6.777,3.613a4.069,4.069,0,0,1-2.916-.967,19.269,19.269,0,0,0-1.264-1.6c-3.454-2.9-4.5,4.194-3.593,6.218a12.52,12.52,0,0,0,1.686,2.536c-.76-2.28.3-8.843,3.675-6.031a17.843,17.843,0,0,1,1.257,1.6,4.1,4.1,0,0,0,2.922.967c2.715.041,5.693-1.126,6.777-3.613a9.882,9.882,0,0,0,.608-2.839q.47-4.145.94-8.235c.18-1.589.491-3.392,1.831-4.256,2.2-1.423,5.119.788,7.676.221A3.745,3.745,0,0,0,481.555,243.56Z" transform="translate(-434.797 -233.19)"/>
    </g>
    <path id="Path_165" data-name="Path 165" d="M697.749,290.253a5.341,5.341,0,0,1-2.218-.055,12.436,12.436,0,0,1-7.1-4.242c-1-1.216-1.789-2.874-1.181-4.325.484-1.168,1.755-1.9,2.073-3.116a4.629,4.629,0,0,0-.117-2.232l-.746-3.406c-.214-.967-.587-2.107-1.548-2.335s-1.762.56-2.515,1.154c-1.845,1.458-5.389,2.453-7.6,1.25s-1.6-5.2-1.955-7.358a1.292,1.292,0,0,0-.484-.967,1.969,1.969,0,0,0-1.009-.076,2.892,2.892,0,0,1-2.5-2.218,19.613,19.613,0,0,1-.394-3.558,3.987,3.987,0,0,0-1.6-3.074,4.967,4.967,0,0,0-2.6-.449l-5.126.055c-1.264,0-2.764-.083-3.454-1.133s-.18-2.542.546-3.613,1.644-2.135,1.706-3.454-.794-2.46-1.492-3.565a6.393,6.393,0,0,1-.87-1.976l-1.472-.09c-.573,1.174,0,2.577.691,3.689s1.554,2.252,1.492,3.558-.981,2.356-1.706,3.454-1.257,2.536-.539,3.613,2.176,1.154,3.454,1.14l5.126-.062a4.96,4.96,0,0,1,2.6.456,3.966,3.966,0,0,1,1.6,3.074,19.088,19.088,0,0,0,.4,3.558,2.86,2.86,0,0,0,2.5,2.211,2.024,2.024,0,0,1,1,.076,1.3,1.3,0,0,1,.484.974c.359,2.156-.3,6.156,1.955,7.358s5.783.207,7.6-1.25c.753-.594,1.589-1.382,2.522-1.161s1.333,1.382,1.541,2.335l.753,3.413a4.622,4.622,0,0,1,.111,2.232c-.346,1.209-1.624,1.948-2.107,3.109-.6,1.451.18,3.116,1.181,4.325a12.436,12.436,0,0,0,7.151,4.242,5.34,5.34,0,0,0,2.218.055,5.209,5.209,0,0,0,2.874-2.183A3.84,3.84,0,0,1,697.749,290.253Z" transform="translate(-240.073 -99.316)" opacity="0.1"/>
    <ellipse id="Ellipse_79" data-name="Ellipse 79" cx="16.698" cy="2.563" rx="16.698" ry="2.563" transform="translate(124.026 490.928)" fill="#6c63ff" opacity="0.1"/>
    <ellipse id="Ellipse_80" data-name="Ellipse 80" cx="16.698" cy="2.563" rx="16.698" ry="2.563" transform="translate(707.067 424.286)" fill="#6c63ff" opacity="0.1"/>
    <ellipse id="Ellipse_81" data-name="Ellipse 81" cx="48.361" cy="7.42" rx="48.361" ry="7.42" transform="translate(505.167 522.715)" fill="#6c63ff" opacity="0.1"/>
    <ellipse id="Ellipse_82" data-name="Ellipse 82" cx="37.722" cy="5.79" rx="37.722" ry="5.79" transform="translate(653.283 492.91)" fill="#6c63ff" opacity="0.1"/>
    <ellipse id="Ellipse_83" data-name="Ellipse 83" cx="63.968" cy="9.817" rx="63.968" ry="9.817" transform="translate(620.826 546.571)" fill="#6c63ff" opacity="0.1"/>
    <ellipse id="Ellipse_84" data-name="Ellipse 84" cx="48.361" cy="7.42" rx="48.361" ry="7.42" transform="translate(20.892 557.604)" fill="#6c63ff" opacity="0.1"/>
    <path id="Path_166" data-name="Path 166" d="M256.567,631.85s1.893,2.473-.87,6.218-5.043,6.909-4.145,9.216c0,0,4.145-6.909,7.6-7.033S260.3,636.023,256.567,631.85Z" transform="translate(-115.083 -219.993)" fill="#6c63ff"/>
    <path id="Path_167" data-name="Path 167" d="M256.622,631.85a2.763,2.763,0,0,1,.387.774c3.316,3.9,5.078,7.524,1.893,7.6-2.964.083-6.522,5.389-7.372,6.729a2.574,2.574,0,0,0,.1.3s4.145-6.909,7.6-7.033S260.359,636.023,256.622,631.85Z" transform="translate(-115.138 -219.993)" opacity="0.1"/>
    <path id="Path_168" data-name="Path 168" d="M263.8,636.16c0,.87-.1,1.575-.221,1.575s-.221-.691-.221-1.575.124-.456.242-.456S263.8,635.289,263.8,636.16Z" transform="translate(-118.795 -221.152)" fill="#ffd037"/>
    <path id="Path_169" data-name="Path 169" d="M265.074,637.651c-.76.414-1.43.691-1.485.56s.511-.525,1.278-.946.463-.111.518,0S265.841,637.23,265.074,637.651Z" transform="translate(-118.864 -221.6)" fill="#ffd037"/>
    <path id="Path_170" data-name="Path 170" d="M242.54,631.85s-1.893,2.473.87,6.218,5.05,6.909,4.145,9.216c0,0-4.145-6.909-7.565-7.033S238.782,636.023,242.54,631.85Z" transform="translate(-111.046 -219.993)" fill="#6c63ff"/>
    <path id="Path_171" data-name="Path 171" d="M242.533,631.85a3.048,3.048,0,0,0-.387.774c-3.316,3.9-5.078,7.524-1.893,7.6,2.964.083,6.522,5.389,7.379,6.729a2.638,2.638,0,0,1-.1.3s-4.145-6.909-7.565-7.033S238.775,636.023,242.533,631.85Z" transform="translate(-111.04 -219.993)" opacity="0.1"/>
    <path id="Path_172" data-name="Path 172" d="M239.35,636.16c0,.87.1,1.575.214,1.575s.221-.691.221-1.575-.124-.456-.242-.456S239.35,635.289,239.35,636.16Z" transform="translate(-111.373 -221.152)" fill="#ffd037"/>
    <path id="Path_173" data-name="Path 173" d="M237.392,637.651c.767.414,1.43.691,1.492.56s-.518-.525-1.285-.946-.463-.111-.518,0S236.625,637.23,237.392,637.651Z" transform="translate(-110.624 -221.6)" fill="#ffd037"/>
    <ellipse id="Ellipse_85" data-name="Ellipse 85" cx="19.78" cy="3.033" rx="19.78" ry="3.033" transform="translate(116.709 440.142)" fill="#6c63ff" opacity="0.1"/>
    <path id="Path_174" data-name="Path 174" d="M257.3,648.834l-.1.774-.131,1.092-.055.456-.131,1.092-.062.456-.131,1.092-1.513,12.436c-.131,1.105-1.941,1.969-4.145,1.969h-7.835c-2.183,0-3.993-.864-4.145-1.969l-1.513-12.436L237.4,652.7l-.055-.456-.138-1.092-.055-.456-.131-1.092-.1-.774c-.076-.629.905-1.154,2.142-1.154h16.09C256.39,647.68,257.371,648.205,257.3,648.834Z" transform="translate(-110.623 -224.886)" fill="#65617d"/>
    <path id="Path_175" data-name="Path 175" d="M203.133,614.76,203,615.852H183.091l-.131-1.092Z" transform="translate(-56.558 -190.039)" fill="#9d9cb5"/>
    <path id="Path_176" data-name="Path 176" d="M203.03,617l-.131,1.092H183.368L183.23,617Z" transform="translate(-56.641 -190.731)" fill="#9d9cb5"/>
    <path id="Path_177" data-name="Path 177" d="M202.93,619.24l-.138,1.092H183.641l-.131-1.092Z" transform="translate(-56.728 -191.424)" fill="#9d9cb5"/>
    <path id="Path_178" data-name="Path 178" d="M1082.568,618s-2.363,11,8.145,12.3l.649-1.223S1083.218,621.413,1082.568,618Z" transform="translate(-371.964 -215.711)" fill="#6c63ff"/>
    <path id="Path_179" data-name="Path 179" d="M1096.156,626.5l-2.446.518-.242.055s-6.522-5.292-6.439-17.106a29.163,29.163,0,0,0,3.116,4.926C1092.729,618.316,1095.666,622.876,1096.156,626.5Z" transform="translate(-373.413 -213.229)" fill="#6c63ff"/>
    <path id="Path_180" data-name="Path 180" d="M1098.832,625.815a1.534,1.534,0,0,1-1.313.173c-6.273-1.465-4.145-21.908-4.145-21.908.345.159.691,2.763,2.169,6.121C1098.065,616.094,1100.85,624.336,1098.832,625.815Z" transform="translate(-375.267 -211.408)" fill="#6c63ff"/>
    <path id="Path_181" data-name="Path 181" d="M1116.757,618s.408,11-10.1,12.3l-.656-1.244S1116.108,621.413,1116.757,618Z" transform="translate(-379.277 -215.711)" fill="#6c63ff"/>
    <path id="Path_182" data-name="Path 182" d="M1112.255,610a20.342,20.342,0,0,1-8.387,17.106l-.249-.055-2.439-.518c.484-3.627,3.454-8.187,6-11.607A26.586,26.586,0,0,1,1112.255,610Z" transform="translate(-377.787 -213.238)" fill="#6c63ff"/>
    <path id="Path_183" data-name="Path 183" d="M1102.916,624.754a3.814,3.814,0,0,1-1.382,1.071h0a2.685,2.685,0,0,1-.518.173c-1.541.359-2.073-.753-1.99-2.646.145-3.365,2.259-9.2,4.145-13.576a16.965,16.965,0,0,1,3.938-5.686S1107.013,620,1102.916,624.754Z" transform="translate(-377.119 -211.411)" fill="#6c63ff"/>
    <path id="Path_184" data-name="Path 184" d="M1100.588,593.7s-7.005,24.871-.974,28.588S1102.136,595.9,1100.588,593.7Z" transform="translate(-376.546 -208.2)" fill="#6c63ff"/>
    <path id="Path_185" data-name="Path 185" d="M1082.568,618s-2.363,11,8.145,12.3l.649-1.223S1083.218,621.413,1082.568,618Z" transform="translate(-371.964 -215.711)" opacity="0.1"/>
    <path id="Path_186" data-name="Path 186" d="M1096.156,626.5l-2.446.518-.242.055s-6.522-5.292-6.439-17.106a29.163,29.163,0,0,0,3.116,4.926C1092.729,618.316,1095.666,622.876,1096.156,626.5Z" transform="translate(-373.413 -213.229)" opacity="0.1"/>
    <path id="Path_187" data-name="Path 187" d="M1098.832,625.815a1.534,1.534,0,0,1-1.313.173c-6.273-1.465-4.145-21.908-4.145-21.908.345.159.691,2.763,2.169,6.121C1098.065,616.094,1100.85,624.336,1098.832,625.815Z" transform="translate(-375.267 -211.408)" opacity="0.1"/>
    <path id="Path_188" data-name="Path 188" d="M1116.757,618s.408,11-10.1,12.3l-.656-1.244S1116.108,621.413,1116.757,618Z" transform="translate(-379.277 -215.711)" opacity="0.1"/>
    <path id="Path_189" data-name="Path 189" d="M1112.255,610a20.342,20.342,0,0,1-8.387,17.106l-.249-.055-2.439-.518c.484-3.627,3.454-8.187,6-11.607A26.586,26.586,0,0,1,1112.255,610Z" transform="translate(-377.787 -213.238)" opacity="0.1"/>
    <path id="Path_190" data-name="Path 190" d="M1102.916,624.754a3.814,3.814,0,0,1-1.382,1.071h0a2.685,2.685,0,0,1-.518.173c-1.541.359-2.073-.753-1.99-2.646.145-3.365,2.259-9.2,4.145-13.576a16.965,16.965,0,0,1,3.938-5.686S1107.013,620,1102.916,624.754Z" transform="translate(-377.119 -211.411)" opacity="0.1"/>
    <path id="Path_191" data-name="Path 191" d="M1100.588,593.7s-7.005,24.871-.974,28.588S1102.136,595.9,1100.588,593.7Z" transform="translate(-376.546 -208.2)" opacity="0.1"/>
    <path id="Path_192" data-name="Path 192" d="M1082.643,618s-1.382,11,9.119,12.3l.649-1.223S1083.293,621.413,1082.643,618Z" transform="translate(-372.039 -215.711)" fill="#6c63ff"/>
    <path id="Path_193" data-name="Path 193" d="M1097.121,626.512l-2.446.518-.242.055s-7.5-5.292-7.434-17.085c0,0,1.921,2.073,4.09,4.926C1093.694,618.325,1096.631,622.885,1097.121,626.512Z" transform="translate(-373.404 -213.238)" fill="#6c63ff"/>
    <path id="Path_194" data-name="Path 194" d="M1098.961,628.707l-2.446.518c-2.314-2.031-3.233-7.337-3.565-12.125C1095.534,620.52,1098.47,625.08,1098.961,628.707Z" transform="translate(-375.243 -215.433)" opacity="0.1"/>
    <path id="Path_195" data-name="Path 195" d="M1099.929,625.815a1.548,1.548,0,0,1-1.32.173c-6.273-1.465-5.126-21.908-5.126-21.908.345.159,1.7,2.763,3.144,6.121C1099.162,616.094,1101.939,624.336,1099.929,625.815Z" transform="translate(-375.383 -211.408)" fill="#6c63ff"/>
    <path id="Path_196" data-name="Path 196" d="M1117.2,618s1.382,11-9.12,12.3l-.649-1.223S1116.55,621.413,1117.2,618Z" transform="translate(-379.719 -215.711)" fill="#6c63ff"/>
    <path id="Path_197" data-name="Path 197" d="M1112.691,610c.083,11.814-7.413,17.106-7.413,17.106l-.242-.055-2.446-.518c.484-3.627,3.454-8.187,6.011-11.607C1110.77,612.073,1112.691,610,1112.691,610Z" transform="translate(-378.223 -213.238)" fill="#6c63ff"/>
    <path id="Path_198" data-name="Path 198" d="M1108.6,617.1c-.318,4.463-1.133,9.375-3.116,11.669a3.518,3.518,0,0,1-.449.456l-2.446-.518C1103.074,625.08,1106.017,620.52,1108.6,617.1Z" transform="translate(-378.223 -215.433)" opacity="0.1"/>
    <path id="Path_199" data-name="Path 199" d="M1104.326,624.754a3.737,3.737,0,0,1-1.382,1.071h0a2.765,2.765,0,0,1-.511.173c-1.547.359-2.073-.753-2-2.646.152-3.365,2.266-9.2,4.145-13.576,1.382-3.143,2.632-5.527,2.964-5.686C1107.546,604.083,1108.423,620,1104.326,624.754Z" transform="translate(-377.555 -211.411)" fill="#6c63ff"/>
    <path id="Path_200" data-name="Path 200" d="M1101.206,628.554a1.658,1.658,0,0,1-.995-.318c-2.95-1.838-3.012-8.733-2.307-15.3C1100.439,618.833,1103.217,627.075,1101.206,628.554Z" transform="translate(-376.66 -214.147)" opacity="0.1"/>
    <path id="Path_201" data-name="Path 201" d="M1104.33,627.3c-.339.739-.795,1.126-1.382,1.071h0a1.859,1.859,0,0,1-.836-.318,4.464,4.464,0,0,1-1.672-2.156c.152-3.365,2.266-9.2,4.145-13.576C1105.262,618.379,1105.49,624.8,1104.33,627.3Z" transform="translate(-377.559 -213.956)" opacity="0.1"/>
    <path id="Path_202" data-name="Path 202" d="M1100.922,593.7s-6.024,24.871,0,28.588S1102.469,595.9,1100.922,593.7Z" transform="translate(-376.88 -208.2)" fill="#6c63ff"/>
    <path id="Path_203" data-name="Path 203" d="M1053.526,597.61H1028.44v4.152h3.828l.1.491,1.534,8.063h14.584l1.534-8.062.09-.491h3.42Z" transform="translate(-317.918 -184.737)" fill="#4b4770"/>
    <path id="Path_204" data-name="Path 204" d="M1053.526,597.61H1028.44v4.152h3.828l.1.491,1.534,8.063h14.584l1.534-8.062.09-.491h3.42Z" transform="translate(-317.918 -184.737)" opacity="0.1"/>
    <path id="Path_205" data-name="Path 205" d="M1053.415,601.14l-.421,2.2-1.534,8.063h-14.584l-1.534-8.062-.421-2.2Z" transform="translate(-319.921 -185.828)" fill="#4b4770"/>
    <path id="Path_206" data-name="Path 206" d="M1053.415,601.14l-.421,2.2h-17.652l-.421-2.2Z" transform="translate(-319.921 -185.828)" opacity="0.1"/>
    <rect id="Rectangle_82" data-name="Rectangle 82" width="25.086" height="4.152" transform="translate(711.496 412.873)" fill="#4b4770"/>
    <path id="Path_207" data-name="Path 207" d="M174.211,733.86a12.05,12.05,0,0,0-1.575,2.971c-.1.256-.193.553-.29.836a3.014,3.014,0,0,0-.546-.193,7.6,7.6,0,0,0-2.466-.207c0-.325.041-.691.048-1.016.1-3.641-.325-8.712-3.8-6.563-3.33,2.073-.953,5.527,1.2,7.738.187.193.373.373.553.546-1.962,1.382-2.335,4.65-2.66,8.042s-3.206,7.1-5.119,9.209c-.193.214-.366.408-.539.587a7.012,7.012,0,0,0-5.562-1.43c-.076-.3-.166-.608-.256-.933-1.548-5.589-4.76-15.268-8.857-17.389l.539-.691c1.741-2.273,3.7-5.658.808-6.522s-3.157,2.929-3,5.776q.041.539.083,1.016a4.235,4.235,0,0,0-3.026,1.478l-.449-.532c-2.349-2.763-6.653-7.164-7.959-3.841-1.216,3.1,2.577,7.116,5.244,9.444l.166.145c-1.789,7.261,6.024,13.182,10.232,15.773l.546.332c-5.8,6.84-9.389,19.662-9.389,19.662l16.249,2.9s10.778-9.3,9.4-18.032h.111c10.771-2.156,13.216-13.638,11.538-20.457l.193-.076a12.194,12.194,0,0,0,4.988-3.772C183.621,734.482,177.32,729.756,174.211,733.86Z" transform="translate(-77.91 -249.938)" fill="#6c63ff"/>
    <path id="Path_208" data-name="Path 208" d="M174.211,733.86a12.05,12.05,0,0,0-1.575,2.971c-.1.256-.193.553-.29.836a3.014,3.014,0,0,0-.546-.193,7.6,7.6,0,0,0-2.466-.207c0-.325.041-.691.048-1.016.1-3.641-.325-8.712-3.8-6.563-3.33,2.073-.953,5.527,1.2,7.738.187.193.373.373.553.546-1.962,1.382-2.335,4.65-2.66,8.042s-3.206,7.1-5.119,9.209c-.193.214-.366.408-.539.587a7.012,7.012,0,0,0-5.562-1.43c-.076-.3-.166-.608-.256-.933-1.548-5.589-4.76-15.268-8.857-17.389l.539-.691c1.741-2.273,3.7-5.658.808-6.522s-3.157,2.929-3,5.776q.041.539.083,1.016a4.235,4.235,0,0,0-3.026,1.478l-.449-.532c-2.349-2.763-6.653-7.164-7.959-3.841-1.216,3.1,2.577,7.116,5.244,9.444l.166.145c-1.789,7.261,6.024,13.182,10.232,15.773l.546.332c-5.8,6.84-9.389,19.662-9.389,19.662l16.249,2.9s10.778-9.3,9.4-18.032h.111c10.771-2.156,13.216-13.638,11.538-20.457l.193-.076a12.194,12.194,0,0,0,4.988-3.772C183.621,734.482,177.32,729.756,174.211,733.86Z" transform="translate(-77.91 -249.938)" opacity="0.1"/>
    <path id="Path_209" data-name="Path 209" d="M142.309,739.854l-1.9,5.527s-1.057-.746-2.39-1.921c-2.667-2.328-6.46-6.349-5.244-9.444,1.306-3.323,5.61,1.064,7.959,3.841C141.681,738.963,142.309,739.854,142.309,739.854Z" transform="translate(-78.355 -251.206)" fill="#4bbd93"/>
    <path id="Path_210" data-name="Path 210" d="M151.485,735.377a26.325,26.325,0,0,1-1.852,2.183,29.16,29.16,0,0,1-.339-2.929c-.159-2.846.145-6.625,3-5.776S153.226,733.1,151.485,735.377Z" transform="translate(-83.524 -249.942)" fill="#4bbd93"/>
    <path id="Path_211" data-name="Path 211" d="M185.559,736.453c-.055,1.831-.235,3.3-.235,3.3a24.117,24.117,0,0,1-2.37-2.121c-2.149-2.232-4.525-5.672-1.2-7.738C185.2,727.734,185.629,732.812,185.559,736.453Z" transform="translate(-93.058 -250.14)" fill="#6c63ff"/>
    <path id="Path_212" data-name="Path 212" d="M200.218,740.242a12.194,12.194,0,0,1-4.988,3.772,14.932,14.932,0,0,1-1.672.608l-2.238-3.143a22.224,22.224,0,0,1,.926-3.054,12.05,12.05,0,0,1,1.575-2.971C196.916,731.35,203.231,736.076,200.218,740.242Z" transform="translate(-96.525 -251.532)" fill="#4bbd93"/>
    <path id="Path_213" data-name="Path 213" d="M143.185,740.11c.947,1.105,1.575,1.962,1.575,1.962l-1.9,5.527s-1.057-.746-2.39-1.921a10.847,10.847,0,0,1,2.142-4.884C142.8,740.566,143,740.331,143.185,740.11Z" transform="translate(-80.806 -253.459)" opacity="0.1"/>
    <path id="Path_214" data-name="Path 214" d="M151.5,738.016a26.325,26.325,0,0,1-1.852,2.183,29.16,29.16,0,0,1-.339-2.929A3.82,3.82,0,0,1,151.5,738.016Z" transform="translate(-83.539 -252.581)" opacity="0.1"/>
    <path id="Path_215" data-name="Path 215" d="M158.058,760.542l-4.726,2.073s-1.029-.5-2.515-1.423c-4.967-3.054-14.95-10.743-8.29-19.807s12.277,7.192,14.508,15.144C157.706,758.946,158.058,760.542,158.058,760.542Z" transform="translate(-80.756 -253.027)" fill="#4bbd93"/>
    <path id="Path_216" data-name="Path 216" d="M184.18,740.795a3.883,3.883,0,0,1,2.6-1.175c-.055,1.831-.235,3.3-.235,3.3a24.125,24.125,0,0,1-2.37-2.121Z" transform="translate(-94.318 -253.307)" opacity="0.1"/>
    <path id="Path_217" data-name="Path 217" d="M195.25,746.049a14.942,14.942,0,0,1-1.672.608l-2.238-3.144a22.228,22.228,0,0,1,.926-3.054C193.7,741.3,194.76,743.4,195.25,746.049Z" transform="translate(-96.531 -253.567)" opacity="0.1"/>
    <path id="Path_218" data-name="Path 218" d="M175.749,766.758c-.256.055-.525.1-.794.145-15.842,2.4-5.223-6.142-5.223-6.142s.691-.691,1.679-1.734c1.914-2.107,4.788-5.8,5.119-9.209.5-5.133,1.071-9.949,7.13-8.539C189.608,742.674,190.748,763.753,175.749,766.758Z" transform="translate(-88.775 -253.743)" fill="#4bbd93"/>
    <rect id="Rectangle_83" data-name="Rectangle 83" width="30.267" height="7.959" transform="translate(56.41 552.457)" fill="#d4dfec"/>
    <rect id="Rectangle_84" data-name="Rectangle 84" width="39.546" height="27.773" transform="translate(51.601 526.591)" fill="#d4dfec"/>
    <rect id="Rectangle_85" data-name="Rectangle 85" width="30.267" height="7.959" transform="translate(56.41 552.457)" opacity="0.1"/>
    <rect id="Rectangle_86" data-name="Rectangle 86" width="39.546" height="27.773" transform="translate(51.601 526.591)" opacity="0.1"/>
    <rect id="Rectangle_87" data-name="Rectangle 87" width="30.267" height="7.959" transform="translate(58.4 552.457)" fill="#d4dfec"/>
    <path id="Path_219" data-name="Path 219" d="M161.738,764.51c.691,2.377,1.022,4.007,1.022,4.007l-4.726,2.073s-1.029-.5-2.515-1.423C157.372,766.824,159.458,765.056,161.738,764.51Z" transform="translate(-85.459 -261.002)" opacity="0.1"/>
    <path id="Path_220" data-name="Path 220" d="M175.749,774.811c-.256.055-.525.1-.794.145-15.842,2.4-5.223-6.142-5.223-6.142s.691-.691,1.679-1.734A10.49,10.49,0,0,1,175.749,774.811Z" transform="translate(-88.775 -261.796)" opacity="0.1"/>
    <path id="Path_221" data-name="Path 221" d="M142.72,789.527s8.871-31.78,21.313-21.977-5.064,24.871-5.064,24.871Z" transform="translate(-81.502 -261.361)" fill="#4bbd93"/>
    <circle id="Ellipse_86" data-name="Ellipse 86" cx="0.995" cy="0.995" r="0.995" transform="translate(64.7 492.344)" opacity="0.1"/>
    <circle id="Ellipse_87" data-name="Ellipse 87" cx="0.995" cy="0.995" r="0.995" transform="translate(64.617 496.987)" opacity="0.1"/>
    <circle id="Ellipse_88" data-name="Ellipse 88" cx="0.995" cy="0.995" r="0.995" transform="translate(93.475 493.256)" opacity="0.1"/>
    <circle id="Ellipse_89" data-name="Ellipse 89" cx="0.995" cy="0.995" r="0.995" transform="translate(70.262 517.056)" opacity="0.1"/>
    <circle id="Ellipse_90" data-name="Ellipse 90" cx="0.995" cy="0.995" r="0.995" transform="translate(91.403 500.966)" opacity="0.1"/>
    <circle id="Ellipse_91" data-name="Ellipse 91" cx="0.995" cy="0.995" r="0.995" transform="translate(81.122 511.253)" opacity="0.1"/>
    <circle id="Ellipse_92" data-name="Ellipse 92" cx="0.995" cy="0.995" r="0.995" transform="translate(68.099 494.334)" opacity="0.1"/>
    <circle id="Ellipse_93" data-name="Ellipse 93" cx="0.995" cy="0.995" r="0.995" transform="translate(90.739 496.24)" opacity="0.1"/>
    <circle id="Ellipse_94" data-name="Ellipse 94" cx="0.995" cy="0.995" r="0.995" transform="translate(87.34 503.951)" opacity="0.1"/>
    <circle id="Ellipse_95" data-name="Ellipse 95" cx="0.995" cy="0.995" r="0.995" transform="translate(76.894 516.31)" opacity="0.1"/>
    <circle id="Ellipse_96" data-name="Ellipse 96" cx="0.995" cy="0.995" r="0.995" transform="translate(74.739 511.419)" opacity="0.1"/>
    <circle id="Ellipse_97" data-name="Ellipse 97" cx="0.995" cy="0.995" r="0.995" transform="translate(69.592 500.386)" opacity="0.1"/>
    <rect id="Rectangle_88" data-name="Rectangle 88" width="30.267" height="2.909" transform="translate(58.4 552.457)" opacity="0.1"/>
    <rect id="Rectangle_89" data-name="Rectangle 89" width="39.546" height="27.773" transform="translate(53.591 526.591)" fill="#d4dfec"/>
    <circle id="Ellipse_98" data-name="Ellipse 98" cx="0.995" cy="0.995" r="0.995" transform="translate(78.221 520.787)" opacity="0.1"/>
    <circle id="Ellipse_99" data-name="Ellipse 99" cx="0.995" cy="0.995" r="0.995" transform="translate(72.252 522.031)" opacity="0.1"/>
    <circle id="Ellipse_100" data-name="Ellipse 100" cx="7.227" cy="7.227" r="7.227" transform="translate(27.317 28.699)" fill="#6c63ff" opacity="0.1"/>
    <circle id="Ellipse_101" data-name="Ellipse 101" cx="9.672" cy="9.672" r="9.672" transform="translate(718.902 253.613)" fill="#6c63ff" opacity="0.1"/>
    <circle id="Ellipse_102" data-name="Ellipse 102" cx="7.061" cy="7.061" r="7.061" transform="translate(740.16 235.498)" fill="#6c63ff" opacity="0.1"/>
    <ellipse id="Ellipse_103" data-name="Ellipse 103" cx="10" cy="9.5" rx="10" ry="9.5" transform="translate(37 -0.136)" fill="#6c63ff" opacity="0.1"/>
    <ellipse id="Ellipse_104" data-name="Ellipse 104" cx="9.5" cy="10" rx="9.5" ry="10" transform="translate(0 43.864)" fill="#6c63ff" opacity="0.1"/>
  </g>
</svg>
