<svg xmlns="http://www.w3.org/2000/svg" width="120" height="122.631" viewBox="0 0 120 122.631">
  <path id="Icon_awesome-js-square" data-name="Icon awesome-js-square" d="M107.143,2.25H12.857A13,13,0,0,0,0,15.389v96.353a13,13,0,0,0,12.857,13.139h94.286A13,13,0,0,0,120,111.742V15.389A13,13,0,0,0,107.143,2.25ZM65.3,97.891c0,11.935-6.857,17.382-16.848,17.382-9.027,0-14.25-4.763-16.929-10.539l9.187-5.666c1.768,3.2,3.375,5.913,7.259,5.913,3.7,0,6.054-1.478,6.054-7.254V58.556H65.3Zm26.679,17.382c-10.473,0-17.25-5.091-20.545-11.77l9.188-5.42c2.411,4.024,5.571,7.007,11.116,7.007,4.661,0,7.661-2.381,7.661-5.694,0-3.942-3.054-5.338-8.223-7.664L88.366,90.5c-8.143-3.531-13.527-7.993-13.527-17.382,0-8.65,6.455-15.219,16.5-15.219,7.179,0,12.321,2.546,16.018,9.225l-8.786,5.748c-1.929-3.531-4.018-4.927-7.259-4.927-3.295,0-5.384,2.135-5.384,4.927,0,3.449,2.089,4.845,6.938,7.007l2.812,1.232c9.589,4.188,14.973,8.486,14.973,18.121,0,10.347-7.982,16.041-18.67,16.041Z" transform="translate(0 -2.25)" fill="#f0db4f"/>
</svg>
