<svg xmlns="http://www.w3.org/2000/svg" width="372.526" height="271.06" viewBox="0 0 372.526 271.06">
  <g id="Group_13" data-name="Group 13" transform="translate(0)">
    <ellipse id="Ellipse_9" data-name="Ellipse 9" cx="178.537" cy="23.52" rx="178.537" ry="23.52" transform="translate(15.453 224.02)" fill="#202357"/>
    <ellipse id="Ellipse_10" data-name="Ellipse 10" cx="8.483" cy="5.774" rx="8.483" ry="5.774" transform="translate(21.83 149.413)" fill="#4f4688"/>
    <path id="Path_94" data-name="Path 94" d="M195.538,500.981s40.292,70.008,39.232,80.112" transform="translate(-165.226 -345.794)" fill="#4f4688"/>
    <path id="Path_95" data-name="Path 95" d="M173.743,513.506v40.953c-8.44-11.695-25.274-23.736-56.82-33.512l56.82,78.047v.593s.107-.058.307-.171l.1.133s.081-.108.226-.318C180.993,595.4,236.514,560.821,173.743,513.506Z" transform="translate(-116.923 -353.49)" fill="#3f3d56"/>
    <path id="Path_96" data-name="Path 96" d="M733.244,204.177a28.588,28.588,0,0,0-8.438-5.83V138.161a2.661,2.661,0,0,0-2.661-2.661h-14.9a2.661,2.661,0,0,0-2.661,2.661v59.032a27.011,27.011,0,0,0-18.508,25.629V351.93a11.831,11.831,0,0,0,11.831,11.831h31.915A11.776,11.776,0,0,0,741.6,351.985V224.344a28.43,28.43,0,0,0-8.356-20.166Z" transform="translate(-466.625 -121.234)" fill="#3f3d56"/>
    <rect id="Rectangle_80" data-name="Rectangle 80" width="55.523" height="73.345" transform="translate(219.452 120.514)" fill="#6d1c30"/>
    <path id="Path_97" data-name="Path 97" d="M753.586,139.613h-1.2v-1.452a2.661,2.661,0,0,0-2.661-2.661h-14.9a2.661,2.661,0,0,0-2.661,2.661v1.452h-1.2v6.169h1.2v31.532h20.221V145.782h1.2Z" transform="translate(-494.206 -121.234)" fill="#6d1c30"/>
    <path id="Path_98" data-name="Path 98" d="M831.654,483.948l42.413-20.05,4.627-5.4,1.928,2.313-5.013,4.627-38.558,24.677Z" transform="translate(-510.988 -281.713)" fill="#3f3d56"/>
    <circle id="Ellipse_11" data-name="Ellipse 11" cx="12.724" cy="12.724" r="12.724" transform="translate(329.534 214.187)" fill="#6c63ff"/>
    <circle id="Ellipse_12" data-name="Ellipse 12" cx="12.724" cy="12.724" r="12.724" transform="translate(329.534 214.187)" opacity="0.1"/>
    <circle id="Ellipse_13" data-name="Ellipse 13" cx="12.724" cy="12.724" r="12.724" transform="translate(295.989 222.67)" fill="#6c63ff"/>
    <circle id="Ellipse_14" data-name="Ellipse 14" cx="12.724" cy="12.724" r="12.724" transform="translate(295.989 222.67)" opacity="0.1"/>
    <circle id="Ellipse_15" data-name="Ellipse 15" cx="12.724" cy="12.724" r="12.724" transform="translate(269.384 213.031)" fill="#6c63ff"/>
    <circle id="Ellipse_16" data-name="Ellipse 16" cx="12.724" cy="12.724" r="12.724" transform="translate(273.818 204.741)" fill="#6c63ff"/>
    <circle id="Ellipse_17" data-name="Ellipse 17" cx="10.411" cy="10.411" r="10.411" transform="translate(273.818 195.873)" fill="#6c63ff"/>
    <circle id="Ellipse_18" data-name="Ellipse 18" cx="10.411" cy="10.411" r="10.411" transform="translate(282.301 215.151)" fill="#6c63ff"/>
    <circle id="Ellipse_19" data-name="Ellipse 19" cx="10.411" cy="10.411" r="10.411" transform="translate(282.301 215.151)" opacity="0.1"/>
    <circle id="Ellipse_20" data-name="Ellipse 20" cx="9.254" cy="9.254" r="9.254" transform="translate(290.784 192.788)" fill="#6c63ff"/>
    <circle id="Ellipse_21" data-name="Ellipse 21" cx="9.254" cy="9.254" r="9.254" transform="translate(290.784 192.788)" opacity="0.1"/>
    <circle id="Ellipse_22" data-name="Ellipse 22" cx="9.254" cy="9.254" r="9.254" transform="translate(239.117 231.346)" fill="#4f4688"/>
    <circle id="Ellipse_23" data-name="Ellipse 23" cx="9.254" cy="9.254" r="9.254" transform="translate(252.997 233.273)" fill="#4f4688"/>
    <circle id="Ellipse_24" data-name="Ellipse 24" cx="9.254" cy="9.254" r="9.254" transform="translate(252.997 224.791)" fill="#6c63ff"/>
    <circle id="Ellipse_25" data-name="Ellipse 25" cx="9.254" cy="9.254" r="9.254" transform="translate(252.997 224.791)" opacity="0.1"/>
    <circle id="Ellipse_26" data-name="Ellipse 26" cx="9.254" cy="9.254" r="9.254" transform="translate(239.117 217.465)" fill="#4f4688"/>
    <circle id="Ellipse_27" data-name="Ellipse 27" cx="9.254" cy="9.254" r="9.254" transform="translate(260.709 203.584)" fill="#6c63ff"/>
    <circle id="Ellipse_28" data-name="Ellipse 28" cx="9.254" cy="9.254" r="9.254" transform="translate(260.709 203.584)" opacity="0.1"/>
    <path id="Path_99" data-name="Path 99" d="M809.129,659.03a12.784,12.784,0,0,0-2.463.24,10.414,10.414,0,0,0-15.488-6.238,9.254,9.254,0,1,0-4.77,11.029,10.363,10.363,0,0,0,1.9,4.162,10.411,10.411,0,0,0,14.2,14.4,12.725,12.725,0,1,0,6.619-23.592Z" transform="translate(-520.08 -435.203)" fill="#4f4688"/>
    <circle id="Ellipse_29" data-name="Ellipse 29" cx="9.254" cy="9.254" r="9.254" transform="translate(269.384 200.307)" fill="#4f4688"/>
    <path id="Path_100" data-name="Path 100" d="M915.91,568.448a12.664,12.664,0,0,0-7.085,2.154,12.716,12.716,0,0,0-11.038-6.4c-.325,0-.645.016-.964.04a12.725,12.725,0,1,0-21.4-12.883,12.723,12.723,0,0,0-24.094,5.709c0,.357.018.71.047,1.06a10.41,10.41,0,1,0,.463,20.556,12.723,12.723,0,1,0,18.314,17.58A12.734,12.734,0,0,0,880.2,604.18a12.724,12.724,0,1,0,13.581-7.844,12.7,12.7,0,0,0,.7-7.118,12.731,12.731,0,0,0,10.393-1.718,12.723,12.723,0,1,0,11.038-19.052Zm-58.51,7.3a10.373,10.373,0,0,0,2.954-6.494,12.717,12.717,0,0,0,3.7.547c.178,0,.354-.006.53-.013a12.7,12.7,0,0,0,.142,6.363,12.742,12.742,0,0,0-7.323-.4Z" transform="translate(-560.927 -371.611)" fill="#4f4688"/>
    <path id="Path_101" data-name="Path 101" d="M523.173,427.236,520.338,494.2l-1.771,30.116s3.9,6.377-1.772,7.086-16.3-1.063-14.881-4.606,2.48-3.543,2.48-3.543l1.417-34.013-10.629-41.807-13.463,45-2.834,32.241s3.9,4.96,0,6.023-14.172,1.063-13.818-2.126,1.772-3.189,1.772-3.189l-1.772-93.536,5.314-8.149Z" transform="translate(-330.825 -298.307)" fill="#2f2e41"/>
    <path id="Path_102" data-name="Path 102" d="M579.1,697.522l1.417,8.858s8.149,17.006-3.189,17.006-8.149-6.732-8.149-6.732l1.063-19.132Z" transform="translate(-394.544 -466.554)" fill="#2f2e41"/>
    <path id="Path_103" data-name="Path 103" d="M463.82,697.522l-1.417,8.858s-8.149,17.006,3.189,17.006,8.149-6.732,8.149-6.732l-1.063-19.132Z" transform="translate(-327.453 -466.554)" fill="#2f2e41"/>
    <path id="Path_104" data-name="Path 104" d="M536.657,171.143S540.2,183.9,540.908,183.9s-6.732,9.92-6.732,9.92l-10.983,6.023-3.9-16.3s3.543-8.858,2.834-13.463Z" transform="translate(-364.151 -142.481)" fill="#a0616a"/>
    <circle id="Ellipse_30" data-name="Ellipse 30" cx="13.109" cy="13.109" r="13.109" transform="translate(153.728 7.404)" fill="#a0616a"/>
    <path id="Path_105" data-name="Path 105" d="M499.293,204.994l10.474-9.1,6.178,3.073,13.464,8.5s-3.543,76.529-1.772,79.363c0,0-3.9,8.858-26.927,3.543s-29.053-6.023-29.053-6.023l4.96-46.768-6.023-29.407,20.232-14.148,6.341,10.959Z" transform="translate(-334.227 -157.199)" fill="#3f3d56"/>
    <path id="Path_106" data-name="Path 106" d="M627.471,299.644s5.314,16.652,1.417,18.424a12.191,12.191,0,0,1-7.086,1.063L615.779,304.6Z" transform="translate(-423.432 -222.088)" fill="#a0616a"/>
    <path id="Path_107" data-name="Path 107" d="M449.893,292.293,446.7,307.174v30.116s4.606,19.132,8.149,14.172,3.47-6.531,3.47-6.531L453.79,338l2.126-28.344,5.648-13.521Z" transform="translate(-319.548 -217.571)" fill="#a0616a"/>
    <path id="Path_108" data-name="Path 108" d="M512.439,105.9s4.252-9.212,12.4-7.086,12.755,5.315,13.109,8.5a45.489,45.489,0,0,1-.177,7.972s-.886-6.555-6.555-5.137-14.526.354-14.526.354l-1.417,12.755s-1.594-2.3-3.366-.886S506.771,108.739,512.439,105.9Z" transform="translate(-358.003 -98.5)" fill="#2f2e41"/>
    <path id="Path_109" data-name="Path 109" d="M613.521,229.6l2.834-.709s5.315,6.732,7.086,14.526S627.693,259,626.276,259s-14.172,4.96-14.172,4.96Z" transform="translate(-421.174 -178.614)" fill="#3f3d56"/>
    <path id="Path_110" data-name="Path 110" d="M465.622,228.889l-8.149.709s-9.212,25.155-8.149,25.864,13.818,4.96,15.589,3.9S465.622,228.889,465.622,228.889Z" transform="translate(-321.106 -178.614)" fill="#3f3d56"/>
    <path id="Path_111" data-name="Path 111" d="M556.268,286.284c-3.407,2.246-6.22,3.93-8.371,5.143h0a48.987,48.987,0,0,0-9.411.264c-2.205-1.231-5.18-3-8.84-5.408-.035-.023-.069-.046-.1-.071v0c-3.357-2.309-3.44-7.2-2.348-12.2a29.582,29.582,0,0,1,13.159,1.952c7.048,2.518,14.425,1.094,18.7-.2C559.755,280.174,559.326,284.268,556.268,286.284Z" transform="translate(-368.618 -206.261)" fill="#9b0e30"/>
    <path id="Path_112" data-name="Path 112" d="M542.644,307.644c-6.453,0-13.312-.98-13.312-2.8,0-1.726,6.064-2.646,11.768-2.78V272.532a5.477,5.477,0,0,0-1.007-2.676,16.221,16.221,0,0,0-1-1.415q-.478-.259-1.014-.557c-2.752-1.536-5.73-3.358-8.852-5.415-.038-.025-.074-.05-.111-.076l-.08-.058c-2.894-2.058-3.683-6.21-2.343-12.342a66.819,66.819,0,0,1,5.751-14.98l.082-.15.159.063c.077.031,7.81,3.026,19.946-.008l.145-.036.071.131c.006.011.618,1.137,1.446,2.9a55.548,55.548,0,0,1,4.638,13.838c.843,5.3-.122,8.9-2.868,10.714h0c-2.946,1.941-5.766,3.674-8.382,5.15l-.046.025q-.552.313-1.045.582c-.124.173-.245.356-.36.543-.153.25-.3.514-.438.787a11.819,11.819,0,0,0-1.231,5.228l-.174,27.291c5.61.147,11.57,1.071,11.57,2.773C555.956,306.663,549.1,307.644,542.644,307.644Zm-13.223-45.51.018.012c3.113,2.052,6.084,3.868,8.827,5.4q.554.309,1.045.574l.035.019.025.031a16.7,16.7,0,0,1,1.05,1.482,5.828,5.828,0,0,1,1.065,2.88v29.913l-.189,0c-7.152.146-11.579,1.358-11.579,2.4,0,1.141,5.309,2.412,12.926,2.412s12.926-1.271,12.926-2.412c0-1.024-4.352-2.23-11.383-2.392l-.19,0,.177-27.67a12.2,12.2,0,0,1,1.273-5.4c.142-.282.295-.556.453-.815.128-.208.263-.411.4-.6l.026-.035.038-.021q.528-.289,1.122-.625l.046-.025c2.6-1.466,5.394-3.186,8.316-5.112,2.609-1.72,3.517-5.2,2.7-10.331a55.161,55.161,0,0,0-4.607-13.735c-.661-1.411-1.183-2.409-1.366-2.752-11.213,2.767-18.694.429-19.874.015a65.919,65.919,0,0,0-5.634,14.731c-1.315,6.023-.552,10.06,2.269,12Z" transform="translate(-368.306 -182.284)" fill="#f2f2f2"/>
    <circle id="Ellipse_31" data-name="Ellipse 31" cx="0.965" cy="0.965" r="0.965" transform="translate(166.428 64.01)" fill="#6c63ff"/>
    <circle id="Ellipse_32" data-name="Ellipse 32" cx="0.965" cy="0.965" r="0.965" transform="translate(163.727 72.884)" fill="#fff"/>
    <circle id="Ellipse_33" data-name="Ellipse 33" cx="0.579" cy="0.579" r="0.579" transform="translate(169.129 66.711)" fill="#6c63ff"/>
    <circle id="Ellipse_34" data-name="Ellipse 34" cx="0.579" cy="0.579" r="0.579" transform="translate(171.444 77.707)" fill="#fff"/>
    <circle id="Ellipse_35" data-name="Ellipse 35" cx="0.579" cy="0.579" r="0.579" transform="translate(167.393 78.286)" fill="#fff"/>
    <circle id="Ellipse_36" data-name="Ellipse 36" cx="0.579" cy="0.579" r="0.579" transform="translate(179.161 58.994)" fill="#6c63ff"/>
    <path id="Path_113" data-name="Path 113" d="M583.4,315.028s4.252,7.795,3.189,10.275-9.921,3.9-10.984,3.9-13.818-2.834-13.818-2.834-19.487-9.212-13.818-13.818,16.3,6.377,16.3,6.377h8.5l4.606-3.189Z" transform="translate(-381.134 -229.323)" fill="#a0616a"/>
  </g>
</svg>
