<svg xmlns="http://www.w3.org/2000/svg" width="120" height="105.006" viewBox="0 0 120 105.006">
  <path id="Icon_awesome-react" data-name="Icon awesome-react" d="M98.016,36.279q-1.9-.633-3.8-1.2c.211-.867.4-1.734.586-2.6,2.883-13.969.984-25.2-5.414-28.9-6.164-3.539-16.219.141-26.391,9-1.008.867-1.992,1.781-2.93,2.7-.633-.609-1.289-1.219-1.945-1.8C47.461,4.006,36.773.021,30.375,3.748,24.234,7.31,22.406,17.881,24.984,31.1c.258,1.312.539,2.6.867,3.914-1.5.422-2.977.891-4.359,1.383C8.977,40.732,0,47.576,0,54.654c0,7.312,9.563,14.648,22.57,19.1,1.055.352,2.109.7,3.188,1.008-.352,1.406-.656,2.789-.938,4.219-2.461,13.008-.539,23.32,5.6,26.859,6.328,3.656,16.969-.094,27.328-9.164.82-.727,1.641-1.477,2.461-2.273,1.031,1.008,2.109,1.969,3.188,2.906,10.031,8.625,19.945,12.117,26.062,8.578,6.328-3.656,8.391-14.742,5.719-28.242q-.316-1.547-.7-3.164c.75-.211,1.477-.445,2.2-.68C110.2,69.326,120,62.084,120,54.654,120,47.553,110.766,40.662,98.016,36.279ZM66.3,16.381C75.023,8.787,83.156,5.81,86.859,7.943c3.961,2.273,5.484,11.461,3,23.531-.164.8-.328,1.57-.539,2.344a119.983,119.983,0,0,0-15.773-2.484,118.417,118.417,0,0,0-9.984-12.445c.914-.867,1.8-1.688,2.742-2.508ZM39.188,66.818c1.2,2.039,2.414,4.078,3.7,6.07a106.128,106.128,0,0,1-10.875-1.758,109.488,109.488,0,0,1,3.82-10.43C36.914,62.764,38.016,64.8,39.188,66.818Zm-7.1-28.2c3.375-.75,6.961-1.359,10.688-1.828-1.242,1.945-2.461,3.937-3.609,5.953-1.148,1.992-2.273,4.031-3.328,6.094-1.477-3.492-2.719-6.914-3.75-10.219Zm6.422,16.148c1.547-3.234,3.234-6.4,5.016-9.516s3.7-6.141,5.719-9.117c3.516-.258,7.1-.4,10.758-.4s7.266.141,10.758.4q2.988,4.43,5.7,9.07t5.086,9.469q-2.355,4.852-5.062,9.563C74.7,67.357,72.8,70.381,70.8,73.381c-3.492.258-7.125.375-10.8.375s-7.242-.117-10.687-.328q-3.059-4.465-5.766-9.141c-1.8-3.117-3.469-6.281-5.039-9.516Zm42.328,12c1.2-2.062,2.32-4.148,3.422-6.258A108.8,108.8,0,0,1,88.219,70.9,102.946,102.946,0,0,1,77.2,72.771C78.469,70.8,79.664,68.787,80.836,66.771Zm3.375-17.93c-1.1-2.063-2.227-4.125-3.4-6.141q-1.723-2.988-3.586-5.906A107.856,107.856,0,0,1,87.984,38.67,103.725,103.725,0,0,1,84.211,48.842ZM60.047,22.475a102.92,102.92,0,0,1,6.938,8.391c-4.641-.211-9.3-.211-13.945,0C55.336,27.842,57.7,25.029,60.047,22.475ZM32.859,8.107c3.938-2.3,12.68.984,21.891,9.141.586.516,1.172,1.078,1.781,1.641A119.076,119.076,0,0,0,46.477,31.334a123.546,123.546,0,0,0-15.75,2.438c-.3-1.2-.562-2.414-.82-3.633-2.2-11.344-.75-19.9,2.953-22.031ZM27.117,69.889c-.984-.281-1.945-.586-2.906-.914C19.219,67.4,13.547,64.92,9.445,61.662a10.517,10.517,0,0,1-4.406-7.008c0-4.289,7.406-9.773,18.094-13.5,1.336-.469,2.7-.891,4.055-1.289A124.627,124.627,0,0,0,32.93,54.771,128.115,128.115,0,0,0,27.117,69.889ZM54.445,92.857a42.9,42.9,0,0,1-13.219,8.273,10.374,10.374,0,0,1-8.273.3c-3.727-2.156-5.273-10.43-3.164-21.563.258-1.312.539-2.625.867-3.914a117.251,117.251,0,0,0,15.914,2.3A123.686,123.686,0,0,0,56.7,90.771C55.945,91.5,55.2,92.2,54.445,92.857Zm5.742-5.7c-2.391-2.578-4.781-5.437-7.1-8.508,2.25.094,4.57.141,6.914.141,2.414,0,4.781-.047,7.125-.164a101.075,101.075,0,0,1-6.938,8.531ZM90.82,94.193a10.416,10.416,0,0,1-3.867,7.336c-3.727,2.156-11.672-.656-20.25-8.016-.984-.844-1.969-1.758-2.977-2.7a115.942,115.942,0,0,0,9.891-12.562A115.538,115.538,0,0,0,89.6,75.795c.234.961.445,1.922.633,2.859a42.725,42.725,0,0,1,.586,15.539ZM95.086,69c-.656.211-1.312.422-1.992.609a119.06,119.06,0,0,0-5.977-14.953,118.467,118.467,0,0,0,5.742-14.742c1.219.352,2.391.727,3.516,1.1,10.922,3.75,18.586,9.328,18.586,13.594,0,4.594-8.18,10.523-19.875,14.391ZM60,65.482A10.734,10.734,0,1,0,49.266,54.748,10.733,10.733,0,0,0,60,65.482Z" transform="translate(0 -2.251)" fill="#61dbfb"/>
</svg>
