<svg xmlns="http://www.w3.org/2000/svg" width="120" height="105.59" viewBox="0 0 120 105.59">
  <path id="Icon_simple-redux" data-name="Icon simple-redux" d="M83.17,74.621a7.929,7.929,0,0,0,7.5-8.138,8.369,8.369,0,0,0-8.541-7.646H81.82a7.844,7.844,0,0,0-5.77,13.557C70.809,81.849,62.944,88.8,51.028,94.64a43.769,43.769,0,0,1-24.722,4.31c-6.891-.9-12.281-3.758-15.581-8.342-4.94-6.955-5.39-14.457-1.275-21.963a33.679,33.679,0,0,1,10.5-11.334,43.608,43.608,0,0,1-2.1-7.154C-4.336,64.9-2.081,85.05,4.659,94.575c5.02,6.95,15.286,11.395,26.522,11.395a41.825,41.825,0,0,0,9.216-.9c19.481-3.475,34.238-14.317,42.7-30.305Zm26.742-17.38c-11.606-12.652-28.692-19.6-48.174-19.6h-2.55A8.157,8.157,0,0,0,51.7,33.468h-.225A8.056,8.056,0,0,0,43.242,41.6c.15,4.166,3.97,7.646,8.541,7.646h.37a8.45,8.45,0,0,0,7.491-4.867h2.775a61.259,61.259,0,0,1,32.443,9.242C102.5,58.28,107.972,64.4,111.043,71.7c2.69,5.976,2.545,11.817-.225,16.688-4.27,7.641-11.466,11.678-20.977,11.678A41.674,41.674,0,0,1,75,97.076c-1.8,1.383-4.8,3.679-6.971,5.071a51.2,51.2,0,0,0,19.7,4.375c14.611,0,25.467-7.641,29.592-15.013,4.49-8.342,4.12-22.381-7.346-34.407ZM32.451,77.117c.145,4.171,3.965,7.646,8.541,7.646h.3c4.8-.139,8.466-3.818,8.241-8.2,0-4.171-3.9-7.641-8.466-7.641h-.305a3.458,3.458,0,0,0-1.125.135,48.942,48.942,0,0,1-7.861-31.414,36.2,36.2,0,0,1,8.986-21.968c4.5-5.215,12.961-7.79,18.731-7.924C75.675,7.464,82.42,26.17,82.94,33.608l7.491,2.083C88.706,12.892,73.43.931,58.818.931c-13.711,0-26.367,9.247-31.467,22.8-6.966,18.075-2.4,35.45,6.145,49.355A5.81,5.81,0,0,0,32.451,77.117Z" transform="translate(0 -0.932)" fill="#764abc"/>
</svg>
