<svg xmlns="http://www.w3.org/2000/svg" xmlns:xlink="http://www.w3.org/1999/xlink" width="3841.003" height="549.001" viewBox="0 0 3841.003 549.001">
  <defs>
    <linearGradient id="linear-gradient" x1="0.505" y1="0.39" x2="0.5" y2="1" gradientUnits="objectBoundingBox">
      <stop offset="0" stop-color="#763ee8"/>
      <stop offset="1" stop-color="#1d7dd2"/>
    </linearGradient>
    <linearGradient id="linear-gradient-2" y1="0.348" x2="0.994" y2="0.364" gradientUnits="objectBoundingBox">
      <stop offset="0" stop-color="#1167b2"/>
      <stop offset="0.423" stop-color="#1167b2"/>
      <stop offset="0.581" stop-color="#763ee8"/>
      <stop offset="1" stop-color="#763ee8"/>
    </linearGradient>
  </defs>
  <g id="Group_50" data-name="Group 50" transform="translate(1.003 0.001)">
    <path id="Path_280" data-name="Path 280" d="M8610.517,7242.773s487.862-31.752,744.788,4.232-47.872,183.105,124,188.281,587.679-135.919,755.06-123.925-41.137,144.569,282.889,123.925,537.837-155.548,856.189-162.929-45.685,127.4,163.57,114.754,913.509-144.338,913.509-144.338V6888.464l-3840,.264Z" transform="translate(-8610.517 -6888.465)" fill="url(#linear-gradient)"/>
    <path id="Path_279" data-name="Path 279" d="M8583,7218.717s500.081-33.542,755.087,0-23.889,162.242,138.985,179.442,554.855-124.648,720.986-113.468-20.8,123.788,304.944,113.468,538.741-142.976,854.716-149.856-32.575,121.779,173.731,121.779,890.377-151.366,890.377-151.366V6888.465H8583Z" transform="translate(-8583.002 -6887)" stroke="#fff" stroke-width="2" fill="url(#linear-gradient-2)"/>
    <g id="Group_15" data-name="Group 15" transform="translate(2650.55 47.296) rotate(90)">
      <circle id="Ellipse_8" data-name="Ellipse 8" cx="3.877" cy="3.877" r="3.877" transform="translate(154.826 22.252)" fill="#ff6584"/>
      <circle id="Ellipse_9" data-name="Ellipse 9" cx="3.877" cy="3.877" r="3.877" transform="translate(184.065 1023.865)" fill="#ff6584"/>
      <circle id="Ellipse_10" data-name="Ellipse 10" cx="3.877" cy="3.877" r="3.877" transform="translate(99.069 537.491)" fill="#fff"/>
      <circle id="Ellipse_11" data-name="Ellipse 11" cx="3.877" cy="3.877" r="3.877" transform="translate(241.969 780.093)" fill="#ee9943"/>
      <circle id="Ellipse_12" data-name="Ellipse 12" cx="3.877" cy="3.877" r="3.877" transform="translate(175.136 548.434)" fill="#ee9943"/>
      <circle id="Ellipse_13" data-name="Ellipse 13" cx="3.877" cy="3.877" r="3.877" transform="translate(12.924 441.418)" fill="#fff"/>
      <circle id="Ellipse_17" data-name="Ellipse 17" cx="8.401" cy="8.401" r="8.401" transform="translate(92.109 1241.349)" fill="#ff6584"/>
      <circle id="Ellipse_18" data-name="Ellipse 18" cx="4.466" cy="4.466" r="4.466" transform="translate(178.608 331.438)" fill="#fff"/>
      <circle id="Ellipse_19" data-name="Ellipse 19" cx="4.466" cy="4.466" r="4.466" transform="translate(108.988 810.552)" fill="#e3974c"/>
      <circle id="Ellipse_20" data-name="Ellipse 20" cx="5.816" cy="5.816" r="5.816" transform="translate(69.763 726.709)" fill="#ff6584"/>
      <circle id="Ellipse_22" data-name="Ellipse 22" cx="4.466" cy="4.466" r="4.466" transform="translate(128.924 386.122)" fill="#ee9943"/>
      <circle id="Ellipse_24" data-name="Ellipse 24" cx="6.451" cy="6.451" r="6.451" transform="translate(219.309 1228.919)" fill="#fff"/>
      <circle id="Ellipse_25" data-name="Ellipse 25" cx="8.401" cy="8.401" r="8.401" transform="translate(0 947.933)" fill="#ee9943"/>
      <circle id="Ellipse_28" data-name="Ellipse 28" cx="8.401" cy="8.401" r="8.401" transform="translate(76.665 251.927)" fill="#ff6584"/>
      <circle id="Ellipse_27" data-name="Ellipse 27" cx="4.58" cy="4.58" r="4.58" transform="translate(318.614 802.449)" fill="#ff6584"/>
      <circle id="Ellipse_21" data-name="Ellipse 21" cx="4.466" cy="4.466" r="4.466" transform="translate(208.515 694.912)" fill="#ff6584"/>
      <path id="Path_26" data-name="Path 26" d="M6.451,0A6.451,6.451,0,1,1,0,6.451,6.451,6.451,0,0,1,6.451,0Z" transform="translate(74.735 0)" fill="#ee9943"/>
    </g>
    <g id="Group_49" data-name="Group 49" transform="translate(845.55 33.296) rotate(90)">
      <circle id="Ellipse_8-2" data-name="Ellipse 8" cx="3.877" cy="3.877" r="3.877" transform="translate(154.826 22.252)" fill="#ff6584"/>
      <circle id="Ellipse_10-2" data-name="Ellipse 10" cx="3.877" cy="3.877" r="3.877" transform="translate(99.069 537.491)" fill="#fff"/>
      <circle id="Ellipse_11-2" data-name="Ellipse 11" cx="3.877" cy="3.877" r="3.877" transform="translate(241.969 780.093)" fill="#ee9943"/>
      <circle id="Ellipse_12-2" data-name="Ellipse 12" cx="3.877" cy="3.877" r="3.877" transform="translate(175.136 548.434)" fill="#ee9943"/>
      <circle id="Ellipse_13-2" data-name="Ellipse 13" cx="3.877" cy="3.877" r="3.877" transform="translate(12.924 441.418)" fill="#fff"/>
      <circle id="Ellipse_18-2" data-name="Ellipse 18" cx="4.466" cy="4.466" r="4.466" transform="translate(178.608 331.438)" fill="#fff"/>
      <circle id="Ellipse_19-2" data-name="Ellipse 19" cx="4.466" cy="4.466" r="4.466" transform="translate(108.988 810.552)" fill="#e3974c"/>
      <circle id="Ellipse_20-2" data-name="Ellipse 20" cx="5.816" cy="5.816" r="5.816" transform="translate(69.763 726.709)" fill="#ff6584"/>
      <circle id="Ellipse_22-2" data-name="Ellipse 22" cx="4.466" cy="4.466" r="4.466" transform="translate(128.924 386.122)" fill="#ee9943"/>
      <circle id="Ellipse_28-2" data-name="Ellipse 28" cx="8.401" cy="8.401" r="8.401" transform="translate(76.665 251.927)" fill="#ff6584"/>
      <circle id="Ellipse_21-2" data-name="Ellipse 21" cx="4.466" cy="4.466" r="4.466" transform="translate(208.515 694.912)" fill="#ff6584"/>
      <path id="Path_26-2" data-name="Path 26" d="M6.451,0A6.451,6.451,0,1,1,0,6.451,6.451,6.451,0,0,1,6.451,0Z" transform="translate(74.735 0)" fill="#ee9943"/>
    </g>
    <g id="Group_37" data-name="Group 37" transform="translate(3755.855 3.296) rotate(90)">
      <circle id="Ellipse_9-2" data-name="Ellipse 9" cx="3.877" cy="3.877" r="3.877" transform="translate(184.065 771.938)" fill="#ff6584"/>
      <circle id="Ellipse_10-3" data-name="Ellipse 10" cx="3.877" cy="3.877" r="3.877" transform="translate(99.069 285.564)" fill="#fff"/>
      <circle id="Ellipse_11-3" data-name="Ellipse 11" cx="3.877" cy="3.877" r="3.877" transform="translate(241.969 528.167)" fill="#ee9943"/>
      <circle id="Ellipse_12-3" data-name="Ellipse 12" cx="3.877" cy="3.877" r="3.877" transform="translate(175.136 296.508)" fill="#ee9943"/>
      <circle id="Ellipse_13-3" data-name="Ellipse 13" cx="3.877" cy="3.877" r="3.877" transform="translate(12.924 189.491)" fill="#fff"/>
      <circle id="Ellipse_17-2" data-name="Ellipse 17" cx="8.401" cy="8.401" r="8.401" transform="translate(92.109 989.422)" fill="#ff6584"/>
      <circle id="Ellipse_18-3" data-name="Ellipse 18" cx="4.466" cy="4.466" r="4.466" transform="translate(178.608 79.511)" fill="#fff"/>
      <circle id="Ellipse_19-3" data-name="Ellipse 19" cx="4.466" cy="4.466" r="4.466" transform="translate(108.988 558.626)" fill="#e3974c"/>
      <circle id="Ellipse_20-3" data-name="Ellipse 20" cx="5.816" cy="5.816" r="5.816" transform="translate(69.763 474.783)" fill="#ff6584"/>
      <circle id="Ellipse_22-3" data-name="Ellipse 22" cx="4.466" cy="4.466" r="4.466" transform="translate(128.924 134.195)" fill="#ee9943"/>
      <circle id="Ellipse_24-2" data-name="Ellipse 24" cx="6.451" cy="6.451" r="6.451" transform="translate(219.309 976.993)" fill="#fff"/>
      <circle id="Ellipse_28-3" data-name="Ellipse 28" cx="8.401" cy="8.401" r="8.401" transform="translate(76.665 0)" fill="#ff6584"/>
      <circle id="Ellipse_27-2" data-name="Ellipse 27" cx="4.58" cy="4.58" r="4.58" transform="translate(318.614 550.522)" fill="#ff6584"/>
      <circle id="Ellipse_21-3" data-name="Ellipse 21" cx="4.466" cy="4.466" r="4.466" transform="translate(208.515 442.986)" fill="#ff6584"/>
    </g>
    <circle id="Ellipse_8-3" data-name="Ellipse 8" cx="3.877" cy="3.877" r="3.877" transform="translate(1425.213 146.26) rotate(90)" fill="#ff6584"/>
    <circle id="Ellipse_9-3" data-name="Ellipse 9" cx="3.877" cy="3.877" r="3.877" transform="translate(423.415 173.299) rotate(90)" fill="#ff6584"/>
    <circle id="Ellipse_10-4" data-name="Ellipse 10" cx="3.877" cy="3.877" r="3.877" transform="translate(909.907 102.365) rotate(90)" fill="#fff"/>
    <circle id="Ellipse_11-4" data-name="Ellipse 11" cx="3.877" cy="3.877" r="3.877" transform="translate(667.186 226.848) rotate(90)" fill="#ee9943"/>
    <circle id="Ellipse_12-4" data-name="Ellipse 12" cx="3.877" cy="3.877" r="3.877" transform="translate(898.962 165.042) rotate(90)" fill="#ee9943"/>
    <circle id="Ellipse_13-4" data-name="Ellipse 13" cx="3.877" cy="3.877" r="3.877" transform="translate(1005.993 16.22) rotate(90)" fill="#fff"/>
    <circle id="Ellipse_18-4" data-name="Ellipse 18" cx="4.466" cy="4.466" r="4.466" transform="translate(1115.987 168.224) rotate(90)" fill="#fff"/>
    <circle id="Ellipse_19-4" data-name="Ellipse 19" cx="4.466" cy="4.466" r="4.466" transform="translate(636.727 103.853) rotate(90)" fill="#e3974c"/>
    <circle id="Ellipse_20-4" data-name="Ellipse 20" cx="5.816" cy="5.816" r="5.816" transform="translate(720.57 73.059) rotate(90)" fill="#ff6584"/>
    <circle id="Ellipse_22-4" data-name="Ellipse 22" cx="4.466" cy="4.466" r="4.466" transform="translate(1061.296 122.286) rotate(90)" fill="#ee9943"/>
    <circle id="Ellipse_25-2" data-name="Ellipse 25" cx="8.401" cy="8.401" r="8.401" transform="translate(499.346 3.296) rotate(90)" fill="#ee9943"/>
    <circle id="Ellipse_28-4" data-name="Ellipse 28" cx="8.401" cy="8.401" r="8.401" transform="translate(1195.508 79.961) rotate(90)" fill="#ff6584"/>
    <circle id="Ellipse_21-4" data-name="Ellipse 21" cx="4.466" cy="4.466" r="4.466" transform="translate(752.367 195.877) rotate(90)" fill="#ff6584"/>
    <path id="Path_26-3" data-name="Path 26" d="M6.451,0A6.451,6.451,0,1,1,0,6.451,6.451,6.451,0,0,1,6.451,0Z" transform="translate(1447.468 78.031) rotate(90)" fill="#ee9943"/>
    <path id="Path_10" data-name="Path 10" d="M24.017,0C37.282,0,48.035,11.586,48.035,25.877S37.282,51.755,24.017,51.755,0,40.169,0,25.877,10.753,0,24.017,0Z" transform="translate(1968.756 407.437) rotate(49)" fill="rgba(255,255,255,0.24)"/>
    <g id="Group_9" data-name="Group 9" transform="matrix(0.995, -0.105, 0.105, 0.995, 2000.339, 401.096)">
      <line id="Line_5" data-name="Line 5" y1="19" x2="79.933" transform="translate(0 0)" fill="none" stroke="rgba(255,255,255,0.09)" stroke-linecap="round" stroke-width="2"/>
      <line id="Line_6" data-name="Line 6" y1="7.653" x2="32.849" transform="translate(6.395 19.347)" fill="none" stroke="rgba(255,255,255,0.09)" stroke-linecap="round" stroke-width="2"/>
      <line id="Line_7" data-name="Line 7" y1="16.607" x2="65.224" transform="translate(5.117 19)" fill="none" stroke="rgba(255,255,255,0.09)" stroke-linecap="round" stroke-width="2"/>
    </g>
    <g id="Group_14" data-name="Group 14" transform="matrix(0.891, -0.454, 0.454, 0.891, 2170.633, 235.096)">
      <path id="Path_14" data-name="Path 14" d="M59.578,28.4A31.552,31.552,0,0,0,71.4,23.627L71,23.094a30.861,30.861,0,0,1-11.57,4.663c-6.258,1.124-15.623.572-24.7-8.439C17.082,1.782.23.016.062,0L0,.659C.166.674,16.782,2.416,34.273,19.787c7.145,7.1,14.476,9.058,20.4,9.058A27.615,27.615,0,0,0,59.578,28.4Z" transform="translate(11.075 115.424)" fill="#413a2e"/>
      <ellipse id="Ellipse_3" data-name="Ellipse 3" cx="3.967" cy="3.967" rx="3.967" ry="3.967" transform="translate(16.016 122.017)" fill="#2f2e41"/>
      <ellipse id="Ellipse_4" data-name="Ellipse 4" cx="3.967" cy="3.967" rx="3.967" ry="3.967" transform="translate(44.115 140.529)" fill="#2f2e41"/>
      <path id="Path_16" data-name="Path 16" d="M5.817,1.7C9.42,5.587,0,15.012,0,15.012s19.076,3.217,17.562,3.022-.729-16.241-.729-16.241S2.214-2.18,5.817,1.7Z" transform="translate(49.704 13.004)" fill="#d597a0"/>
      <path id="Path_17" data-name="Path 17" d="M27.246,3.35,43.82,11.818l9,5.159S63.432,30.342,65.412,38.263s-8.572,22.56-9.766,24.073A17.969,17.969,0,0,0,54,64.79c-.412.613-3.977-.179-7.869-1.013s.516-6.6.516-6.6S51.612,44.485,51.982,44.2c.346-.267,1.521-2.462.675-3.422a8.578,8.578,0,0,1-1.8-2.941,9.951,9.951,0,0,0-1.384-2.625s-15-12.177-19.678-16.323-17.133-1.54-17.133-1.54,5.878,22.545,7.348,24.067,1.629,2.876.964,5.457S11.625,47,11.625,47L8.419,38.256A145.261,145.261,0,0,1,.386,15.223C-1.027,9.375,1.671,5.89,4.723,3.866A13.682,13.682,0,0,1,14.65,1.89L29.972,4.578,19.345,0Z" transform="translate(14.998 52.92)" fill="#373839"/>
      <path id="Path_18" data-name="Path 18" d="M0,18.446l19.786-6.118S27.779,2.026,24.013.208s-8.48,8.907-8.48,8.907l-13.78.892Z" transform="translate(103.378 16.034)" fill="#d597a0"/>
      <path id="Path_19" data-name="Path 19" d="M20.2,23.768,2.611,12.837S-2.511.845,1.593.04,7.539,10.8,7.539,10.8l13.1,4.354Z" transform="translate(0)" fill="#d597a0"/>
      <path id="Path_20" data-name="Path 20" d="M.335,0,0,12.955l29.648,5.3c-4.361,9.33-3.253,19.949-14.23,24.6l37,18.1c-1.649-14.227,5.229-24.943,11.657-38.266C71.9,19.848,81,21.929,90.63,26.106l1.731-13.442L51.411,9.723l-6.727,2.572L37.472,9.261C26.871,6.112,11.651.124.335,0Z" transform="translate(16.574 11.409)" fill="#d67932"/>
      <path id="Path_21" data-name="Path 21" d="M16.618.971c.9.782,1.736,7.223,1.768,9.56s-3.045,2.941-4.727,3.058-1.48,1.143-2.591,2-4.759.72-9.55-.9S4.742,7.774,5.44,7.531,9.077,0,9.077,0,15.718.189,16.618.971Z" transform="translate(18.742 98.408)" fill="#2f2e41"/>
      <path id="Path_22" data-name="Path 22" d="M4.221.113C3.153.642.712,6.66.088,8.913s2.2,3.616,3.8,4.155,1.142,1.48,2,2.591,4.421,1.9,9.466,1.552S13.985,9.7,13.372,9.291s-1.609-8.206-1.609-8.206S5.289-.416,4.221.113Z" transform="translate(57.343 113.973)" fill="#2f2e41"/>
      <ellipse id="Ellipse_5" data-name="Ellipse 5" cx="7.932" cy="7.932" rx="7.932" ry="7.932" transform="translate(53.598 3.779)" fill="#d597a0"/>
      <path id="Path_23" data-name="Path 23" d="M18.211,10.755a7.546,7.546,0,0,0,.276-6.146c-.78-1.922-2.51-3.853-6.239-4.43C4.111-1.078-.219,4.621.009,6.485s1.32,6.37,1.32,6.37S.841,8.589,2.935,8.438s10.215-.786,12.271,1.37a4.7,4.7,0,0,1,1.227,4.572Z" transform="translate(52.488 0.161)" fill="#2f2e41"/>
    </g>
    <path id="Path_274" data-name="Path 274" d="M90.028,0V396.135H0Z" transform="matrix(-0.208, 0.978, -0.978, -0.208, 3473.576, 319.613)" fill="rgba(255,255,255,0.33)"/>
    <path id="Path_275" data-name="Path 275" d="M90.028,0V266.424H0Z" transform="translate(1423.961 332.527) rotate(101)" fill="rgba(255,255,255,0.33)"/>
    <path id="Path_276" data-name="Path 276" d="M90.028,266.424V0H0Z" transform="translate(805.666 154.772) rotate(73)" fill="rgba(255,255,255,0.33)"/>
    <path id="Path_273" data-name="Path 273" d="M174.125,607.526s-8.626-186.217-34.8-334.678-50.141-254.9-50.141-254.9L0,0Z" transform="matrix(0.105, 0.995, -0.995, 0.105, 2803.892, 216.538)" fill="rgba(255,255,255,0.33)"/>
    <rect id="Rectangle_66" data-name="Rectangle 66" width="104" height="104" transform="translate(3090.216 366.088) rotate(-8)" fill="rgba(255,255,255,0.33)"/>
    <circle id="Ellipse_79" data-name="Ellipse 79" cx="49" cy="49" r="49" transform="translate(1105.446 396.244) rotate(-21)" fill="rgba(255,255,255,0.33)"/>
    <ellipse id="Ellipse_80" data-name="Ellipse 80" cx="49" cy="49" rx="49" ry="49" transform="translate(792.436 232.749) rotate(18)" fill="rgba(255,255,255,0.33)"/>
  </g>
</svg>
