<svg id="Group_53" data-name="Group 53" xmlns="http://www.w3.org/2000/svg" width="183.958" height="164.463" viewBox="0 0 183.958 164.463">
  <ellipse id="Ellipse_81" data-name="Ellipse 81" cx="34.652" cy="5.185" rx="34.652" ry="5.185" transform="translate(114.654 154.093)" fill="#e6e6e6"/>
  <path id="Path_281" data-name="Path 281" d="M0,0H183.751A152.227,152.227,0,0,1,31.524,152.227H0Z" fill="#414141"/>
  <circle id="Ellipse_82" data-name="Ellipse 82" cx="14.908" cy="14.908" r="14.908" transform="translate(120.491 22.096)" fill="#f2f2f2"/>
  <circle id="Ellipse_83" data-name="Ellipse 83" cx="1.278" cy="1.278" r="1.278" transform="translate(88.332 5.484)" fill="#ff6584"/>
  <circle id="Ellipse_84" data-name="Ellipse 84" cx="1.278" cy="1.278" r="1.278" transform="translate(129.861 91.099)" fill="#ff6584"/>
  <circle id="Ellipse_85" data-name="Ellipse 85" cx="1.278" cy="1.278" r="1.278" transform="translate(134.121 5.484)" fill="#f2f2f2"/>
  <circle id="Ellipse_86" data-name="Ellipse 86" cx="1.278" cy="1.278" r="1.278" transform="translate(152.011 67.033)" fill="#f2f2f2"/>
  <circle id="Ellipse_87" data-name="Ellipse 87" cx="1.278" cy="1.278" r="1.278" transform="translate(101.11 39.986)" fill="#f2f2f2"/>
  <circle id="Ellipse_88" data-name="Ellipse 88" cx="1.278" cy="1.278" r="1.278" transform="translate(33.598 31.467)" fill="#f2f2f2"/>
  <path id="Path_302" data-name="Path 302" d="M43.446,0A43.446,43.446,0,1,1,0,43.446,43.446,43.446,0,0,1,43.446,0Z" transform="translate(15.495 42.328)" fill="#2f376a"/>
  <circle id="Ellipse_90" data-name="Ellipse 90" cx="6.389" cy="6.389" r="6.389" transform="translate(50.636 61.709)" fill="#fff"/>
  <circle id="Ellipse_91" data-name="Ellipse 91" cx="11.075" cy="11.075" r="11.075" transform="translate(45.95 99.831)" fill="#fff"/>
  <circle id="Ellipse_92" data-name="Ellipse 92" cx="2.769" cy="2.769" r="2.769" transform="translate(22.097 91.312)" fill="#fff"/>
  <circle id="Ellipse_93" data-name="Ellipse 93" cx="1.472" cy="1.472" r="1.472" transform="translate(132.63 27.842)" opacity="0.2"/>
  <circle id="Ellipse_94" data-name="Ellipse 94" cx="1.472" cy="1.472" r="1.472" transform="translate(70.229 57.02)" fill="#fff"/>
  <circle id="Ellipse_95" data-name="Ellipse 95" cx="1.917" cy="1.917" r="1.917" transform="translate(53.191 85.775)" fill="#fff"/>
  <circle id="Ellipse_96" data-name="Ellipse 96" cx="1.472" cy="1.472" r="1.472" transform="translate(129.048 39.602)" opacity="0.2"/>
  <circle id="Ellipse_97" data-name="Ellipse 97" cx="1.472" cy="1.472" r="1.472" transform="translate(89.435 75.807)" fill="#fff"/>
  <circle id="Ellipse_98" data-name="Ellipse 98" cx="2.126" cy="2.126" r="2.126" transform="translate(141.583 37.559)" opacity="0.2"/>
  <circle id="Ellipse_99" data-name="Ellipse 99" cx="2.126" cy="2.126" r="2.126" transform="translate(76.626 90.164)" fill="#fff"/>
  <circle id="Ellipse_100" data-name="Ellipse 100" cx="2.769" cy="2.769" r="2.769" transform="translate(29.338 65.33)" fill="#fff"/>
  <path id="Path_282" data-name="Path 282" d="M246.756,438.036a121.52,121.52,0,0,1-13.673-.79c-13.653-1.551-26.245-5.214-35.456-10.316-9.324-5.165-14.095-11.212-13.434-17.028.458-4.029,4.352-7.636,11.906-11.026a.426.426,0,0,1,.349.777c-7.256,3.256-10.988,6.639-11.409,10.344-.619,5.451,4,11.2,13,16.187,9.115,5.049,21.595,8.677,35.139,10.215s26.519.8,36.535-2.075c9.892-2.841,15.68-7.408,16.3-12.859.419-3.688-1.612-7.6-5.874-11.308a.426.426,0,0,1,.559-.643c4.483,3.9,6.613,8.068,6.161,12.047-.661,5.816-6.666,10.639-16.911,13.582A85.457,85.457,0,0,1,246.756,438.036Z" transform="translate(-178.402 -327.218)" fill="#fff"/>
  <path id="Path_283" data-name="Path 283" d="M642.557,717.64l.3,2.717-2.717-.3v-3.321Z" transform="translate(-507.381 -568.088)" fill="#ffb8b8"/>
  <path id="Path_284" data-name="Path 284" d="M787.453,717.64l-.3,2.717,2.717-.3v-3.321Z" transform="translate(-623.901 -568.088)" fill="#ffb8b8"/>
  <path id="Path_285" data-name="Path 285" d="M790.16,492.226l-1.207,31.093s-3.924,23.244-3.019,23.848,0,3.924,0,3.924l5.132.6s0-2.415,1.207-3.321S804.65,504.9,804.65,504.9l11.471,41.054s-.3,2.415.6,2.415,1.208,3.32,1.208,3.32h5.132v-3.32s1.509-.3.6-2.717-4.226-53.431-4.226-53.431Z" transform="translate(-655.286 -401.237)" fill="#2f2e41"/>
  <path id="Path_286" data-name="Path 286" d="M758.715,772.654s-1.509-.906-2.113-.3-5.434,6.641-5.434,6.641-6.641,4.226-.6,5.434,10.565-4.528,10.867-5.132-.3-5.434-.6-4.83-1.208.3-1.509,0A6.257,6.257,0,0,1,758.715,772.654Z" transform="translate(-625.35 -623.103)" fill="#2f2e41"/>
  <path id="Path_287" data-name="Path 287" d="M943.143,772.654s1.509-.906,2.113-.3,5.434,6.641,5.434,6.641,6.641,4.226.6,5.434-10.566-4.528-10.867-5.132.3-5.434.6-4.83,1.208.3,1.509,0A6.261,6.261,0,0,0,943.143,772.654Z" transform="translate(-777.779 -623.103)" fill="#2f2e41"/>
  <circle id="Ellipse_101" data-name="Ellipse 101" cx="6.188" cy="6.188" r="6.188" transform="translate(146.949 33.935)" fill="#ffb8b8"/>
  <path id="Path_288" data-name="Path 288" d="M715.28,209.052l-.906,9.358,7.245,1.509,1.811-11.169Z" transform="translate(-566.218 -165.457)" fill="#ffb8b8"/>
  <path id="Path_289" data-name="Path 289" d="M832.026,297.484s-1.811,3.924-8.452-.3L811.2,337.633s16.6,9.962,27.168,2.415L834.743,299.3Z" transform="translate(-675.417 -246.644)" fill="#575a89"/>
  <path id="Path_290" data-name="Path 290" d="M813.5,273.344l-5.736-.906-.6,3.924s-7.849.906-8.754,3.924l.906,22.338s-2.717,4.83-.3,7.849c0,0-3.924,8.15-.906,9.66,0,0,6.943-3.321,11.169-2.415,0,0,2.415-.6,2.415-2.415S813.5,273.344,813.5,273.344Z" transform="translate(-664.133 -227.032)" fill="#2f2e41"/>
  <path id="Path_291" data-name="Path 291" d="M906.861,279.716l3.321.906.3,4.226s8.151,5.132,8.452,8.151-6.037,17.508-6.037,17.508,2.415,4.226,1.509,6.943c0,0,3.924,7.849,1.509,9.962,0,0-4.528,1.207-5.132-.6s-6.037-22.64-3.622-32.6C907.163,294.206,904.748,281.527,906.861,279.716Z" transform="translate(-750.554 -232.8)" fill="#2f2e41"/>
  <path id="Path_292" data-name="Path 292" d="M887.507,308.338h-.114v-3.113a1.8,1.8,0,0,0-1.8-1.8H879a1.8,1.8,0,0,0-1.8,1.8V322.3a1.8,1.8,0,0,0,1.8,1.8h6.594a1.8,1.8,0,0,0,1.8-1.8V310.553h.114Z" transform="translate(-727.728 -251.591)" fill="#fff"/>
  <path id="Path_293" data-name="Path 293" d="M913.243,363.441s-2.415-7.849-6.037-5.434,2.415,9.056,2.415,9.056Z" transform="translate(-750.596 -294.489)" fill="#ffb8b8"/>
  <path id="Path_294" data-name="Path 294" d="M860.685,345.462s4.226-5.132,6.339-2.717-3.622,7.849-3.622,7.849Z" transform="translate(-714.642 -282.246)" fill="#ffb8b8"/>
  <path id="Path_295" data-name="Path 295" d="M782.905,308.789s-1.509-.3-2.415,2.415-4.226,12.98-4.226,14.792,1.208,9.056,7.849,7.849,14.49-9.66,14.49-9.66l-4.226-6.339-9.056,5.434Z" transform="translate(-647.729 -255.836)" fill="#2f2e41"/>
  <path id="Path_296" data-name="Path 296" d="M657.828,291.577l1.262,6.513,9.358-5.433-8.754,3.321-1.93-4.788Z" transform="translate(-521.347 -230.798)" opacity="0.1"/>
  <path id="Path_297" data-name="Path 297" d="M786.424,311.775l1.208.906.6-4.226Z" transform="translate(-623.325 -244.483)" opacity="0.1"/>
  <path id="Path_298" data-name="Path 298" d="M807.558,403.863s8.867-2.412,13.037-7.7A17.486,17.486,0,0,1,807.558,403.863Z" transform="translate(-672.533 -325.1)" opacity="0.1"/>
  <path id="Path_299" data-name="Path 299" d="M915.268,407.076s1.867,9.138,6.669,9.4C921.937,416.475,916.174,418.245,915.268,407.076Z" transform="translate(-757.905 -333.747)" opacity="0.1"/>
  <path id="Path_300" data-name="Path 300" d="M925.655,337.938s.906.6,1.509,3.321,4.528,12.98,3.019,15.4-3.924,7.849-9.056,4.226L916,351.522l5.132-4.83,2.113,1.509Z" transform="translate(-758.481 -278.947)" fill="#2f2e41"/>
  <path id="Path_301" data-name="Path 301" d="M857.8,211.288s-5.19-8.411.338-8.849a14.094,14.094,0,0,0,5.3-1.445c1.832-.932,4.139-1.641,5.366-.206a9.122,9.122,0,0,0,1.855,1.719c1.078.715,2.326,1.874,1.635,3.118l-1.132,2.039-1.586,4.077c.369-1.759.379-3.235-.566-3.964,0,0-5.271,2.243-7.928-1.812C858.112,203.734,857.165,210.757,857.8,211.288Z" transform="translate(-710.604 -169.595)" fill="#2f2e41"/>
  <circle id="Ellipse_102" data-name="Ellipse 102" cx="1.509" cy="1.509" r="1.509" transform="translate(153.137 56.425)" fill="#6c63ff"/>
</svg>
