<svg xmlns="http://www.w3.org/2000/svg" width="40.256" height="20.127" viewBox="0 0 40.256 20.127">
  <path id="Icon_map-boating" data-name="Icon map-boating" d="M40.256,30.928a5.61,5.61,0,0,1-2.316-.513,5.473,5.473,0,0,0-4.752,0,5.458,5.458,0,0,1-4.62,0,5.471,5.471,0,0,0-4.751,0,5.6,5.6,0,0,1-2.316.513,5.509,5.509,0,0,1-2.306-.513,5.469,5.469,0,0,0-4.75,0,5.574,5.574,0,0,1-2.314.513,5.487,5.487,0,0,1-2.3-.513,5.59,5.59,0,0,0-2.381-.543,4.621,4.621,0,0,0-2.152.543,4.568,4.568,0,0,1-2.077.513V27.4A4.568,4.568,0,0,0,5.3,26.89a5.206,5.206,0,0,1,2.266-.534,5.461,5.461,0,0,1,2.324.534,5.371,5.371,0,0,0,2.273.513,5.514,5.514,0,0,0,2.3-.513,5.526,5.526,0,0,1,4.739,0,5.51,5.51,0,0,0,2.3.513,5.586,5.586,0,0,0,2.315-.513,5.551,5.551,0,0,1,4.75,0,5.458,5.458,0,0,0,4.62,0,5.555,5.555,0,0,1,4.752,0,5.622,5.622,0,0,0,2.316.513v3.525Zm-9.43-14.723,6.816.542L37.128,13.2l-5-.36c-1.353-.067-1.158,1.312-1.158,1.312ZM18.187,15.4a2.3,2.3,0,1,0-2.256-2.3A2.275,2.275,0,0,0,18.187,15.4ZM4.239,24.258a5.736,5.736,0,0,0,.831-.323,5.5,5.5,0,0,1,4.762,0,5.487,5.487,0,0,0,2.3.513,5.567,5.567,0,0,0,2.315-.513,5.476,5.476,0,0,1,4.75,0,5.509,5.509,0,0,0,2.306.513,5.577,5.577,0,0,0,2.316-.513,5.478,5.478,0,0,1,4.751,0,5.458,5.458,0,0,0,4.62,0,5.48,5.48,0,0,1,4.752,0,5.509,5.509,0,0,0,2.307.513l-.766-6.286L11.151,15.749l4.276-4.39-1.877-.171-4.27,4.4L0,14.809c-.056,3.221,3.472,8.575,4.238,9.45Z" transform="translate(0 -10.801)" fill="#1f0c7f"/>
</svg>
