<svg xmlns="http://www.w3.org/2000/svg" width="44.61" height="22.304" viewBox="0 0 44.61 22.304">
  <path id="Icon_map-boating" data-name="Icon map-boating" d="M44.61,33.1a6.216,6.216,0,0,1-2.566-.568,6.064,6.064,0,0,0-5.266,0,6.049,6.049,0,0,1-5.119,0,6.063,6.063,0,0,0-5.265,0,6.2,6.2,0,0,1-2.567.568,6.1,6.1,0,0,1-2.555-.568,6.061,6.061,0,0,0-5.264,0,6.177,6.177,0,0,1-2.564.568,6.08,6.08,0,0,1-2.55-.568,6.194,6.194,0,0,0-2.638-.6,5.121,5.121,0,0,0-2.385.6,5.062,5.062,0,0,1-2.3.568V29.2a5.062,5.062,0,0,0,2.3-.568,5.769,5.769,0,0,1,2.512-.592,6.052,6.052,0,0,1,2.575.592,5.952,5.952,0,0,0,2.519.568,6.11,6.11,0,0,0,2.549-.568,6.123,6.123,0,0,1,5.251,0,6.106,6.106,0,0,0,2.553.568,6.19,6.19,0,0,0,2.565-.568,6.151,6.151,0,0,1,5.264,0,6.048,6.048,0,0,0,5.119,0,6.155,6.155,0,0,1,5.266,0,6.23,6.23,0,0,0,2.566.568V33.1ZM34.16,16.79l7.553.6-.57-3.928-5.545-.4c-1.5-.074-1.283,1.453-1.283,1.453ZM20.154,15.9a2.548,2.548,0,1,0-2.5-2.547A2.521,2.521,0,0,0,20.154,15.9ZM4.7,25.714a6.357,6.357,0,0,0,.921-.358,6.1,6.1,0,0,1,5.276,0,6.08,6.08,0,0,0,2.55.568,6.17,6.17,0,0,0,2.565-.568,6.069,6.069,0,0,1,5.264,0,6.1,6.1,0,0,0,2.555.568,6.18,6.18,0,0,0,2.566-.568,6.071,6.071,0,0,1,5.265,0,6.048,6.048,0,0,0,5.119,0,6.073,6.073,0,0,1,5.266,0,6.105,6.105,0,0,0,2.556.568l-.849-6.965L12.357,16.284,17.1,11.42l-2.08-.189-4.732,4.875L0,15.242c-.062,3.569,3.847,9.5,4.7,10.472Z" transform="translate(0 -10.801)" fill="#fff"/>
</svg>
