<svg xmlns="http://www.w3.org/2000/svg" width="29.583" height="20.708" viewBox="0 0 29.583 20.708">
  <path id="Icon_awesome-car-side" data-name="Icon awesome-car-side" d="M25.146,9.646h-.74L19.378,3.36a2.959,2.959,0,0,0-2.31-1.11H7.18A2.958,2.958,0,0,0,4.433,4.11L2.219,9.75A2.951,2.951,0,0,0,0,12.6v5.177a.739.739,0,0,0,.74.74H2.958a4.437,4.437,0,1,0,8.875,0H17.75a4.437,4.437,0,1,0,8.875,0h2.219a.739.739,0,0,0,.74-.74v-3.7A4.437,4.437,0,0,0,25.146,9.646ZM7.4,20.739a2.219,2.219,0,1,1,2.219-2.219A2.221,2.221,0,0,1,7.4,20.739ZM10.724,9.646H5.4L7.18,5.208h3.544Zm2.219,0V5.208h4.125l3.55,4.437Zm9.245,11.094a2.219,2.219,0,1,1,2.219-2.219A2.221,2.221,0,0,1,22.187,20.739Z" transform="translate(0 -2.25)" fill="#fff"/>
</svg>
