<svg xmlns="http://www.w3.org/2000/svg" width="32.782" height="22.948" viewBox="0 0 32.782 22.948">
  <path id="Icon_awesome-car-side" data-name="Icon awesome-car-side" d="M27.865,10.446h-.82L21.473,3.48a3.28,3.28,0,0,0-2.56-1.23H7.956A3.278,3.278,0,0,0,4.913,4.311L2.459,10.561A3.271,3.271,0,0,0,0,13.724v5.737a.819.819,0,0,0,.82.82H3.278a4.917,4.917,0,0,0,9.835,0h6.556a4.917,4.917,0,1,0,9.835,0h2.459a.819.819,0,0,0,.82-.82v-4.1A4.917,4.917,0,0,0,27.865,10.446ZM8.2,22.739a2.459,2.459,0,1,1,2.459-2.459A2.461,2.461,0,0,1,8.2,22.739Zm3.688-12.293H5.989L7.956,5.528h3.927Zm2.459,0V5.528h4.571l3.934,4.917ZM24.587,22.739a2.459,2.459,0,1,1,2.459-2.459A2.461,2.461,0,0,1,24.587,22.739Z" transform="translate(0 -2.25)" fill="#1f0c7f"/>
</svg>
