<svg xmlns="http://www.w3.org/2000/svg" width="15.4" height="13.475" viewBox="0 0 15.4 13.475">
  <path id="Icon_awesome-window-close" data-name="Icon awesome-window-close" d="M13.956,2.25H1.444A1.444,1.444,0,0,0,0,3.694V14.281a1.444,1.444,0,0,0,1.444,1.444H13.956A1.444,1.444,0,0,0,15.4,14.281V3.694A1.444,1.444,0,0,0,13.956,2.25Zm-2.515,8.738a.37.37,0,0,1,0,.523l-1.218,1.218a.37.37,0,0,1-.523,0l-2-2.018-2,2.018a.37.37,0,0,1-.523,0L3.958,11.511a.37.37,0,0,1,0-.523l2.018-2-2.018-2a.37.37,0,0,1,0-.523L5.176,5.246a.37.37,0,0,1,.523,0l2,2.018,2-2.018a.37.37,0,0,1,.523,0l1.218,1.218a.37.37,0,0,1,0,.523l-2.018,2Z" transform="translate(0 -2.25)" fill="#f75e94"/>
</svg>
