<svg xmlns="http://www.w3.org/2000/svg" width="96.308" height="57.806" viewBox="0 0 96.308 57.806">
  <path id="Icon_awesome-handshake" data-name="Icon awesome-handshake" d="M65.415,4.5H52.488a4.814,4.814,0,0,0-3.25,1.264L34.445,19.307c-.015.015-.03.045-.045.06a5.986,5.986,0,0,0-.316,8.427,6.276,6.276,0,0,0,8.442.406c.015-.015.045-.015.06-.03L54.61,17.156a2.407,2.407,0,0,1,3.25,3.551l-3.928,3.6L75.843,42.09a10.843,10.843,0,0,1,1.189,1.159V14.131L68.815,5.915a4.781,4.781,0,0,0-3.4-1.415Zm16.448,9.661V47.854a4.81,4.81,0,0,0,4.815,4.815h9.631V14.161Zm7.223,33.693a2.408,2.408,0,1,1,2.408-2.408A2.415,2.415,0,0,1,89.085,47.854ZM0,52.654H9.631a4.81,4.81,0,0,0,4.815-4.815V14.161H0Zm7.223-9.616a2.408,2.408,0,1,1-2.408,2.408A2.415,2.415,0,0,1,7.223,43.038Zm65.6,2.8L50.351,27.6l-4.514,4.138A10.832,10.832,0,0,1,31.195,15.771L43.5,4.5H30.894a4.807,4.807,0,0,0-3.4,1.415l-8.231,8.216V47.824h2.754L35.634,60.148a9.629,9.629,0,0,0,13.543-1.4l.03-.03L51.9,61.051a5.592,5.592,0,0,0,7.87-.813L64.5,54.43l.813.662a4.808,4.808,0,0,0,6.772-.707l1.43-1.761a4.824,4.824,0,0,0-.692-6.787Z" transform="translate(0 -4.5)" fill="#260ea5"/>
</svg>
