<svg xmlns="http://www.w3.org/2000/svg" width="27.788" height="24.7" viewBox="0 0 27.788 24.7">
  <path id="Icon_awesome-house-damage" data-name="Icon awesome-house-damage" d="M13.894,5.546l-10.542,9.3a2.232,2.232,0,0,1-.264.162v8.922a.772.772,0,0,0,.772.772h7.2l-1.8-3.513L14.285,18.1l-2.9-5.751,7.142,6.6L13.5,22.035,15.428,24.7h8.5a.772.772,0,0,0,.772-.772v-8.92a2.251,2.251,0,0,1-.254-.154ZM27.532,11.4,24.7,8.9V2.316a.772.772,0,0,0-.772-.772H20.841a.772.772,0,0,0-.772.772V4.809L15.184.5a1.922,1.922,0,0,0-2.579,0L.256,11.4A.772.772,0,0,0,.2,12.489L1.23,13.638a.772.772,0,0,0,1.09.058L13.383,3.938a.772.772,0,0,1,1.021,0L25.468,13.7a.773.773,0,0,0,1.09-.058l1.032-1.149A.772.772,0,0,0,27.532,11.4Z" transform="translate(0)" fill="#1f0c7f"/>
</svg>
