<svg xmlns="http://www.w3.org/2000/svg" width="30.793" height="27.371" viewBox="0 0 30.793 27.371">
  <path id="Icon_awesome-house-damage" data-name="Icon awesome-house-damage" d="M15.4,6.146,3.714,16.45a2.474,2.474,0,0,1-.292.179v9.887a.855.855,0,0,0,.855.855h7.978l-1.99-3.892,5.566-3.421-3.216-6.373L20.529,21l-5.566,3.421L17.1,27.371h9.419a.855.855,0,0,0,.855-.855V16.631a2.494,2.494,0,0,1-.281-.171Zm15.113,6.486L27.371,9.861V2.566a.855.855,0,0,0-.855-.855H23.095a.855.855,0,0,0-.855.855V5.329L16.826.551a2.13,2.13,0,0,0-2.857,0L.284,12.631A.856.856,0,0,0,.219,13.84l1.144,1.273a.856.856,0,0,0,1.208.065L14.831,4.364a.856.856,0,0,1,1.132,0L28.222,15.177a.856.856,0,0,0,1.208-.065l1.144-1.273A.855.855,0,0,0,30.509,12.631Z" transform="translate(0)" fill="#fff"/>
</svg>
