<svg xmlns="http://www.w3.org/2000/svg" xmlns:xlink="http://www.w3.org/1999/xlink" width="25.587" height="25.58" viewBox="0 0 25.587 25.58">
  <defs>
    <radialGradient id="radial-gradient" cx="0.266" cy="1.077" r="0.991" gradientTransform="translate(-2.918 5.666) rotate(-90) scale(1 0.93)" gradientUnits="objectBoundingBox">
      <stop offset="0" stop-color="#fd5"/>
      <stop offset="0.1" stop-color="#fd5"/>
      <stop offset="0.5" stop-color="#ff543e"/>
      <stop offset="1" stop-color="#c837ab"/>
    </radialGradient>
    <radialGradient id="radial-gradient-2" cx="-0.168" cy="0.072" r="0.443" gradientTransform="matrix(0.196, 0.981, -4.042, 0.809, 15.634, -0.42)" gradientUnits="objectBoundingBox">
      <stop offset="0" stop-color="#3771c8"/>
      <stop offset="0.128" stop-color="#3771c8"/>
      <stop offset="1" stop-color="#60f" stop-opacity="0"/>
    </radialGradient>
  </defs>
  <g id="instagram" transform="translate(-1.001 -1)">
    <path id="Path_55" data-name="Path 55" d="M12.794,0c-5.341,0-6.9.006-7.207.031A6.347,6.347,0,0,0,3.066.664,5.107,5.107,0,0,0,1.6,1.74,5.49,5.49,0,0,0,.114,4.852,23.089,23.089,0,0,0,0,8.628c0,1.019,0,2.359,0,4.157,0,5.337.006,6.9.031,7.2a6.426,6.426,0,0,0,.61,2.472,5.389,5.389,0,0,0,3.493,2.853,9.077,9.077,0,0,0,1.858.246c.317.014,3.546.024,6.777.024s6.462,0,6.771-.02a8.74,8.74,0,0,0,1.925-.252,5.357,5.357,0,0,0,3.493-2.859,6.32,6.32,0,0,0,.6-2.424c.017-.22.025-3.734.025-7.244s-.008-7.017-.025-7.238A6.25,6.25,0,0,0,24.943,3.1a5.071,5.071,0,0,0-1.1-1.5A5.524,5.524,0,0,0,20.733.117,23.056,23.056,0,0,0,16.958,0Z" transform="translate(1.004 1)" fill="url(#radial-gradient)"/>
    <path id="Path_56" data-name="Path 56" d="M12.794,0c-5.341,0-6.9.006-7.207.031A6.347,6.347,0,0,0,3.066.664,5.107,5.107,0,0,0,1.6,1.74,5.49,5.49,0,0,0,.114,4.852,23.089,23.089,0,0,0,0,8.628c0,1.019,0,2.359,0,4.157,0,5.337.006,6.9.031,7.2a6.426,6.426,0,0,0,.61,2.472,5.389,5.389,0,0,0,3.493,2.853,9.077,9.077,0,0,0,1.858.246c.317.014,3.546.024,6.777.024s6.462,0,6.771-.02a8.74,8.74,0,0,0,1.925-.252,5.357,5.357,0,0,0,3.493-2.859,6.32,6.32,0,0,0,.6-2.424c.017-.22.025-3.734.025-7.244s-.008-7.017-.025-7.238A6.25,6.25,0,0,0,24.943,3.1a5.071,5.071,0,0,0-1.1-1.5A5.524,5.524,0,0,0,20.733.117,23.056,23.056,0,0,0,16.958,0Z" transform="translate(1.004 1)" fill="url(#radial-gradient-2)"/>
    <path id="Path_57" data-name="Path 57" d="M27.447,18c-2.565,0-2.887.011-3.895.057a6.932,6.932,0,0,0-2.293.439A4.832,4.832,0,0,0,18.5,21.258a6.9,6.9,0,0,0-.439,2.293c-.045,1.008-.057,1.33-.057,3.9s.011,2.886.057,3.894a6.942,6.942,0,0,0,.439,2.293A4.834,4.834,0,0,0,21.258,36.4a6.937,6.937,0,0,0,2.293.439c1.008.046,1.329.057,3.894.057s2.886-.011,3.894-.057a6.942,6.942,0,0,0,2.294-.439A4.84,4.84,0,0,0,36.4,33.632a7,7,0,0,0,.439-2.293c.045-1.008.057-1.329.057-3.894s-.012-2.887-.057-3.895a7,7,0,0,0-.439-2.293A4.833,4.833,0,0,0,33.633,18.5a6.953,6.953,0,0,0-2.295-.439C30.33,18.011,30.01,18,27.444,18ZM26.6,19.7h.847c2.522,0,2.821.009,3.817.054a5.23,5.23,0,0,1,1.754.325,3.13,3.13,0,0,1,1.792,1.793,5.219,5.219,0,0,1,.325,1.753c.045,1,.055,1.295.055,3.816s-.01,2.82-.055,3.816a5.224,5.224,0,0,1-.325,1.753A3.132,3.132,0,0,1,33.017,34.8a5.211,5.211,0,0,1-1.754.325c-1,.045-1.295.055-3.817.055s-2.821-.01-3.817-.055a5.24,5.24,0,0,1-1.754-.326,3.129,3.129,0,0,1-1.793-1.792,5.219,5.219,0,0,1-.325-1.753c-.045-1-.054-1.295-.054-3.817s.009-2.82.054-3.816a5.23,5.23,0,0,1,.325-1.754,3.13,3.13,0,0,1,1.793-1.793,5.218,5.218,0,0,1,1.754-.326c.871-.039,1.209-.051,2.97-.053Zm5.889,1.568A1.133,1.133,0,1,0,33.622,22.4a1.133,1.133,0,0,0-1.133-1.133Zm-5.042,1.324a4.85,4.85,0,1,0,4.85,4.851,4.851,4.851,0,0,0-4.85-4.851Zm0,1.7A3.149,3.149,0,1,1,24.3,27.446,3.149,3.149,0,0,1,27.447,24.3Z" transform="translate(-13.654 -13.655)" fill="#fff"/>
  </g>
</svg>
