<svg xmlns="http://www.w3.org/2000/svg" width="277.6" height="381.236" viewBox="0 0 277.6 381.236">
  <g id="Group_11" data-name="Group 11" transform="translate(-970.47 -214)">
    <g id="Group_9" data-name="Group 9" transform="translate(970.47 214)">
      <ellipse id="Ellipse_64" data-name="Ellipse 64" cx="49.748" cy="4.975" rx="49.748" ry="4.975" transform="translate(21.471 370.988)" opacity="0.1"/>
      <path id="Path_27" data-name="Path 27" d="M548.637,313.812c-1.99,0-3.992-.064-5.962-.189l.063-.993c1.952.124,3.935.188,5.894.188h.059v.995h-.047Zm6.072-.2-.065-.993c1.973-.129,3.968-.324,5.927-.58l.129.986c-1.98.259-4,.457-5.991.587Zm-18.027-.57c-1.984-.257-3.983-.583-5.942-.97l.192-.977c1.938.382,3.915.7,5.878.959Zm29.959-.994-.193-.976c1.938-.385,3.89-.839,5.8-1.35l.257.961c-1.931.517-3.9.976-5.864,1.365Zm-41.767-1.334c-1.928-.514-3.867-1.1-5.764-1.741l.319-.943c1.876.634,3.794,1.214,5.7,1.722Zm53.392-1.78-.32-.942c1.866-.634,3.737-1.339,5.563-2.1l.382.919C582.045,307.582,580.153,308.3,578.266,308.937Zm-64.8-2.082c-1.846-.764-3.694-1.6-5.492-2.487l.44-.892c1.778.876,3.606,1.7,5.432,2.46Zm75.9-2.525-.441-.892c1.772-.876,3.537-1.822,5.244-2.81l.5.861c-1.726,1-3.51,1.955-5.3,2.841Zm-86.708-2.8c-1.732-1-3.453-2.072-5.116-3.184l.553-.827c1.645,1.1,3.348,2.159,5.061,3.149Zm97.115-3.22-.554-.827c1.64-1.1,3.267-2.265,4.836-3.472l.606.789C603.077,296.015,601.432,297.2,599.774,298.305Zm-107.127-3.473c-1.585-1.216-3.152-2.5-4.656-3.821l.656-.748c1.488,1.3,3.038,2.576,4.606,3.78Zm116.668-3.858-.657-.748c1.486-1.3,2.948-2.674,4.347-4.072l.7.7c-1.414,1.413-2.891,2.8-4.393,4.116ZM483.594,286.9c-1.415-1.413-2.8-2.89-4.12-4.391l.747-.657c1.3,1.484,2.676,2.946,4.075,4.344Zm134.232-4.434-.748-.656c1.3-1.487,2.578-3.036,3.783-4.6l.789.606c-1.218,1.585-2.5,3.15-3.823,4.654ZM475.65,277.857c-1.218-1.584-2.4-3.228-3.513-4.886l.826-.554c1.1,1.641,2.27,3.268,3.475,4.834Zm149.513-4.942-.827-.553c1.1-1.645,2.161-3.347,3.152-5.059l.861.5c-1,1.731-2.073,3.451-3.186,5.114Zm-156.212-5.049c-1-1.73-1.96-3.513-2.845-5.3l.892-.442c.875,1.768,1.822,3.532,2.814,5.243Zm162.244-5.378-.892-.441c.876-1.773,1.7-3.6,2.464-5.43l.919.381c-.768,1.85-1.605,3.7-2.491,5.49Zm-167.579-5.4c-.767-1.844-1.481-3.736-2.125-5.624l.942-.321c.636,1.867,1.343,3.739,2.1,5.562Zm172.194-5.737-.942-.319c.635-1.873,1.216-3.791,1.726-5.7l.961.257c-.515,1.93-1.1,3.868-1.744,5.762Zm-176.071-5.647c-.518-1.93-.979-3.9-1.369-5.863l.976-.194c.386,1.939.841,3.89,1.354,5.8Zm179.176-5.981-.977-.193c.384-1.939.708-3.916.963-5.877l.986.129c-.258,1.982-.586,3.981-.973,5.941Zm-181.527-5.822c-.26-1.977-.459-3.992-.591-5.991l.993-.066c.13,1.977.327,3.971.584,5.927Zm183.083-6.112-.993-.064c.127-1.966.191-3.968.191-5.952v-.236h.995v.233c0,2.009-.065,4.033-.193,6.02Zm-182.88-5.9H456.6v-.122c0-1.96.062-3.944.186-5.894l.993.063c-.122,1.929-.184,3.892-.184,5.834Zm181.872-6.307c-.132-1.974-.331-3.967-.592-5.926l.986-.131c.263,1.98.465,4,.6,5.99Zm-181.119-5.574-.987-.127c.256-1.982.581-3.982.965-5.943l.977.192C458.919,206.077,458.6,208.055,458.345,210.016Zm179.549-6.226c-.388-1.938-.846-3.888-1.362-5.8l.961-.259c.521,1.93.984,3.9,1.376,5.861Zm-177.254-5.455-.961-.256c.514-1.933,1.1-3.873,1.738-5.765l.943.318C461.725,194.5,461.147,196.422,460.639,198.335ZM634.791,192.3c-.639-1.868-1.348-3.739-2.108-5.56l.918-.383c.769,1.841,1.486,3.732,2.132,5.621Zm-170.34-5.25-.92-.38c.764-1.849,1.6-3.7,2.484-5.493l.892.44C466.033,183.391,465.206,185.219,464.451,187.048Zm165.761-5.721c-.875-1.764-1.824-3.526-2.82-5.239l.86-.5c1.007,1.731,1.966,3.514,2.851,5.3Zm-160.5-4.972-.862-.5c1-1.731,2.068-3.453,3.18-5.118l.827.552c-1.1,1.647-2.157,3.35-3.145,5.063Zm154.518-5.312c-1.1-1.642-2.275-3.266-3.481-4.83l.788-.608c1.219,1.58,2.4,3.223,3.519,4.882Zm-147.9-4.6-.79-.605c1.217-1.587,2.5-3.154,3.818-4.659l.749.655c-1.3,1.488-2.573,3.039-3.776,4.608Zm140.632-4.828c-1.305-1.482-2.678-2.941-4.081-4.339l.7-.7c1.418,1.413,2.806,2.888,4.125,4.386Zm-132.788-4.133-.7-.7c1.412-1.415,2.888-2.8,4.388-4.122l.657.747c-1.484,1.306-2.944,2.678-4.341,4.078Zm124.352-4.27c-1.491-1.3-3.042-2.573-4.61-3.774l.6-.79c1.586,1.214,3.154,2.5,4.661,3.815Zm-115.415-3.594-.607-.788c1.582-1.219,3.226-2.4,4.884-3.516l.555.826c-1.64,1.1-3.266,2.272-4.831,3.478Zm105.957-3.646c-1.646-1.1-3.35-2.155-5.065-3.142l.5-.862c1.734,1,3.456,2.067,5.12,3.177Zm-96.077-2.988-.5-.86c1.726-1,3.508-1.96,5.3-2.848l.442.892C506.462,141.049,504.7,142,502.991,142.988Zm85.751-2.959c-1.777-.874-3.605-1.7-5.434-2.453l.379-.92c1.849.762,3.7,1.6,5.495,2.48Zm-75.1-2.325-.383-.918c1.843-.768,3.735-1.484,5.622-2.128l.322.942C517.339,136.237,515.468,136.945,513.645,137.7Zm64.077-2.219c-1.873-.631-3.792-1.208-5.7-1.715l.255-.962c1.932.512,3.872,1.1,5.766,1.734Zm-52.82-1.623-.258-.961c1.929-.519,3.9-.981,5.861-1.373l.2.976c-1.939.388-3.89.845-5.8,1.359Zm41.312-1.427c-1.937-.379-3.915-.7-5.879-.951l.126-.987c1.985.255,3.984.578,5.944.961Zm-29.639-.906-.13-.986c1.976-.261,3.991-.462,5.991-.595l.066.993c-1.977.132-3.971.33-5.927.588Zm17.833-.611c-1.91-.12-3.853-.18-5.776-.18h-.177v-.995h.175c1.946,0,3.91.061,5.84.182Z" transform="translate(-395.36 -86.305)" fill="#11cc87"/>
      <path id="Path_28" data-name="Path 28" d="M576.809,314.095V313.1c1.944,0,3.905-.092,5.829-.269l.091.991C580.775,314,578.783,314.094,576.809,314.095Zm-5.918-.266c-1.963-.178-3.939-.45-5.87-.808l.181-.978c1.9.352,3.846.62,5.78.8Zm17.707-.822-.182-.978c1.906-.355,3.817-.8,5.679-1.334l.272.957c-1.892.538-3.833.994-5.77,1.355Zm-29.348-1.334c-1.893-.536-3.784-1.168-5.621-1.879l.359-.928c1.808.7,3.669,1.321,5.533,1.849Zm40.736-1.906-.36-.927c1.8-.7,3.6-1.494,5.334-2.361l.444.89c-1.763.88-3.586,1.687-5.419,2.4Zm-51.78-2.366c-1.762-.877-3.5-1.848-5.178-2.885l.524-.846c1.648,1.021,3.363,1.976,5.1,2.84Zm62.372-2.922-.525-.845c1.644-1.021,3.262-2.132,4.81-3.3l.6.793c-1.572,1.189-3.215,2.318-4.885,3.355Zm-72.44-3.312c-1.569-1.185-3.1-2.458-4.561-3.785l.67-.736c1.434,1.306,2.945,2.56,4.49,3.726Zm81.882-3.833-.67-.735c1.431-1.305,2.819-2.694,4.125-4.127l.736.67c-1.327,1.455-2.737,2.865-4.19,4.191Zm-90.637-4.14c-1.329-1.455-2.6-2.987-3.792-4.554l.793-.6c1.169,1.543,2.425,3.052,3.733,4.484ZM628,288.585l-.794-.6c1.17-1.548,2.28-3.167,3.3-4.812l.845.524c-1.036,1.672-2.165,3.316-3.353,4.888Zm-105.766-4.827c-1.039-1.671-2.013-3.411-2.893-5.172l.89-.445c.867,1.733,1.825,3.446,2.848,5.092Zm112.006-5.237-.89-.444c.864-1.732,1.658-3.528,2.359-5.337l.928.359c-.713,1.837-1.518,3.662-2.4,5.422Zm-117.3-5.352c-.713-1.834-1.348-3.724-1.888-5.618l.957-.273c.532,1.864,1.157,3.725,1.859,5.53Zm121.578-5.69-.957-.272c.529-1.865.976-3.776,1.33-5.68l.978.182C639.508,263.642,639.053,265.584,638.516,267.478Zm-124.825-5.7c-.361-1.931-.636-3.905-.818-5.869l.991-.092c.179,1.933.45,3.877.805,5.778Zm126.987-5.944-.991-.091c.176-1.924.265-3.885.265-5.828v-.148h.995v.143c0,1.978-.09,3.969-.269,5.923Zm-127.086-5.844H512.6v-.074c0-1.947.088-3.914.263-5.844l.991.089c-.172,1.9-.259,3.837-.259,5.755Zm126.082-6.049c-.182-1.935-.455-3.878-.812-5.777l.977-.184c.363,1.928.64,3.9.825,5.867Zm-125.032-5.56-.978-.18c.357-1.935.809-3.877,1.344-5.772l.958.271C515.439,234.569,514.994,236.481,514.642,238.385Zm122.876-5.894c-.534-1.863-1.162-3.723-1.866-5.528l.927-.361c.715,1.833,1.353,3.722,1.895,5.615ZM517.812,227.17l-.929-.359c.709-1.835,1.513-3.66,2.39-5.425l.891.443C519.3,223.566,518.51,225.363,517.812,227.17Zm115.47-5.536c-.867-1.729-1.827-3.441-2.854-5.088l.844-.526c1.043,1.673,2.018,3.412,2.9,5.168ZM523,216.73l-.846-.523c1.035-1.674,2.161-3.319,3.348-4.892l.794.6C525.13,213.462,524.021,215.083,523,216.73Zm104.116-4.989c-1.172-1.543-2.43-3.05-3.739-4.48l.734-.672c1.33,1.452,2.607,2.983,3.8,4.55Zm-97.1-4.32-.736-.669c1.325-1.456,2.733-2.868,4.185-4.2l.671.734c-1.43,1.308-2.816,2.7-4.12,4.132Zm89.222-4.278c-1.435-1.3-2.947-2.556-4.494-3.721l.6-.795c1.571,1.184,3.107,2.455,4.565,3.78Zm-80.619-3.591-.6-.793c1.568-1.19,3.211-2.321,4.882-3.361l.526.845c-1.645,1.024-3.262,2.137-4.806,3.309Zm71.307-3.423c-1.648-1.019-3.364-1.972-5.1-2.834l.442-.891c1.764.876,3.508,1.844,5.181,2.879Zm-61.411-2.737-.445-.89c1.76-.881,3.582-1.69,5.416-2.4l.361.927c-1.8.7-3.6,1.5-5.331,2.367Zm50.969-2.447c-1.809-.7-3.671-1.317-5.536-1.843l.27-.958c1.894.534,3.786,1.164,5.623,1.872Zm-40.109-1.782-.273-.957c1.893-.541,3.833-1,5.767-1.361l.184.978c-1.9.357-3.814.808-5.678,1.34Zm28.892-1.381c-1.9-.35-3.848-.615-5.78-.788l.088-.991c1.963.176,3.939.446,5.872.8Zm-17.437-.768-.092-.991c1.954-.182,3.945-.276,5.918-.28l0,.995c-1.943,0-3.9.1-5.828.275Z" transform="translate(-421.451 -114.447)" fill="#11cc87"/>
      <path id="Path_29" data-name="Path 29" d="M517.617,330.624a30.071,30.071,0,0,1-8.686-4.389l1.7,4.17A130.377,130.377,0,0,1,438.14,90.551l.9,4.413a30.07,30.07,0,0,1,4.8-8.466,30.044,30.044,0,0,1-9.724.385l3.51,2.818A131.38,131.38,0,0,0,508.9,331.417c.588,0,1.177-.011,1.766-.019l-1.362,4.291A30.041,30.041,0,0,1,517.617,330.624Z" transform="translate(-349.368 -74.573)"/>
      <path id="Path_30" data-name="Path 30" d="M765.458,140.112A131.377,131.377,0,0,0,644.783,46.636l1.587-4.21a30.044,30.044,0,0,1-8.566,4.617,30.07,30.07,0,0,1,8.44,4.845l-1.476-4.257a130.385,130.385,0,0,1,71.883,235.491l-1.154-4.356a30.066,30.066,0,0,1-4.3,8.733,30.043,30.043,0,0,1,9.685-.955l-3.667-2.606A131.4,131.4,0,0,0,765.458,140.112Z" transform="translate(-493.419 -42.426)"/>
      <path id="Path_32" data-name="Path 32" d="M349,87.744h0c-13.789,0-23.828,9.363-27.212,22.73l-4.2,20.053h2.985l6.467-16.417-1.362,16.417h3.351l2.487-8.457L331,130.528h40.322V110.066A22.321,22.321,0,0,0,349,87.744Z" transform="translate(-294.834 -65.199)" fill="#2f2e41"/>
      <path id="Path_33" data-name="Path 33" d="M168.195,344.841l9.452,45.68,51.738.762-12.935-47.965Z" transform="translate(-139.959 -172.524)" fill="#3f3d56"/>
      <path id="Path_34" data-name="Path 34" d="M168.195,344.841l9.452,45.68,51.738.762-12.935-47.965Z" transform="translate(-139.959 -172.524)" fill="#f75e94"/>
      <path id="Path_35" data-name="Path 35" d="M324.463,317.244s-20.4,28.356-19.4,39.8,13.93,198,13.93,198l30.346,1.492-8.955-134.32,7.462-36.316L366.252,555.04l37.311.995L370.231,336.646l-6.467-19.4Z" transform="translate(-288.516 -180.527)" fill="#260ea5"/>
      <path id="Path_36" data-name="Path 36" d="M343.524,143.244s6.467,11.94-1.99,19.9S329.1,192.495,329.1,192.495l47.758-3.482-3.98-26.864s-10.447-6.467-7.96-17.909Z" transform="translate(-300.612 -93.089)" fill="#a0616a"/>
      <path id="Path_37" data-name="Path 37" d="M343.524,143.244s6.467,11.94-1.99,19.9S329.1,192.495,329.1,192.495l47.758-3.482-3.98-26.864s-10.447-6.467-7.96-17.909Z" transform="translate(-300.612 -93.089)" fill="#efd8b5"/>
      <path id="Path_38" data-name="Path 38" d="M340.087,207.244s2.985,8.955,15.919,7.96a44.386,44.386,0,0,0,21.889-7.96v58.205l-39.8-1.492V228.636Z" transform="translate(-305.135 -125.25)" fill="#f75e94"/>
      <path id="Path_41" data-name="Path 41" d="M465.943,404.244s4.975,21.392-4.975,23.879-6.467-23.879-6.467-23.879Z" transform="translate(-376.733 -224.246)" fill="#efd8b5"/>
      <path id="Path_42" data-name="Path 42" d="M293.918,359.613s19.156,10.742,14.288,19.769-22-11.316-22-11.316Z" transform="translate(-279.059 -201.818)" fill="#efd8b5"/>
      <ellipse id="Ellipse_66" data-name="Ellipse 66" cx="7.074" cy="2.653" rx="7.074" ry="2.653" transform="translate(41.586 372.61)" fill="#2f2e41"/>
      <ellipse id="Ellipse_67" data-name="Ellipse 67" cx="7.074" cy="2.653" rx="7.074" ry="2.653" transform="translate(76.082 372.61)" fill="#2f2e41"/>
      <g id="Group_7" data-name="Group 7" transform="translate(0 60.602)">
        <g id="Group_8" data-name="Group 8" transform="translate(0 0)">
          <path id="Path_39" data-name="Path 39" d="M328.729,173.7l-3.8,2.757L302.042,187.4,310,228.695l5.472,8.955v10.945l-13.432,18.9a205.178,205.178,0,0,0-4.975,40.793c-.5,22.884,5.472,16.914,8.457,16.417s9.452-1.99,9.452-1.99l-10.447-48.753,17.412-25.372,2.985-9.95s-.995-23.382-4.975-32.834C319.952,205.81,327.557,180.9,328.729,173.7Z" transform="translate(-284.502 -168.997)" fill="#260ea5"/>
          <path id="Path_40" data-name="Path 40" d="M394.4,164.244l9.11,8.955,17.909,5.472-8.457,46.763-4.975,9.95.995,9.95s18.642,19.994,21.392,59.7c1.444,20.852-1.541,19.857-1.541,19.857l-36.765-.455-5.97-82.582,11.442-62.185Z" transform="translate(-329.256 -164.244)" fill="#260ea5"/>
          <path id="Path_43" data-name="Path 43" d="M441.092,194.239l7.462-.995s4.477,5.97,4.975,10.447,8.457,80.095,8.457,80.095l7.96,14.427s-.5,2.487-4.477,2.487h-3.98L460,306.67s-2.985-11.442-14.427-5.472l-4.477-1.492,2.985-5.472s-2.985-26.367-2.985-38.8-.995-25.869-.995-25.869Z" transform="translate(-356.392 -178.817)" fill="#260ea5"/>
          <path id="Path_44" data-name="Path 44" d="M294.852,200.244l-5.472.5L276.942,249s-4.975,31.839-3.98,33.331,0,3.98-.995,4.975,3.98,14.924,8.955,14.427,6.965-1.99,6.965-1.99-4.477-12.935,6.965-17.412l2.985-9.95-2.985-16.417,3.98-22.884Z" transform="translate(-271.84 -182.335)" fill="#260ea5"/>
        </g>
      </g>
      <ellipse id="Ellipse_68" data-name="Ellipse 68" cx="0.746" cy="2.487" rx="0.746" ry="2.487" transform="translate(60.055 42.942)" fill="#efd8b5"/>
      <ellipse id="Ellipse_69" data-name="Ellipse 69" cx="0.746" cy="2.487" rx="0.746" ry="2.487" transform="translate(36.196 42.942)" fill="#efd8b5"/>
      <ellipse id="Ellipse_70" data-name="Ellipse 70" cx="16.417" cy="16.417" rx="16.417" ry="16.417" transform="translate(37.44 27.768)" fill="#efd8b5"/>
      <path id="Path_45" data-name="Path 45" d="M195.647,60.263l-.419,3.98h11.364l1.492-2.985-.314,2.985h13.746l-9.452-14.924-20.894.5-4.975,14.427h7.462Z" transform="translate(-149.004 -24.783)" fill="#2f2e41"/>
      <circle id="Ellipse_75" data-name="Ellipse 75" cx="20.397" cy="20.397" r="20.397" transform="translate(136.931 115.076)" fill="#f75e94"/>
    </g>
    <g id="Group_10" data-name="Group 10" transform="translate(1119.595 552.521)">
      <ellipse id="Ellipse_76" data-name="Ellipse 76" cx="19.489" cy="4.283" rx="19.489" ry="4.283" transform="translate(0 34.149)" opacity="0.1"/>
      <path id="Path_48" data-name="Path 48" d="M223.855,720.69c2.872,10.618,12.711,17.195,12.711,17.195s5.182-10.64,2.309-21.258-12.711-17.195-12.711-17.195S220.983,710.072,223.855,720.69Z" transform="translate(-205.86 -699.432)" fill="#f75e94"/>
      <path id="Path_49" data-name="Path 49" d="M208.576,732.633c7.882,7.673,8.845,19.468,8.845,19.468s-11.817-.645-19.7-8.318-8.845-19.468-8.845-19.468S200.694,724.96,208.576,732.633Z" transform="translate(-186.36 -713.657)" fill="#11cc87"/>
    </g>
  </g>
</svg>
