<svg id="Icon_ionic-ios-people" data-name="Icon ionic-ios-people" xmlns="http://www.w3.org/2000/svg" width="30.301" height="19.692" viewBox="0 0 30.301 19.692">
  <path id="Path_50" data-name="Path 50" d="M23.889,22.9c-.756-.27-1.991-.283-2.537-.493a3.585,3.585,0,0,1-1.174-.547,7.256,7.256,0,0,1-.2-1.923,3.107,3.107,0,0,0,.668-.945,10.5,10.5,0,0,0,.324-1.856s.445.189.621-.7c.148-.769.432-1.174.358-1.741s-.391-.432-.391-.432a5.053,5.053,0,0,0,.391-2.524,4.039,4.039,0,0,0-4.36-3.988,4.052,4.052,0,0,0-4.366,3.988,5.128,5.128,0,0,0,.385,2.524s-.317-.135-.391.432.2.972.358,1.741c.175.9.621.7.621.7a10.6,10.6,0,0,0,.324,1.856,3.107,3.107,0,0,0,.668.945,7.256,7.256,0,0,1-.2,1.923,3.45,3.45,0,0,1-1.174.54c-.54.209-1.775.236-2.537.506a4.763,4.763,0,0,0-3.091,4.535H26.973A4.753,4.753,0,0,0,23.889,22.9Z" transform="translate(-2.455 -7.748)" fill="#1f0c7f"/>
  <path id="Path_51" data-name="Path 51" d="M9.537,19.752a4.582,4.582,0,0,0,2.254-.628c-1.046-1.586-.479-3.435-.7-5.163a2.847,2.847,0,0,0-3.152-2.753H7.917a2.856,2.856,0,0,0-3.125,2.753c-.216,1.721.385,3.779-.688,5.163a4.24,4.24,0,0,0,2.261.56h0A3.418,3.418,0,0,1,6.3,20.818a1.7,1.7,0,0,1-.81.371,15.658,15.658,0,0,0-1.748.486,2.841,2.841,0,0,0-1.525,2.51H7.634a4.848,4.848,0,0,1,2.16-2.011,4.532,4.532,0,0,1,1.667-.351s.256-.4-.587-.56a5.753,5.753,0,0,1-1.3-.452C9.449,20.663,9.537,19.752,9.537,19.752Z" transform="translate(-2.215 -7.888)" fill="#1f0c7f"/>
  <path id="Path_52" data-name="Path 52" d="M26.062,19.752a4.582,4.582,0,0,1-2.254-.628c1.046-1.586.479-3.435.7-5.163a2.847,2.847,0,0,1,3.152-2.753h.027a2.856,2.856,0,0,1,3.125,2.753c.216,1.721-.385,3.779.688,5.163a4.24,4.24,0,0,1-2.261.56h0a3.418,3.418,0,0,0,.067,1.134,1.7,1.7,0,0,0,.81.371,15.659,15.659,0,0,1,1.748.486,2.841,2.841,0,0,1,1.525,2.51H27.965a4.848,4.848,0,0,0-2.16-2.011,4.532,4.532,0,0,0-1.667-.351s-.256-.4.587-.56a5.753,5.753,0,0,0,1.3-.452C26.15,20.663,26.062,19.752,26.062,19.752Z" transform="translate(-3.083 -7.888)" fill="#1f0c7f"/>
</svg>
