<svg xmlns="http://www.w3.org/2000/svg" width="33.578" height="21.822" viewBox="0 0 33.578 21.822">
  <g id="Icon_ionic-ios-people" data-name="Icon ionic-ios-people" transform="translate(-2.215 -7.748)">
    <path id="Path_50" data-name="Path 50" d="M25.586,24.537c-.838-.3-2.206-.314-2.812-.546a3.972,3.972,0,0,1-1.3-.606,8.041,8.041,0,0,1-.217-2.131A3.443,3.443,0,0,0,22,20.207a11.636,11.636,0,0,0,.359-2.057s.494.209.688-.778c.165-.853.479-1.3.4-1.929s-.434-.479-.434-.479a5.6,5.6,0,0,0,.434-2.8,4.475,4.475,0,0,0-4.831-4.42,4.491,4.491,0,0,0-4.839,4.42,5.683,5.683,0,0,0,.426,2.8s-.351-.15-.434.479.224,1.077.4,1.929c.194.995.688.778.688.778a11.748,11.748,0,0,0,.359,2.057,3.443,3.443,0,0,0,.74,1.047,8.041,8.041,0,0,1-.217,2.131,3.823,3.823,0,0,1-1.3.6c-.6.232-1.967.262-2.812.561A5.278,5.278,0,0,0,8.191,29.57H29A5.267,5.267,0,0,0,25.586,24.537Z" transform="translate(0.38)" fill="#fff"/>
    <path id="Path_51" data-name="Path 51" d="M10.329,20.675a5.077,5.077,0,0,0,2.5-.7c-1.159-1.757-.531-3.807-.77-5.721a3.155,3.155,0,0,0-3.492-3.051h-.03a3.165,3.165,0,0,0-3.462,3.051c-.239,1.907.426,4.188-.763,5.721a4.7,4.7,0,0,0,2.505.621h0a3.787,3.787,0,0,1-.075,1.256,1.888,1.888,0,0,1-.9.411,17.352,17.352,0,0,0-1.937.538,3.149,3.149,0,0,0-1.69,2.782H8.22a5.373,5.373,0,0,1,2.393-2.229,5.022,5.022,0,0,1,1.847-.389s.284-.449-.651-.621a6.375,6.375,0,0,1-1.436-.5C10.232,21.685,10.329,20.675,10.329,20.675Z" transform="translate(0 0.22)" fill="#fff"/>
    <path id="Path_52" data-name="Path 52" d="M26.306,20.675a5.077,5.077,0,0,1-2.5-.7c1.159-1.757.531-3.807.77-5.721a3.155,3.155,0,0,1,3.492-3.051h.03a3.165,3.165,0,0,1,3.462,3.051c.239,1.907-.426,4.188.763,5.721a4.7,4.7,0,0,1-2.505.621h0a3.787,3.787,0,0,0,.075,1.256,1.888,1.888,0,0,0,.9.411,17.352,17.352,0,0,1,1.937.538,3.149,3.149,0,0,1,1.69,2.782H28.415a5.372,5.372,0,0,0-2.393-2.229,5.022,5.022,0,0,0-1.847-.389s-.284-.449.651-.621a6.375,6.375,0,0,0,1.436-.5C26.4,21.685,26.306,20.675,26.306,20.675Z" transform="translate(1.373 0.22)" fill="#fff"/>
  </g>
</svg>
