<svg xmlns="http://www.w3.org/2000/svg" width="27.788" height="16.669" viewBox="0 0 27.788 16.669">
  <path id="Icon_awesome-motorcycle" data-name="Icon awesome-motorcycle" d="M22.264,10.056a5.493,5.493,0,0,0-1.841.3L18.995,7.973h3.577a1.039,1.039,0,0,0,1.042-1.042V5.542A1.039,1.039,0,0,0,22.572,4.5H20.605a1.042,1.042,0,0,0-.773.343L18.2,6.653,17.215,5a1.049,1.049,0,0,0-.894-.5H12.848a.7.7,0,0,0-.695.695v.695a.7.7,0,0,0,.695.695h2.882l.833,1.389H9.892c-.768-1-1.949-1.736-4.337-1.736H3.146A1.057,1.057,0,0,0,2.083,7.3,1.04,1.04,0,0,0,3.125,8.32H5.555A2.3,2.3,0,0,1,7.63,9.4l-.491.89A5.556,5.556,0,1,0,10.938,17h3.655a1.042,1.042,0,0,0,1.042-1.09,6.575,6.575,0,0,1,2.44-5.426l.543.9a5.557,5.557,0,1,0,3.646-1.333ZM5.555,19.085a3.473,3.473,0,1,1,0-6.945,3.23,3.23,0,0,1,.543.043L4.3,15.456A1.043,1.043,0,0,0,5.208,17H8.737A3.482,3.482,0,0,1,5.555,19.085ZM25.693,15.8a3.473,3.473,0,0,1-6.941-.191,3.444,3.444,0,0,1,.959-2.392L21.856,16.8a.7.7,0,0,0,.955.239l.595-.356a.7.7,0,0,0,.239-.955l-2.11-3.512a3.325,3.325,0,0,1,.69-.069A3.472,3.472,0,0,1,25.693,15.8Z" transform="translate(0.002 -4.5)" fill="#1f0c7f"/>
</svg>
