<svg xmlns="http://www.w3.org/2000/svg" width="30.793" height="18.472" viewBox="0 0 30.793 18.472">
  <path id="Icon_awesome-motorcycle" data-name="Icon awesome-motorcycle" d="M24.672,10.657a6.087,6.087,0,0,0-2.04.332L21.049,8.348h3.964a1.152,1.152,0,0,0,1.154-1.154V5.654A1.152,1.152,0,0,0,25.013,4.5H22.834a1.155,1.155,0,0,0-.856.38l-1.8,2.006-1.1-1.828a1.162,1.162,0,0,0-.991-.558H14.238a.772.772,0,0,0-.77.77v.77a.772.772,0,0,0,.77.77h3.194l.924,1.539H10.962C10.111,7.237,8.8,6.424,6.157,6.424H3.487A1.171,1.171,0,0,0,2.308,7.6a1.153,1.153,0,0,0,1.154,1.13H6.157a2.547,2.547,0,0,1,2.3,1.193l-.544.986a6.157,6.157,0,1,0,4.209,7.442h4.05a1.155,1.155,0,0,0,1.154-1.207,7.287,7.287,0,0,1,2.7-6.013l.6,1a6.158,6.158,0,1,0,4.041-1.477ZM6.157,20.663a3.848,3.848,0,1,1,0-7.7,3.579,3.579,0,0,1,.6.048l-2,3.627a1.156,1.156,0,0,0,1.01,1.712H9.683A3.859,3.859,0,0,1,6.157,20.663Zm22.315-3.637a3.849,3.849,0,0,1-7.692-.212,3.817,3.817,0,0,1,1.063-2.651l2.376,3.964a.773.773,0,0,0,1.058.265L25.937,18A.773.773,0,0,0,26.2,16.94l-2.338-3.892a3.684,3.684,0,0,1,.765-.077,3.848,3.848,0,0,1,3.843,4.055Z" transform="translate(0.002 -4.5)" fill="#fff"/>
</svg>
