<svg xmlns="http://www.w3.org/2000/svg" width="20.355" height="26.457" viewBox="0 0 20.355 26.457">
  <path id="Icon_awesome-pinterest-p" data-name="Icon awesome-pinterest-p" d="M10.814.457C5.375.457,0,4.083,0,9.951,0,13.682,2.1,15.8,3.371,15.8c.525,0,.827-1.463.827-1.876,0-.493-1.256-1.543-1.256-3.594a7.164,7.164,0,0,1,7.442-7.283c3.61,0,6.281,2.051,6.281,5.82,0,2.815-1.129,8.094-4.787,8.094A2.354,2.354,0,0,1,9.43,14.642c0-2,1.4-3.944,1.4-6.011,0-3.509-4.977-2.873-4.977,1.368a6.227,6.227,0,0,0,.509,2.687c-.732,3.149-2.226,7.84-2.226,11.084,0,1,.143,1.988.239,2.99.18.2.09.18.366.08,2.672-3.658,2.576-4.373,3.785-9.16A4.3,4.3,0,0,0,12.2,19.587c5.629,0,8.158-5.486,8.158-10.432C20.355,3.892,15.807.457,10.814.457Z" transform="translate(0 -0.457)" fill="#bd081c"/>
</svg>
