<svg xmlns="http://www.w3.org/2000/svg" width="27.14" height="22.043" viewBox="0 0 27.14 22.043">
  <path id="Icon_awesome-twitter" data-name="Icon awesome-twitter" d="M24.35,8.874c.017.241.017.482.017.723A15.717,15.717,0,0,1,8.541,25.423,15.719,15.719,0,0,1,0,22.926,11.507,11.507,0,0,0,1.343,23a11.14,11.14,0,0,0,6.906-2.376,5.572,5.572,0,0,1-5.2-3.857,7.014,7.014,0,0,0,1.051.086,5.883,5.883,0,0,0,1.464-.189A5.563,5.563,0,0,1,1.1,11.2V11.13a5.6,5.6,0,0,0,2.514.706A5.571,5.571,0,0,1,1.894,4.4a15.811,15.811,0,0,0,11.469,5.821,6.279,6.279,0,0,1-.138-1.274,5.568,5.568,0,0,1,9.626-3.806,10.951,10.951,0,0,0,3.53-1.343,5.547,5.547,0,0,1-2.445,3.065A11.151,11.151,0,0,0,27.14,6a11.957,11.957,0,0,1-2.79,2.876Z" transform="translate(0 -3.381)" fill="#1da1f2"/>
</svg>
