<svg xmlns="http://www.w3.org/2000/svg" width="28.949" height="20.355" viewBox="0 0 28.949 20.355">
  <path id="Icon_awesome-youtube" data-name="Icon awesome-youtube" d="M29.394,7.685a3.637,3.637,0,0,0-2.559-2.576C24.577,4.5,15.525,4.5,15.525,4.5s-9.053,0-11.31.609A3.638,3.638,0,0,0,1.655,7.685a38.159,38.159,0,0,0-.6,7.013,38.159,38.159,0,0,0,.6,7.013,3.583,3.583,0,0,0,2.559,2.535c2.258.609,11.31.609,11.31.609s9.053,0,11.31-.609a3.583,3.583,0,0,0,2.559-2.535A38.159,38.159,0,0,0,30,14.7a38.159,38.159,0,0,0-.6-7.013ZM12.564,19V10.394l7.566,4.3L12.564,19Z" transform="translate(-1.05 -4.5)" fill="red"/>
</svg>
