<svg xmlns="http://www.w3.org/2000/svg" xmlns:xlink="http://www.w3.org/1999/xlink" width="498.34" height="517.862" viewBox="0 0 498.34 517.862">
  <defs>
    <linearGradient id="linear-gradient" x1="1.058" y1="-0.234" x2="-0.285" y2="0.909" gradientUnits="objectBoundingBox">
      <stop offset="0" stop-color="#fff"/>
      <stop offset="1" stop-color="#2f92de"/>
    </linearGradient>
    <linearGradient id="linear-gradient-2" x1="0.859" y1="-0.952" x2="-0.163" y2="2.819" gradientUnits="objectBoundingBox">
      <stop offset="0" stop-color="#fff" stop-opacity="0.51"/>
      <stop offset="1" stop-color="#0084c4"/>
    </linearGradient>
    <linearGradient id="linear-gradient-3" x1="1" y1="0.361" x2="-0.191" y2="0.461" gradientUnits="objectBoundingBox">
      <stop offset="0" stop-color="#0084c4"/>
      <stop offset="1" stop-color="#27556c"/>
    </linearGradient>
    <linearGradient id="linear-gradient-4" x1="0.961" y1="0.279" x2="-0.455" y2="0.398" gradientUnits="objectBoundingBox">
      <stop offset="0" stop-color="#3a6c85"/>
      <stop offset="1" stop-color="#143c50"/>
    </linearGradient>
    <linearGradient id="linear-gradient-5" x1="0.86" y1="0.225" x2="-0.075" y2="1" xlink:href="#linear-gradient-3"/>
    <linearGradient id="linear-gradient-6" x1="0.935" y1="0.471" x2="0.075" y2="0.561" xlink:href="#linear-gradient-4"/>
    <linearGradient id="linear-gradient-7" x1="1" y1="0.045" x2="-0.349" y2="0.426" xlink:href="#linear-gradient-3"/>
    <linearGradient id="linear-gradient-8" x1="1.245" y1="0.23" x2="-0.276" y2="0.731" gradientUnits="objectBoundingBox">
      <stop offset="0" stop-color="#42aadc"/>
      <stop offset="1" stop-color="#247fab"/>
    </linearGradient>
    <linearGradient id="linear-gradient-9" x1="1.286" y1="0.434" x2="0" y2="0.58" xlink:href="#linear-gradient-8"/>
    <linearGradient id="linear-gradient-10" x1="1.111" y1="0.308" x2="0" y2="0.615" xlink:href="#linear-gradient-8"/>
    <filter id="Path_110" x="88.322" y="0" width="216.171" height="132.027" filterUnits="userSpaceOnUse">
      <feOffset input="SourceAlpha"/>
      <feGaussianBlur stdDeviation="12" result="blur"/>
      <feFlood flood-color="#27556c"/>
      <feComposite operator="in" in2="blur"/>
      <feComposite in="SourceGraphic"/>
    </filter>
  </defs>
  <g id="Group_102" data-name="Group 102" transform="translate(-1330.66 -6.26)">
    <g id="Group_101" data-name="Group 101">
      <g id="Group_100" data-name="Group 100">
        <g id="Group_98" data-name="Group 98">
          <rect id="Rectangle_117" data-name="Rectangle 117" width="106" height="147" transform="translate(1531 278)" fill="#27556c"/>
          <g id="Group_91" data-name="Group 91" transform="translate(95.427 -46.999)">
            <g id="Group_90" data-name="Group 90" transform="translate(1237.85 469.182)">
              <g id="Group_88" data-name="Group 88" transform="translate(0)">
                <path id="Path_53" data-name="Path 53" d="M454.809,662.188S304.493,649.12,319.677,628.757c0-8.753,184.479-23.706,215.6-37.383S462.4,563.717,462.4,563.717" transform="translate(-239.601 -562.743)" fill="none" stroke="#fff" stroke-width="5" stroke-dasharray="28"/>
                <path id="Path_54" data-name="Path 54" d="M454.543,663.162s-131.2-9.844-138.791-29.417c-12.147-8.84,188.138-27.093,219.264-41.3s-72.881-28.729-72.881-28.729" transform="translate(-141.701 -563.717)" fill="none" stroke="#27556c" stroke-width="5"/>
                <path id="Path_55" data-name="Path 55" d="M420.811,663.162s-92.619-21.909-77.436-42.3C354,612.042,505.976,605.1,537.1,591.406s-72.881-27.69-72.881-27.69" transform="translate(-341.694 -563.717)" fill="none" stroke="#27556c" stroke-width="5"/>
              </g>
            </g>
            <g id="Group_89" data-name="Group 89" transform="translate(1238.275 85.736)">
              <path id="Path_56" data-name="Path 56" d="M1339.3,390.543s13.9-9.81,26.815-7.194,17.658,7.194,17.658,7.194a216.782,216.782,0,0,1,27.469-14.388c7.688-3.264,20.089,5.487,30.739,3.924,11.041-1.62,18.847-9.171,30.085-8.5,19.049,1.133,43.819,8.5,43.819,8.5s1.84,15.809-10.464,24.2c-6.585,4.49-23.576.226-33.355,5.232-10.41,5.329-8.282,20.472-25.506,23.545-27.849,4.967-45.127,6.54-45.127,6.54s-9.647,9.156-28.777,9.156-38.481-8.038-47.743-9.156c-8.192-.989-10.529-11.775-15.7-13.734-29.758-11.282-26.815-31.393-26.815-31.393s-3.107-13.407,11.118-14.388S1339.3,390.543,1339.3,390.543Z" transform="translate(-1020.689 -278.004)" fill="url(#linear-gradient)"/>
              <path id="Path_48" data-name="Path 48" d="M1351.829,200.135s23.793-12.2,44.879-9.808,21.9,0,21.9,0,11.354-4.78,32.439-2.789a163.577,163.577,0,0,1,36.494,7.569s32.439-4.78,30.817,11.154-37.3,17.13-37.3,17.13-8.921,9.561-35.683,0c-8.3-2.964-28.819,1.782-35.875,1.635-15.052-.315-21.7,3.942-21.7,3.942s-47.037.4-33.25-9.162c5.446-3.777-14.212-8.314-15.377-11.732C1337.488,203.16,1351.829,200.135,1351.829,200.135Z" transform="translate(-1339.025 -95.857)" fill="url(#linear-gradient-2)"/>
              <g id="Path_80" data-name="Path 80" transform="translate(119.19 221.921)" fill="url(#linear-gradient-3)">
                <path d="M 49.79242324829102 163.78857421875 L 0.5000051856040955 163.78857421875 L 0.5000051856040955 0.4999954402446747 L 49.79242324829102 0.4999954402446747 L 49.79242324829102 163.78857421875 Z" stroke="none"/>
                <path d="M 1.000003814697266 1 L 1.000003814697266 163.28857421875 L 49.29242324829102 163.28857421875 L 49.29242324829102 1 L 1.000003814697266 1 M 3.814697265625e-06 0 L 50.29242324829102 0 L 50.29242324829102 164.28857421875 L 3.814697265625e-06 164.28857421875 L 3.814697265625e-06 0 Z" stroke="none" fill="#fff"/>
              </g>
              <g id="Union_1" data-name="Union 1" transform="translate(64.204 62.854)" fill="url(#linear-gradient-4)">
                <path d="M 86.01456451416016 320.8555908203125 L 2.499983072280884 320.8555908203125 L 2.499983072280884 191.7427062988281 L 6.035399436950684 191.7427062988281 L 8.535399436950684 191.7427062988281 L 8.535399436950684 189.2427062988281 L 8.535399436950684 78.41641998291016 L 10.72881603240967 78.41641998291016 L 13.22881603240967 78.41641998291016 L 13.22881603240967 75.91641998291016 L 13.22881603240967 2.500003814697266 L 62.54481506347656 2.500003814697266 L 62.54481506347656 75.91641998291016 L 62.54481506347656 78.41641998291016 L 65.04481506347656 78.41641998291016 L 79.30902099609375 78.41641998291016 L 79.30902099609375 189.2427062988281 L 79.30902099609375 191.7427062988281 L 81.80902099609375 191.7427062988281 L 86.01456451416016 191.7427062988281 L 86.01456451416016 320.8555908203125 Z" stroke="none"/>
                <path d="M 83.51454925537109 318.3556213378906 L 83.51454925537109 194.2427062988281 L 81.80904388427734 194.2427062988281 L 76.80904388427734 194.2427062988281 L 76.80904388427734 189.2427062988281 L 76.80904388427734 80.91643524169922 L 65.04482269287109 80.91643524169922 L 60.04481887817383 80.91643524169922 L 60.04481887817383 75.91643524169922 L 60.04481887817383 5.000022888183594 L 15.72881984710693 5.000022888183594 L 15.72881984710693 75.91643524169922 L 15.72881984710693 80.91643524169922 L 11.03541088104248 80.91643524169922 L 11.03541088104248 189.2427062988281 L 11.03541088104248 194.2427062988281 L 6.03541088104248 194.2427062988281 L 5.000001907348633 194.2427062988281 L 5.000001907348633 318.3556213378906 L 83.51454925537109 318.3556213378906 M 88.51454925537109 323.3556213378906 L 1.90041282621678e-06 323.3556213378906 L 1.90041282621678e-06 189.2427062988281 L 6.03541088104248 189.2427062988281 L 6.03541088104248 75.91643524169922 L 10.72881984710693 75.91643524169922 L 10.72881984710693 2.26828833547188e-05 L 65.04482269287109 2.26828833547188e-05 L 65.04482269287109 75.91643524169922 L 81.80904388427734 75.91643524169922 L 81.80904388427734 189.2427062988281 L 88.51454925537109 189.2427062988281 L 88.51454925537109 323.3556213378906 Z" stroke="none" fill="#42aadc"/>
              </g>
              <g id="Rectangle_4" data-name="Rectangle 4" transform="translate(196.305 238.685)" fill="none" stroke="#a927ff" stroke-width="1">
                <rect width="107.291" height="147.524" stroke="none"/>
                <rect x="0.5" y="0.5" width="106.291" height="146.524" fill="none"/>
              </g>
              <g id="Path_68" data-name="Path 68" transform="translate(196.305 238.685)" fill="none">
                <path d="M0,0H107.291V147.524H0Z" stroke="none"/>
                <path d="M 0.9999923706054688 1 L 0.9999923706054688 146.5244445800781 L 106.2905197143555 146.5244445800781 L 106.2905197143555 1 L 0.9999923706054688 1 M -7.62939453125e-06 0 L 107.2905197143555 0 L 107.2905197143555 147.5244445800781 L -7.62939453125e-06 147.5244445800781 L -7.62939453125e-06 0 Z" stroke="none" fill="#27556c"/>
              </g>
              <path id="Path_5" data-name="Path 5" d="M1522.535,492.074H1415.245V470.211l43.958-43.644.01,16.228.012,18.783h21.029V426.568l42.281,43.644" transform="translate(-1218.939 -253.09)" stroke="#fff" stroke-width="1" fill="url(#linear-gradient-5)"/>
              <path id="Path_7" data-name="Path 7" d="M1499,512.444V659.227" transform="translate(-1249.049 -273.461)" fill="none" stroke="#a927ff" stroke-width="1"/>
              <path id="Path_14" data-name="Path 14" d="M1499,512.444V659.227" transform="translate(-1259.779 -273.461)" fill="none" stroke="#27556c" stroke-width="1"/>
              <path id="Path_16" data-name="Path 16" d="M1499,512.444V659.227" transform="translate(-1281.237 -273.461)" fill="none" stroke="#27556c" stroke-width="1"/>
              <path id="Path_8" data-name="Path 8" d="M1499,512.444V659.227" transform="translate(-1238.32 -273.461)" fill="none" stroke="#a927ff" stroke-width="1"/>
              <path id="Path_11" data-name="Path 11" d="M1499,512.444V659.227" transform="translate(-1238.32 -273.461)" fill="none" stroke="#27556c" stroke-width="1"/>
              <path id="Path_9" data-name="Path 9" d="M1499,512.444V659.227" transform="translate(-1227.591 -273.461)" fill="none" stroke="#a927ff" stroke-width="1"/>
              <path id="Path_13" data-name="Path 13" d="M1499,512.444V659.227" transform="translate(-1216.862 -273.461)" fill="none" stroke="#27556c" stroke-width="1"/>
              <path id="Path_19" data-name="Path 19" d="M1419,530.644h106.949" transform="translate(-1222.695 -279.457)" fill="none" stroke="#27556c" stroke-width="1"/>
              <path id="Path_21" data-name="Path 21" d="M1419,530.644h106.949" transform="translate(-1222.024 -256.658)" fill="none" stroke="#27556c" stroke-width="1"/>
              <path id="Path_23" data-name="Path 23" d="M1419,530.644h106.949" transform="translate(-1222.695 -233.858)" fill="none" stroke="#27556c" stroke-width="1"/>
              <path id="Path_25" data-name="Path 25" d="M1419,530.644h106.949" transform="translate(-1222.695 -211.059)" fill="none" stroke="#27556c" stroke-width="1"/>
              <path id="Path_27" data-name="Path 27" d="M1419,530.644h106.949" transform="translate(-1222.695 -188.26)" fill="none" stroke="#27556c" stroke-width="1"/>
              <path id="Path_29" data-name="Path 29" d="M1419,530.644h106.949" transform="translate(-1222.695 -165.461)" fill="none" stroke="#27556c" stroke-width="1"/>
              <g id="Group_56" data-name="Group 56" transform="translate(196.305 238.983)">
                <path id="Path_12" data-name="Path 12" d="M1499,512.444V659.227" transform="translate(-1445.355 -512.444)" fill="none" stroke="#fff" stroke-width="1"/>
                <path id="Path_15" data-name="Path 15" d="M1499,512.444V659.227" transform="translate(-1466.813 -512.444)" fill="none" stroke="#fff" stroke-width="1"/>
                <path id="Path_17" data-name="Path 17" d="M1499,512.444V659.227" transform="translate(-1488.271 -512.444)" fill="none" stroke="#fff" stroke-width="1"/>
                <path id="Path_10" data-name="Path 10" d="M1499,512.444V659.227" transform="translate(-1423.897 -512.444)" fill="none" stroke="#fff" stroke-width="1"/>
                <path id="Path_18" data-name="Path 18" d="M1499,512.444V659.227" transform="translate(-1402.438 -512.444)" fill="none" stroke="#fff" stroke-width="1"/>
                <path id="Path_20" data-name="Path 20" d="M1419,530.644h106.949" transform="translate(-1419 -507.04)" fill="none" stroke="#fff" stroke-width="1"/>
                <path id="Path_22" data-name="Path 22" d="M1419,530.644h106.949" transform="translate(-1418.329 -484.241)" fill="none" stroke="#fff" stroke-width="1"/>
                <path id="Path_24" data-name="Path 24" d="M1419,530.644h106.949" transform="translate(-1419 -461.442)" fill="none" stroke="#fff" stroke-width="1"/>
                <path id="Path_26" data-name="Path 26" d="M1419,530.644h106.949" transform="translate(-1419 -438.643)" fill="none" stroke="#fff" stroke-width="1"/>
                <path id="Path_28" data-name="Path 28" d="M1419,530.644h106.949" transform="translate(-1419 -415.844)" fill="none" stroke="#fff" stroke-width="1"/>
                <path id="Path_30" data-name="Path 30" d="M1419,530.644h106.949" transform="translate(-1419 -393.044)" fill="none" stroke="#fff" stroke-width="1"/>
              </g>
              <path id="Path_4" data-name="Path 4" d="M1208.491,1051.389l-8.263-242.4h-60.351l-8.392,242.365Z" transform="translate(-716.921 -665.531)" stroke="#2f92de" stroke-width="5" fill="url(#linear-gradient-6)"/>
              <path id="Path_31" data-name="Path 31" d="M882.909,196.166l74.169-75.218" transform="translate(-469.685 189.692)" fill="none" stroke="#2f92de" stroke-width="4"/>
              <path id="Path_35" data-name="Path 35" d="M882.909,176.827l70.023-55.879" transform="translate(-466.813 132.735)" fill="none" stroke="#2f92de" stroke-width="4"/>
              <path id="Path_36" data-name="Path 36" d="M882.909,166.729l65.931-45.781" transform="translate(-464.801 86.506)" fill="none" stroke="#2f92de" stroke-width="4"/>
              <path id="Path_38" data-name="Path 38" d="M882.909,157.381l63.161-36.433" transform="translate(-463.46 50.256)" fill="none" stroke="#2f92de" stroke-width="4"/>
              <path id="Path_42" data-name="Path 42" d="M882.909,148.917l61.222-27.969" transform="translate(-462.119 22.509)" fill="#a927ff" stroke="#2f92de" stroke-width="4"/>
              <path id="Path_32" data-name="Path 32" d="M887.192,120.052l74.17,75.672" transform="translate(-471.096 189.987)" fill="none" stroke="#2f92de" stroke-width="4"/>
              <path id="Path_34" data-name="Path 34" d="M887.192,120.052l12.8,10.451,56.91,46.473" transform="translate(-469.316 133.631)" fill="none" stroke="#2f92de" stroke-width="4"/>
              <path id="Path_37" data-name="Path 37" d="M887.192,120.052l12.113,8.474,53.863,37.682" transform="translate(-467.596 87.402)" fill="none" stroke="#2f92de" stroke-width="4"/>
              <path id="Path_39" data-name="Path 39" d="M887.192,120.052l11.5,6.634,51.154,29.5" transform="translate(-466.289 51.152)" fill="none" stroke="#a927ff" stroke-width="1"/>
              <path id="Path_40" data-name="Path 40" d="M887.192,120.052l11.5,6.634,51.154,29.5" transform="translate(-466.289 51.152)" fill="none" stroke="#2f92de" stroke-width="4"/>
              <path id="Path_41" data-name="Path 41" d="M887.192,120.052l11.208,5.081,49.839,22.593" transform="translate(-465.349 23.405)" fill="#a927ff" stroke="#2f92de" stroke-width="4"/>
              <g id="Path_105" data-name="Path 105" transform="translate(324.383 240.026)" fill="url(#linear-gradient-7)">
                <path d="M 53.145263671875 145.6833190917969 L 0.5000098347663879 145.6833190917969 L 0.5000098347663879 0.5000050067901611 L 53.145263671875 0.5000050067901611 L 53.145263671875 145.6833190917969 Z" stroke="none"/>
                <path d="M 1.000007629394531 1 L 1.000007629394531 145.1833190917969 L 52.64524841308594 145.1833190917969 L 52.64524841308594 1 L 1.000007629394531 1 M 7.62939453125e-06 0 L 53.64524841308594 0 L 53.64524841308594 146.1833190917969 L 7.62939453125e-06 146.1833190917969 L 7.62939453125e-06 0 Z" stroke="none" fill="#fff"/>
              </g>
              <path id="Path_43" data-name="Path 43" d="M1176.8,234.628V171.774" transform="translate(-1087.25 -171.774)" fill="none" stroke="#fff" stroke-width="3"/>
              <path id="Path_47" data-name="Path 47" d="M1176.8,234.628V171.774" transform="translate(-1063.781 -171.774)" fill="#fff" stroke="#fff" stroke-width="3"/>
              <path id="Path_45" data-name="Path 45" d="M1176.8,208.353V171.774" transform="translate(-1087.25 -145.498)" fill="none" stroke="#fff" stroke-width="8"/>
              <path id="Path_46" data-name="Path 46" d="M1176.8,208.353V171.774" transform="translate(-1063.781 -145.498)" fill="none" stroke="#fff" stroke-width="8"/>
              <g id="Path_78" data-name="Path 78" transform="translate(303.596 290.989)" fill="url(#linear-gradient-8)">
                <path d="M 35.71054840087891 94.72032928466797 L 0.4999991953372955 94.72032928466797 L 0.4999991953372955 0.5000021457672119 L 35.71054840087891 0.5000021457672119 L 35.71054840087891 94.72032928466797 Z" stroke="none"/>
                <path d="M 1 1 L 1 94.22032928466797 L 35.21054840087891 94.22032928466797 L 35.21054840087891 1 L 1 1 M 0 0 L 36.21054840087891 0 L 36.21054840087891 95.22032928466797 L 0 95.22032928466797 L 0 0 Z" stroke="none" fill="#fff"/>
              </g>
              <path id="Path_49" data-name="Path 49" d="M1646.8,641.9H1612V459.511h41.2" transform="translate(-1233.971 -256.106)" stroke="#fff" stroke-width="1" fill="url(#linear-gradient-9)"/>
              <g id="Path_79" data-name="Path 79" transform="translate(162.106 290.319)" fill="url(#linear-gradient-10)">
                <path d="M 33.69884872436523 95.39089202880859 L 0.4999993741512299 95.39089202880859 L 0.4999993741512299 0.5000047087669373 L 33.69884872436523 0.5000047087669373 L 33.69884872436523 95.39089202880859 Z" stroke="none"/>
                <path d="M 0.9999961853027344 1 L 0.9999961853027344 94.89088439941406 L 33.1988525390625 94.89088439941406 L 33.1988525390625 1 L 0.9999961853027344 1 M -3.814697265625e-06 0 L 34.1988525390625 0 L 34.1988525390625 95.89088439941406 L -3.814697265625e-06 95.89088439941406 L -3.814697265625e-06 0 Z" stroke="none" fill="#fff"/>
              </g>
              <path id="Path_50" data-name="Path 50" d="M1700.01,347.386V301.379" transform="translate(-1262.965 -203.929)" fill="#c27979" stroke="#fff" stroke-width="5"/>
              <path id="Path_51" data-name="Path 51" d="M1700.01,347.386V301.379" transform="translate(-1233.46 -203.929)" fill="#c27979" stroke="#fff" stroke-width="5"/>
              <path id="Path_57" data-name="Path 57" d="M52,0" transform="translate(67.445 92.167)" fill="none" stroke="#707070" stroke-width="1"/>
            </g>
          </g>
        </g>
      </g>
      <path id="Path_111" data-name="Path 111" d="M36.5,0A36.5,36.5,0,1,1,0,36.5,36.5,36.5,0,0,1,36.5,0Z" transform="translate(1580 27)" fill="#2f92de"/>
      <g transform="matrix(1, 0, 0, 1, 1330.66, 6.26)" filter="url(#Path_110)">
        <path id="Path_110-2" data-name="Path 110" d="M-19.018-24.264l131.751-58.31s-5.324,7.769-6.441,16.424c-.4,3.1-.354,9.579-.354,9.579l2.329,8.617a42.345,42.345,0,0,0,6.7,11A42.81,42.81,0,0,0,125.154-29L-19.018-22.548Z" transform="translate(143.34 118.57)" fill="rgba(47,146,222,0.66)"/>
      </g>
    </g>
    <text id="SM" transform="translate(1590 79)" fill="#0084c4" font-size="36" font-family="SegoeUI-Bold, Segoe UI" font-weight="700" letter-spacing="-0.011em"><tspan x="0" y="0">SM</tspan></text>
  </g>
</svg>
