<svg xmlns="http://www.w3.org/2000/svg" width="90.783" height="100.112" viewBox="0 0 90.783 100.112">
  <path id="Icon_simple-email" data-name="Icon simple-email" d="M92.391,46.206a51.629,51.629,0,0,1-1.664,11.2,32.405,32.405,0,0,1-4.354,9.834,22.976,22.976,0,0,1-7.382,6.988,20.833,20.833,0,0,1-10.779,2.659,15.626,15.626,0,0,1-7.795-1.908,13.349,13.349,0,0,1-5.267-5.4,16.7,16.7,0,0,1-14.126,7.094,14.363,14.363,0,0,1-12.33-6.631,21.708,21.708,0,0,1-3.065-7.682,33.131,33.131,0,0,1-.4-10.022,46.554,46.554,0,0,1,3.053-12.274,33.362,33.362,0,0,1,5.643-9.4,23.871,23.871,0,0,1,7.757-5.993,21.645,21.645,0,0,1,9.434-2.1,29.334,29.334,0,0,1,5.643.482,23.1,23.1,0,0,1,4.379,1.314,23.68,23.68,0,0,1,3.628,1.914c1.107.713,2.221,1.451,3.328,2.2l-2.74,31.529a10.48,10.48,0,0,0,.081,3.691,5.164,5.164,0,0,0,1.126,2.277,4.053,4.053,0,0,0,1.827,1.189,6.781,6.781,0,0,0,6.418-1.264,13.679,13.679,0,0,0,3.441-4.379,28.2,28.2,0,0,0,2.315-6.581,45.155,45.155,0,0,0,1.013-8.2,52.373,52.373,0,0,0-1.289-15.314,30.441,30.441,0,0,0-5.668-11.849,26.318,26.318,0,0,0-10.159-7.632,36.874,36.874,0,0,0-14.8-2.709,32.681,32.681,0,0,0-14.639,3.19A33.587,33.587,0,0,0,23.9,21.282a42.452,42.452,0,0,0-7.282,13.306,59.963,59.963,0,0,0-3.065,16.578,55.127,55.127,0,0,0,1.564,16.916,30.551,30.551,0,0,0,6.181,12.124,25.793,25.793,0,0,0,10.472,7.282A40.17,40.17,0,0,0,46.217,89.9a49.5,49.5,0,0,0,9.484-1.02c1.564-.313,3.047-.688,4.46-1.1A33.572,33.572,0,0,0,64,86.405l1.983,8.921a22.014,22.014,0,0,1-4.3,2.127,41.367,41.367,0,0,1-5.08,1.47A49.565,49.565,0,0,1,46,100.112,55.64,55.64,0,0,1,26.655,97a35.6,35.6,0,0,1-14.1-9.271A38.937,38.937,0,0,1,4.09,72.417,65.3,65.3,0,0,1,1.725,51.166,64.81,64.81,0,0,1,5.792,30.772a50.473,50.473,0,0,1,9.8-16.2A44.642,44.642,0,0,1,30.533,3.879,46.791,46.791,0,0,1,49.889,0,48.851,48.851,0,0,1,68.644,3.359a36.478,36.478,0,0,1,13.538,9.446A38.767,38.767,0,0,1,90.214,27.4,55.806,55.806,0,0,1,92.391,46.206ZM38.666,52.336q-.591,6.972,1.1,10.554a5.658,5.658,0,0,0,5.443,3.566,6.012,6.012,0,0,0,1.864-.344,6.648,6.648,0,0,0,2.146-1.289A11.451,11.451,0,0,0,51.4,62.2a20.164,20.164,0,0,0,2-4.442l2.139-24.5a12.782,12.782,0,0,0-3.328-.438,11.507,11.507,0,0,0-5.536,1.27,10.96,10.96,0,0,0-3.922,3.728,21.9,21.9,0,0,0-2.6,6.131,52.006,52.006,0,0,0-1.476,8.383Z" transform="translate(-1.67)" fill="#42aadc"/>
</svg>
