<svg xmlns="http://www.w3.org/2000/svg" width="100.611" height="100.611" viewBox="0 0 100.611 100.611">
  <path id="Icon_awesome-phone-alt" data-name="Icon awesome-phone-alt" d="M97.742,71.1,75.733,61.664a4.716,4.716,0,0,0-5.5,1.356L60.484,74.928A72.838,72.838,0,0,1,25.664,40.109l11.908-9.747a4.7,4.7,0,0,0,1.356-5.5L29.5,2.851a4.748,4.748,0,0,0-5.4-2.731L3.655,4.835A4.716,4.716,0,0,0,0,9.432a91.17,91.17,0,0,0,91.18,91.18,4.716,4.716,0,0,0,4.6-3.655l4.716-20.437A4.773,4.773,0,0,0,97.742,71.1Z" transform="translate(0 0)" fill="#42aadc"/>
</svg>
