<svg xmlns="http://www.w3.org/2000/svg" xmlns:xlink="http://www.w3.org/1999/xlink" width="2017.718" height="1186.946" viewBox="0 0 2017.718 1186.946">
  <defs>
    <linearGradient id="linear-gradient" x1="0.5" y1="0.034" x2="0.5" y2="0.564" gradientUnits="objectBoundingBox">
      <stop offset="0" stop-color="#fff" stop-opacity="0.612"/>
      <stop offset="1" stop-color="#173f53" stop-opacity="0.02"/>
    </linearGradient>
    <linearGradient id="linear-gradient-2" x1="1.256" y1="0.916" x2="0" y2="0.624" gradientUnits="objectBoundingBox">
      <stop offset="0" stop-color="#00c891"/>
      <stop offset="1" stop-color="#06956e"/>
    </linearGradient>
    <linearGradient id="linear-gradient-3" x1="0.851" y1="0.961" x2="0.251" y2="0.707" xlink:href="#linear-gradient-2"/>
    <linearGradient id="linear-gradient-4" x1="0.944" y1="0.836" x2="-0.343" y2="0.134" xlink:href="#linear-gradient-2"/>
    <linearGradient id="linear-gradient-5" x1="1" y1="0.803" x2="-0.491" y2="0.5" xlink:href="#linear-gradient-2"/>
    <linearGradient id="linear-gradient-6" x1="0.655" y1="0.803" x2="0.066" y2="-0.271" xlink:href="#linear-gradient-2"/>
    <linearGradient id="linear-gradient-7" x1="1" y1="0.792" x2="-0.018" y2="-0.181" gradientUnits="objectBoundingBox">
      <stop offset="0" stop-color="#27556c"/>
      <stop offset="1" stop-color="#184155"/>
    </linearGradient>
    <linearGradient id="linear-gradient-8" x1="1" y1="0.759" x2="-0.039" gradientUnits="objectBoundingBox">
      <stop offset="0" stop-color="#27556c"/>
      <stop offset="1" stop-color="#142b36"/>
    </linearGradient>
    <linearGradient id="linear-gradient-9" x1="0.674" y1="0.5" x2="0.238" y2="0.202" gradientUnits="objectBoundingBox">
      <stop offset="0" stop-color="#42aadc"/>
      <stop offset="1" stop-color="#1783b7"/>
    </linearGradient>
    <linearGradient id="linear-gradient-10" x1="0.184" y1="0.279" x2="0.877" y2="0.904" gradientUnits="objectBoundingBox">
      <stop offset="0" stop-color="#06956e"/>
      <stop offset="1" stop-color="#00c891"/>
    </linearGradient>
    <linearGradient id="linear-gradient-11" x1="1" y1="0.735" x2="-0.095" y2="0.602" xlink:href="#linear-gradient-2"/>
    <linearGradient id="linear-gradient-12" x1="1.284" y1="0.752" x2="-1.222" y2="0.102" xlink:href="#linear-gradient-2"/>
    <linearGradient id="linear-gradient-13" x1="0.946" y1="0.741" x2="-0.288" y2="0.5" xlink:href="#linear-gradient-2"/>
    <linearGradient id="linear-gradient-14" x1="0.93" y1="0.777" x2="-0.222" y2="0.5" xlink:href="#linear-gradient-2"/>
    <linearGradient id="linear-gradient-15" x1="0.466" y1="0.975" x2="0.478" y2="-0.073" xlink:href="#linear-gradient-2"/>
    <linearGradient id="linear-gradient-16" x1="1" y1="0.724" x2="-0.095" y2="0.244" gradientUnits="objectBoundingBox">
      <stop offset="0" stop-color="#42aadc"/>
      <stop offset="1" stop-color="#13719e"/>
    </linearGradient>
    <linearGradient id="linear-gradient-17" x1="0.834" y1="0.696" x2="0.054" y2="-0.018" xlink:href="#linear-gradient-2"/>
    <linearGradient id="linear-gradient-18" x1="0.913" y1="0.685" x2="-0.073" y2="0.202" xlink:href="#linear-gradient-2"/>
    <linearGradient id="linear-gradient-19" x1="0.918" y1="0.553" x2="0.13" y2="0.32" xlink:href="#linear-gradient-2"/>
    <linearGradient id="linear-gradient-20" x1="1.058" y1="-0.234" x2="-0.285" y2="0.909" gradientUnits="objectBoundingBox">
      <stop offset="0" stop-color="#fff"/>
      <stop offset="1" stop-color="#76dcd5"/>
    </linearGradient>
    <linearGradient id="linear-gradient-21" x1="0.859" y1="-0.952" x2="-0.163" y2="2.819" gradientUnits="objectBoundingBox">
      <stop offset="0" stop-color="#fff" stop-opacity="0.51"/>
      <stop offset="1" stop-color="#00c891"/>
    </linearGradient>
    <linearGradient id="linear-gradient-22" x1="1" y1="0.361" x2="-0.191" y2="0.461" xlink:href="#linear-gradient-2"/>
    <linearGradient id="linear-gradient-23" x1="0.961" y1="0.279" x2="-0.455" y2="0.398" gradientUnits="objectBoundingBox">
      <stop offset="0" stop-color="#3a6c85"/>
      <stop offset="1" stop-color="#143c50"/>
    </linearGradient>
    <linearGradient id="linear-gradient-24" x1="0.935" y1="0.471" x2="0.075" y2="0.561" xlink:href="#linear-gradient-23"/>
    <linearGradient id="linear-gradient-25" x1="0.86" y1="0.225" x2="-0.075" y2="1" xlink:href="#linear-gradient-2"/>
    <linearGradient id="linear-gradient-26" x1="1" y1="0.045" x2="-0.349" y2="0.426" xlink:href="#linear-gradient-2"/>
    <linearGradient id="linear-gradient-27" x1="1.245" y1="0.23" x2="-0.276" y2="0.731" gradientUnits="objectBoundingBox">
      <stop offset="0" stop-color="#42aadc"/>
      <stop offset="1" stop-color="#247fab"/>
    </linearGradient>
    <linearGradient id="linear-gradient-28" x1="1.286" y1="0.434" x2="0" y2="0.58" xlink:href="#linear-gradient-27"/>
    <linearGradient id="linear-gradient-29" x1="1.111" y1="0.308" x2="0" y2="0.615" xlink:href="#linear-gradient-27"/>
  </defs>
  <g id="Group_100" data-name="Group 100" transform="translate(188.718 -0.054)">
    <path id="Icon_awesome-react" data-name="Icon awesome-react" d="M1107.933,386.895q-21.46-7.153-42.919-13.511c2.385-9.8,4.5-19.6,6.623-29.407,32.586-157.9,11.127-284.8-61.2-326.658-69.676-40-183.331,1.59-298.31,101.733-11.392,9.8-22.519,20.135-33.116,30.467-7.153-6.888-14.571-13.776-21.989-20.4C536.481,22.087,415.674-22.951,343.348,19.173c-69.411,40.269-90.076,159.752-60.934,309.172,2.914,14.836,6.093,29.407,9.8,44.243-16.956,4.769-33.646,10.067-49.277,15.631C101.468,437.231,0,514.59,0,594.6,0,677.257,108.091,760.18,255.127,810.516c11.922,3.974,23.844,7.948,36.03,11.392-3.974,15.9-7.418,31.527-10.6,47.687-27.817,147.036-6.093,263.6,63.318,303.609,71.531,41.329,191.809-1.06,308.907-103.587,9.273-8.213,18.545-16.691,27.818-25.7,11.657,11.392,23.844,22.254,36.03,32.851,113.39,97.494,225.455,136.969,294.6,96.964,71.531-41.329,94.845-166.641,64.643-319.24q-3.576-17.485-7.948-35.766c8.478-2.384,16.691-5.034,24.9-7.683,152.864-50.6,263.6-132.465,263.6-216.447C1356.437,514.326,1252.055,436.436,1107.933,386.895ZM749.484,161.97C848.038,76.133,939.968,42.487,981.827,66.6c44.773,25.7,61.993,129.55,33.911,265.989-1.855,9.008-3.709,17.75-6.093,26.493a1356.263,1356.263,0,0,0-178.3-28.082,1338.529,1338.529,0,0,0-112.86-140.677C728.82,180.515,738.887,171.242,749.484,161.97ZM442.961,732.1c13.511,23.049,27.288,46.1,41.859,68.617a1199.606,1199.606,0,0,1-122.927-19.87,1237.6,1237.6,0,0,1,43.183-117.893c12.187,23.314,24.638,46.363,37.885,69.147Zm-80.274-318.71c38.15-8.478,78.684-15.366,120.808-20.664-14.041,21.989-27.818,44.508-40.8,67.292-12.982,22.519-25.7,45.568-37.62,68.882-16.691-39.474-30.732-78.154-42.389-115.509Zm72.591,182.536c17.485-36.56,36.56-72.326,56.695-107.561s41.859-69.411,64.643-103.057c39.739-2.914,80.274-4.5,121.6-4.5s82.128,1.59,121.6,4.5Q833.6,435.377,864.2,487.832t57.489,107.031q-26.625,54.84-57.225,108.091c-20.134,35.236-41.594,69.412-64.113,103.323-39.474,2.914-80.538,4.239-122.132,4.239s-81.863-1.325-120.808-3.709q-34.573-50.469-65.172-103.322C471.839,668.249,453.029,632.484,435.278,595.923ZM913.74,731.567c13.511-23.314,26.228-46.893,38.68-70.736a1229.816,1229.816,0,0,1,44.773,117.364,1163.678,1163.678,0,0,1-124.517,21.194C886.983,777.135,900.494,754.351,913.74,731.567ZM951.89,528.9c-12.452-23.314-25.168-46.627-38.415-69.411Q894,425.707,872.941,392.723a1219.118,1219.118,0,0,1,121.6,21.194A1172.393,1172.393,0,0,1,951.89,528.9ZM678.748,230.851A1163.367,1163.367,0,0,1,757.167,325.7c-52.456-2.384-105.177-2.384-157.633,0C625.5,291.52,652.255,259.729,678.748,230.851ZM371.431,68.45c44.508-25.963,143.327,11.127,247.444,103.322,6.623,5.828,13.247,12.187,20.135,18.545A1345.991,1345.991,0,0,0,525.354,330.995a1396.544,1396.544,0,0,0-178.032,27.553c-3.444-13.511-6.358-27.288-9.272-41.064C313.146,189.258,329.572,92.559,371.431,68.45ZM306.523,766.8c-11.127-3.179-21.989-6.623-32.851-10.332-56.43-17.75-120.543-45.833-166.905-82.658A118.877,118.877,0,0,1,56.96,594.6c0-48.482,83.718-110.475,204.525-152.6,15.1-5.3,30.467-10.067,45.833-14.571a1408.74,1408.74,0,0,0,64.908,168.495A1448.181,1448.181,0,0,0,306.523,766.8ZM615.43,1026.434a484.9,484.9,0,0,1-149.42,93.52,117.259,117.259,0,0,1-93.52,3.444c-42.124-24.374-59.609-117.894-35.765-243.735,2.914-14.836,6.093-29.672,9.8-44.243a1325.424,1325.424,0,0,0,179.887,25.963,1398.053,1398.053,0,0,0,114.449,141.472C632.386,1011.067,623.908,1019.015,615.43,1026.434Zm64.907-64.378c-27.023-29.142-54.045-61.464-80.273-96.169,25.433,1.06,51.661,1.589,78.154,1.589,27.288,0,54.046-.53,80.538-1.854a1142.553,1142.553,0,0,1-78.419,96.434Zm346.262,79.479a117.742,117.742,0,0,1-43.713,82.922c-42.124,24.373-131.934-7.418-228.9-90.606-11.127-9.538-22.254-19.87-33.646-30.467a1310.568,1310.568,0,0,0,111.8-142,1306.022,1306.022,0,0,0,180.682-27.818c2.649,10.862,5.034,21.724,7.153,32.321A482.954,482.954,0,0,1,1026.6,1041.535Zm48.217-284.8c-7.418,2.385-14.836,4.769-22.519,6.888A1345.776,1345.776,0,0,0,984.741,594.6a1339.117,1339.117,0,0,0,64.908-166.64c13.776,3.974,27.023,8.213,39.739,12.452,123.457,42.389,210.089,105.442,210.089,153.659C1299.477,646,1207.017,713.022,1074.817,756.736ZM678.218,717A121.337,121.337,0,1,0,556.881,595.659,121.319,121.319,0,0,0,678.218,717Z" transform="translate(-188.718 -2.197)" fill="url(#linear-gradient)"/>
    <g id="Group_96" data-name="Group 96" transform="translate(-460 7.772)">
      <g id="Group_33" data-name="Group 33" transform="translate(485 166.082)">
        <path id="Path_22" data-name="Path 22" d="M61.075,0A61.075,61.075,0,1,1,0,61.075,61.075,61.075,0,0,1,61.075,0Z" fill="#00c891"/>
        <path id="Icon_awesome-html5" data-name="Icon awesome-html5" d="M0,2.25,6.185,72.4l27.754,9.251L61.87,72.4,68.055,2.25ZM54.621,24.917H22.047l.727,8.755H53.894l-2.41,26.3-17.35,4.785v.053h-.195L16.447,59.973,15.383,46.539h8.454l.62,6.752,9.482,2.57,9.517-2.57,1.063-11.023H14.94l-2.268-25.8H55.4Z" transform="translate(26.873 19.126)" fill="#27556c"/>
      </g>
      <g id="Group_34" data-name="Group 34" transform="translate(898.74 19)">
        <path id="Path_12" data-name="Path 12" d="M61.588,0C95.6,0,123.176,27.344,123.176,61.075S95.6,122.15,61.588,122.15,0,94.806,0,61.075,27.574,0,61.588,0Z" fill="#00c891"/>
        <path id="Icon_awesome-css3-alt" data-name="Icon awesome-css3-alt" d="M0,2.25,6.2,72.555,34.1,81.828,62.01,72.555l6.2-70.305ZM55.615,16.46l-.853,8.4L34.282,33.619l-.053.018H54.035l-2.274,26.04-17.443,5.1-17.55-5.187L15.631,46.462h8.686l.568,6.8,9.343,2.362,9.716-2.735L44.6,41.95l-29.54-.089v-.018l-.036.018-.639-8.224,19.912-8.3,1.155-.48H13.624l-1.03-8.4Z" transform="translate(27.415 18.856)" fill="#27556c"/>
      </g>
      <g id="Group_35" data-name="Group 35" transform="translate(1577.162 37.476)">
        <path id="Path_21" data-name="Path 21" d="M74.419,0A74.419,74.419,0,1,1,0,74.419,74.419,74.419,0,0,1,74.419,0Z" fill="#00c891"/>
        <path id="Icon_awesome-js" data-name="Icon awesome-js" d="M0,2.25V75.589H83.109V2.25Zm45.228,57.2c0,7.137-4.749,10.4-11.669,10.4-6.252,0-9.869-2.848-11.724-6.3L28.2,60.152c1.224,1.915,2.337,3.536,5.027,3.536,2.56,0,4.193-.884,4.193-4.338V35.924h7.81ZM63.7,69.843c-7.253,0-11.947-3.045-14.229-7.039l6.363-3.241a8.689,8.689,0,0,0,7.7,4.191c3.228,0,5.306-1.424,5.306-3.405,0-2.357-2.115-3.192-5.7-4.584L61.2,55.028c-5.64-2.112-9.368-4.78-9.368-10.4,0-5.173,4.471-9.1,11.427-9.1,4.972,0,8.534,1.522,11.094,5.517l-6.085,3.438a5.383,5.383,0,0,0-5.027-2.947c-2.282,0-3.729,1.277-3.729,2.947,0,2.063,1.447,2.9,4.8,4.191l1.948.737c6.641,2.5,10.37,5.075,10.37,10.837,0,6.188-5.528,9.593-12.93,9.593Z" transform="translate(32.748 35.394)" fill="#27556c"/>
      </g>
      <circle id="Ellipse_4" data-name="Ellipse 4" cx="26" cy="26" r="26" transform="translate(1145 304.228)" fill="#fff"/>
      <path id="Path_13" data-name="Path 13" d="M32.334,0A32.334,32.334,0,1,1,0,32.334,32.334,32.334,0,0,1,32.334,0Z" transform="translate(886.093 250.588)" fill="#00c891"/>
      <path id="Path_16" data-name="Path 16" d="M32.334,0A32.334,32.334,0,1,1,0,32.334,32.334,32.334,0,0,1,32.334,0Z" transform="translate(628.706 342.773)" fill="#00c891"/>
      <path id="Path_18" data-name="Path 18" d="M32.334,0A32.334,32.334,0,1,1,0,32.334,32.334,32.334,0,0,1,32.334,0Z" transform="translate(660.526 226.979)" fill="#fff"/>
      <path id="Path_17" data-name="Path 17" d="M32.334,0A32.334,32.334,0,1,1,0,32.334,32.334,32.334,0,0,1,32.334,0Z" transform="translate(1391.864 278.693)" fill="#00c891"/>
      <circle id="Ellipse_6" data-name="Ellipse 6" cx="46" cy="46" r="46" transform="translate(1426 136.228)" fill="#fff"/>
      <ellipse id="Ellipse_13" data-name="Ellipse 13" cx="46.5" cy="46" rx="46.5" ry="46" transform="translate(993 167.228)" fill="#fff"/>
      <ellipse id="Ellipse_7" data-name="Ellipse 7" cx="22.5" cy="23.5" rx="22.5" ry="23.5" transform="translate(1161 190.228)" fill="#00c891"/>
      <ellipse id="Ellipse_8" data-name="Ellipse 8" cx="21.5" cy="21" rx="21.5" ry="21" transform="translate(1035 289.228)" fill="#00c891"/>
      <path id="Path_15" data-name="Path 15" d="M10.265,0A10.265,10.265,0,1,1,0,10.265,10.265,10.265,0,0,1,10.265,0Z" transform="translate(742.977 511.699)" fill="#fff"/>
      <ellipse id="Ellipse_12" data-name="Ellipse 12" cx="12.5" cy="13" rx="12.5" ry="13" transform="translate(738 346.228)" fill="#fff"/>
      <ellipse id="Ellipse_14" data-name="Ellipse 14" cx="16" cy="17" rx="16" ry="17" transform="translate(803 266.228)" fill="#fff"/>
      <path id="Path_14" data-name="Path 14" d="M21.043,0A21.043,21.043,0,1,1,0,21.043,21.043,21.043,0,0,1,21.043,0Z" transform="translate(1266.315 261.846)" fill="#fff"/>
      <path id="Path_19" data-name="Path 19" d="M11.7,0A11.7,11.7,0,1,1,0,11.7,11.7,11.7,0,0,1,11.7,0Z" transform="translate(951.234 340.422)" fill="#fff"/>
      <path id="Path_20" data-name="Path 20" d="M16.45,0A16.45,16.45,0,1,1,0,16.45,16.45,16.45,0,0,1,16.45,0Z" transform="translate(835.429 348.509)" fill="#00c891"/>
      <path id="Path_23" data-name="Path 23" d="M16.45,0A16.45,16.45,0,1,1,0,16.45,16.45,16.45,0,0,1,16.45,0Z" transform="translate(704.873 411.071)" fill="#00c891"/>
      <path id="Path_24" data-name="Path 24" d="M11.941,0A11.941,11.941,0,1,1,0,11.941,11.941,11.941,0,0,1,11.941,0Z" transform="translate(756.662 448.81)" fill="#fff"/>
    </g>
    <g id="Group_97" data-name="Group 97" transform="translate(780.044 536.398)">
      <g id="Group_62" data-name="Group 62" transform="translate(518.66 179.334)">
        <g id="Path_104" data-name="Path 104" transform="translate(5.453 50.709)" fill="url(#linear-gradient-2)">
          <path d="M 15.85766792297363 120.5467681884766 L 0.5000060796737671 120.5467681884766 L 0.5000060796737671 0.4999994933605194 L 15.85766792297363 0.4999994933605194 L 15.85766792297363 120.5467681884766 Z" stroke="none"/>
          <path d="M 1.000003814697266 1 L 1.000003814697266 120.0467681884766 L 15.35766983032227 120.0467681884766 L 15.35766983032227 1 L 1.000003814697266 1 M 3.814697265625e-06 0 L 16.35766983032227 0 L 16.35766983032227 121.0467681884766 L 3.814697265625e-06 121.0467681884766 L 3.814697265625e-06 0 Z" stroke="none" fill="#fff"/>
        </g>
        <g id="Path_102" data-name="Path 102" transform="translate(189.749 50.709)" fill="url(#linear-gradient-3)">
          <path d="M 16.94818305969238 120.5467681884766 L 0.4999982714653015 120.5467681884766 L 0.4999982714653015 0.4999994933605194 L 16.94818305969238 0.4999994933605194 L 16.94818305969238 120.5467681884766 Z" stroke="none"/>
          <path d="M 1.000007629394531 1 L 1.000007629394531 120.0467681884766 L 16.44817352294922 120.0467681884766 L 16.44817352294922 1 L 1.000007629394531 1 M 7.62939453125e-06 0 L 17.44817352294922 0 L 17.44817352294922 121.0467681884766 L 7.62939453125e-06 121.0467681884766 L 7.62939453125e-06 0 Z" stroke="none" fill="#fff"/>
        </g>
        <g id="Path_103" data-name="Path 103" transform="translate(8.724 111.777)" fill="url(#linear-gradient-4)">
          <path d="M 17.0387020111084 80.28835296630859 L 1.499995231628418 80.28835296630859 L 1.499995231628418 1.500003814697266 L 17.0387020111084 1.500003814697266 L 17.0387020111084 80.28835296630859 Z" stroke="none"/>
          <path d="M 3.000001907348633 2.999992370605469 L 3.000001907348633 78.78835296630859 L 15.53869438171387 78.78835296630859 L 15.53869438171387 2.999992370605469 L 3.000001907348633 2.999992370605469 M 1.9073486328125e-06 -7.62939453125e-06 L 18.53869438171387 -7.62939453125e-06 L 18.53869438171387 81.78835296630859 L 1.9073486328125e-06 81.78835296630859 L 1.9073486328125e-06 -7.62939453125e-06 Z" stroke="none" fill="#fff"/>
        </g>
        <g id="Rectangle_102" data-name="Rectangle 102" transform="translate(183.206 111.777)" stroke="#fff" stroke-width="3" fill="url(#linear-gradient-5)">
          <rect width="19.629" height="81.788" stroke="none"/>
          <rect x="1.5" y="1.5" width="16.629" height="78.788" fill="none"/>
        </g>
        <g id="Path_59" data-name="Path 59" transform="translate(0 45.66)" fill="url(#linear-gradient-6)">
          <path d="M 209.4061584472656 67.54721832275391 L 6.113810539245605 67.54721832275391 L 1.605875611305237 1.499994277954102 L 213.3451538085938 1.499994277954102 L 209.4061584472656 67.54721832275391 Z" stroke="none"/>
          <path d="M 3.211715698242188 2.999984741210938 L 7.514877319335938 66.04722595214844 L 207.9929656982422 66.04722595214844 L 211.7530059814453 2.999984741210938 L 3.211715698242188 2.999984741210938 M -1.52587890625e-05 -1.52587890625e-05 L 214.937255859375 -1.52587890625e-05 L 210.8193664550781 69.04722595214844 L 4.712661743164063 69.04722595214844 L -1.52587890625e-05 -1.52587890625e-05 Z" stroke="none" fill="#fff"/>
        </g>
        <g id="Group_41" data-name="Group 41" transform="translate(16.15 0)">
          <g id="Group_40" data-name="Group 40" transform="translate(0 61.179)">
            <path id="Path_40" data-name="Path 40" d="M2159.675,1229.161,2157,1194.87h183.036l-1.781,34.291Z" transform="translate(-2157.003 -1194.87)" fill="url(#linear-gradient-7)"/>
            <line id="Line_10" data-name="Line 10" y1="1.67" x2="169.834" transform="translate(4.731 4.806)" fill="none" stroke="#fff" stroke-width="1"/>
            <line id="Line_11" data-name="Line 11" x1="167.607" y2="2.227" transform="translate(6.959 8.704)" fill="none" stroke="#fff" stroke-width="1"/>
            <line id="Line_12" data-name="Line 12" y1="1.114" x2="165.379" transform="translate(8.072 14.272)" fill="none" stroke="#fff" stroke-width="1"/>
            <line id="Line_13" data-name="Line 13" x1="163.152" y2="0.557" transform="translate(8.072 17.613)" fill="none" stroke="#fff" stroke-width="1"/>
            <line id="Line_14" data-name="Line 14" y1="2.227" x2="160.368" transform="translate(8.629 20.954)" fill="none" stroke="#fff" stroke-width="1"/>
            <line id="Line_15" data-name="Line 15" x1="156.47" transform="translate(11.413 25.965)" fill="none" stroke="#fff" stroke-width="1"/>
            <line id="Line_16" data-name="Line 16" x2="156.47" transform="translate(11.413 30.977)" fill="none" stroke="#fff" stroke-width="1"/>
            <line id="Line_17" data-name="Line 17" x2="6.125" y2="25.057" transform="translate(4.731 6.476)" fill="none" stroke="#fff" stroke-width="1"/>
            <line id="Line_18" data-name="Line 18" x1="6.682" y2="26.728" transform="translate(167.883 4.806)" fill="none" stroke="#fff" stroke-width="1"/>
            <line id="Line_19" data-name="Line 19" x1="4.455" y2="25.614" transform="translate(150.064 5.919)" fill="none" stroke="#fff" stroke-width="1"/>
            <line id="Line_20" data-name="Line 20" x1="5.568" y2="25.614" transform="translate(136.7 5.919)" fill="none" stroke="#fff" stroke-width="1"/>
            <line id="Line_32" data-name="Line 32" x1="5.568" y2="25.614" transform="translate(130.018 5.363)" fill="none" stroke="#fff" stroke-width="1"/>
            <line id="Line_21" data-name="Line 21" x1="2.227" y2="25.614" transform="translate(123.893 5.919)" fill="none" stroke="#fff" stroke-width="1"/>
            <line id="Line_22" data-name="Line 22" x1="6.125" y2="26.728" transform="translate(104.961 4.806)" fill="none" stroke="#fff" stroke-width="1"/>
            <line id="Line_23" data-name="Line 23" x1="5.568" y2="25.614" transform="translate(88.813 5.919)" fill="none" stroke="#fff" stroke-width="1"/>
            <line id="Line_24" data-name="Line 24" x1="5.011" y1="25.057" transform="translate(35.357 6.476)" fill="none" stroke="#fff" stroke-width="1"/>
            <line id="Line_25" data-name="Line 25" x1="5.568" y1="25.057" transform="translate(19.766 6.476)" fill="none" stroke="#fff" stroke-width="1"/>
            <line id="Line_26" data-name="Line 26" x1="0.557" y1="25.614" transform="translate(49.278 5.919)" fill="none" stroke="#fff" stroke-width="1"/>
            <line id="Line_31" data-name="Line 31" y1="23.944" x2="2.784" transform="translate(57.073 5.919)" fill="none" stroke="#fff" stroke-width="1"/>
            <line id="Line_27" data-name="Line 27" x1="6.125" y2="25.614" transform="translate(74.335 5.919)" fill="none" stroke="#fff" stroke-width="1"/>
            <line id="Line_28" data-name="Line 28" y1="25.057" x2="4.455" transform="translate(63.755 6.476)" fill="none" stroke="#fff" stroke-width="1"/>
            <line id="Line_29" data-name="Line 29" y1="25.057" x2="6.682" transform="translate(96.608 6.476)" fill="none" stroke="#fff" stroke-width="1"/>
            <line id="Line_30" data-name="Line 30" y1="25.614" x2="3.341" transform="translate(113.87 5.919)" fill="none" stroke="#fff" stroke-width="1"/>
          </g>
          <ellipse id="Ellipse_15" data-name="Ellipse 15" cx="11.996" cy="7.088" rx="11.996" ry="7.088" transform="translate(59.095 248.091)" fill="#27556c"/>
          <ellipse id="Ellipse_16" data-name="Ellipse 16" cx="11.996" cy="7.088" rx="11.996" ry="7.088" transform="translate(109.259 248.091)" fill="#27556c"/>
          <path id="Path_41" data-name="Path 41" d="M0,0H80.184V50.115H0Z" transform="translate(49.556)" fill="url(#linear-gradient-8)"/>
          <g id="Rectangle_90" data-name="Rectangle 90" transform="translate(60.186 5.998)" fill="#fff" stroke="#fff" stroke-width="1">
            <rect width="58.888" height="38.168" stroke="none"/>
            <rect x="0.5" y="0.5" width="57.888" height="37.168" fill="none"/>
          </g>
          <path id="Path_28" data-name="Path 28" d="M2441.494,1580.916c-17.376,4.918-18.141,13.114-26.229,17.486s-2.93,10.444-6.119,0-5.682-27.977-5.682-27.977l-13.552,2.623s-2.4,33.987,3.934,48.085,12.822,12.288,21.419,8.306,12.677-8.306,12.677-8.306l-6.995,81.744h96.607l-20.545-83.929s2.447,2.1,13.551,5.683,22.949,6.557,30.6-7.868,0-49.833,0-49.833l-14.425-3.5s-2.469,18.711-4.809,27.1,2.732,2.951-6.557,0-12.979-12.591-30.6-11.8S2458.87,1576,2441.494,1580.916Z" transform="translate(-2373.276 -1479.747)" stroke="#fff" stroke-width="1" fill="url(#linear-gradient-9)"/>
          <path id="Path_29" data-name="Path 29" d="M2390.894,1573.855l-2.826-9.772,13.186-1.884v4.474l4.592-4.474,1.766.706-3.531,8.123Z" transform="translate(-2374.111 -1480.482)" fill="#fe6185"/>
          <path id="Path_30" data-name="Path 30" d="M2406.134,1574.042l3.053-9.928-14.249-1.914v4.545l-4.962-4.545-1.909.717,3.817,8.254Z" transform="translate(-2238.479 -1487.059)" fill="#fe6185"/>
          <line id="Line_4" data-name="Line 4" x2="1.598" y2="4.793" transform="translate(17.352 83.305)" fill="none" stroke="#fff" stroke-width="1"/>
          <line id="Line_5" data-name="Line 5" x2="1.467" y2="5.973" transform="translate(21.038 82.688)" fill="none" stroke="#fff" stroke-width="1"/>
          <line id="Line_6" data-name="Line 6" y2="4.793" transform="translate(24.233 82.198)" fill="none" stroke="#fff" stroke-width="1"/>
          <line id="Line_7" data-name="Line 7" x1="1.598" y2="4.793" transform="translate(166.913 76.915)" fill="none" stroke="#fff" stroke-width="1"/>
          <path id="Path_31" data-name="Path 31" d="M3.2,0,2.6.9,0,4.793" transform="translate(161.749 76.845) rotate(-13)" fill="none" stroke="#fff" stroke-width="1"/>
          <line id="Line_9" data-name="Line 9" x2="1.598" y2="4.793" transform="translate(160.768 75.679) rotate(17)" fill="none" stroke="#fff" stroke-width="1"/>
          <path id="Path_33" data-name="Path 33" d="M0,0" transform="translate(19.766 84.917)" fill="none" stroke="#fff" stroke-width="1"/>
          <g id="Group_39" data-name="Group 39" transform="translate(48.999 19.101)">
            <path id="Path_36" data-name="Path 36" d="M1.949,0C3.025,0,3.9,6.607,3.9,14.756S3.025,29.512,1.949,29.512,0,22.906,0,14.756.873,0,1.949,0Z" transform="translate(80.184 33.241)" fill="#fe6185"/>
            <path id="Path_32" data-name="Path 32" d="M38.336,0C59.508,0,76.672,19.065,76.672,42.583S59.508,85.165,38.336,85.165,0,66.1,0,42.583,17.164,0,38.336,0Z" transform="translate(3.93 0)" fill="#1d1d1d"/>
            <path id="Path_35" data-name="Path 35" d="M2.227,0c1.23,0,2.227,6.607,2.227,14.756s-1,14.756-2.227,14.756S0,22.906,0,14.756,1,0,2.227,0Z" transform="translate(0 33.241)" fill="#fe6185"/>
          </g>
          <path id="Path_34" data-name="Path 34" d="M2236.637,1293.369s2.815,16.59,6.47,26.076,5.9,11.038,8.149,11.87,45.24,1.938,49.207,1.108,6.716-5.05,10.16-14.537,5.294-24.517,5.294-24.517,1.968,27.669-7.871,37.946-15.182,14.493-31.207,14.23-17.712-3.162-30.925-14.23S2236.637,1293.369,2236.637,1293.369Z" transform="translate(-2184.976 -1240.821)" fill="#fe6185"/>
          <path id="Path_37" data-name="Path 37" d="M0,37" transform="translate(53.176 40.121)" fill="none" stroke="#fff" stroke-width="1"/>
          <g id="Path_38" data-name="Path 38" transform="translate(58.465 223.29)" fill="#0084c4">
            <path d="M 24.55745697021484 32.49829864501953 L 0.4999965727329254 32.49829864501953 L 0.4999965727329254 0.4999993145465851 L 24.55745697021484 0.4999993145465851 L 24.55745697021484 32.49829864501953 Z" stroke="none"/>
            <path d="M 0.9999961853027344 1 L 0.9999961853027344 31.99829864501953 L 24.05745697021484 31.99829864501953 L 24.05745697021484 1 L 0.9999961853027344 1 M -3.814697265625e-06 0 L 25.05745697021484 0 L 25.05745697021484 32.99829864501953 L -3.814697265625e-06 32.99829864501953 L -3.814697265625e-06 0 Z" stroke="none" fill="#fff"/>
          </g>
          <g id="Path_39" data-name="Path 39" transform="translate(108.58 223.29)" fill="#0084c4">
            <path d="M 24.55745697021484 32.49829864501953 L 0.4999965727329254 32.49829864501953 L 0.4999965727329254 0.4999993145465851 L 24.55745697021484 0.4999993145465851 L 24.55745697021484 32.49829864501953 Z" stroke="none"/>
            <path d="M 0.9999961853027344 1 L 0.9999961853027344 31.99829864501953 L 24.05745697021484 31.99829864501953 L 24.05745697021484 1 L 0.9999961853027344 1 M -3.814697265625e-06 0 L 25.05745697021484 0 L 25.05745697021484 32.99829864501953 L -3.814697265625e-06 32.99829864501953 L -3.814697265625e-06 0 Z" stroke="none" fill="#fff"/>
          </g>
          <g id="Rectangle_92" data-name="Rectangle 92" transform="translate(48.19 221.919)" fill="#0084c4" stroke="#fff" stroke-width="1">
            <rect width="95.965" height="8.724" stroke="none"/>
            <rect x="0.5" y="0.5" width="94.965" height="7.724" fill="none"/>
          </g>
          <g id="Rectangle_93" data-name="Rectangle 93" transform="translate(49.281 134.678)" stroke="#fff" stroke-width="3" fill="url(#linear-gradient-10)">
            <rect width="83.969" height="95.965" rx="10" stroke="none"/>
            <rect x="1.5" y="1.5" width="80.969" height="92.965" rx="8.5" fill="none"/>
          </g>
          <g id="Path_70" data-name="Path 70" transform="translate(62.367 229.553)" fill="url(#linear-gradient-11)">
            <path d="M 9.314602851867676 30.03432273864746 L 0.500002384185791 30.03432273864746 L 0.500002384185791 0.5000023245811462 L 9.314602851867676 0.5000023245811462 L 9.314602851867676 30.03432273864746 Z" stroke="none"/>
            <path d="M 1.000001907348633 1.000001907348633 L 1.000001907348633 29.53432273864746 L 8.814601898193359 29.53432273864746 L 8.814601898193359 1.000001907348633 L 1.000001907348633 1.000001907348633 M 1.9073486328125e-06 1.9073486328125e-06 L 9.814602851867676 1.9073486328125e-06 L 9.814602851867676 30.53432273864746 L 1.9073486328125e-06 30.53432273864746 L 1.9073486328125e-06 1.9073486328125e-06 Z" stroke="none" fill="#fff"/>
          </g>
          <g id="Rectangle_96" data-name="Rectangle 96" transform="translate(115.802 229.553)" stroke="#fff" stroke-width="1" fill="url(#linear-gradient-12)">
            <rect width="8.724" height="30.534" stroke="none"/>
            <rect x="0.5" y="0.5" width="7.724" height="29.534" fill="none"/>
          </g>
          <g id="Path_71" data-name="Path 71" transform="translate(52.552 227.372)" fill="url(#linear-gradient-13)">
            <path d="M 8.224095344543457 24.58176422119141 L 0.4999952912330627 24.58176422119141 L 0.4999952912330627 0.5000039935112 L 8.224095344543457 0.5000039935112 L 8.224095344543457 24.58176422119141 Z" stroke="none"/>
            <path d="M 0.999995231628418 1.000003814697266 L 0.999995231628418 24.08176422119141 L 7.724095344543457 24.08176422119141 L 7.724095344543457 1.000003814697266 L 0.999995231628418 1.000003814697266 M -4.76837158203125e-06 3.814697265625e-06 L 8.724095344543457 3.814697265625e-06 L 8.724095344543457 25.08176422119141 L -4.76837158203125e-06 25.08176422119141 L -4.76837158203125e-06 3.814697265625e-06 Z" stroke="none" fill="#fff"/>
          </g>
          <g id="Path_69" data-name="Path 69" transform="translate(105.987 229.553)" fill="url(#linear-gradient-14)">
            <path d="M 8.224095344543457 22.40074157714844 L 0.4999952912330627 22.40074157714844 L 0.4999952912330627 0.5000007748603821 L 8.224095344543457 0.5000007748603821 L 8.224095344543457 22.40074157714844 Z" stroke="none"/>
            <path d="M 0.999995231628418 1 L 0.999995231628418 21.90074157714844 L 7.724095344543457 21.90074157714844 L 7.724095344543457 1 L 0.999995231628418 1 M -4.76837158203125e-06 0 L 8.724095344543457 0 L 8.724095344543457 22.90074157714844 L -4.76837158203125e-06 22.90074157714844 L -4.76837158203125e-06 0 Z" stroke="none" fill="#fff"/>
          </g>
        </g>
      </g>
      <g id="Group_61" data-name="Group 61" transform="translate(814.027 50.67)">
        <g id="Group_47" data-name="Group 47" transform="translate(0 224.448) rotate(-73)">
          <g id="Path_56" data-name="Path 56" transform="translate(2.875 92.811) rotate(-21)" fill="url(#linear-gradient-15)">
            <path d="M 233.3832855224609 16.19502830505371 L 12.42740440368652 11.611647605896 L 2.380157232284546 1.051001787185669 L 228.2554016113281 5.869539260864258 L 233.3832855224609 16.19502830505371 Z" stroke="none"/>
            <path d="M 231.7532653808594 15.16101932525635 L 227.6289825439453 6.856407165527344 L 4.760358333587646 2.10199761390686 L 12.86474704742432 10.62053775787354 L 231.7532653808594 15.16101932525635 M 235.0133666992188 17.22906684875488 L 11.99011325836182 12.60281753540039 L 1.947021519299597e-05 5.035400590713834e-06 L 228.8818359375 4.882692337036133 L 235.0133666992188 17.22906684875488 Z" stroke="none" fill="#fff"/>
          </g>
          <g id="Path_57" data-name="Path 57" transform="translate(0 84.095) rotate(-21)" fill="#06956e">
            <path d="M 228.3123016357422 13.31185531616211 L 1.493234395980835 8.193882942199707 L 4.521671295166016 1.016617774963379 L 232.8067321777344 6.686171054840088 L 228.3123016357422 13.31185531616211 Z" stroke="none"/>
            <path d="M 227.7904205322266 12.29980278015137 L 230.9510803222656 7.640370845794678 L 5.178058624267578 2.033209562301636 L 2.986427307128906 7.227301597595215 L 227.7904205322266 12.29980278015137 M 228.8341522216797 14.32387161254883 L -3.112792910542339e-06 9.160433769226074 L 3.865215539932251 -3.601074240577873e-06 L 234.6623687744141 5.731934070587158 L 228.8341522216797 14.32387161254883 Z" stroke="none" fill="#fff"/>
          </g>
          <g id="Path_55" data-name="Path 55" transform="translate(220.654 5.48) rotate(31)" fill="#00c891">
            <path d="M 14.4301233291626 10.99176120758057 L 3.86256742477417 9.985698699951172 L 1.427195906639099 1.372243523597717 L 9.467652320861816 3.308360815048218 L 14.4301233291626 10.99176120758057 Z" stroke="none"/>
            <path d="M 12.47040176391602 9.800666809082031 L 8.844661712646484 4.18692684173584 L 2.854382276535034 2.744486093521118 L 4.638636112213135 9.055059432983398 L 12.47040176391602 9.800666809082031 M 16.38986015319824 12.18285655975342 L 3.086491107940674 10.91633605957031 L 1.030273438118456e-06 -3.627471869549481e-06 L 10.09066104888916 2.429796457290649 L 16.38986015319824 12.18285655975342 Z" stroke="none" fill="#fff"/>
          </g>
        </g>
        <path id="Path_42" data-name="Path 42" d="M3128.139,1464.863c6,29.8,16.582,48.952,20.853,84.882s-12.3,62.762-5.61,68.548c3.165,2.737,12.85,10.031,32.328,8.361s31.213-5.574,37.9-12.819,3.832-64.089,3.832-64.089-3.378-73.455-9.673-85.555-7.983-18.751-7.983-18.751Z" transform="translate(-3002.929 -1316.344)" stroke="#fff" stroke-width="3" fill="url(#linear-gradient-16)"/>
        <g id="Path_43" data-name="Path 43" transform="matrix(0.966, -0.259, 0.259, 0.966, 119.14, 131.632)" fill="#27556c">
          <path d="M 38.27756881713867 33.83314895629883 C 33.20636749267578 33.83314895629883 28.29020309448242 33.37539291381836 23.66561317443848 32.47261810302734 C 19.22514724731445 31.60577201843262 15.24637985229492 30.36903953552246 11.83983516693115 28.79678344726563 C 8.506069183349609 27.25812721252441 5.906691074371338 25.48604011535645 4.113913536071777 23.52976226806641 C 2.379446744918823 21.63711738586426 1.500002145767212 19.66444969177246 1.500002145767212 17.66657257080078 C 1.500002145767212 15.66869449615479 2.379446744918823 13.6960277557373 4.113913536071777 11.80338382720947 C 5.906691074371338 9.847105979919434 8.506069183349609 8.075016975402832 11.83983516693115 6.536361694335938 C 15.24637985229492 4.96410608291626 19.22514724731445 3.727383613586426 23.66561317443848 2.860539197921753 C 28.29020309448242 1.957761406898499 33.20636749267578 1.500005960464478 38.27756881713867 1.500005960464478 C 43.40723419189453 1.500005960464478 48.36342620849609 1.904617071151733 53.00848007202148 2.702605962753296 C 57.54896926879883 3.482628107070923 61.59765625 4.603683471679688 65.04209899902344 6.034627914428711 C 71.85208129882813 8.863717079162598 75.60249328613281 12.62178325653076 75.60249328613281 16.61653900146484 C 75.60249328613281 18.62305068969727 74.69100189208984 20.65451622009277 72.89333343505859 22.65449523925781 C 71.05970001220703 24.69451713562012 68.31563568115234 26.64206123352051 64.95781707763672 28.28659439086914 C 61.45597076416016 30.00166130065918 57.41533660888672 31.3566951751709 52.94812393188477 32.31406021118164 C 48.24465942382813 33.32205200195313 43.30876922607422 33.83314895629883 38.27756881713867 33.83314895629883 Z" stroke="none"/>
          <path d="M 38.27757263183594 2.999996185302734 C 33.30261993408203 2.999996185302734 28.48313522338867 3.448396682739258 23.95301055908203 4.332748413085938 C 19.63014602661133 5.1766357421875 15.76617050170898 6.376260757446289 12.46840667724609 7.898298263549805 C 6.451095581054688 10.67552185058594 3 14.23592185974121 3 17.66657257080078 C 3 21.09722137451172 6.451095581054688 24.65762329101563 12.46840667724609 27.43484687805176 C 15.76617050170898 28.95688438415527 19.63014602661133 30.15650939941406 23.95301055908203 31.00039672851563 C 28.48313522338867 31.88474655151367 33.30261993408203 32.33314895629883 38.27757263183594 32.33314895629883 C 43.20330810546875 32.33314895629883 48.033447265625 31.83325958251953 52.63379669189453 30.84736061096191 C 56.98152160644531 29.91559791564941 60.90594482421875 28.60079765319824 64.29804992675781 26.93948364257813 C 70.43728637695313 23.93273544311523 74.10249328613281 20.07368469238281 74.10249328613281 16.61654663085938 C 74.10249328613281 15.05965995788574 73.35252380371094 13.51012229919434 71.8734130859375 12.01100921630859 C 70.21722412109375 10.33241081237793 67.65599822998047 8.744810104370117 64.46663665771484 7.41984748840332 C 61.12538528442383 6.031772613525391 57.18486022949219 4.942047119140625 52.75450897216797 4.180948257446289 C 48.19310760498047 3.397321701049805 43.32236099243164 2.999996185302734 38.27757263183594 2.999996185302734 M 38.27757263183594 -3.814697265625e-06 C 59.41768646240234 -3.814697265625e-06 77.10249328613281 6.859560012817383 77.10249328613281 16.61654663085938 C 77.10249328613281 26.37351036071777 59.41768646240234 35.33314895629883 38.27757263183594 35.33314895629883 C 17.13744735717773 35.33314895629883 0 27.42354774475098 0 17.66657257080078 C 0 7.909597396850586 17.13744735717773 -3.814697265625e-06 38.27757263183594 -3.814697265625e-06 Z" stroke="none" fill="#fff"/>
        </g>
        <g id="Group_44" data-name="Group 44" transform="translate(136.171 121.729)">
          <path id="Path_47" data-name="Path 47" d="M0,.611S8.482-.415,10.1.192,6.453,3.037,6.453,3.037Z" transform="matrix(0.629, -0.777, 0.777, 0.629, 0, 8.085)" fill="none" stroke="#fe6185" stroke-width="1"/>
          <path id="Path_46" data-name="Path 46" d="M0,.45S1.638.211,3.3.07a8.089,8.089,0,0,1,2.2.006C6.4.369,2.735,1.715,2.735,1.715Z" transform="translate(2.159 6.578) rotate(-51)" fill="none" stroke="#fe6185" stroke-width="1"/>
        </g>
        <g id="Group_45" data-name="Group 45" transform="matrix(0.978, -0.208, 0.208, 0.978, 181.519, 114.679)">
          <path id="Path_47-2" data-name="Path 47" d="M0,2.314s8.769,1.259,10.417.68S6.592,0,6.592,0Z" transform="translate(6.75 10.316) rotate(-129)" fill="none" stroke="#fe6185" stroke-width="1"/>
          <path id="Path_46-2" data-name="Path 46" d="M0,1.187s1.742.322,3.5.545a8.721,8.721,0,0,0,2.32.094C6.769,1.563,2.831,0,2.831,0Z" transform="translate(5.593 8.001) rotate(-129)" fill="none" stroke="#fe6185" stroke-width="1"/>
        </g>
        <g id="Group_43" data-name="Group 43" transform="translate(163.183 144.539)">
          <g id="Group_42" data-name="Group 42" transform="translate(0 0)">
            <path id="Path_45" data-name="Path 45" d="M3194.236,1481.374s-1.758-7.244-.6-7.6,5.231,6.183,5.231,6.183Z" transform="translate(-3191.896 -1471.035)" fill="none" stroke="#fe6185" stroke-width="1"/>
            <path id="Path_44" data-name="Path 44" d="M3194.713,1484.692s-2.6-10.4-.888-10.909,7.738,8.88,7.738,8.88Z" transform="translate(-3193.241 -1473.763)" fill="none" stroke="#fe6185" stroke-width="1"/>
          </g>
        </g>
        <path id="Path_48" data-name="Path 48" d="M0,0S.68.235,5.2,2.5c1.044.523,2.564,2.112,3.545,2.587a7.916,7.916,0,0,0,3.463.825" transform="translate(143.824 218.394) rotate(3)" fill="none" stroke="#fff" stroke-width="1"/>
        <path id="Path_49" data-name="Path 49" d="M0,0" transform="matrix(0.985, 0.174, -0.174, 0.985, 152.564, 226.65)" fill="none" stroke="#d6d6d6" stroke-width="1"/>
        <line id="Line_33" data-name="Line 33" y1="57.435" x2="11.298" transform="translate(141.547 66.927)" fill="none" stroke="#00c891" stroke-width="1"/>
        <line id="Line_36" data-name="Line 36" x1="29.559" y1="49.368" transform="translate(155.566 66.749)" fill="none" stroke="#00c891" stroke-width="1"/>
        <path id="Path_50" data-name="Path 50" d="M37.872,71.224l-2.779-5.8L0,0" transform="translate(154.023 67.341) rotate(20)" fill="none" stroke="#00c891" stroke-width="1"/>
        <line id="Line_34" data-name="Line 34" y1="57.435" x2="11.887" transform="translate(142.136 66.927)" fill="none" stroke="#00c891" stroke-width="1"/>
        <line id="Line_35" data-name="Line 35" x1="30.033" y1="48.289" transform="translate(155.091 69.006)" fill="none" stroke="#00c891" stroke-width="1"/>
        <path id="Path_51" data-name="Path 51" d="M37,69.236,0,0" transform="translate(153.473 69.854) rotate(20)" fill="none" stroke="#00c891" stroke-width="1"/>
        <g id="Group_46" data-name="Group 46" transform="translate(151.681 64.344)">
          <g id="Ellipse_17" data-name="Ellipse 17" transform="translate(0 0)" fill="#00c891" stroke="#00c891" stroke-width="1">
            <ellipse cx="1.946" cy="2.433" rx="1.946" ry="2.433" stroke="none"/>
            <ellipse cx="1.946" cy="2.433" rx="1.446" ry="1.933" fill="none"/>
          </g>
          <g id="Ellipse_18" data-name="Ellipse 18" transform="translate(1.946 0.973)" fill="#fff" stroke="#00c891" stroke-width="1">
            <ellipse cx="0.973" cy="1.946" rx="0.973" ry="1.946" stroke="none"/>
            <ellipse cx="0.973" cy="1.946" rx="0.473" ry="1.446" fill="none"/>
          </g>
        </g>
        <line id="Line_37" data-name="Line 37" x1="1.767" y1="24.144" transform="translate(153.325 42.507)" fill="none" stroke="#00c891" stroke-width="1"/>
        <line id="Line_38" data-name="Line 38" x1="0.589" y1="24.733" transform="translate(152.147 42.507)" fill="none" stroke="#00c891" stroke-width="1"/>
        <g id="Path_52" data-name="Path 52" transform="translate(70.704 5.064) rotate(17)" fill="url(#linear-gradient-17)">
          <path d="M 85.05836486816406 10.86226463317871 L 1.86626148223877 6.556938648223877 L 5.782204627990723 1.028248310089111 L 89.28891754150391 5.528647422790527 L 85.05836486816406 10.86226463317871 Z" stroke="none"/>
          <path d="M 6.279327392578125 2.056485176086426 L 3.732521057128906 5.652182579040527 L 84.59523773193359 9.83695125579834 L 87.30308532714844 6.423071384429932 L 6.279327392578125 2.056485176086426 M 5.285064697265625 -5.7220458984375e-06 L 91.27474212646484 4.634208202362061 L 85.52147674560547 11.88756847381592 L 0 7.461701393127441 L 5.285064697265625 -5.7220458984375e-06 Z" stroke="none" fill="#fff"/>
        </g>
        <g id="Path_53" data-name="Path 53" transform="translate(69.013 11.794) rotate(17)" fill="url(#linear-gradient-18)">
          <path d="M 86.75901794433594 9.132726669311523 L 2.988033056259155 4.11472749710083 L 0.9010576009750366 0.549529492855072 L 85.21712493896484 5.115950584411621 L 86.75901794433594 9.132726669311523 Z" stroke="none"/>
          <path d="M 1.802108764648438 1.099072456359863 L 3.284584045410156 3.631584167480469 L 86.01403045654297 8.587194442749023 L 84.86647796630859 5.597704410552979 L 1.802108764648438 1.099072456359863 M -7.62939453125e-06 2.86102294921875e-06 L 85.56777191162109 4.634214878082275 L 87.50398254394531 9.678238868713379 L 2.691474914550781 4.597850322723389 L -7.62939453125e-06 2.86102294921875e-06 Z" stroke="none" fill="#fff"/>
        </g>
        <g id="Path_54" data-name="Path 54" transform="matrix(0.819, -0.574, 0.574, 0.819, 146.953, 42.697)" fill="#00c891">
          <path d="M 0.8841078281402588 4.232496738433838 L 2.897709369659424 0.5063073635101318 L 10.76986312866211 0.6717650294303894 L 9.266809463500977 3.45318865776062 L 0.8841078281402588 4.232496738433838 Z" stroke="none"/>
          <path d="M 3.192442893981934 1.012612819671631 L 1.76822566986084 3.64814019203186 L 8.954134941101074 2.980093479156494 L 9.940694808959961 1.154448270797729 L 3.192442893981934 1.012612819671631 M 2.602975845336914 1.9073486328125e-06 L 11.59903621673584 0.1890816688537598 L 9.579496383666992 3.926271677017212 L -3.814697265625e-06 4.816841602325439 L 2.602975845336914 1.9073486328125e-06 Z" stroke="none" fill="#fff"/>
        </g>
        <path id="Path_58" data-name="Path 58" d="M3161.574,1607.033a14.211,14.211,0,0,0,3.908,2.576,38.677,38.677,0,0,0,5.419,1.688" transform="translate(-3017.039 -1384.014)" fill="none" stroke="#fff" stroke-width="1"/>
      </g>
      <g id="Group_67" data-name="Group 67" transform="translate(212.956 96)">
        <g id="Path_60" data-name="Path 60" transform="translate(0 104.001)" fill="url(#linear-gradient-19)">
          <path d="M 18.30674934387207 158.0797119140625 C 18.63726997375488 152.9272918701172 19.23152542114258 142.5121612548828 19.57906532287598 129.5573883056641 C 20.03878021240234 112.4216384887695 20.14920806884766 87.19617462158203 18.0647087097168 64.33438873291016 C 15.97852993011475 41.45481872558594 11.69931507110596 20.26267623901367 8.476851463317871 6.513532638549805 C 5.841643333435059 -4.730098247528076 3.460332632064819 -12.97941875457764 2.436508178710938 -16.39450073242188 L 200.0426025390625 -101.3181457519531 C 201.2649841308594 -97.78292846679688 203.9448699951172 -89.79857635498047 207.0002136230469 -79.22728729248047 C 209.4427032470703 -70.77639770507813 211.6438446044922 -62.34971618652344 213.5424957275391 -54.18132400512695 C 215.9133148193359 -43.98153686523438 217.8161773681641 -34.15939712524414 219.1982116699219 -24.98778915405273 C 220.5798492431641 -15.81882476806641 221.5825653076172 -5.808503150939941 222.1785583496094 4.765104293823242 C 222.6558532714844 13.2327823638916 222.8747406005859 22.0770320892334 222.8291320800781 31.05217552185059 C 222.7660675048828 43.4615364074707 222.2081298828125 52.69762420654297 221.9964294433594 55.78326416015625 L 18.30674934387207 158.0797119140625 Z" stroke="none"/>
          <path d="M 198.8484802246094 -98.62808990478516 L 4.860992431640625 -15.25956726074219 C 6.050125122070313 -11.19581604003906 8.122055053710938 -3.76495361328125 10.42408752441406 6.057163238525391 C 13.66108703613281 19.86824035644531 17.95977783203125 41.15839385986328 20.056396484375 64.15277862548828 C 22.1497802734375 87.11162567138672 22.03947448730469 112.4215087890625 21.57832336425781 129.6110076904297 C 21.29585266113281 140.1399841308594 20.85050964355469 149.0004272460938 20.51527404785156 154.7324523925781 L 220.0758666992188 54.50971221923828 C 220.3203125 50.65386199951172 220.7750396728516 42.07806396484375 220.8295440673828 30.96047210693359 C 220.8733215332031 22.03612518310547 220.6543884277344 13.2436637878418 220.1788940429688 4.827278137207031 C 219.5860443115234 -5.665721893310547 218.5906982421875 -15.5966796875 217.2205047607422 -24.68975830078125 C 215.8472747802734 -33.80287170410156 213.9561614990234 -43.56537628173828 211.5996246337891 -53.70606994628906 C 209.7104339599609 -61.83563995361328 207.5199737548828 -70.22348785400391 205.0890502929688 -78.63652801513672 C 202.5316009521484 -87.48757171630859 200.2379913330078 -94.51897430419922 198.8484802246094 -98.62808990478516 M 201.2198944091797 -104.0009841918945 C 201.2198944091797 -104.0009841918945 215.0781707763672 -65.75202941894531 221.1758575439453 -25.28575897216797 C 227.2735443115234 15.18047332763672 223.9090423583984 57.06074142456055 223.9090423583984 57.06074142456055 L 16.07293701171875 161.4395904541016 C 16.07293701171875 161.4395904541016 20.09117126464844 108.585205078125 16.07293701171875 64.51601409912109 C 12.05470275878906 20.44681930541992 1.52587890625e-05 -17.52426147460938 1.52587890625e-05 -17.52426147460938 L 201.2198944091797 -104.0009841918945 Z" stroke="none" fill="#fff"/>
        </g>
        <g id="Group_51" data-name="Group 51" transform="translate(19.561 7.455)">
          <path id="Path_62" data-name="Path 62" d="M4233.524,1428.006s16.564,40.509,20.992,83.314-3.28,87.906-3.28,87.906" transform="translate(-4233.524 -1355.631)" fill="none" stroke="#fff" stroke-width="4"/>
          <path id="Path_63" data-name="Path 63" d="M4233.524,1428.006s16.564,40.509,20.992,83.314-3.28,87.906-3.28,87.906" transform="translate(-4204.422 -1368.104)" fill="none" stroke="#fff" stroke-width="4"/>
          <path id="Path_64" data-name="Path 64" d="M4233.524,1428.006s16.564,40.509,20.992,83.314-3.28,87.906-3.28,87.906" transform="translate(-4176.982 -1381.408)" fill="none" stroke="#fff" stroke-width="4"/>
          <path id="Path_65" data-name="Path 65" d="M4233.524,1428.005s16.564,39.73,20.992,81.712-3.28,86.216-3.28,86.216" transform="translate(-4147.88 -1393.484)" fill="none" stroke="#fff" stroke-width="4"/>
          <path id="Path_66" data-name="Path 66" d="M4233.524,1428.006s16.564,38.938,20.992,80.083-3.28,84.5-3.28,84.5" transform="translate(-4120.44 -1404.69)" fill="none" stroke="#fff" stroke-width="4"/>
          <path id="Path_67" data-name="Path 67" d="M4233.524,1428.006s16.564,38.864,20.992,79.932-3.28,84.337-3.28,84.337" transform="translate(-4091.338 -1417.994)" fill="none" stroke="#fff" stroke-width="4"/>
          <path id="Path_68" data-name="Path 68" d="M4233.524,1428.006s16.564,39.173,20.992,80.567-3.467,82.62-3.467,82.62" transform="translate(-4068.888 -1428.006)" fill="none" stroke="#fff" stroke-width="4"/>
        </g>
        <line id="Line_39" data-name="Line 39" y1="98.29" x2="203.392" transform="translate(19.95 135.757)" fill="none" stroke="#fff" stroke-width="4"/>
        <line id="Line_40" data-name="Line 40" y1="96.343" x2="202.418" transform="translate(19.95 108.508)" fill="none" stroke="#fff" stroke-width="4"/>
        <line id="Line_41" data-name="Line 41" y1="96.833" x2="201.572" transform="translate(17.877 77.367)" fill="none" stroke="#fff" stroke-width="4"/>
        <line id="Line_42" data-name="Line 42" y1="96.438" x2="200.69" transform="translate(15.084 51.969)" fill="none" stroke="#fff" stroke-width="4"/>
        <line id="Line_43" data-name="Line 43" y1="95.798" x2="199.877" transform="translate(9.245 25.362)" fill="none" stroke="#fff" stroke-width="4"/>
        <path id="Path_61" data-name="Path 61" d="M4260.349,1539.827l20.337-87.25,43.3,30.833,18.369-35.425,34.769,19.024,19.024-87.25,12.464,10.5,15.684-38.34" transform="translate(-4218.484 -1335.355)" fill="none" stroke="#27556c" stroke-width="9"/>
      </g>
    </g>
    <g id="Group_98" data-name="Group 98">
      <rect id="Rectangle_117" data-name="Rectangle 117" width="106" height="147" transform="translate(1531 278)" fill="#27556c"/>
      <g id="Group_91" data-name="Group 91" transform="translate(95.427 -46.999)">
        <g id="Group_90" data-name="Group 90" transform="translate(1237.85 469.182)">
          <g id="Group_88" data-name="Group 88" transform="translate(0)">
            <path id="Path_53-2" data-name="Path 53" d="M454.809,662.188S304.493,649.12,319.677,628.757c0-8.753,184.479-23.706,215.6-37.383S462.4,563.717,462.4,563.717" transform="translate(-239.601 -562.743)" fill="none" stroke="#fff" stroke-width="5" stroke-dasharray="28"/>
            <path id="Path_54-2" data-name="Path 54" d="M454.543,663.162s-131.2-9.844-138.791-29.417c-12.147-8.84,188.138-27.093,219.264-41.3s-72.881-28.729-72.881-28.729" transform="translate(-141.701 -563.717)" fill="none" stroke="#00c891" stroke-width="5"/>
            <path id="Path_55-2" data-name="Path 55" d="M420.811,663.162s-92.619-21.909-77.436-42.3C354,612.042,505.976,605.1,537.1,591.406s-72.881-27.69-72.881-27.69" transform="translate(-341.694 -563.717)" fill="none" stroke="#00c891" stroke-width="5"/>
          </g>
        </g>
        <g id="Group_89" data-name="Group 89" transform="translate(1238.275 85.736)">
          <path id="Path_56-2" data-name="Path 56" d="M1339.3,390.543s13.9-9.81,26.815-7.194,17.658,7.194,17.658,7.194a216.782,216.782,0,0,1,27.469-14.388c7.688-3.264,20.089,5.487,30.739,3.924,11.041-1.62,18.847-9.171,30.085-8.5,19.049,1.133,43.819,8.5,43.819,8.5s1.84,15.809-10.464,24.2c-6.585,4.49-23.576.226-33.355,5.232-10.41,5.329-8.282,20.472-25.506,23.545-27.849,4.967-45.127,6.54-45.127,6.54s-9.647,9.156-28.777,9.156-38.481-8.038-47.743-9.156c-8.192-.989-10.529-11.775-15.7-13.734-29.758-11.282-26.815-31.393-26.815-31.393s-3.107-13.407,11.118-14.388S1339.3,390.543,1339.3,390.543Z" transform="translate(-1020.689 -278.004)" fill="url(#linear-gradient-20)"/>
          <path id="Path_48-2" data-name="Path 48" d="M1351.829,200.135s23.793-12.2,44.879-9.808,21.9,0,21.9,0,11.354-4.78,32.439-2.789a163.577,163.577,0,0,1,36.494,7.569s32.439-4.78,30.817,11.154-37.3,17.13-37.3,17.13-8.921,9.561-35.683,0c-8.3-2.964-28.819,1.782-35.875,1.635-15.052-.315-21.7,3.942-21.7,3.942s-47.037.4-33.25-9.162c5.446-3.777-14.212-8.314-15.377-11.732C1337.488,203.16,1351.829,200.135,1351.829,200.135Z" transform="translate(-1339.025 -95.857)" fill="url(#linear-gradient-21)"/>
          <g id="Path_80" data-name="Path 80" transform="translate(119.19 221.921)" fill="url(#linear-gradient-22)">
            <path d="M 49.79242324829102 163.78857421875 L 0.5000051856040955 163.78857421875 L 0.5000051856040955 0.4999954402446747 L 49.79242324829102 0.4999954402446747 L 49.79242324829102 163.78857421875 Z" stroke="none"/>
            <path d="M 1.000003814697266 1 L 1.000003814697266 163.28857421875 L 49.29242324829102 163.28857421875 L 49.29242324829102 1 L 1.000003814697266 1 M 3.814697265625e-06 0 L 50.29242324829102 0 L 50.29242324829102 164.28857421875 L 3.814697265625e-06 164.28857421875 L 3.814697265625e-06 0 Z" stroke="none" fill="#fff"/>
          </g>
          <g id="Union_1" data-name="Union 1" transform="translate(64.204 62.854)" fill="url(#linear-gradient-23)">
            <path d="M 86.01456451416016 320.8555908203125 L 2.499983072280884 320.8555908203125 L 2.499983072280884 191.7427062988281 L 6.035399436950684 191.7427062988281 L 8.535399436950684 191.7427062988281 L 8.535399436950684 189.2427062988281 L 8.535399436950684 78.41641998291016 L 10.72881603240967 78.41641998291016 L 13.22881603240967 78.41641998291016 L 13.22881603240967 75.91641998291016 L 13.22881603240967 2.500003814697266 L 62.54481506347656 2.500003814697266 L 62.54481506347656 75.91641998291016 L 62.54481506347656 78.41641998291016 L 65.04481506347656 78.41641998291016 L 79.30902099609375 78.41641998291016 L 79.30902099609375 189.2427062988281 L 79.30902099609375 191.7427062988281 L 81.80902099609375 191.7427062988281 L 86.01456451416016 191.7427062988281 L 86.01456451416016 320.8555908203125 Z" stroke="none"/>
            <path d="M 83.51454925537109 318.3556213378906 L 83.51454925537109 194.2427062988281 L 81.80904388427734 194.2427062988281 L 76.80904388427734 194.2427062988281 L 76.80904388427734 189.2427062988281 L 76.80904388427734 80.91643524169922 L 65.04482269287109 80.91643524169922 L 60.04481887817383 80.91643524169922 L 60.04481887817383 75.91643524169922 L 60.04481887817383 5.000022888183594 L 15.72881984710693 5.000022888183594 L 15.72881984710693 75.91643524169922 L 15.72881984710693 80.91643524169922 L 11.03541088104248 80.91643524169922 L 11.03541088104248 189.2427062988281 L 11.03541088104248 194.2427062988281 L 6.03541088104248 194.2427062988281 L 5.000001907348633 194.2427062988281 L 5.000001907348633 318.3556213378906 L 83.51454925537109 318.3556213378906 M 88.51454925537109 323.3556213378906 L 1.90041282621678e-06 323.3556213378906 L 1.90041282621678e-06 189.2427062988281 L 6.03541088104248 189.2427062988281 L 6.03541088104248 75.91643524169922 L 10.72881984710693 75.91643524169922 L 10.72881984710693 2.26828833547188e-05 L 65.04482269287109 2.26828833547188e-05 L 65.04482269287109 75.91643524169922 L 81.80904388427734 75.91643524169922 L 81.80904388427734 189.2427062988281 L 88.51454925537109 189.2427062988281 L 88.51454925537109 323.3556213378906 Z" stroke="none" fill="#42aadc"/>
          </g>
          <path id="Path_4" data-name="Path 4" d="M1208.491,1051.389l-8.263-242.4h-60.351l-8.392,242.365Z" transform="translate(-716.921 -665.531)" stroke="#00c891" stroke-width="5" fill="url(#linear-gradient-24)"/>
          <g id="Rectangle_4" data-name="Rectangle 4" transform="translate(196.305 238.685)" fill="none" stroke="#a927ff" stroke-width="1">
            <rect width="107.291" height="147.524" stroke="none"/>
            <rect x="0.5" y="0.5" width="106.291" height="146.524" fill="none"/>
          </g>
          <g id="Path_68-2" data-name="Path 68" transform="translate(196.305 238.685)" fill="none">
            <path d="M0,0H107.291V147.524H0Z" stroke="none"/>
            <path d="M 0.9999923706054688 1 L 0.9999923706054688 146.5244445800781 L 106.2905197143555 146.5244445800781 L 106.2905197143555 1 L 0.9999923706054688 1 M -7.62939453125e-06 0 L 107.2905197143555 0 L 107.2905197143555 147.5244445800781 L -7.62939453125e-06 147.5244445800781 L -7.62939453125e-06 0 Z" stroke="none" fill="#27556c"/>
          </g>
          <path id="Path_5" data-name="Path 5" d="M1522.535,492.074H1415.245V470.211l43.958-43.644.01,16.228.012,18.783h21.029V426.568l42.281,43.644" transform="translate(-1218.939 -253.09)" stroke="#fff" stroke-width="1" fill="url(#linear-gradient-25)"/>
          <path id="Path_7" data-name="Path 7" d="M1499,512.444V659.227" transform="translate(-1249.049 -273.461)" fill="none" stroke="#a927ff" stroke-width="1"/>
          <path id="Path_14-2" data-name="Path 14" d="M1499,512.444V659.227" transform="translate(-1259.779 -273.461)" fill="none" stroke="#27556c" stroke-width="1"/>
          <path id="Path_16-2" data-name="Path 16" d="M1499,512.444V659.227" transform="translate(-1281.237 -273.461)" fill="none" stroke="#27556c" stroke-width="1"/>
          <path id="Path_8" data-name="Path 8" d="M1499,512.444V659.227" transform="translate(-1238.32 -273.461)" fill="none" stroke="#a927ff" stroke-width="1"/>
          <path id="Path_11" data-name="Path 11" d="M1499,512.444V659.227" transform="translate(-1238.32 -273.461)" fill="none" stroke="#27556c" stroke-width="1"/>
          <path id="Path_9" data-name="Path 9" d="M1499,512.444V659.227" transform="translate(-1227.591 -273.461)" fill="none" stroke="#a927ff" stroke-width="1"/>
          <path id="Path_13-2" data-name="Path 13" d="M1499,512.444V659.227" transform="translate(-1216.862 -273.461)" fill="none" stroke="#27556c" stroke-width="1"/>
          <path id="Path_19-2" data-name="Path 19" d="M1419,530.644h106.949" transform="translate(-1222.695 -279.457)" fill="none" stroke="#27556c" stroke-width="1"/>
          <path id="Path_21-2" data-name="Path 21" d="M1419,530.644h106.949" transform="translate(-1222.024 -256.658)" fill="none" stroke="#27556c" stroke-width="1"/>
          <path id="Path_23-2" data-name="Path 23" d="M1419,530.644h106.949" transform="translate(-1222.695 -233.858)" fill="none" stroke="#27556c" stroke-width="1"/>
          <path id="Path_25" data-name="Path 25" d="M1419,530.644h106.949" transform="translate(-1222.695 -211.059)" fill="none" stroke="#27556c" stroke-width="1"/>
          <path id="Path_27" data-name="Path 27" d="M1419,530.644h106.949" transform="translate(-1222.695 -188.26)" fill="none" stroke="#27556c" stroke-width="1"/>
          <path id="Path_29-2" data-name="Path 29" d="M1419,530.644h106.949" transform="translate(-1222.695 -165.461)" fill="none" stroke="#27556c" stroke-width="1"/>
          <g id="Group_56" data-name="Group 56" transform="translate(196.305 238.983)">
            <path id="Path_12-2" data-name="Path 12" d="M1499,512.444V659.227" transform="translate(-1445.355 -512.444)" fill="none" stroke="#fff" stroke-width="1"/>
            <path id="Path_15-2" data-name="Path 15" d="M1499,512.444V659.227" transform="translate(-1466.813 -512.444)" fill="none" stroke="#fff" stroke-width="1"/>
            <path id="Path_17-2" data-name="Path 17" d="M1499,512.444V659.227" transform="translate(-1488.271 -512.444)" fill="none" stroke="#fff" stroke-width="1"/>
            <path id="Path_10" data-name="Path 10" d="M1499,512.444V659.227" transform="translate(-1423.897 -512.444)" fill="none" stroke="#fff" stroke-width="1"/>
            <path id="Path_18-2" data-name="Path 18" d="M1499,512.444V659.227" transform="translate(-1402.438 -512.444)" fill="none" stroke="#fff" stroke-width="1"/>
            <path id="Path_20-2" data-name="Path 20" d="M1419,530.644h106.949" transform="translate(-1419 -507.04)" fill="none" stroke="#fff" stroke-width="1"/>
            <path id="Path_22-2" data-name="Path 22" d="M1419,530.644h106.949" transform="translate(-1418.329 -484.241)" fill="none" stroke="#fff" stroke-width="1"/>
            <path id="Path_24-2" data-name="Path 24" d="M1419,530.644h106.949" transform="translate(-1419 -461.442)" fill="none" stroke="#fff" stroke-width="1"/>
            <path id="Path_26" data-name="Path 26" d="M1419,530.644h106.949" transform="translate(-1419 -438.643)" fill="none" stroke="#fff" stroke-width="1"/>
            <path id="Path_28-2" data-name="Path 28" d="M1419,530.644h106.949" transform="translate(-1419 -415.844)" fill="none" stroke="#fff" stroke-width="1"/>
            <path id="Path_30-2" data-name="Path 30" d="M1419,530.644h106.949" transform="translate(-1419 -393.044)" fill="none" stroke="#fff" stroke-width="1"/>
          </g>
          <path id="Path_31-2" data-name="Path 31" d="M882.909,196.166l74.169-75.218" transform="translate(-469.685 189.692)" fill="none" stroke="#00c891" stroke-width="4"/>
          <path id="Path_35-2" data-name="Path 35" d="M882.909,176.827l70.023-55.879" transform="translate(-466.813 132.735)" fill="none" stroke="#00c891" stroke-width="4"/>
          <path id="Path_36-2" data-name="Path 36" d="M882.909,166.729l65.931-45.781" transform="translate(-464.801 86.506)" fill="none" stroke="#00c891" stroke-width="4"/>
          <path id="Path_38-2" data-name="Path 38" d="M882.909,157.381l63.161-36.433" transform="translate(-463.46 50.256)" fill="none" stroke="#00c891" stroke-width="4"/>
          <path id="Path_42-2" data-name="Path 42" d="M882.909,148.917l61.222-27.969" transform="translate(-462.119 22.509)" fill="#a927ff" stroke="#00c891" stroke-width="4"/>
          <path id="Path_32-2" data-name="Path 32" d="M887.192,120.052l74.17,75.672" transform="translate(-471.096 189.987)" fill="none" stroke="#00c891" stroke-width="4"/>
          <path id="Path_34-2" data-name="Path 34" d="M887.192,120.052l12.8,10.451,56.91,46.473" transform="translate(-469.316 133.631)" fill="none" stroke="#00c891" stroke-width="4"/>
          <path id="Path_37-2" data-name="Path 37" d="M887.192,120.052l12.113,8.474,53.863,37.682" transform="translate(-467.596 87.402)" fill="none" stroke="#00c891" stroke-width="4"/>
          <path id="Path_39-2" data-name="Path 39" d="M887.192,120.052l11.5,6.634,51.154,29.5" transform="translate(-466.289 51.152)" fill="none" stroke="#a927ff" stroke-width="1"/>
          <path id="Path_40-2" data-name="Path 40" d="M887.192,120.052l11.5,6.634,51.154,29.5" transform="translate(-466.289 51.152)" fill="none" stroke="#00c891" stroke-width="4"/>
          <path id="Path_41-2" data-name="Path 41" d="M887.192,120.052l11.208,5.081,49.839,22.593" transform="translate(-465.349 23.405)" fill="#a927ff" stroke="#00c891" stroke-width="4"/>
          <g id="Path_105" data-name="Path 105" transform="translate(324.383 240.026)" fill="url(#linear-gradient-26)">
            <path d="M 53.145263671875 145.6833190917969 L 0.5000098347663879 145.6833190917969 L 0.5000098347663879 0.5000050067901611 L 53.145263671875 0.5000050067901611 L 53.145263671875 145.6833190917969 Z" stroke="none"/>
            <path d="M 1.000007629394531 1 L 1.000007629394531 145.1833190917969 L 52.64524841308594 145.1833190917969 L 52.64524841308594 1 L 1.000007629394531 1 M 7.62939453125e-06 0 L 53.64524841308594 0 L 53.64524841308594 146.1833190917969 L 7.62939453125e-06 146.1833190917969 L 7.62939453125e-06 0 Z" stroke="none" fill="#fff"/>
          </g>
          <path id="Path_43-2" data-name="Path 43" d="M1176.8,234.628V171.774" transform="translate(-1087.25 -171.774)" fill="none" stroke="#fff" stroke-width="3"/>
          <path id="Path_47-3" data-name="Path 47" d="M1176.8,234.628V171.774" transform="translate(-1063.781 -171.774)" fill="#fff" stroke="#fff" stroke-width="3"/>
          <path id="Path_45-2" data-name="Path 45" d="M1176.8,208.353V171.774" transform="translate(-1087.25 -145.498)" fill="none" stroke="#fff" stroke-width="8"/>
          <path id="Path_46-3" data-name="Path 46" d="M1176.8,208.353V171.774" transform="translate(-1063.781 -145.498)" fill="none" stroke="#fff" stroke-width="8"/>
          <g id="Path_78" data-name="Path 78" transform="translate(303.596 290.989)" fill="url(#linear-gradient-27)">
            <path d="M 35.71054840087891 94.72032928466797 L 0.4999991953372955 94.72032928466797 L 0.4999991953372955 0.5000021457672119 L 35.71054840087891 0.5000021457672119 L 35.71054840087891 94.72032928466797 Z" stroke="none"/>
            <path d="M 1 1 L 1 94.22032928466797 L 35.21054840087891 94.22032928466797 L 35.21054840087891 1 L 1 1 M 0 0 L 36.21054840087891 0 L 36.21054840087891 95.22032928466797 L 0 95.22032928466797 L 0 0 Z" stroke="none" fill="#fff"/>
          </g>
          <path id="Path_49-2" data-name="Path 49" d="M1646.8,641.9H1612V459.511h41.2" transform="translate(-1233.971 -256.106)" stroke="#fff" stroke-width="1" fill="url(#linear-gradient-28)"/>
          <g id="Path_79" data-name="Path 79" transform="translate(162.106 290.319)" fill="url(#linear-gradient-29)">
            <path d="M 33.69884872436523 95.39089202880859 L 0.4999993741512299 95.39089202880859 L 0.4999993741512299 0.5000047087669373 L 33.69884872436523 0.5000047087669373 L 33.69884872436523 95.39089202880859 Z" stroke="none"/>
            <path d="M 0.9999961853027344 1 L 0.9999961853027344 94.89088439941406 L 33.1988525390625 94.89088439941406 L 33.1988525390625 1 L 0.9999961853027344 1 M -3.814697265625e-06 0 L 34.1988525390625 0 L 34.1988525390625 95.89088439941406 L -3.814697265625e-06 95.89088439941406 L -3.814697265625e-06 0 Z" stroke="none" fill="#fff"/>
          </g>
          <path id="Path_50-2" data-name="Path 50" d="M1700.01,347.386V301.379" transform="translate(-1262.965 -203.929)" fill="#c27979" stroke="#fff" stroke-width="5"/>
          <path id="Path_51-2" data-name="Path 51" d="M1700.01,347.386V301.379" transform="translate(-1233.46 -203.929)" fill="#c27979" stroke="#fff" stroke-width="5"/>
          <path id="Path_57-2" data-name="Path 57" d="M52,0" transform="translate(67.445 92.167)" fill="none" stroke="#707070" stroke-width="1"/>
        </g>
      </g>
    </g>
  </g>
</svg>
