<svg xmlns="http://www.w3.org/2000/svg" xmlns:xlink="http://www.w3.org/1999/xlink" width="1356.437" height="1186.946" viewBox="0 0 1356.437 1186.946">
  <defs>
    <linearGradient id="linear-gradient" x1="0.5" y1="0.303" x2="0.5" y2="0.786" gradientUnits="objectBoundingBox">
      <stop offset="0" stop-color="#fff" stop-opacity="0"/>
      <stop offset="1" stop-color="#42aadc" stop-opacity="0.388"/>
    </linearGradient>
  </defs>
  <path id="Icon_awesome-react" data-name="Icon awesome-react" d="M1107.933,386.895q-21.46-7.153-42.919-13.511c2.385-9.8,4.5-19.6,6.623-29.407.587-2.842,1.683-8.373,1.683-8.373s8.142-277.18-62.882-318.285c-69.676-40-183.331,1.59-298.31,101.733-11.392,9.8-22.519,20.135-33.116,30.467-7.153-6.888-14.571-13.776-21.989-20.4C536.481,22.087,415.674-22.951,343.348,19.173c-69.411,40.269-90.076,159.752-60.934,309.172,2.914,14.836,6.093,29.407,9.8,44.243-16.956,4.769-33.646,10.067-49.277,15.631C101.468,437.231,0,514.59,0,594.6,0,677.257,108.091,760.18,255.127,810.516c11.922,3.974,23.844,7.948,36.03,11.392-3.974,15.9-7.418,31.527-10.6,47.687-27.817,147.036-6.093,263.6,63.318,303.609,71.531,41.329,191.809-1.06,308.907-103.587,9.273-8.213,18.545-16.691,27.818-25.7,11.657,11.392,23.844,22.254,36.03,32.851,113.39,97.494,225.455,136.969,294.6,96.964,71.531-41.329,94.845-166.641,64.643-319.24q-3.576-17.485-7.948-35.766c8.478-2.384,16.691-5.034,24.9-7.683,152.864-50.6,263.6-132.465,263.6-216.447C1356.437,514.326,1252.055,436.436,1107.933,386.895ZM749.484,161.97C848.038,76.133,939.968,42.487,981.827,66.6c44.773,25.7,61.993,129.55,33.911,265.989-1.855,9.008-3.709,17.75-6.093,26.493a1356.263,1356.263,0,0,0-178.3-28.082,1338.529,1338.529,0,0,0-112.86-140.677C728.82,180.515,738.887,171.242,749.484,161.97ZM442.961,732.1c13.511,23.049,27.288,46.1,41.859,68.617a1199.606,1199.606,0,0,1-122.927-19.87,1237.6,1237.6,0,0,1,43.183-117.893c12.187,23.314,24.638,46.363,37.885,69.147Zm-80.274-318.71c38.15-8.478,78.684-15.366,120.808-20.664-14.041,21.989-27.818,44.508-40.8,67.292-12.982,22.519-25.7,45.568-37.62,68.882-16.691-39.474-30.732-78.154-42.389-115.509Zm72.591,182.536c17.485-36.56,36.56-72.326,56.695-107.561s41.859-69.411,64.643-103.057c39.739-2.914,80.274-4.5,121.6-4.5s82.128,1.59,121.6,4.5Q833.6,435.377,864.2,487.832t57.489,107.031q-26.625,54.84-57.225,108.091c-20.134,35.236-41.594,69.412-64.113,103.323-39.474,2.914-80.538,4.239-122.132,4.239s-81.863-1.325-120.808-3.709q-34.573-50.469-65.172-103.322C471.839,668.249,453.029,632.484,435.278,595.923ZM913.74,731.567c13.511-23.314,26.228-46.893,38.68-70.736a1229.816,1229.816,0,0,1,44.773,117.364,1163.678,1163.678,0,0,1-124.517,21.194C886.983,777.135,900.494,754.351,913.74,731.567ZM951.89,528.9c-12.452-23.314-25.168-46.627-38.415-69.411Q894,425.707,872.941,392.723a1219.118,1219.118,0,0,1,121.6,21.194A1172.393,1172.393,0,0,1,951.89,528.9ZM678.748,230.851A1163.367,1163.367,0,0,1,757.167,325.7c-52.456-2.384-105.177-2.384-157.633,0C625.5,291.52,652.255,259.729,678.748,230.851ZM371.431,68.45c44.508-25.963,143.327,11.127,247.444,103.322,6.623,5.828,13.247,12.187,20.135,18.545A1345.991,1345.991,0,0,0,525.354,330.995a1396.544,1396.544,0,0,0-178.032,27.553c-3.444-13.511-6.358-27.288-9.272-41.064C313.146,189.258,329.572,92.559,371.431,68.45ZM306.523,766.8c-11.127-3.179-21.989-6.623-32.851-10.332-56.43-17.75-120.543-45.833-166.905-82.658A118.877,118.877,0,0,1,56.96,594.6c0-48.482,83.718-110.475,204.525-152.6,15.1-5.3,30.467-10.067,45.833-14.571a1408.74,1408.74,0,0,0,64.908,168.495A1448.181,1448.181,0,0,0,306.523,766.8ZM615.43,1026.434a484.9,484.9,0,0,1-149.42,93.52,117.259,117.259,0,0,1-93.52,3.444c-42.124-24.374-59.609-117.894-35.765-243.735,2.914-14.836,6.093-29.672,9.8-44.243a1325.424,1325.424,0,0,0,179.887,25.963,1398.053,1398.053,0,0,0,114.449,141.472C632.386,1011.067,623.908,1019.015,615.43,1026.434Zm64.907-64.378c-27.023-29.142-54.045-61.464-80.273-96.169,25.433,1.06,51.661,1.589,78.154,1.589,27.288,0,54.046-.53,80.538-1.854a1142.553,1142.553,0,0,1-78.419,96.434Zm346.262,79.479a117.742,117.742,0,0,1-43.713,82.922c-42.124,24.373-131.934-7.418-228.9-90.606-11.127-9.538-22.254-19.87-33.646-30.467a1310.568,1310.568,0,0,0,111.8-142,1306.022,1306.022,0,0,0,180.682-27.818c2.649,10.862,5.034,21.724,7.153,32.321A482.954,482.954,0,0,1,1026.6,1041.535Zm48.217-284.8c-7.418,2.385-14.836,4.769-22.519,6.888A1345.776,1345.776,0,0,0,984.741,594.6a1339.117,1339.117,0,0,0,64.908-166.64c13.776,3.974,27.023,8.213,39.739,12.452,123.457,42.389,210.089,105.442,210.089,153.659C1299.477,646,1207.017,713.022,1074.817,756.736ZM678.218,717A121.337,121.337,0,1,0,556.881,595.659,121.319,121.319,0,0,0,678.218,717Z" transform="translate(0 -2.251)" fill="url(#linear-gradient)"/>
</svg>
