<svg xmlns="http://www.w3.org/2000/svg" xmlns:xlink="http://www.w3.org/1999/xlink" width="1251.423" height="1186.806" viewBox="0 0 1251.423 1186.806">
  <defs>
    <linearGradient id="linear-gradient" x1="0.487" y1="0.394" x2="0.488" y2="0.835" gradientUnits="objectBoundingBox">
      <stop offset="0" stop-color="#fff" stop-opacity="0"/>
      <stop offset="1" stop-color="#42aadc" stop-opacity="0.31"/>
    </linearGradient>
  </defs>
  <path id="Icon_simple-redux" data-name="Icon simple-redux" d="M867.34,829.177c45.315-3.911,80.462-43.8,78.168-91.465-2.4-47.662-41.457-85.938-89.066-85.938H853.26c-49.174,1.617-87.5,42.969-85.938,92.247a95.2,95.2,0,0,0,25.76,60.125c-54.65,106.275-136.676,184.391-260.942,250.043-83.591,43.7-171.875,60.177-257.813,48.444-71.858-10.117-128.072-42.239-162.489-93.76-51.521-78.168-56.214-162.489-13.3-246.862C129.882,701.052,176.71,656.519,208,634.618c-7.822-20.285-17.208-54.65-21.9-80.41C-45.226,719.878-21.708,946.4,48.585,1053.46c52.355,78.116,159.412,128.072,276.586,128.072,31.236,0,64.088-2.294,96.106-10.116,203.163-39.058,357.048-160.925,445.333-340.622l.73-1.617Zm278.88-195.341C1025.188,491.631,847,413.516,643.84,413.516H617.245c-13.193-28.889-43.647-46.88-78.064-46.88h-2.347c-49.174,0-87.5,42.239-85.886,91.413,1.564,46.828,41.4,85.938,89.067,85.938h3.859c35.2-1.564,65.653-23.466,78.116-54.7h28.941c120.407,0,234.4,35.147,338.327,103.876,79.628,52.355,136.728,121.084,168.747,203.163,28.055,67.165,26.543,132.818-2.347,187.572-44.533,85.886-119.572,131.253-218.755,131.253-62.524,0-123.431-19.555-154.719-33.582-18.721,15.539-50.009,41.352-72.692,57,68.729,31.184,138.293,49.174,205.458,49.174,152.373,0,265.583-85.886,308.6-168.747,46.828-93.76,42.969-251.555-76.6-386.72Zm-807.8,223.4c1.512,46.88,41.352,85.938,89.067,85.938h3.129c50.009-1.564,88.284-42.917,85.938-92.2,0-46.88-40.622-85.886-88.284-85.886h-3.181c-3.129,0-7.77,0-11.733,1.512-64.818-109.4-92.2-226.629-81.974-353.085,6.205-95.324,37.493-178.185,93.708-246.914,46.88-58.613,135.164-87.554,195.341-89.066C789.172,74.354,859.518,284.609,864.941,368.2l78.116,23.414C925.066,135.366,765.758.932,613.386.932,470.4.932,338.417,104.86,285.227,257.232c-72.64,203.163-24.978,398.453,64.088,554.736-7.77,10.169-12.463,28.107-10.9,45.263Z" transform="translate(0 -0.932)" fill="url(#linear-gradient)"/>
</svg>
