<svg xmlns="http://www.w3.org/2000/svg" xmlns:xlink="http://www.w3.org/1999/xlink" width="817.696" height="386.862" viewBox="0 0 817.696 386.862">
  <defs>
    <linearGradient id="linear-gradient" x1="1.256" y1="0.916" x2="0" y2="0.624" gradientUnits="objectBoundingBox">
      <stop offset="0" stop-color="#0084c4"/>
      <stop offset="1" stop-color="#27556c"/>
    </linearGradient>
    <linearGradient id="linear-gradient-2" x1="0.851" y1="0.961" x2="0.251" y2="0.707" xlink:href="#linear-gradient"/>
    <linearGradient id="linear-gradient-3" x1="0.944" y1="0.836" x2="-0.343" y2="0.134" xlink:href="#linear-gradient"/>
    <linearGradient id="linear-gradient-4" x1="1" y1="0.803" x2="-0.491" y2="0.5" xlink:href="#linear-gradient"/>
    <linearGradient id="linear-gradient-5" x1="0.655" y1="0.803" x2="0.066" y2="-0.271" xlink:href="#linear-gradient"/>
    <linearGradient id="linear-gradient-6" x1="1" y1="0.792" x2="-0.018" y2="-0.181" gradientUnits="objectBoundingBox">
      <stop offset="0" stop-color="#27556c"/>
      <stop offset="1" stop-color="#184155"/>
    </linearGradient>
    <linearGradient id="linear-gradient-7" x1="1" y1="0.759" x2="-0.039" gradientUnits="objectBoundingBox">
      <stop offset="0" stop-color="#27556c"/>
      <stop offset="1" stop-color="#142b36"/>
    </linearGradient>
    <linearGradient id="linear-gradient-8" x1="0.674" y1="0.5" x2="0.238" y2="0.202" gradientUnits="objectBoundingBox">
      <stop offset="0" stop-color="#42aadc"/>
      <stop offset="1" stop-color="#1783b7"/>
    </linearGradient>
    <linearGradient id="linear-gradient-9" x1="0.184" y1="0.279" x2="0.877" y2="0.904" gradientUnits="objectBoundingBox">
      <stop offset="0" stop-color="#27556c"/>
      <stop offset="1" stop-color="#0084c4"/>
    </linearGradient>
    <linearGradient id="linear-gradient-10" x1="1" y1="0.735" x2="-0.095" y2="0.602" xlink:href="#linear-gradient"/>
    <linearGradient id="linear-gradient-11" x1="1.284" y1="0.752" x2="-1.222" y2="0.102" xlink:href="#linear-gradient"/>
    <linearGradient id="linear-gradient-12" x1="0.946" y1="0.741" x2="-0.288" y2="0.5" xlink:href="#linear-gradient"/>
    <linearGradient id="linear-gradient-13" x1="0.93" y1="0.777" x2="-0.222" y2="0.5" xlink:href="#linear-gradient"/>
    <linearGradient id="linear-gradient-14" x1="0.466" y1="0.975" x2="0.478" y2="-0.073" xlink:href="#linear-gradient"/>
    <linearGradient id="linear-gradient-15" x1="1" y1="0.724" x2="-0.095" y2="0.244" gradientUnits="objectBoundingBox">
      <stop offset="0" stop-color="#42aadc"/>
      <stop offset="1" stop-color="#13719e"/>
    </linearGradient>
    <linearGradient id="linear-gradient-16" x1="0.834" y1="0.696" x2="0.054" y2="-0.018" xlink:href="#linear-gradient"/>
    <linearGradient id="linear-gradient-17" x1="0.913" y1="0.685" x2="-0.073" y2="0.202" xlink:href="#linear-gradient"/>
    <linearGradient id="linear-gradient-18" x1="0.918" y1="0.553" x2="0.13" y2="0.32" xlink:href="#linear-gradient"/>
  </defs>
  <g id="Group_97" data-name="Group 97" transform="translate(-212.956 -54.741)">
    <g id="Group_62" data-name="Group 62" transform="translate(518.66 179.334)">
      <g id="Path_104" data-name="Path 104" transform="translate(5.453 50.709)" fill="url(#linear-gradient)">
        <path d="M 15.85766792297363 120.5467681884766 L 0.5000060796737671 120.5467681884766 L 0.5000060796737671 0.4999994933605194 L 15.85766792297363 0.4999994933605194 L 15.85766792297363 120.5467681884766 Z" stroke="none"/>
        <path d="M 1.000003814697266 1 L 1.000003814697266 120.0467681884766 L 15.35766983032227 120.0467681884766 L 15.35766983032227 1 L 1.000003814697266 1 M 3.814697265625e-06 0 L 16.35766983032227 0 L 16.35766983032227 121.0467681884766 L 3.814697265625e-06 121.0467681884766 L 3.814697265625e-06 0 Z" stroke="none" fill="#fff"/>
      </g>
      <g id="Path_102" data-name="Path 102" transform="translate(189.749 50.709)" fill="url(#linear-gradient-2)">
        <path d="M 16.94818305969238 120.5467681884766 L 0.4999982714653015 120.5467681884766 L 0.4999982714653015 0.4999994933605194 L 16.94818305969238 0.4999994933605194 L 16.94818305969238 120.5467681884766 Z" stroke="none"/>
        <path d="M 1.000007629394531 1 L 1.000007629394531 120.0467681884766 L 16.44817352294922 120.0467681884766 L 16.44817352294922 1 L 1.000007629394531 1 M 7.62939453125e-06 0 L 17.44817352294922 0 L 17.44817352294922 121.0467681884766 L 7.62939453125e-06 121.0467681884766 L 7.62939453125e-06 0 Z" stroke="none" fill="#fff"/>
      </g>
      <g id="Path_103" data-name="Path 103" transform="translate(8.724 111.777)" fill="url(#linear-gradient-3)">
        <path d="M 17.0387020111084 80.28835296630859 L 1.499995231628418 80.28835296630859 L 1.499995231628418 1.500003814697266 L 17.0387020111084 1.500003814697266 L 17.0387020111084 80.28835296630859 Z" stroke="none"/>
        <path d="M 3.000001907348633 2.999992370605469 L 3.000001907348633 78.78835296630859 L 15.53869438171387 78.78835296630859 L 15.53869438171387 2.999992370605469 L 3.000001907348633 2.999992370605469 M 1.9073486328125e-06 -7.62939453125e-06 L 18.53869438171387 -7.62939453125e-06 L 18.53869438171387 81.78835296630859 L 1.9073486328125e-06 81.78835296630859 L 1.9073486328125e-06 -7.62939453125e-06 Z" stroke="none" fill="#fff"/>
      </g>
      <g id="Rectangle_102" data-name="Rectangle 102" transform="translate(183.206 111.777)" stroke="#fff" stroke-width="3" fill="url(#linear-gradient-4)">
        <rect width="19.629" height="81.788" stroke="none"/>
        <rect x="1.5" y="1.5" width="16.629" height="78.788" fill="none"/>
      </g>
      <g id="Path_59" data-name="Path 59" transform="translate(0 45.66)" fill="url(#linear-gradient-5)">
        <path d="M 209.4061584472656 67.54721832275391 L 6.113810539245605 67.54721832275391 L 1.605875611305237 1.499994277954102 L 213.3451538085938 1.499994277954102 L 209.4061584472656 67.54721832275391 Z" stroke="none"/>
        <path d="M 3.211715698242188 2.999984741210938 L 7.514877319335938 66.04722595214844 L 207.9929656982422 66.04722595214844 L 211.7530059814453 2.999984741210938 L 3.211715698242188 2.999984741210938 M -1.52587890625e-05 -1.52587890625e-05 L 214.937255859375 -1.52587890625e-05 L 210.8193664550781 69.04722595214844 L 4.712661743164063 69.04722595214844 L -1.52587890625e-05 -1.52587890625e-05 Z" stroke="none" fill="#fff"/>
      </g>
      <g id="Group_41" data-name="Group 41" transform="translate(16.15 0)">
        <g id="Group_40" data-name="Group 40" transform="translate(0 61.179)">
          <path id="Path_40" data-name="Path 40" d="M2159.675,1229.161,2157,1194.87h183.036l-1.781,34.291Z" transform="translate(-2157.003 -1194.87)" fill="url(#linear-gradient-6)"/>
          <line id="Line_10" data-name="Line 10" y1="1.67" x2="169.834" transform="translate(4.731 4.806)" fill="none" stroke="#fff" stroke-width="1"/>
          <line id="Line_11" data-name="Line 11" x1="167.607" y2="2.227" transform="translate(6.959 8.704)" fill="none" stroke="#fff" stroke-width="1"/>
          <line id="Line_12" data-name="Line 12" y1="1.114" x2="165.379" transform="translate(8.072 14.272)" fill="none" stroke="#fff" stroke-width="1"/>
          <line id="Line_13" data-name="Line 13" x1="163.152" y2="0.557" transform="translate(8.072 17.613)" fill="none" stroke="#fff" stroke-width="1"/>
          <line id="Line_14" data-name="Line 14" y1="2.227" x2="160.368" transform="translate(8.629 20.954)" fill="none" stroke="#fff" stroke-width="1"/>
          <line id="Line_15" data-name="Line 15" x1="156.47" transform="translate(11.413 25.965)" fill="none" stroke="#fff" stroke-width="1"/>
          <line id="Line_16" data-name="Line 16" x2="156.47" transform="translate(11.413 30.977)" fill="none" stroke="#fff" stroke-width="1"/>
          <line id="Line_17" data-name="Line 17" x2="6.125" y2="25.057" transform="translate(4.731 6.476)" fill="none" stroke="#fff" stroke-width="1"/>
          <line id="Line_18" data-name="Line 18" x1="6.682" y2="26.728" transform="translate(167.883 4.806)" fill="none" stroke="#fff" stroke-width="1"/>
          <line id="Line_19" data-name="Line 19" x1="4.455" y2="25.614" transform="translate(150.064 5.919)" fill="none" stroke="#fff" stroke-width="1"/>
          <line id="Line_20" data-name="Line 20" x1="5.568" y2="25.614" transform="translate(136.7 5.919)" fill="none" stroke="#fff" stroke-width="1"/>
          <line id="Line_32" data-name="Line 32" x1="5.568" y2="25.614" transform="translate(130.018 5.363)" fill="none" stroke="#fff" stroke-width="1"/>
          <line id="Line_21" data-name="Line 21" x1="2.227" y2="25.614" transform="translate(123.893 5.919)" fill="none" stroke="#fff" stroke-width="1"/>
          <line id="Line_22" data-name="Line 22" x1="6.125" y2="26.728" transform="translate(104.961 4.806)" fill="none" stroke="#fff" stroke-width="1"/>
          <line id="Line_23" data-name="Line 23" x1="5.568" y2="25.614" transform="translate(88.813 5.919)" fill="none" stroke="#fff" stroke-width="1"/>
          <line id="Line_24" data-name="Line 24" x1="5.011" y1="25.057" transform="translate(35.357 6.476)" fill="none" stroke="#fff" stroke-width="1"/>
          <line id="Line_25" data-name="Line 25" x1="5.568" y1="25.057" transform="translate(19.766 6.476)" fill="none" stroke="#fff" stroke-width="1"/>
          <line id="Line_26" data-name="Line 26" x1="0.557" y1="25.614" transform="translate(49.278 5.919)" fill="none" stroke="#fff" stroke-width="1"/>
          <line id="Line_31" data-name="Line 31" y1="23.944" x2="2.784" transform="translate(57.073 5.919)" fill="none" stroke="#fff" stroke-width="1"/>
          <line id="Line_27" data-name="Line 27" x1="6.125" y2="25.614" transform="translate(74.335 5.919)" fill="none" stroke="#fff" stroke-width="1"/>
          <line id="Line_28" data-name="Line 28" y1="25.057" x2="4.455" transform="translate(63.755 6.476)" fill="none" stroke="#fff" stroke-width="1"/>
          <line id="Line_29" data-name="Line 29" y1="25.057" x2="6.682" transform="translate(96.608 6.476)" fill="none" stroke="#fff" stroke-width="1"/>
          <line id="Line_30" data-name="Line 30" y1="25.614" x2="3.341" transform="translate(113.87 5.919)" fill="none" stroke="#fff" stroke-width="1"/>
        </g>
        <ellipse id="Ellipse_15" data-name="Ellipse 15" cx="11.996" cy="7.088" rx="11.996" ry="7.088" transform="translate(59.095 248.091)" fill="#27556c"/>
        <ellipse id="Ellipse_16" data-name="Ellipse 16" cx="11.996" cy="7.088" rx="11.996" ry="7.088" transform="translate(109.259 248.091)" fill="#27556c"/>
        <path id="Path_41" data-name="Path 41" d="M0,0H80.184V50.115H0Z" transform="translate(49.556)" fill="url(#linear-gradient-7)"/>
        <g id="Rectangle_90" data-name="Rectangle 90" transform="translate(60.186 5.998)" fill="#fff" stroke="#fff" stroke-width="1">
          <rect width="58.888" height="38.168" stroke="none"/>
          <rect x="0.5" y="0.5" width="57.888" height="37.168" fill="none"/>
        </g>
        <path id="Path_28" data-name="Path 28" d="M2441.494,1580.916c-17.376,4.918-18.141,13.114-26.229,17.486s-2.93,10.444-6.119,0-5.682-27.977-5.682-27.977l-13.552,2.623s-2.4,33.987,3.934,48.085,12.822,12.288,21.419,8.306,12.677-8.306,12.677-8.306l-6.995,81.744h96.607l-20.545-83.929s2.447,2.1,13.551,5.683,22.949,6.557,30.6-7.868,0-49.833,0-49.833l-14.425-3.5s-2.469,18.711-4.809,27.1,2.732,2.951-6.557,0-12.979-12.591-30.6-11.8S2458.87,1576,2441.494,1580.916Z" transform="translate(-2373.276 -1479.747)" stroke="#fff" stroke-width="1" fill="url(#linear-gradient-8)"/>
        <path id="Path_29" data-name="Path 29" d="M2390.894,1573.855l-2.826-9.772,13.186-1.884v4.474l4.592-4.474,1.766.706-3.531,8.123Z" transform="translate(-2374.111 -1480.482)" fill="#fe6185"/>
        <path id="Path_30" data-name="Path 30" d="M2406.134,1574.042l3.053-9.928-14.249-1.914v4.545l-4.962-4.545-1.909.717,3.817,8.254Z" transform="translate(-2238.479 -1487.059)" fill="#fe6185"/>
        <line id="Line_4" data-name="Line 4" x2="1.598" y2="4.793" transform="translate(17.352 83.305)" fill="none" stroke="#fff" stroke-width="1"/>
        <line id="Line_5" data-name="Line 5" x2="1.467" y2="5.973" transform="translate(21.038 82.688)" fill="none" stroke="#fff" stroke-width="1"/>
        <line id="Line_6" data-name="Line 6" y2="4.793" transform="translate(24.233 82.198)" fill="none" stroke="#fff" stroke-width="1"/>
        <line id="Line_7" data-name="Line 7" x1="1.598" y2="4.793" transform="translate(166.913 76.915)" fill="none" stroke="#fff" stroke-width="1"/>
        <path id="Path_31" data-name="Path 31" d="M3.2,0,2.6.9,0,4.793" transform="translate(161.749 76.845) rotate(-13)" fill="none" stroke="#fff" stroke-width="1"/>
        <line id="Line_9" data-name="Line 9" x2="1.598" y2="4.793" transform="translate(160.768 75.679) rotate(17)" fill="none" stroke="#fff" stroke-width="1"/>
        <path id="Path_33" data-name="Path 33" d="M0,0" transform="translate(19.766 84.917)" fill="none" stroke="#fff" stroke-width="1"/>
        <g id="Group_39" data-name="Group 39" transform="translate(48.999 19.101)">
          <path id="Path_36" data-name="Path 36" d="M1.949,0C3.025,0,3.9,6.607,3.9,14.756S3.025,29.512,1.949,29.512,0,22.906,0,14.756.873,0,1.949,0Z" transform="translate(80.184 33.241)" fill="#fe6185"/>
          <path id="Path_32" data-name="Path 32" d="M38.336,0C59.508,0,76.672,19.065,76.672,42.583S59.508,85.165,38.336,85.165,0,66.1,0,42.583,17.164,0,38.336,0Z" transform="translate(3.93 0)" fill="#1d1d1d"/>
          <path id="Path_35" data-name="Path 35" d="M2.227,0c1.23,0,2.227,6.607,2.227,14.756s-1,14.756-2.227,14.756S0,22.906,0,14.756,1,0,2.227,0Z" transform="translate(0 33.241)" fill="#fe6185"/>
        </g>
        <path id="Path_34" data-name="Path 34" d="M2236.637,1293.369s2.815,16.59,6.47,26.076,5.9,11.038,8.149,11.87,45.24,1.938,49.207,1.108,6.716-5.05,10.16-14.537,5.294-24.517,5.294-24.517,1.968,27.669-7.871,37.946-15.182,14.493-31.207,14.23-17.712-3.162-30.925-14.23S2236.637,1293.369,2236.637,1293.369Z" transform="translate(-2184.976 -1240.821)" fill="#fe6185"/>
        <path id="Path_37" data-name="Path 37" d="M0,37" transform="translate(53.176 40.121)" fill="none" stroke="#fff" stroke-width="1"/>
        <g id="Path_38" data-name="Path 38" transform="translate(58.465 223.29)" fill="#0084c4">
          <path d="M 24.55745697021484 32.49829864501953 L 0.4999965727329254 32.49829864501953 L 0.4999965727329254 0.4999993145465851 L 24.55745697021484 0.4999993145465851 L 24.55745697021484 32.49829864501953 Z" stroke="none"/>
          <path d="M 0.9999961853027344 1 L 0.9999961853027344 31.99829864501953 L 24.05745697021484 31.99829864501953 L 24.05745697021484 1 L 0.9999961853027344 1 M -3.814697265625e-06 0 L 25.05745697021484 0 L 25.05745697021484 32.99829864501953 L -3.814697265625e-06 32.99829864501953 L -3.814697265625e-06 0 Z" stroke="none" fill="#fff"/>
        </g>
        <g id="Path_39" data-name="Path 39" transform="translate(108.58 223.29)" fill="#0084c4">
          <path d="M 24.55745697021484 32.49829864501953 L 0.4999965727329254 32.49829864501953 L 0.4999965727329254 0.4999993145465851 L 24.55745697021484 0.4999993145465851 L 24.55745697021484 32.49829864501953 Z" stroke="none"/>
          <path d="M 0.9999961853027344 1 L 0.9999961853027344 31.99829864501953 L 24.05745697021484 31.99829864501953 L 24.05745697021484 1 L 0.9999961853027344 1 M -3.814697265625e-06 0 L 25.05745697021484 0 L 25.05745697021484 32.99829864501953 L -3.814697265625e-06 32.99829864501953 L -3.814697265625e-06 0 Z" stroke="none" fill="#fff"/>
        </g>
        <g id="Rectangle_92" data-name="Rectangle 92" transform="translate(48.19 221.919)" fill="#0084c4" stroke="#fff" stroke-width="1">
          <rect width="95.965" height="8.724" stroke="none"/>
          <rect x="0.5" y="0.5" width="94.965" height="7.724" fill="none"/>
        </g>
        <g id="Rectangle_93" data-name="Rectangle 93" transform="translate(49.281 134.678)" stroke="#fff" stroke-width="3" fill="url(#linear-gradient-9)">
          <rect width="83.969" height="95.965" rx="10" stroke="none"/>
          <rect x="1.5" y="1.5" width="80.969" height="92.965" rx="8.5" fill="none"/>
        </g>
        <g id="Path_70" data-name="Path 70" transform="translate(62.367 229.553)" fill="url(#linear-gradient-10)">
          <path d="M 9.314602851867676 30.03432273864746 L 0.500002384185791 30.03432273864746 L 0.500002384185791 0.5000023245811462 L 9.314602851867676 0.5000023245811462 L 9.314602851867676 30.03432273864746 Z" stroke="none"/>
          <path d="M 1.000001907348633 1.000001907348633 L 1.000001907348633 29.53432273864746 L 8.814601898193359 29.53432273864746 L 8.814601898193359 1.000001907348633 L 1.000001907348633 1.000001907348633 M 1.9073486328125e-06 1.9073486328125e-06 L 9.814602851867676 1.9073486328125e-06 L 9.814602851867676 30.53432273864746 L 1.9073486328125e-06 30.53432273864746 L 1.9073486328125e-06 1.9073486328125e-06 Z" stroke="none" fill="#fff"/>
        </g>
        <g id="Rectangle_96" data-name="Rectangle 96" transform="translate(115.802 229.553)" stroke="#fff" stroke-width="1" fill="url(#linear-gradient-11)">
          <rect width="8.724" height="30.534" stroke="none"/>
          <rect x="0.5" y="0.5" width="7.724" height="29.534" fill="none"/>
        </g>
        <g id="Path_71" data-name="Path 71" transform="translate(52.552 227.372)" fill="url(#linear-gradient-12)">
          <path d="M 8.224095344543457 24.58176422119141 L 0.4999952912330627 24.58176422119141 L 0.4999952912330627 0.5000039935112 L 8.224095344543457 0.5000039935112 L 8.224095344543457 24.58176422119141 Z" stroke="none"/>
          <path d="M 0.999995231628418 1.000003814697266 L 0.999995231628418 24.08176422119141 L 7.724095344543457 24.08176422119141 L 7.724095344543457 1.000003814697266 L 0.999995231628418 1.000003814697266 M -4.76837158203125e-06 3.814697265625e-06 L 8.724095344543457 3.814697265625e-06 L 8.724095344543457 25.08176422119141 L -4.76837158203125e-06 25.08176422119141 L -4.76837158203125e-06 3.814697265625e-06 Z" stroke="none" fill="#fff"/>
        </g>
        <g id="Path_69" data-name="Path 69" transform="translate(105.987 229.553)" fill="url(#linear-gradient-13)">
          <path d="M 8.224095344543457 22.40074157714844 L 0.4999952912330627 22.40074157714844 L 0.4999952912330627 0.5000007748603821 L 8.224095344543457 0.5000007748603821 L 8.224095344543457 22.40074157714844 Z" stroke="none"/>
          <path d="M 0.999995231628418 1 L 0.999995231628418 21.90074157714844 L 7.724095344543457 21.90074157714844 L 7.724095344543457 1 L 0.999995231628418 1 M -4.76837158203125e-06 0 L 8.724095344543457 0 L 8.724095344543457 22.90074157714844 L -4.76837158203125e-06 22.90074157714844 L -4.76837158203125e-06 0 Z" stroke="none" fill="#fff"/>
        </g>
      </g>
    </g>
    <g id="Group_61" data-name="Group 61" transform="translate(814.027 50.67)">
      <g id="Group_47" data-name="Group 47" transform="translate(0 224.448) rotate(-73)">
        <g id="Path_56" data-name="Path 56" transform="translate(2.875 92.811) rotate(-21)" fill="url(#linear-gradient-14)">
          <path d="M 233.3832855224609 16.19502830505371 L 12.42740440368652 11.611647605896 L 2.380157232284546 1.051001787185669 L 228.2554016113281 5.869539260864258 L 233.3832855224609 16.19502830505371 Z" stroke="none"/>
          <path d="M 231.7532653808594 15.16101932525635 L 227.6289825439453 6.856407165527344 L 4.760358333587646 2.10199761390686 L 12.86474704742432 10.62053775787354 L 231.7532653808594 15.16101932525635 M 235.0133666992188 17.22906684875488 L 11.99011325836182 12.60281753540039 L 1.947021519299597e-05 5.035400590713834e-06 L 228.8818359375 4.882692337036133 L 235.0133666992188 17.22906684875488 Z" stroke="none" fill="#fff"/>
        </g>
        <g id="Path_57" data-name="Path 57" transform="translate(0 84.095) rotate(-21)" fill="#27556c">
          <path d="M 228.3123016357422 13.31185531616211 L 1.493234395980835 8.193882942199707 L 4.521671295166016 1.016617774963379 L 232.8067321777344 6.686171054840088 L 228.3123016357422 13.31185531616211 Z" stroke="none"/>
          <path d="M 227.7904205322266 12.29980278015137 L 230.9510803222656 7.640370845794678 L 5.178058624267578 2.033209562301636 L 2.986427307128906 7.227301597595215 L 227.7904205322266 12.29980278015137 M 228.8341522216797 14.32387161254883 L -3.112792910542339e-06 9.160433769226074 L 3.865215539932251 -3.601074240577873e-06 L 234.6623687744141 5.731934070587158 L 228.8341522216797 14.32387161254883 Z" stroke="none" fill="#fff"/>
        </g>
        <g id="Path_55" data-name="Path 55" transform="translate(220.654 5.48) rotate(31)" fill="#00c891">
          <path d="M 14.4301233291626 10.99176120758057 L 3.86256742477417 9.985698699951172 L 1.427195906639099 1.372243523597717 L 9.467652320861816 3.308360815048218 L 14.4301233291626 10.99176120758057 Z" stroke="none"/>
          <path d="M 12.47040176391602 9.800666809082031 L 8.844661712646484 4.18692684173584 L 2.854382276535034 2.744486093521118 L 4.638636112213135 9.055059432983398 L 12.47040176391602 9.800666809082031 M 16.38986015319824 12.18285655975342 L 3.086491107940674 10.91633605957031 L 1.030273438118456e-06 -3.627471869549481e-06 L 10.09066104888916 2.429796457290649 L 16.38986015319824 12.18285655975342 Z" stroke="none" fill="#fff"/>
        </g>
      </g>
      <path id="Path_42" data-name="Path 42" d="M3128.139,1464.863c6,29.8,16.582,48.952,20.853,84.882s-12.3,62.762-5.61,68.548c3.165,2.737,12.85,10.031,32.328,8.361s31.213-5.574,37.9-12.819,3.832-64.089,3.832-64.089-3.378-73.455-9.673-85.555-7.983-18.751-7.983-18.751Z" transform="translate(-3002.929 -1316.344)" stroke="#fff" stroke-width="3" fill="url(#linear-gradient-15)"/>
      <g id="Path_43" data-name="Path 43" transform="matrix(0.966, -0.259, 0.259, 0.966, 119.14, 131.632)" fill="#27556c">
        <path d="M 38.27756881713867 33.83314895629883 C 33.20636749267578 33.83314895629883 28.29020309448242 33.37539291381836 23.66561317443848 32.47261810302734 C 19.22514724731445 31.60577201843262 15.24637985229492 30.36903953552246 11.83983516693115 28.79678344726563 C 8.506069183349609 27.25812721252441 5.906691074371338 25.48604011535645 4.113913536071777 23.52976226806641 C 2.379446744918823 21.63711738586426 1.500002145767212 19.66444969177246 1.500002145767212 17.66657257080078 C 1.500002145767212 15.66869449615479 2.379446744918823 13.6960277557373 4.113913536071777 11.80338382720947 C 5.906691074371338 9.847105979919434 8.506069183349609 8.075016975402832 11.83983516693115 6.536361694335938 C 15.24637985229492 4.96410608291626 19.22514724731445 3.727383613586426 23.66561317443848 2.860539197921753 C 28.29020309448242 1.957761406898499 33.20636749267578 1.500005960464478 38.27756881713867 1.500005960464478 C 43.40723419189453 1.500005960464478 48.36342620849609 1.904617071151733 53.00848007202148 2.702605962753296 C 57.54896926879883 3.482628107070923 61.59765625 4.603683471679688 65.04209899902344 6.034627914428711 C 71.85208129882813 8.863717079162598 75.60249328613281 12.62178325653076 75.60249328613281 16.61653900146484 C 75.60249328613281 18.62305068969727 74.69100189208984 20.65451622009277 72.89333343505859 22.65449523925781 C 71.05970001220703 24.69451713562012 68.31563568115234 26.64206123352051 64.95781707763672 28.28659439086914 C 61.45597076416016 30.00166130065918 57.41533660888672 31.3566951751709 52.94812393188477 32.31406021118164 C 48.24465942382813 33.32205200195313 43.30876922607422 33.83314895629883 38.27756881713867 33.83314895629883 Z" stroke="none"/>
        <path d="M 38.27757263183594 2.999996185302734 C 33.30261993408203 2.999996185302734 28.48313522338867 3.448396682739258 23.95301055908203 4.332748413085938 C 19.63014602661133 5.1766357421875 15.76617050170898 6.376260757446289 12.46840667724609 7.898298263549805 C 6.451095581054688 10.67552185058594 3 14.23592185974121 3 17.66657257080078 C 3 21.09722137451172 6.451095581054688 24.65762329101563 12.46840667724609 27.43484687805176 C 15.76617050170898 28.95688438415527 19.63014602661133 30.15650939941406 23.95301055908203 31.00039672851563 C 28.48313522338867 31.88474655151367 33.30261993408203 32.33314895629883 38.27757263183594 32.33314895629883 C 43.20330810546875 32.33314895629883 48.033447265625 31.83325958251953 52.63379669189453 30.84736061096191 C 56.98152160644531 29.91559791564941 60.90594482421875 28.60079765319824 64.29804992675781 26.93948364257813 C 70.43728637695313 23.93273544311523 74.10249328613281 20.07368469238281 74.10249328613281 16.61654663085938 C 74.10249328613281 15.05965995788574 73.35252380371094 13.51012229919434 71.8734130859375 12.01100921630859 C 70.21722412109375 10.33241081237793 67.65599822998047 8.744810104370117 64.46663665771484 7.41984748840332 C 61.12538528442383 6.031772613525391 57.18486022949219 4.942047119140625 52.75450897216797 4.180948257446289 C 48.19310760498047 3.397321701049805 43.32236099243164 2.999996185302734 38.27757263183594 2.999996185302734 M 38.27757263183594 -3.814697265625e-06 C 59.41768646240234 -3.814697265625e-06 77.10249328613281 6.859560012817383 77.10249328613281 16.61654663085938 C 77.10249328613281 26.37351036071777 59.41768646240234 35.33314895629883 38.27757263183594 35.33314895629883 C 17.13744735717773 35.33314895629883 0 27.42354774475098 0 17.66657257080078 C 0 7.909597396850586 17.13744735717773 -3.814697265625e-06 38.27757263183594 -3.814697265625e-06 Z" stroke="none" fill="#fff"/>
      </g>
      <g id="Group_44" data-name="Group 44" transform="translate(136.171 121.729)">
        <path id="Path_47" data-name="Path 47" d="M0,.611S8.482-.415,10.1.192,6.453,3.037,6.453,3.037Z" transform="matrix(0.629, -0.777, 0.777, 0.629, 0, 8.085)" fill="none" stroke="#fe6185" stroke-width="1"/>
        <path id="Path_46" data-name="Path 46" d="M0,.45S1.638.211,3.3.07a8.089,8.089,0,0,1,2.2.006C6.4.369,2.735,1.715,2.735,1.715Z" transform="translate(2.159 6.578) rotate(-51)" fill="none" stroke="#fe6185" stroke-width="1"/>
      </g>
      <g id="Group_45" data-name="Group 45" transform="matrix(0.978, -0.208, 0.208, 0.978, 181.519, 114.679)">
        <path id="Path_47-2" data-name="Path 47" d="M0,2.314s8.769,1.259,10.417.68S6.592,0,6.592,0Z" transform="translate(6.75 10.316) rotate(-129)" fill="none" stroke="#fe6185" stroke-width="1"/>
        <path id="Path_46-2" data-name="Path 46" d="M0,1.187s1.742.322,3.5.545a8.721,8.721,0,0,0,2.32.094C6.769,1.563,2.831,0,2.831,0Z" transform="translate(5.593 8.001) rotate(-129)" fill="none" stroke="#fe6185" stroke-width="1"/>
      </g>
      <g id="Group_43" data-name="Group 43" transform="translate(163.183 144.539)">
        <g id="Group_42" data-name="Group 42" transform="translate(0 0)">
          <path id="Path_45" data-name="Path 45" d="M3194.236,1481.374s-1.758-7.244-.6-7.6,5.231,6.183,5.231,6.183Z" transform="translate(-3191.896 -1471.035)" fill="none" stroke="#fe6185" stroke-width="1"/>
          <path id="Path_44" data-name="Path 44" d="M3194.713,1484.692s-2.6-10.4-.888-10.909,7.738,8.88,7.738,8.88Z" transform="translate(-3193.241 -1473.763)" fill="none" stroke="#fe6185" stroke-width="1"/>
        </g>
      </g>
      <path id="Path_48" data-name="Path 48" d="M0,0S.68.235,5.2,2.5c1.044.523,2.564,2.112,3.545,2.587a7.916,7.916,0,0,0,3.463.825" transform="translate(143.824 218.394) rotate(3)" fill="none" stroke="#fff" stroke-width="1"/>
      <path id="Path_49" data-name="Path 49" d="M0,0" transform="matrix(0.985, 0.174, -0.174, 0.985, 152.564, 226.65)" fill="none" stroke="#d6d6d6" stroke-width="1"/>
      <line id="Line_33" data-name="Line 33" y1="57.435" x2="11.298" transform="translate(141.547 66.927)" fill="none" stroke="#173f53" stroke-width="1"/>
      <line id="Line_36" data-name="Line 36" x1="29.559" y1="49.368" transform="translate(155.566 66.749)" fill="none" stroke="#173f53" stroke-width="1"/>
      <path id="Path_50" data-name="Path 50" d="M37.872,71.224l-2.779-5.8L0,0" transform="translate(154.023 67.341) rotate(20)" fill="none" stroke="#173f53" stroke-width="1"/>
      <line id="Line_34" data-name="Line 34" y1="57.435" x2="11.887" transform="translate(142.136 66.927)" fill="none" stroke="#173f53" stroke-width="1"/>
      <line id="Line_35" data-name="Line 35" x1="30.033" y1="48.289" transform="translate(155.091 69.006)" fill="none" stroke="#173f53" stroke-width="1"/>
      <path id="Path_51" data-name="Path 51" d="M37,69.236,0,0" transform="translate(153.473 69.854) rotate(20)" fill="none" stroke="#173f53" stroke-width="1"/>
      <g id="Group_46" data-name="Group 46" transform="translate(151.681 64.344)">
        <g id="Ellipse_17" data-name="Ellipse 17" transform="translate(0 0)" fill="#f5fffc" stroke="#173f53" stroke-width="1">
          <ellipse cx="1.946" cy="2.433" rx="1.946" ry="2.433" stroke="none"/>
          <ellipse cx="1.946" cy="2.433" rx="1.446" ry="1.933" fill="none"/>
        </g>
        <g id="Ellipse_18" data-name="Ellipse 18" transform="translate(1.946 0.973)" fill="#fff" stroke="#173f53" stroke-width="1">
          <ellipse cx="0.973" cy="1.946" rx="0.973" ry="1.946" stroke="none"/>
          <ellipse cx="0.973" cy="1.946" rx="0.473" ry="1.446" fill="none"/>
        </g>
      </g>
      <line id="Line_37" data-name="Line 37" x1="1.767" y1="24.144" transform="translate(153.325 42.507)" fill="none" stroke="#173f53" stroke-width="1"/>
      <line id="Line_38" data-name="Line 38" x1="0.589" y1="24.733" transform="translate(152.147 42.507)" fill="none" stroke="#173f53" stroke-width="1"/>
      <g id="Path_52" data-name="Path 52" transform="translate(70.704 5.064) rotate(17)" fill="url(#linear-gradient-16)">
        <path d="M 85.05836486816406 10.86226463317871 L 1.86626148223877 6.556938648223877 L 5.782204627990723 1.028248310089111 L 89.28891754150391 5.528647422790527 L 85.05836486816406 10.86226463317871 Z" stroke="none"/>
        <path d="M 6.279327392578125 2.056485176086426 L 3.732521057128906 5.652182579040527 L 84.59523773193359 9.83695125579834 L 87.30308532714844 6.423071384429932 L 6.279327392578125 2.056485176086426 M 5.285064697265625 -5.7220458984375e-06 L 91.27474212646484 4.634208202362061 L 85.52147674560547 11.88756847381592 L 0 7.461701393127441 L 5.285064697265625 -5.7220458984375e-06 Z" stroke="none" fill="#fff"/>
      </g>
      <g id="Path_53" data-name="Path 53" transform="translate(69.013 11.794) rotate(17)" fill="url(#linear-gradient-17)">
        <path d="M 86.75901794433594 9.132726669311523 L 2.988033056259155 4.11472749710083 L 0.9010576009750366 0.549529492855072 L 85.21712493896484 5.115950584411621 L 86.75901794433594 9.132726669311523 Z" stroke="none"/>
        <path d="M 1.802108764648438 1.099072456359863 L 3.284584045410156 3.631584167480469 L 86.01403045654297 8.587194442749023 L 84.86647796630859 5.597704410552979 L 1.802108764648438 1.099072456359863 M -7.62939453125e-06 2.86102294921875e-06 L 85.56777191162109 4.634214878082275 L 87.50398254394531 9.678238868713379 L 2.691474914550781 4.597850322723389 L -7.62939453125e-06 2.86102294921875e-06 Z" stroke="none" fill="#fff"/>
      </g>
      <g id="Path_54" data-name="Path 54" transform="matrix(0.819, -0.574, 0.574, 0.819, 146.953, 42.697)" fill="#0084c4">
        <path d="M 0.8841078281402588 4.232496738433838 L 2.897709369659424 0.5063073635101318 L 10.76986312866211 0.6717650294303894 L 9.266809463500977 3.45318865776062 L 0.8841078281402588 4.232496738433838 Z" stroke="none"/>
        <path d="M 3.192442893981934 1.012612819671631 L 1.76822566986084 3.64814019203186 L 8.954134941101074 2.980093479156494 L 9.940694808959961 1.154448270797729 L 3.192442893981934 1.012612819671631 M 2.602975845336914 1.9073486328125e-06 L 11.59903621673584 0.1890816688537598 L 9.579496383666992 3.926271677017212 L -3.814697265625e-06 4.816841602325439 L 2.602975845336914 1.9073486328125e-06 Z" stroke="none" fill="#fff"/>
      </g>
      <path id="Path_58" data-name="Path 58" d="M3161.574,1607.033a14.211,14.211,0,0,0,3.908,2.576,38.677,38.677,0,0,0,5.419,1.688" transform="translate(-3017.039 -1384.014)" fill="none" stroke="#fff" stroke-width="1"/>
    </g>
    <g id="Group_67" data-name="Group 67" transform="translate(212.956 96)">
      <g id="Path_60" data-name="Path 60" transform="translate(0 104.001)" fill="url(#linear-gradient-18)">
        <path d="M 18.30674934387207 158.0797119140625 C 18.63726997375488 152.9272918701172 19.23152542114258 142.5121612548828 19.57906532287598 129.5573883056641 C 20.03878021240234 112.4216384887695 20.14920806884766 87.19617462158203 18.0647087097168 64.33438873291016 C 15.97852993011475 41.45481872558594 11.69931507110596 20.26267623901367 8.476851463317871 6.513532638549805 C 5.841643333435059 -4.730098247528076 3.460332632064819 -12.97941875457764 2.436508178710938 -16.39450073242188 L 200.0426025390625 -101.3181457519531 C 201.2649841308594 -97.78292846679688 203.9448699951172 -89.79857635498047 207.0002136230469 -79.22728729248047 C 209.4427032470703 -70.77639770507813 211.6438446044922 -62.34971618652344 213.5424957275391 -54.18132400512695 C 215.9133148193359 -43.98153686523438 217.8161773681641 -34.15939712524414 219.1982116699219 -24.98778915405273 C 220.5798492431641 -15.81882476806641 221.5825653076172 -5.808503150939941 222.1785583496094 4.765104293823242 C 222.6558532714844 13.2327823638916 222.8747406005859 22.0770320892334 222.8291320800781 31.05217552185059 C 222.7660675048828 43.4615364074707 222.2081298828125 52.69762420654297 221.9964294433594 55.78326416015625 L 18.30674934387207 158.0797119140625 Z" stroke="none"/>
        <path d="M 198.8484802246094 -98.62808990478516 L 4.860992431640625 -15.25956726074219 C 6.050125122070313 -11.19581604003906 8.122055053710938 -3.76495361328125 10.42408752441406 6.057163238525391 C 13.66108703613281 19.86824035644531 17.95977783203125 41.15839385986328 20.056396484375 64.15277862548828 C 22.1497802734375 87.11162567138672 22.03947448730469 112.4215087890625 21.57832336425781 129.6110076904297 C 21.29585266113281 140.1399841308594 20.85050964355469 149.0004272460938 20.51527404785156 154.7324523925781 L 220.0758666992188 54.50971221923828 C 220.3203125 50.65386199951172 220.7750396728516 42.07806396484375 220.8295440673828 30.96047210693359 C 220.8733215332031 22.03612518310547 220.6543884277344 13.2436637878418 220.1788940429688 4.827278137207031 C 219.5860443115234 -5.665721893310547 218.5906982421875 -15.5966796875 217.2205047607422 -24.68975830078125 C 215.8472747802734 -33.80287170410156 213.9561614990234 -43.56537628173828 211.5996246337891 -53.70606994628906 C 209.7104339599609 -61.83563995361328 207.5199737548828 -70.22348785400391 205.0890502929688 -78.63652801513672 C 202.5316009521484 -87.48757171630859 200.2379913330078 -94.51897430419922 198.8484802246094 -98.62808990478516 M 201.2198944091797 -104.0009841918945 C 201.2198944091797 -104.0009841918945 215.0781707763672 -65.75202941894531 221.1758575439453 -25.28575897216797 C 227.2735443115234 15.18047332763672 223.9090423583984 57.06074142456055 223.9090423583984 57.06074142456055 L 16.07293701171875 161.4395904541016 C 16.07293701171875 161.4395904541016 20.09117126464844 108.585205078125 16.07293701171875 64.51601409912109 C 12.05470275878906 20.44681930541992 1.52587890625e-05 -17.52426147460938 1.52587890625e-05 -17.52426147460938 L 201.2198944091797 -104.0009841918945 Z" stroke="none" fill="#fff"/>
      </g>
      <g id="Group_51" data-name="Group 51" transform="translate(19.561 7.455)">
        <path id="Path_62" data-name="Path 62" d="M4233.524,1428.006s16.564,40.509,20.992,83.314-3.28,87.906-3.28,87.906" transform="translate(-4233.524 -1355.631)" fill="none" stroke="#fff" stroke-width="4"/>
        <path id="Path_63" data-name="Path 63" d="M4233.524,1428.006s16.564,40.509,20.992,83.314-3.28,87.906-3.28,87.906" transform="translate(-4204.422 -1368.104)" fill="none" stroke="#fff" stroke-width="4"/>
        <path id="Path_64" data-name="Path 64" d="M4233.524,1428.006s16.564,40.509,20.992,83.314-3.28,87.906-3.28,87.906" transform="translate(-4176.982 -1381.408)" fill="none" stroke="#fff" stroke-width="4"/>
        <path id="Path_65" data-name="Path 65" d="M4233.524,1428.005s16.564,39.73,20.992,81.712-3.28,86.216-3.28,86.216" transform="translate(-4147.88 -1393.484)" fill="none" stroke="#fff" stroke-width="4"/>
        <path id="Path_66" data-name="Path 66" d="M4233.524,1428.006s16.564,38.938,20.992,80.083-3.28,84.5-3.28,84.5" transform="translate(-4120.44 -1404.69)" fill="none" stroke="#fff" stroke-width="4"/>
        <path id="Path_67" data-name="Path 67" d="M4233.524,1428.006s16.564,38.864,20.992,79.932-3.28,84.337-3.28,84.337" transform="translate(-4091.338 -1417.994)" fill="none" stroke="#fff" stroke-width="4"/>
        <path id="Path_68" data-name="Path 68" d="M4233.524,1428.006s16.564,39.173,20.992,80.567-3.467,82.62-3.467,82.62" transform="translate(-4068.888 -1428.006)" fill="none" stroke="#fff" stroke-width="4"/>
      </g>
      <line id="Line_39" data-name="Line 39" y1="98.29" x2="203.392" transform="translate(19.95 135.757)" fill="none" stroke="#fff" stroke-width="4"/>
      <line id="Line_40" data-name="Line 40" y1="96.343" x2="202.418" transform="translate(19.95 108.508)" fill="none" stroke="#fff" stroke-width="4"/>
      <line id="Line_41" data-name="Line 41" y1="96.833" x2="201.572" transform="translate(17.877 77.367)" fill="none" stroke="#fff" stroke-width="4"/>
      <line id="Line_42" data-name="Line 42" y1="96.438" x2="200.69" transform="translate(15.084 51.969)" fill="none" stroke="#fff" stroke-width="4"/>
      <line id="Line_43" data-name="Line 43" y1="95.798" x2="199.877" transform="translate(9.245 25.362)" fill="none" stroke="#fff" stroke-width="4"/>
      <path id="Path_61" data-name="Path 61" d="M4260.349,1539.827l20.337-87.25,43.3,30.833,18.369-35.425,34.769,19.024,19.024-87.25,12.464,10.5,15.684-38.34" transform="translate(-4218.484 -1335.355)" fill="none" stroke="#27556c" stroke-width="9"/>
    </g>
  </g>
</svg>
