<?xml version="1.0" encoding="UTF-8"?>
<svg width="660" height="597.62" version="1.1" viewBox="0 0 660 597.62" xmlns="http://www.w3.org/2000/svg">
 <g fill="#2f2e41">
  <ellipse transform="rotate(-69.082)" cx="-294.61" cy="301.77" rx="26.855" ry="8.4312" stroke-width=".9999" data-name="Ellipse 33"/>
  <circle cx="127.05" cy="423.5" r="53.716" data-name="Ellipse 34"/>
  <rect x="102.57" y="465.65" width="16.319" height="29.238" data-name="Rectangle 13"/>
  <rect x="135.21" y="465.65" width="16.319" height="29.238" data-name="Rectangle 14"/>
  <ellipse cx="116.17" cy="495.23" rx="13.599" ry="5.1" data-name="Ellipse 35"/>
  <ellipse cx="148.81" cy="494.55" rx="13.599" ry="5.1" data-name="Ellipse 36"/>
 </g>
 <circle cx="128.41" cy="409.9" r="18.359" fill="#fff" data-name="Ellipse 37"/>
 <circle cx="128.41" cy="409.9" r="6.12" fill="#3f3d56" data-name="Ellipse 38"/>
 <path d="m74.941 373.54c-4.337-19.425 9.527-39.052 30.968-43.84s42.337 7.078 46.675 26.5-9.872 26.589-31.312 31.376-41.993 5.389-46.331-14.036z" fill="#78eba2" data-name="Path 42"/>
 <g transform="rotate(-69.307 365.86 1212.2)" data-name="Group 3">
  <path d="m1022.2 647.27a8.432 26.858 0 0 1-8.432 26.858 8.432 26.858 0 0 1-8.432-26.858 8.432 26.858 0 0 1 8.432-26.858 8.432 26.858 0 0 1 8.432 26.858z" fill="#2f2e41"/>
 </g>
 <path d="m100.66 442.88c0 5.257 13.537 15.639 28.558 15.639s29.1-14.8 29.1-20.058-14.084 1.02-29.1 1.02-28.558-1.86-28.558 3.399z" fill="#fff" data-name="Path 43"/>
 <path d="m536.7 240.44c-35.136-26.267-90.167-51.108-150.98-68.154-55.373-15.52-109.38-23.014-152.09-21.1l-0.222-4.967c43.216-1.935 97.786 5.621 153.65 21.28 61.383 17.2 117.01 42.339 152.62 68.959z" fill="#3f3d56" data-name="Path 27"/>
 <path d="m533.05 260.67a165.44 165.44 0 0 1-14.318 67.547q-1.186 2.67-2.471 5.29a166.07 166.07 0 0 1-315.3-72.837q0-5.764 0.393-11.439 0.186-2.886 0.482-5.737a166.06 166.06 0 0 1 331.22 17.176z" fill="#cfcfcf" data-name="Path 28"/>
 <path d="m518.74 328.21q-1.186 2.67-2.471 5.29-7.278 0.79-15.322 1.148c-4.44 0.2-9.008 0.3-13.676 0.3-40.776 0-89.849-7.527-139.98-21.576-55.869-15.66-106.41-37.564-142.33-61.681q-1.834-1.23-3.6-2.466 0.186-2.886 0.482-5.737 2.856 2.036 5.891 4.076c35.491 23.828 85.529 45.5 140.9 61.02 49.695 13.93 98.306 21.392 138.61 21.392q6.913 0 13.478-0.293 9.555-0.434 18.012-1.473z" opacity=".1" data-name="Path 29"/>
 <path d="m487.27 330.97c-40.774 0-89.851-7.527-139.98-21.577-55.868-15.659-106.42-37.564-142.33-61.68-36.664-24.619-53.856-48.878-48.41-68.307s32.742-31.219 76.86-33.2l0.222 4.967c-20.6 0.923-37.393 3.985-49.9 9.1-12.481 5.1-20.014 11.991-22.391 20.47s0.48 18.278 8.49 29.125c8.03 10.873 20.783 22.216 37.9 33.713 35.487 23.829 85.526 45.5 140.9 61.02 49.7 13.929 98.3 21.393 138.61 21.394q6.909 0 13.475-0.294c20.6-0.923 37.393-3.985 49.9-9.1 12.481-5.1 20.014-11.99 22.391-20.469 4.267-15.225-8.629-35.008-36.312-55.7l2.977-3.982c14.246 10.65 24.791 21.148 31.343 31.2 7.024 10.778 9.3 20.814 6.779 29.826-5.446 19.429-32.742 31.218-76.86 33.2-4.434 0.196-9 0.294-13.667 0.294z" fill="#3f3d56" data-name="Path 30"/>
 <circle cx="371.4" cy="62.772" r="1.903" fill="#f2f2f2" data-name="Ellipse 6"/>
 <g fill="#555">
  <circle cx="118.97" cy="143.97" r="3.273" data-name="Ellipse 7"/>
  <circle cx="111.99" cy="272.08" r="6.466" data-name="Ellipse 8"/>
  <circle cx="500.15" cy="74.188" r="4.31" data-name="Ellipse 9"/>
  <circle cx="653" cy="253.06" r="6.997" data-name="Ellipse 10"/>
  <circle cx="598.29" cy="141.3" r="3.002" data-name="Ellipse 11"/>
  <circle cx="233.77" cy="102.73" r="4.683" data-name="Ellipse 12"/>
  <circle cx="587.78" cy="238.87" r="3.002" data-name="Ellipse 13"/>
  <circle cx="3.737" cy="249.91" r="3.737" data-name="Ellipse 14"/>
  <circle cx="60.503" cy="188.42" r="4.047" data-name="Ellipse 15"/>
  <path d="m320.32 7.985h-7.985v-7.985h-4.284v7.985h-7.989v4.288h7.989v7.985h4.284v-7.985h7.985z" data-name="Path 31"/>
 </g>
 <path d="m505.56 440.07h-5.015v-5.013h-2.689v5.013h-5.014v2.69h5.014v5.014h2.689v-5.014h5.015z" fill="#ccc" data-name="Path 32"/>
 <g fill="#555">
  <path d="m621.29 414.41h-3.748v-3.748h-2.013v3.748h-3.747v2.013h3.748v3.748h2.013v-3.748h3.748z" data-name="Path 33"/>
  <circle cx="262.31" cy="232.76" r="13.953" data-name="Ellipse 16"/>
  <circle cx="416.43" cy="372.93" r="13.953" data-name="Ellipse 17"/>
  <circle cx="369.5" cy="254.32" r="13.953" data-name="Ellipse 18"/>
  <circle cx="269.29" cy="331.07" r="13.953" data-name="Ellipse 19"/>
  <circle cx="444.34" cy="179.48" r="13.953" data-name="Ellipse 20"/>
  <circle cx="490.64" cy="273.99" r="13.953" data-name="Ellipse 21"/>
 </g>
 <circle cx="444.34" cy="121.13" r="18.393" fill="#fff" data-name="Ellipse 22"/>
 <path d="m444.34 94.496a26 26 0 0 0-26 26c0 14.362 26 61.522 26 61.522s26-47.16 26-61.522a26 26 0 0 0-26-26zm0 38.689a12.051 12.051 0 1 1 12.051-12.051 12.051 12.051 0 0 1-12.051 12.051z" fill="#7accf6" data-name="Path 34"/>
 <circle cx="262.24" cy="171.02" r="18.393" fill="#fff" data-name="Ellipse 23"/>
 <path d="m262.24 144.39a26 26 0 0 0-26 26c0 14.362 26 61.522 26 61.522s26-47.16 26-61.522a26 26 0 0 0-26-26zm0 38.689a12.051 12.051 0 1 1 12.051-12.051 12.051 12.051 0 0 1-12.051 12.051z" fill="#d387e2" data-name="Path 35"/>
 <circle cx="492.98" cy="213.43" r="18.393" fill="#fff" data-name="Ellipse 24"/>
 <path d="m492.98 186.79a26 26 0 0 0-26 26c0 14.362 26 61.522 26 61.522s26-47.16 26-61.522a26 26 0 0 0-26-26zm0 38.689a12.051 12.051 0 1 1 12.051-12.051 12.051 12.051 0 0 1-12.051 12.051z" fill="#97efab" data-name="Path 36"/>
 <circle cx="181.17" cy="305.73" r="18.393" fill="#fff" data-name="Ellipse 25"/>
 <path d="m181.16 279.09a26 26 0 0 0-26 26c0 14.362 26 61.522 26 61.522s26-47.16 26-61.522a26 26 0 0 0-26-26zm0 38.689a12.051 12.051 0 1 1 12.051-12.051 12.051 12.051 0 0 1-12.051 12.051z" fill="#feed99" data-name="Path 37"/>
 <g fill="#2f2e41">
  <ellipse transform="rotate(-39.938)" cx="172.44" cy="708.89" rx="8.432" ry="26.858" data-name="Ellipse 26"/>
  <circle cx="530.16" cy="423.5" r="53.716" data-name="Ellipse 27"/>
  <rect x="536.58" y="465.65" width="16.319" height="29.238" data-name="Rectangle 11"/>
  <rect x="503.94" y="465.65" width="16.319" height="29.238" data-name="Rectangle 12"/>
  <ellipse cx="539.3" cy="495.23" rx="13.599" ry="5.1" data-name="Ellipse 28"/>
  <ellipse cx="506.66" cy="494.55" rx="13.599" ry="5.1" data-name="Ellipse 29"/>
 </g>
 <path d="m513.29 355.98c4.8-19.316 25.969-30.684 47.289-25.389s34.717 25.245 29.92 44.561-20.71 19.379-42.03 14.085-39.975-13.941-35.179-33.257z" fill="#ec7d71" data-name="Path 38"/>
 <ellipse transform="rotate(-64.626)" cx="-158.86" cy="595.15" rx="8.432" ry="26.858" fill="#2f2e41" data-name="Ellipse 30"/>
 <circle cx="522.13" cy="412.16" r="17.909" fill="#fff" data-name="Ellipse 31"/>
 <circle cx="514.77" cy="405.74" r="5.97" fill="#3f3d56" data-name="Ellipse 32"/>
 <path d="m533.36 449.47a11.94 11.94 0 1 1-23.493 4.277v-0.023c-1.175-6.488 3.842-8.785 10.33-9.959s11.988-0.783 13.163 5.705z" fill="#fff" data-name="Path 39"/>
 <path d="m419.53 309.38a37.291 37.291 0 1 0 2.114 55.072l45.741 38.6a3.4361 3.4361 0 1 0 4.437-5.248l-45.742-38.6a37.293 37.293 0 0 0-6.55-49.824zm-2.944 46.103a27.938 27.938 0 1 1-3.335-39.37 27.938 27.938 0 0 1 3.334 39.369z" fill="#3f3d56" data-name="Path 40"/>
 <path d="m377.21 358.82a27.94 27.94 0 0 1-4.741-37.56q-0.8 0.807-1.549 1.69a27.938 27.938 0 1 0 42.705 36.034q0.746-0.884 1.406-1.811a27.94 27.94 0 0 1-37.821 1.647z" opacity=".3" data-name="Path 41"/>
 <g fill="#2f2e41">
  <circle cx="301.31" cy="520.78" r="53.716" data-name="Ellipse 40"/>
  <rect x="276.84" y="562.94" width="16.319" height="29.238" data-name="Rectangle 15"/>
  <rect x="309.47" y="562.94" width="16.319" height="29.238" data-name="Rectangle 16"/>
  <ellipse cx="290.44" cy="592.52" rx="13.599" ry="5.1" data-name="Ellipse 41"/>
  <ellipse cx="323.07" cy="591.84" rx="13.599" ry="5.1" data-name="Ellipse 42"/>
 </g>
 <path d="m249.21 470.83c-4.337-19.424 9.527-39.052 30.968-43.84s42.337 7.078 46.675 26.5-9.872 26.589-31.312 31.376-41.992 5.389-46.331-14.036z" fill="#3f3d56" data-name="Path 44"/>
 <path d="m301.53 511.48s3.9-17.145-3.507-16.366-17.535 1.169-20.262 1.169-18.314-1.948-20.652 8.183-5.455 22.6 1.169 30.393c0 0 2.338 34.29 11.3 36.628s32.731 5.066 41.3-6.234a29.061 29.061 0 0 0 5.065-23.769h-3.9z" fill="#858cf6" data-name="Path 45"/>
 <path d="m262.17 537.58s6.624 3.117 20.262 1.169v5.845l-20.262-1.558z" opacity=".1" data-name="Path 46"/>
 <path d="m311.68 557.12-4.411-2.331 19.619-37.126a9.269 9.269 0 0 0-7.946-13.6l-20.589-0.554 0.134-4.988 20.589 0.554a14.258 14.258 0 0 1 12.222 20.915z" fill="#858cf6" data-name="Path 47"/>
 <path d="m264.26 557.12-19.62-37.126a14.258 14.258 0 0 1 12.222-20.914l20.59-0.554 0.134 4.988-20.589 0.554a9.268 9.268 0 0 0-7.945 13.6l19.619 37.125z" fill="#858cf6" data-name="Path 48"/>
 <ellipse transform="rotate(-62.122)" cx="-299.43" cy="547.38" rx="9.355" ry="29.8" fill="#2f2e41" data-name="Ellipse 43"/>
</svg>
